%TF.GenerationSoftware,KiCad,Pcbnew,9.0.1*%
%TF.CreationDate,2025-05-05T17:36:47+02:00*%
%TF.ProjectId,Geocachingbox,47656f63-6163-4686-996e-67626f782e6b,rev?*%
%TF.SameCoordinates,Original*%
%TF.FileFunction,Drillmap*%
%TF.FilePolarity,Positive*%
%FSLAX45Y45*%
G04 Gerber Fmt 4.5, Leading zero omitted, Abs format (unit mm)*
G04 Created by KiCad (PCBNEW 9.0.1) date 2025-05-05 17:36:47*
%MOMM*%
%LPD*%
G01*
G04 APERTURE LIST*
%ADD10C,0.050000*%
%ADD11C,0.200000*%
%ADD12C,0.100000*%
%ADD13C,0.110000*%
%ADD14C,0.132000*%
G04 APERTURE END LIST*
D10*
X21350000Y-11960500D02*
X21350000Y-6497000D01*
X8740900Y-11960500D02*
X21350000Y-11960500D01*
X8740999Y-6497000D02*
X21350000Y-6497000D01*
X8740900Y-11960500D02*
X8740999Y-6497000D01*
D11*
D12*
X9335000Y-10345000D02*
X9365000Y-10375000D01*
X9365000Y-10345000D02*
X9335000Y-10375000D01*
X10144000Y-9725000D02*
X10174000Y-9755000D01*
X10174000Y-9725000D02*
X10144000Y-9755000D01*
X12225000Y-10365000D02*
X12255000Y-10395000D01*
X12255000Y-10365000D02*
X12225000Y-10395000D01*
X14675000Y-8085000D02*
X14705000Y-8115000D01*
X14705000Y-8085000D02*
X14675000Y-8115000D01*
X17560000Y-7285000D02*
X17590000Y-7315000D01*
X17590000Y-7285000D02*
X17560000Y-7315000D01*
X17560000Y-7535000D02*
X17590000Y-7565000D01*
X17590000Y-7535000D02*
X17560000Y-7565000D01*
X18821000Y-9815000D02*
X18851000Y-9845000D01*
X18851000Y-9815000D02*
X18821000Y-9845000D01*
X18821000Y-10025000D02*
X18851000Y-10055000D01*
X18851000Y-10025000D02*
X18821000Y-10055000D01*
X18822000Y-8497000D02*
X18852000Y-8527000D01*
X18852000Y-8497000D02*
X18822000Y-8527000D01*
X18822000Y-8697000D02*
X18852000Y-8727000D01*
X18852000Y-8697000D02*
X18822000Y-8727000D01*
X19953000Y-8495000D02*
X19983000Y-8525000D01*
X19983000Y-8495000D02*
X19953000Y-8525000D01*
X19953000Y-8703000D02*
X19983000Y-8733000D01*
X19983000Y-8703000D02*
X19953000Y-8733000D01*
X19955000Y-9815000D02*
X19985000Y-9845000D01*
X19985000Y-9815000D02*
X19955000Y-9845000D01*
X19955000Y-10025000D02*
X19985000Y-10055000D01*
X19985000Y-10025000D02*
X19955000Y-10055000D01*
X19975000Y-7075000D02*
X20005000Y-7105000D01*
X20005000Y-7075000D02*
X19975000Y-7105000D01*
X19975000Y-7345000D02*
X20005000Y-7375000D01*
X20005000Y-7345000D02*
X19975000Y-7375000D01*
X12559600Y-6814500D02*
G75*
G02*
X12459600Y-6814500I-50000J0D01*
G01*
X12459600Y-6814500D02*
G75*
G02*
X12559600Y-6814500I50000J0D01*
G01*
X12559600Y-7068500D02*
G75*
G02*
X12459600Y-7068500I-50000J0D01*
G01*
X12459600Y-7068500D02*
G75*
G02*
X12559600Y-7068500I50000J0D01*
G01*
X12813600Y-6814500D02*
G75*
G02*
X12713600Y-6814500I-50000J0D01*
G01*
X12713600Y-6814500D02*
G75*
G02*
X12813600Y-6814500I50000J0D01*
G01*
X12813600Y-7068500D02*
G75*
G02*
X12713600Y-7068500I-50000J0D01*
G01*
X12713600Y-7068500D02*
G75*
G02*
X12813600Y-7068500I50000J0D01*
G01*
X13067600Y-6814500D02*
G75*
G02*
X12967600Y-6814500I-50000J0D01*
G01*
X12967600Y-6814500D02*
G75*
G02*
X13067600Y-6814500I50000J0D01*
G01*
X13067600Y-7068500D02*
G75*
G02*
X12967600Y-7068500I-50000J0D01*
G01*
X12967600Y-7068500D02*
G75*
G02*
X13067600Y-7068500I50000J0D01*
G01*
X13321600Y-6814500D02*
G75*
G02*
X13221600Y-6814500I-50000J0D01*
G01*
X13221600Y-6814500D02*
G75*
G02*
X13321600Y-6814500I50000J0D01*
G01*
X13321600Y-7068500D02*
G75*
G02*
X13221600Y-7068500I-50000J0D01*
G01*
X13221600Y-7068500D02*
G75*
G02*
X13321600Y-7068500I50000J0D01*
G01*
X13473900Y-11389000D02*
G75*
G02*
X13373900Y-11389000I-50000J0D01*
G01*
X13373900Y-11389000D02*
G75*
G02*
X13473900Y-11389000I50000J0D01*
G01*
X13473900Y-11643000D02*
G75*
G02*
X13373900Y-11643000I-50000J0D01*
G01*
X13373900Y-11643000D02*
G75*
G02*
X13473900Y-11643000I50000J0D01*
G01*
X13476000Y-11000000D02*
G75*
G02*
X13376000Y-11000000I-50000J0D01*
G01*
X13376000Y-11000000D02*
G75*
G02*
X13476000Y-11000000I50000J0D01*
G01*
X13550000Y-7980000D02*
G75*
G02*
X13450000Y-7980000I-50000J0D01*
G01*
X13450000Y-7980000D02*
G75*
G02*
X13550000Y-7980000I50000J0D01*
G01*
X13550000Y-8234000D02*
G75*
G02*
X13450000Y-8234000I-50000J0D01*
G01*
X13450000Y-8234000D02*
G75*
G02*
X13550000Y-8234000I50000J0D01*
G01*
X13550000Y-8488000D02*
G75*
G02*
X13450000Y-8488000I-50000J0D01*
G01*
X13450000Y-8488000D02*
G75*
G02*
X13550000Y-8488000I50000J0D01*
G01*
X13550000Y-8742000D02*
G75*
G02*
X13450000Y-8742000I-50000J0D01*
G01*
X13450000Y-8742000D02*
G75*
G02*
X13550000Y-8742000I50000J0D01*
G01*
X13575600Y-6814500D02*
G75*
G02*
X13475600Y-6814500I-50000J0D01*
G01*
X13475600Y-6814500D02*
G75*
G02*
X13575600Y-6814500I50000J0D01*
G01*
X13575600Y-7068500D02*
G75*
G02*
X13475600Y-7068500I-50000J0D01*
G01*
X13475600Y-7068500D02*
G75*
G02*
X13575600Y-7068500I50000J0D01*
G01*
X13727900Y-11389000D02*
G75*
G02*
X13627900Y-11389000I-50000J0D01*
G01*
X13627900Y-11389000D02*
G75*
G02*
X13727900Y-11389000I50000J0D01*
G01*
X13727900Y-11643000D02*
G75*
G02*
X13627900Y-11643000I-50000J0D01*
G01*
X13627900Y-11643000D02*
G75*
G02*
X13727900Y-11643000I50000J0D01*
G01*
X13730000Y-11000000D02*
G75*
G02*
X13630000Y-11000000I-50000J0D01*
G01*
X13630000Y-11000000D02*
G75*
G02*
X13730000Y-11000000I50000J0D01*
G01*
X13829600Y-6814500D02*
G75*
G02*
X13729600Y-6814500I-50000J0D01*
G01*
X13729600Y-6814500D02*
G75*
G02*
X13829600Y-6814500I50000J0D01*
G01*
X13829600Y-7068500D02*
G75*
G02*
X13729600Y-7068500I-50000J0D01*
G01*
X13729600Y-7068500D02*
G75*
G02*
X13829600Y-7068500I50000J0D01*
G01*
X13930000Y-7976000D02*
G75*
G02*
X13830000Y-7976000I-50000J0D01*
G01*
X13830000Y-7976000D02*
G75*
G02*
X13930000Y-7976000I50000J0D01*
G01*
X13930000Y-8230000D02*
G75*
G02*
X13830000Y-8230000I-50000J0D01*
G01*
X13830000Y-8230000D02*
G75*
G02*
X13930000Y-8230000I50000J0D01*
G01*
X13930000Y-8484000D02*
G75*
G02*
X13830000Y-8484000I-50000J0D01*
G01*
X13830000Y-8484000D02*
G75*
G02*
X13930000Y-8484000I50000J0D01*
G01*
X13930000Y-8738000D02*
G75*
G02*
X13830000Y-8738000I-50000J0D01*
G01*
X13830000Y-8738000D02*
G75*
G02*
X13930000Y-8738000I50000J0D01*
G01*
X13930000Y-8992000D02*
G75*
G02*
X13830000Y-8992000I-50000J0D01*
G01*
X13830000Y-8992000D02*
G75*
G02*
X13930000Y-8992000I50000J0D01*
G01*
X13930000Y-9246000D02*
G75*
G02*
X13830000Y-9246000I-50000J0D01*
G01*
X13830000Y-9246000D02*
G75*
G02*
X13930000Y-9246000I50000J0D01*
G01*
X13930000Y-9500000D02*
G75*
G02*
X13830000Y-9500000I-50000J0D01*
G01*
X13830000Y-9500000D02*
G75*
G02*
X13930000Y-9500000I50000J0D01*
G01*
X13981900Y-11389000D02*
G75*
G02*
X13881900Y-11389000I-50000J0D01*
G01*
X13881900Y-11389000D02*
G75*
G02*
X13981900Y-11389000I50000J0D01*
G01*
X13981900Y-11643000D02*
G75*
G02*
X13881900Y-11643000I-50000J0D01*
G01*
X13881900Y-11643000D02*
G75*
G02*
X13981900Y-11643000I50000J0D01*
G01*
X13984000Y-11000000D02*
G75*
G02*
X13884000Y-11000000I-50000J0D01*
G01*
X13884000Y-11000000D02*
G75*
G02*
X13984000Y-11000000I50000J0D01*
G01*
X14083600Y-6814500D02*
G75*
G02*
X13983600Y-6814500I-50000J0D01*
G01*
X13983600Y-6814500D02*
G75*
G02*
X14083600Y-6814500I50000J0D01*
G01*
X14083600Y-7068500D02*
G75*
G02*
X13983600Y-7068500I-50000J0D01*
G01*
X13983600Y-7068500D02*
G75*
G02*
X14083600Y-7068500I50000J0D01*
G01*
X14235900Y-11389000D02*
G75*
G02*
X14135900Y-11389000I-50000J0D01*
G01*
X14135900Y-11389000D02*
G75*
G02*
X14235900Y-11389000I50000J0D01*
G01*
X14235900Y-11643000D02*
G75*
G02*
X14135900Y-11643000I-50000J0D01*
G01*
X14135900Y-11643000D02*
G75*
G02*
X14235900Y-11643000I50000J0D01*
G01*
X14330000Y-7980000D02*
G75*
G02*
X14230000Y-7980000I-50000J0D01*
G01*
X14230000Y-7980000D02*
G75*
G02*
X14330000Y-7980000I50000J0D01*
G01*
X14330000Y-8234000D02*
G75*
G02*
X14230000Y-8234000I-50000J0D01*
G01*
X14230000Y-8234000D02*
G75*
G02*
X14330000Y-8234000I50000J0D01*
G01*
X14330000Y-8488000D02*
G75*
G02*
X14230000Y-8488000I-50000J0D01*
G01*
X14230000Y-8488000D02*
G75*
G02*
X14330000Y-8488000I50000J0D01*
G01*
X14330000Y-8742000D02*
G75*
G02*
X14230000Y-8742000I-50000J0D01*
G01*
X14230000Y-8742000D02*
G75*
G02*
X14330000Y-8742000I50000J0D01*
G01*
X14337600Y-6814500D02*
G75*
G02*
X14237600Y-6814500I-50000J0D01*
G01*
X14237600Y-6814500D02*
G75*
G02*
X14337600Y-6814500I50000J0D01*
G01*
X14337600Y-7068500D02*
G75*
G02*
X14237600Y-7068500I-50000J0D01*
G01*
X14237600Y-7068500D02*
G75*
G02*
X14337600Y-7068500I50000J0D01*
G01*
X14489900Y-11389000D02*
G75*
G02*
X14389900Y-11389000I-50000J0D01*
G01*
X14389900Y-11389000D02*
G75*
G02*
X14489900Y-11389000I50000J0D01*
G01*
X14489900Y-11643000D02*
G75*
G02*
X14389900Y-11643000I-50000J0D01*
G01*
X14389900Y-11643000D02*
G75*
G02*
X14489900Y-11643000I50000J0D01*
G01*
X14591600Y-6814500D02*
G75*
G02*
X14491600Y-6814500I-50000J0D01*
G01*
X14491600Y-6814500D02*
G75*
G02*
X14591600Y-6814500I50000J0D01*
G01*
X14591600Y-7068500D02*
G75*
G02*
X14491600Y-7068500I-50000J0D01*
G01*
X14491600Y-7068500D02*
G75*
G02*
X14591600Y-7068500I50000J0D01*
G01*
X14743900Y-11389000D02*
G75*
G02*
X14643900Y-11389000I-50000J0D01*
G01*
X14643900Y-11389000D02*
G75*
G02*
X14743900Y-11389000I50000J0D01*
G01*
X14743900Y-11643000D02*
G75*
G02*
X14643900Y-11643000I-50000J0D01*
G01*
X14643900Y-11643000D02*
G75*
G02*
X14743900Y-11643000I50000J0D01*
G01*
X14845600Y-6814500D02*
G75*
G02*
X14745600Y-6814500I-50000J0D01*
G01*
X14745600Y-6814500D02*
G75*
G02*
X14845600Y-6814500I50000J0D01*
G01*
X14845600Y-7068500D02*
G75*
G02*
X14745600Y-7068500I-50000J0D01*
G01*
X14745600Y-7068500D02*
G75*
G02*
X14845600Y-7068500I50000J0D01*
G01*
X14997900Y-11389000D02*
G75*
G02*
X14897900Y-11389000I-50000J0D01*
G01*
X14897900Y-11389000D02*
G75*
G02*
X14997900Y-11389000I50000J0D01*
G01*
X14997900Y-11643000D02*
G75*
G02*
X14897900Y-11643000I-50000J0D01*
G01*
X14897900Y-11643000D02*
G75*
G02*
X14997900Y-11643000I50000J0D01*
G01*
X15188000Y-8023500D02*
G75*
G02*
X15088000Y-8023500I-50000J0D01*
G01*
X15088000Y-8023500D02*
G75*
G02*
X15188000Y-8023500I50000J0D01*
G01*
X15188000Y-10309500D02*
G75*
G02*
X15088000Y-10309500I-50000J0D01*
G01*
X15088000Y-10309500D02*
G75*
G02*
X15188000Y-10309500I50000J0D01*
G01*
X15251900Y-11389000D02*
G75*
G02*
X15151900Y-11389000I-50000J0D01*
G01*
X15151900Y-11389000D02*
G75*
G02*
X15251900Y-11389000I50000J0D01*
G01*
X15251900Y-11643000D02*
G75*
G02*
X15151900Y-11643000I-50000J0D01*
G01*
X15151900Y-11643000D02*
G75*
G02*
X15251900Y-11643000I50000J0D01*
G01*
X15252000Y-6814500D02*
G75*
G02*
X15152000Y-6814500I-50000J0D01*
G01*
X15152000Y-6814500D02*
G75*
G02*
X15252000Y-6814500I50000J0D01*
G01*
X15252000Y-7068500D02*
G75*
G02*
X15152000Y-7068500I-50000J0D01*
G01*
X15152000Y-7068500D02*
G75*
G02*
X15252000Y-7068500I50000J0D01*
G01*
X15442000Y-8023500D02*
G75*
G02*
X15342000Y-8023500I-50000J0D01*
G01*
X15342000Y-8023500D02*
G75*
G02*
X15442000Y-8023500I50000J0D01*
G01*
X15442000Y-10309500D02*
G75*
G02*
X15342000Y-10309500I-50000J0D01*
G01*
X15342000Y-10309500D02*
G75*
G02*
X15442000Y-10309500I50000J0D01*
G01*
X15506000Y-6814500D02*
G75*
G02*
X15406000Y-6814500I-50000J0D01*
G01*
X15406000Y-6814500D02*
G75*
G02*
X15506000Y-6814500I50000J0D01*
G01*
X15506000Y-7068500D02*
G75*
G02*
X15406000Y-7068500I-50000J0D01*
G01*
X15406000Y-7068500D02*
G75*
G02*
X15506000Y-7068500I50000J0D01*
G01*
X15692000Y-9623500D02*
G75*
G02*
X15592000Y-9623500I-50000J0D01*
G01*
X15592000Y-9623500D02*
G75*
G02*
X15692000Y-9623500I50000J0D01*
G01*
X15696000Y-8023500D02*
G75*
G02*
X15596000Y-8023500I-50000J0D01*
G01*
X15596000Y-8023500D02*
G75*
G02*
X15696000Y-8023500I50000J0D01*
G01*
X15696000Y-10309500D02*
G75*
G02*
X15596000Y-10309500I-50000J0D01*
G01*
X15596000Y-10309500D02*
G75*
G02*
X15696000Y-10309500I50000J0D01*
G01*
X15760000Y-6814500D02*
G75*
G02*
X15660000Y-6814500I-50000J0D01*
G01*
X15660000Y-6814500D02*
G75*
G02*
X15760000Y-6814500I50000J0D01*
G01*
X15760000Y-7068500D02*
G75*
G02*
X15660000Y-7068500I-50000J0D01*
G01*
X15660000Y-7068500D02*
G75*
G02*
X15760000Y-7068500I50000J0D01*
G01*
X15760000Y-11389000D02*
G75*
G02*
X15660000Y-11389000I-50000J0D01*
G01*
X15660000Y-11389000D02*
G75*
G02*
X15760000Y-11389000I50000J0D01*
G01*
X15760000Y-11643000D02*
G75*
G02*
X15660000Y-11643000I-50000J0D01*
G01*
X15660000Y-11643000D02*
G75*
G02*
X15760000Y-11643000I50000J0D01*
G01*
X15784000Y-10973500D02*
G75*
G02*
X15684000Y-10973500I-50000J0D01*
G01*
X15684000Y-10973500D02*
G75*
G02*
X15784000Y-10973500I50000J0D01*
G01*
X15938000Y-8423500D02*
G75*
G02*
X15838000Y-8423500I-50000J0D01*
G01*
X15838000Y-8423500D02*
G75*
G02*
X15938000Y-8423500I50000J0D01*
G01*
X15946000Y-9623500D02*
G75*
G02*
X15846000Y-9623500I-50000J0D01*
G01*
X15846000Y-9623500D02*
G75*
G02*
X15946000Y-9623500I50000J0D01*
G01*
X15950000Y-8023500D02*
G75*
G02*
X15850000Y-8023500I-50000J0D01*
G01*
X15850000Y-8023500D02*
G75*
G02*
X15950000Y-8023500I50000J0D01*
G01*
X15950000Y-10309500D02*
G75*
G02*
X15850000Y-10309500I-50000J0D01*
G01*
X15850000Y-10309500D02*
G75*
G02*
X15950000Y-10309500I50000J0D01*
G01*
X16014000Y-6814500D02*
G75*
G02*
X15914000Y-6814500I-50000J0D01*
G01*
X15914000Y-6814500D02*
G75*
G02*
X16014000Y-6814500I50000J0D01*
G01*
X16014000Y-7068500D02*
G75*
G02*
X15914000Y-7068500I-50000J0D01*
G01*
X15914000Y-7068500D02*
G75*
G02*
X16014000Y-7068500I50000J0D01*
G01*
X16014000Y-11389000D02*
G75*
G02*
X15914000Y-11389000I-50000J0D01*
G01*
X15914000Y-11389000D02*
G75*
G02*
X16014000Y-11389000I50000J0D01*
G01*
X16014000Y-11643000D02*
G75*
G02*
X15914000Y-11643000I-50000J0D01*
G01*
X15914000Y-11643000D02*
G75*
G02*
X16014000Y-11643000I50000J0D01*
G01*
X16038000Y-10973500D02*
G75*
G02*
X15938000Y-10973500I-50000J0D01*
G01*
X15938000Y-10973500D02*
G75*
G02*
X16038000Y-10973500I50000J0D01*
G01*
X16192000Y-8423500D02*
G75*
G02*
X16092000Y-8423500I-50000J0D01*
G01*
X16092000Y-8423500D02*
G75*
G02*
X16192000Y-8423500I50000J0D01*
G01*
X16200000Y-9623500D02*
G75*
G02*
X16100000Y-9623500I-50000J0D01*
G01*
X16100000Y-9623500D02*
G75*
G02*
X16200000Y-9623500I50000J0D01*
G01*
X16204000Y-8023500D02*
G75*
G02*
X16104000Y-8023500I-50000J0D01*
G01*
X16104000Y-8023500D02*
G75*
G02*
X16204000Y-8023500I50000J0D01*
G01*
X16204000Y-10309500D02*
G75*
G02*
X16104000Y-10309500I-50000J0D01*
G01*
X16104000Y-10309500D02*
G75*
G02*
X16204000Y-10309500I50000J0D01*
G01*
X16268000Y-6814500D02*
G75*
G02*
X16168000Y-6814500I-50000J0D01*
G01*
X16168000Y-6814500D02*
G75*
G02*
X16268000Y-6814500I50000J0D01*
G01*
X16268000Y-7068500D02*
G75*
G02*
X16168000Y-7068500I-50000J0D01*
G01*
X16168000Y-7068500D02*
G75*
G02*
X16268000Y-7068500I50000J0D01*
G01*
X16268000Y-11389000D02*
G75*
G02*
X16168000Y-11389000I-50000J0D01*
G01*
X16168000Y-11389000D02*
G75*
G02*
X16268000Y-11389000I50000J0D01*
G01*
X16268000Y-11643000D02*
G75*
G02*
X16168000Y-11643000I-50000J0D01*
G01*
X16168000Y-11643000D02*
G75*
G02*
X16268000Y-11643000I50000J0D01*
G01*
X16292000Y-10973500D02*
G75*
G02*
X16192000Y-10973500I-50000J0D01*
G01*
X16192000Y-10973500D02*
G75*
G02*
X16292000Y-10973500I50000J0D01*
G01*
X16446000Y-8423500D02*
G75*
G02*
X16346000Y-8423500I-50000J0D01*
G01*
X16346000Y-8423500D02*
G75*
G02*
X16446000Y-8423500I50000J0D01*
G01*
X16454000Y-9623500D02*
G75*
G02*
X16354000Y-9623500I-50000J0D01*
G01*
X16354000Y-9623500D02*
G75*
G02*
X16454000Y-9623500I50000J0D01*
G01*
X16458000Y-8023500D02*
G75*
G02*
X16358000Y-8023500I-50000J0D01*
G01*
X16358000Y-8023500D02*
G75*
G02*
X16458000Y-8023500I50000J0D01*
G01*
X16458000Y-10309500D02*
G75*
G02*
X16358000Y-10309500I-50000J0D01*
G01*
X16358000Y-10309500D02*
G75*
G02*
X16458000Y-10309500I50000J0D01*
G01*
X16522000Y-6814500D02*
G75*
G02*
X16422000Y-6814500I-50000J0D01*
G01*
X16422000Y-6814500D02*
G75*
G02*
X16522000Y-6814500I50000J0D01*
G01*
X16522000Y-7068500D02*
G75*
G02*
X16422000Y-7068500I-50000J0D01*
G01*
X16422000Y-7068500D02*
G75*
G02*
X16522000Y-7068500I50000J0D01*
G01*
X16522000Y-11389000D02*
G75*
G02*
X16422000Y-11389000I-50000J0D01*
G01*
X16422000Y-11389000D02*
G75*
G02*
X16522000Y-11389000I50000J0D01*
G01*
X16522000Y-11643000D02*
G75*
G02*
X16422000Y-11643000I-50000J0D01*
G01*
X16422000Y-11643000D02*
G75*
G02*
X16522000Y-11643000I50000J0D01*
G01*
X16546000Y-10973500D02*
G75*
G02*
X16446000Y-10973500I-50000J0D01*
G01*
X16446000Y-10973500D02*
G75*
G02*
X16546000Y-10973500I50000J0D01*
G01*
X16700000Y-8423500D02*
G75*
G02*
X16600000Y-8423500I-50000J0D01*
G01*
X16600000Y-8423500D02*
G75*
G02*
X16700000Y-8423500I50000J0D01*
G01*
X16708000Y-9623500D02*
G75*
G02*
X16608000Y-9623500I-50000J0D01*
G01*
X16608000Y-9623500D02*
G75*
G02*
X16708000Y-9623500I50000J0D01*
G01*
X16712000Y-8023500D02*
G75*
G02*
X16612000Y-8023500I-50000J0D01*
G01*
X16612000Y-8023500D02*
G75*
G02*
X16712000Y-8023500I50000J0D01*
G01*
X16712000Y-10309500D02*
G75*
G02*
X16612000Y-10309500I-50000J0D01*
G01*
X16612000Y-10309500D02*
G75*
G02*
X16712000Y-10309500I50000J0D01*
G01*
X16776000Y-6814500D02*
G75*
G02*
X16676000Y-6814500I-50000J0D01*
G01*
X16676000Y-6814500D02*
G75*
G02*
X16776000Y-6814500I50000J0D01*
G01*
X16776000Y-7068500D02*
G75*
G02*
X16676000Y-7068500I-50000J0D01*
G01*
X16676000Y-7068500D02*
G75*
G02*
X16776000Y-7068500I50000J0D01*
G01*
X16776000Y-11389000D02*
G75*
G02*
X16676000Y-11389000I-50000J0D01*
G01*
X16676000Y-11389000D02*
G75*
G02*
X16776000Y-11389000I50000J0D01*
G01*
X16776000Y-11643000D02*
G75*
G02*
X16676000Y-11643000I-50000J0D01*
G01*
X16676000Y-11643000D02*
G75*
G02*
X16776000Y-11643000I50000J0D01*
G01*
X16800000Y-10973500D02*
G75*
G02*
X16700000Y-10973500I-50000J0D01*
G01*
X16700000Y-10973500D02*
G75*
G02*
X16800000Y-10973500I50000J0D01*
G01*
X16954000Y-8423500D02*
G75*
G02*
X16854000Y-8423500I-50000J0D01*
G01*
X16854000Y-8423500D02*
G75*
G02*
X16954000Y-8423500I50000J0D01*
G01*
X16962000Y-9623500D02*
G75*
G02*
X16862000Y-9623500I-50000J0D01*
G01*
X16862000Y-9623500D02*
G75*
G02*
X16962000Y-9623500I50000J0D01*
G01*
X16966000Y-8023500D02*
G75*
G02*
X16866000Y-8023500I-50000J0D01*
G01*
X16866000Y-8023500D02*
G75*
G02*
X16966000Y-8023500I50000J0D01*
G01*
X16966000Y-10309500D02*
G75*
G02*
X16866000Y-10309500I-50000J0D01*
G01*
X16866000Y-10309500D02*
G75*
G02*
X16966000Y-10309500I50000J0D01*
G01*
X17030000Y-6814500D02*
G75*
G02*
X16930000Y-6814500I-50000J0D01*
G01*
X16930000Y-6814500D02*
G75*
G02*
X17030000Y-6814500I50000J0D01*
G01*
X17030000Y-7068500D02*
G75*
G02*
X16930000Y-7068500I-50000J0D01*
G01*
X16930000Y-7068500D02*
G75*
G02*
X17030000Y-7068500I50000J0D01*
G01*
X17030000Y-11389000D02*
G75*
G02*
X16930000Y-11389000I-50000J0D01*
G01*
X16930000Y-11389000D02*
G75*
G02*
X17030000Y-11389000I50000J0D01*
G01*
X17030000Y-11643000D02*
G75*
G02*
X16930000Y-11643000I-50000J0D01*
G01*
X16930000Y-11643000D02*
G75*
G02*
X17030000Y-11643000I50000J0D01*
G01*
D13*
X10994500Y-8211000D02*
X10994500Y-8321000D01*
X10939500Y-8266000D02*
X11049500Y-8266000D01*
X10994500Y-8465000D02*
X10994500Y-8575000D01*
X10939500Y-8520000D02*
X11049500Y-8520000D01*
X10994500Y-8719000D02*
X10994500Y-8829000D01*
X10939500Y-8774000D02*
X11049500Y-8774000D01*
D14*
X9746670Y-8346669D02*
X9746670Y-8253330D01*
X9653331Y-8253330D01*
X9653331Y-8346669D01*
X9746670Y-8346669D01*
X9746670Y-8846670D02*
X9746670Y-8753331D01*
X9653331Y-8753331D01*
X9653331Y-8846670D01*
X9746670Y-8846670D01*
X10796670Y-11270169D02*
X10796670Y-11176831D01*
X10703331Y-11176831D01*
X10703331Y-11270169D01*
X10796670Y-11270169D01*
X11296669Y-11270169D02*
X11296669Y-11176831D01*
X11203330Y-11176831D01*
X11203330Y-11270169D01*
X11296669Y-11270169D01*
D11*
X8999177Y-12274484D02*
X8999177Y-12074484D01*
X8999177Y-12074484D02*
X9046796Y-12074484D01*
X9046796Y-12074484D02*
X9075367Y-12084008D01*
X9075367Y-12084008D02*
X9094415Y-12103055D01*
X9094415Y-12103055D02*
X9103939Y-12122103D01*
X9103939Y-12122103D02*
X9113463Y-12160198D01*
X9113463Y-12160198D02*
X9113463Y-12188769D01*
X9113463Y-12188769D02*
X9103939Y-12226865D01*
X9103939Y-12226865D02*
X9094415Y-12245912D01*
X9094415Y-12245912D02*
X9075367Y-12264960D01*
X9075367Y-12264960D02*
X9046796Y-12274484D01*
X9046796Y-12274484D02*
X8999177Y-12274484D01*
X9199177Y-12274484D02*
X9199177Y-12141150D01*
X9199177Y-12179246D02*
X9208701Y-12160198D01*
X9208701Y-12160198D02*
X9218224Y-12150674D01*
X9218224Y-12150674D02*
X9237272Y-12141150D01*
X9237272Y-12141150D02*
X9256320Y-12141150D01*
X9322986Y-12274484D02*
X9322986Y-12141150D01*
X9322986Y-12074484D02*
X9313463Y-12084008D01*
X9313463Y-12084008D02*
X9322986Y-12093531D01*
X9322986Y-12093531D02*
X9332510Y-12084008D01*
X9332510Y-12084008D02*
X9322986Y-12074484D01*
X9322986Y-12074484D02*
X9322986Y-12093531D01*
X9446796Y-12274484D02*
X9427748Y-12264960D01*
X9427748Y-12264960D02*
X9418224Y-12245912D01*
X9418224Y-12245912D02*
X9418224Y-12074484D01*
X9551558Y-12274484D02*
X9532510Y-12264960D01*
X9532510Y-12264960D02*
X9522986Y-12245912D01*
X9522986Y-12245912D02*
X9522986Y-12074484D01*
X9780129Y-12274484D02*
X9780129Y-12074484D01*
X9780129Y-12074484D02*
X9846796Y-12217341D01*
X9846796Y-12217341D02*
X9913463Y-12074484D01*
X9913463Y-12074484D02*
X9913463Y-12274484D01*
X10094415Y-12274484D02*
X10094415Y-12169722D01*
X10094415Y-12169722D02*
X10084891Y-12150674D01*
X10084891Y-12150674D02*
X10065844Y-12141150D01*
X10065844Y-12141150D02*
X10027748Y-12141150D01*
X10027748Y-12141150D02*
X10008701Y-12150674D01*
X10094415Y-12264960D02*
X10075367Y-12274484D01*
X10075367Y-12274484D02*
X10027748Y-12274484D01*
X10027748Y-12274484D02*
X10008701Y-12264960D01*
X10008701Y-12264960D02*
X9999177Y-12245912D01*
X9999177Y-12245912D02*
X9999177Y-12226865D01*
X9999177Y-12226865D02*
X10008701Y-12207817D01*
X10008701Y-12207817D02*
X10027748Y-12198293D01*
X10027748Y-12198293D02*
X10075367Y-12198293D01*
X10075367Y-12198293D02*
X10094415Y-12188769D01*
X10189653Y-12141150D02*
X10189653Y-12341150D01*
X10189653Y-12150674D02*
X10208701Y-12141150D01*
X10208701Y-12141150D02*
X10246796Y-12141150D01*
X10246796Y-12141150D02*
X10265844Y-12150674D01*
X10265844Y-12150674D02*
X10275367Y-12160198D01*
X10275367Y-12160198D02*
X10284891Y-12179246D01*
X10284891Y-12179246D02*
X10284891Y-12236388D01*
X10284891Y-12236388D02*
X10275367Y-12255436D01*
X10275367Y-12255436D02*
X10265844Y-12264960D01*
X10265844Y-12264960D02*
X10246796Y-12274484D01*
X10246796Y-12274484D02*
X10208701Y-12274484D01*
X10208701Y-12274484D02*
X10189653Y-12264960D01*
X10370605Y-12255436D02*
X10380129Y-12264960D01*
X10380129Y-12264960D02*
X10370605Y-12274484D01*
X10370605Y-12274484D02*
X10361082Y-12264960D01*
X10361082Y-12264960D02*
X10370605Y-12255436D01*
X10370605Y-12255436D02*
X10370605Y-12274484D01*
X10370605Y-12150674D02*
X10380129Y-12160198D01*
X10380129Y-12160198D02*
X10370605Y-12169722D01*
X10370605Y-12169722D02*
X10361082Y-12160198D01*
X10361082Y-12160198D02*
X10370605Y-12150674D01*
X10370605Y-12150674D02*
X10370605Y-12169722D01*
D12*
X8708400Y-12588000D02*
X8738400Y-12618000D01*
X8738400Y-12588000D02*
X8708400Y-12618000D01*
D11*
X9037272Y-12494484D02*
X9056320Y-12494484D01*
X9056320Y-12494484D02*
X9075367Y-12504008D01*
X9075367Y-12504008D02*
X9084891Y-12513531D01*
X9084891Y-12513531D02*
X9094415Y-12532579D01*
X9094415Y-12532579D02*
X9103939Y-12570674D01*
X9103939Y-12570674D02*
X9103939Y-12618293D01*
X9103939Y-12618293D02*
X9094415Y-12656388D01*
X9094415Y-12656388D02*
X9084891Y-12675436D01*
X9084891Y-12675436D02*
X9075367Y-12684960D01*
X9075367Y-12684960D02*
X9056320Y-12694484D01*
X9056320Y-12694484D02*
X9037272Y-12694484D01*
X9037272Y-12694484D02*
X9018224Y-12684960D01*
X9018224Y-12684960D02*
X9008701Y-12675436D01*
X9008701Y-12675436D02*
X8999177Y-12656388D01*
X8999177Y-12656388D02*
X8989653Y-12618293D01*
X8989653Y-12618293D02*
X8989653Y-12570674D01*
X8989653Y-12570674D02*
X8999177Y-12532579D01*
X8999177Y-12532579D02*
X9008701Y-12513531D01*
X9008701Y-12513531D02*
X9018224Y-12504008D01*
X9018224Y-12504008D02*
X9037272Y-12494484D01*
X9189653Y-12675436D02*
X9199177Y-12684960D01*
X9199177Y-12684960D02*
X9189653Y-12694484D01*
X9189653Y-12694484D02*
X9180129Y-12684960D01*
X9180129Y-12684960D02*
X9189653Y-12675436D01*
X9189653Y-12675436D02*
X9189653Y-12694484D01*
X9265844Y-12494484D02*
X9389653Y-12494484D01*
X9389653Y-12494484D02*
X9322986Y-12570674D01*
X9322986Y-12570674D02*
X9351558Y-12570674D01*
X9351558Y-12570674D02*
X9370605Y-12580198D01*
X9370605Y-12580198D02*
X9380129Y-12589722D01*
X9380129Y-12589722D02*
X9389653Y-12608769D01*
X9389653Y-12608769D02*
X9389653Y-12656388D01*
X9389653Y-12656388D02*
X9380129Y-12675436D01*
X9380129Y-12675436D02*
X9370605Y-12684960D01*
X9370605Y-12684960D02*
X9351558Y-12694484D01*
X9351558Y-12694484D02*
X9294415Y-12694484D01*
X9294415Y-12694484D02*
X9275367Y-12684960D01*
X9275367Y-12684960D02*
X9265844Y-12675436D01*
X9513463Y-12494484D02*
X9532510Y-12494484D01*
X9532510Y-12494484D02*
X9551558Y-12504008D01*
X9551558Y-12504008D02*
X9561082Y-12513531D01*
X9561082Y-12513531D02*
X9570605Y-12532579D01*
X9570605Y-12532579D02*
X9580129Y-12570674D01*
X9580129Y-12570674D02*
X9580129Y-12618293D01*
X9580129Y-12618293D02*
X9570605Y-12656388D01*
X9570605Y-12656388D02*
X9561082Y-12675436D01*
X9561082Y-12675436D02*
X9551558Y-12684960D01*
X9551558Y-12684960D02*
X9532510Y-12694484D01*
X9532510Y-12694484D02*
X9513463Y-12694484D01*
X9513463Y-12694484D02*
X9494415Y-12684960D01*
X9494415Y-12684960D02*
X9484891Y-12675436D01*
X9484891Y-12675436D02*
X9475367Y-12656388D01*
X9475367Y-12656388D02*
X9465844Y-12618293D01*
X9465844Y-12618293D02*
X9465844Y-12570674D01*
X9465844Y-12570674D02*
X9475367Y-12532579D01*
X9475367Y-12532579D02*
X9484891Y-12513531D01*
X9484891Y-12513531D02*
X9494415Y-12504008D01*
X9494415Y-12504008D02*
X9513463Y-12494484D01*
X9703939Y-12494484D02*
X9722986Y-12494484D01*
X9722986Y-12494484D02*
X9742034Y-12504008D01*
X9742034Y-12504008D02*
X9751558Y-12513531D01*
X9751558Y-12513531D02*
X9761082Y-12532579D01*
X9761082Y-12532579D02*
X9770605Y-12570674D01*
X9770605Y-12570674D02*
X9770605Y-12618293D01*
X9770605Y-12618293D02*
X9761082Y-12656388D01*
X9761082Y-12656388D02*
X9751558Y-12675436D01*
X9751558Y-12675436D02*
X9742034Y-12684960D01*
X9742034Y-12684960D02*
X9722986Y-12694484D01*
X9722986Y-12694484D02*
X9703939Y-12694484D01*
X9703939Y-12694484D02*
X9684891Y-12684960D01*
X9684891Y-12684960D02*
X9675367Y-12675436D01*
X9675367Y-12675436D02*
X9665844Y-12656388D01*
X9665844Y-12656388D02*
X9656320Y-12618293D01*
X9656320Y-12618293D02*
X9656320Y-12570674D01*
X9656320Y-12570674D02*
X9665844Y-12532579D01*
X9665844Y-12532579D02*
X9675367Y-12513531D01*
X9675367Y-12513531D02*
X9684891Y-12504008D01*
X9684891Y-12504008D02*
X9703939Y-12494484D01*
X9856320Y-12694484D02*
X9856320Y-12561150D01*
X9856320Y-12580198D02*
X9865844Y-12570674D01*
X9865844Y-12570674D02*
X9884891Y-12561150D01*
X9884891Y-12561150D02*
X9913463Y-12561150D01*
X9913463Y-12561150D02*
X9932510Y-12570674D01*
X9932510Y-12570674D02*
X9942034Y-12589722D01*
X9942034Y-12589722D02*
X9942034Y-12694484D01*
X9942034Y-12589722D02*
X9951558Y-12570674D01*
X9951558Y-12570674D02*
X9970605Y-12561150D01*
X9970605Y-12561150D02*
X9999177Y-12561150D01*
X9999177Y-12561150D02*
X10018225Y-12570674D01*
X10018225Y-12570674D02*
X10027748Y-12589722D01*
X10027748Y-12589722D02*
X10027748Y-12694484D01*
X10122986Y-12694484D02*
X10122986Y-12561150D01*
X10122986Y-12580198D02*
X10132510Y-12570674D01*
X10132510Y-12570674D02*
X10151558Y-12561150D01*
X10151558Y-12561150D02*
X10180129Y-12561150D01*
X10180129Y-12561150D02*
X10199177Y-12570674D01*
X10199177Y-12570674D02*
X10208701Y-12589722D01*
X10208701Y-12589722D02*
X10208701Y-12694484D01*
X10208701Y-12589722D02*
X10218225Y-12570674D01*
X10218225Y-12570674D02*
X10237272Y-12561150D01*
X10237272Y-12561150D02*
X10265844Y-12561150D01*
X10265844Y-12561150D02*
X10284891Y-12570674D01*
X10284891Y-12570674D02*
X10294415Y-12589722D01*
X10294415Y-12589722D02*
X10294415Y-12694484D01*
X10684891Y-12484960D02*
X10513463Y-12742103D01*
X10942034Y-12494484D02*
X10961082Y-12494484D01*
X10961082Y-12494484D02*
X10980129Y-12504008D01*
X10980129Y-12504008D02*
X10989653Y-12513531D01*
X10989653Y-12513531D02*
X10999177Y-12532579D01*
X10999177Y-12532579D02*
X11008701Y-12570674D01*
X11008701Y-12570674D02*
X11008701Y-12618293D01*
X11008701Y-12618293D02*
X10999177Y-12656388D01*
X10999177Y-12656388D02*
X10989653Y-12675436D01*
X10989653Y-12675436D02*
X10980129Y-12684960D01*
X10980129Y-12684960D02*
X10961082Y-12694484D01*
X10961082Y-12694484D02*
X10942034Y-12694484D01*
X10942034Y-12694484D02*
X10922987Y-12684960D01*
X10922987Y-12684960D02*
X10913463Y-12675436D01*
X10913463Y-12675436D02*
X10903939Y-12656388D01*
X10903939Y-12656388D02*
X10894415Y-12618293D01*
X10894415Y-12618293D02*
X10894415Y-12570674D01*
X10894415Y-12570674D02*
X10903939Y-12532579D01*
X10903939Y-12532579D02*
X10913463Y-12513531D01*
X10913463Y-12513531D02*
X10922987Y-12504008D01*
X10922987Y-12504008D02*
X10942034Y-12494484D01*
X11094415Y-12675436D02*
X11103939Y-12684960D01*
X11103939Y-12684960D02*
X11094415Y-12694484D01*
X11094415Y-12694484D02*
X11084891Y-12684960D01*
X11084891Y-12684960D02*
X11094415Y-12675436D01*
X11094415Y-12675436D02*
X11094415Y-12694484D01*
X11227748Y-12494484D02*
X11246796Y-12494484D01*
X11246796Y-12494484D02*
X11265844Y-12504008D01*
X11265844Y-12504008D02*
X11275367Y-12513531D01*
X11275367Y-12513531D02*
X11284891Y-12532579D01*
X11284891Y-12532579D02*
X11294415Y-12570674D01*
X11294415Y-12570674D02*
X11294415Y-12618293D01*
X11294415Y-12618293D02*
X11284891Y-12656388D01*
X11284891Y-12656388D02*
X11275367Y-12675436D01*
X11275367Y-12675436D02*
X11265844Y-12684960D01*
X11265844Y-12684960D02*
X11246796Y-12694484D01*
X11246796Y-12694484D02*
X11227748Y-12694484D01*
X11227748Y-12694484D02*
X11208701Y-12684960D01*
X11208701Y-12684960D02*
X11199177Y-12675436D01*
X11199177Y-12675436D02*
X11189653Y-12656388D01*
X11189653Y-12656388D02*
X11180129Y-12618293D01*
X11180129Y-12618293D02*
X11180129Y-12570674D01*
X11180129Y-12570674D02*
X11189653Y-12532579D01*
X11189653Y-12532579D02*
X11199177Y-12513531D01*
X11199177Y-12513531D02*
X11208701Y-12504008D01*
X11208701Y-12504008D02*
X11227748Y-12494484D01*
X11484891Y-12694484D02*
X11370606Y-12694484D01*
X11427748Y-12694484D02*
X11427748Y-12494484D01*
X11427748Y-12494484D02*
X11408701Y-12523055D01*
X11408701Y-12523055D02*
X11389653Y-12542103D01*
X11389653Y-12542103D02*
X11370606Y-12551627D01*
X11675367Y-12694484D02*
X11561082Y-12694484D01*
X11618225Y-12694484D02*
X11618225Y-12494484D01*
X11618225Y-12494484D02*
X11599177Y-12523055D01*
X11599177Y-12523055D02*
X11580129Y-12542103D01*
X11580129Y-12542103D02*
X11561082Y-12551627D01*
X11789653Y-12580198D02*
X11770606Y-12570674D01*
X11770606Y-12570674D02*
X11761082Y-12561150D01*
X11761082Y-12561150D02*
X11751558Y-12542103D01*
X11751558Y-12542103D02*
X11751558Y-12532579D01*
X11751558Y-12532579D02*
X11761082Y-12513531D01*
X11761082Y-12513531D02*
X11770606Y-12504008D01*
X11770606Y-12504008D02*
X11789653Y-12494484D01*
X11789653Y-12494484D02*
X11827748Y-12494484D01*
X11827748Y-12494484D02*
X11846796Y-12504008D01*
X11846796Y-12504008D02*
X11856320Y-12513531D01*
X11856320Y-12513531D02*
X11865844Y-12532579D01*
X11865844Y-12532579D02*
X11865844Y-12542103D01*
X11865844Y-12542103D02*
X11856320Y-12561150D01*
X11856320Y-12561150D02*
X11846796Y-12570674D01*
X11846796Y-12570674D02*
X11827748Y-12580198D01*
X11827748Y-12580198D02*
X11789653Y-12580198D01*
X11789653Y-12580198D02*
X11770606Y-12589722D01*
X11770606Y-12589722D02*
X11761082Y-12599246D01*
X11761082Y-12599246D02*
X11751558Y-12618293D01*
X11751558Y-12618293D02*
X11751558Y-12656388D01*
X11751558Y-12656388D02*
X11761082Y-12675436D01*
X11761082Y-12675436D02*
X11770606Y-12684960D01*
X11770606Y-12684960D02*
X11789653Y-12694484D01*
X11789653Y-12694484D02*
X11827748Y-12694484D01*
X11827748Y-12694484D02*
X11846796Y-12684960D01*
X11846796Y-12684960D02*
X11856320Y-12675436D01*
X11856320Y-12675436D02*
X11865844Y-12656388D01*
X11865844Y-12656388D02*
X11865844Y-12618293D01*
X11865844Y-12618293D02*
X11856320Y-12599246D01*
X11856320Y-12599246D02*
X11846796Y-12589722D01*
X11846796Y-12589722D02*
X11827748Y-12580198D01*
X11942034Y-12494484D02*
X11942034Y-12532579D01*
X12018225Y-12494484D02*
X12018225Y-12532579D01*
X12313463Y-12770674D02*
X12303939Y-12761150D01*
X12303939Y-12761150D02*
X12284891Y-12732579D01*
X12284891Y-12732579D02*
X12275368Y-12713531D01*
X12275368Y-12713531D02*
X12265844Y-12684960D01*
X12265844Y-12684960D02*
X12256320Y-12637341D01*
X12256320Y-12637341D02*
X12256320Y-12599246D01*
X12256320Y-12599246D02*
X12265844Y-12551627D01*
X12265844Y-12551627D02*
X12275368Y-12523055D01*
X12275368Y-12523055D02*
X12284891Y-12504008D01*
X12284891Y-12504008D02*
X12303939Y-12475436D01*
X12303939Y-12475436D02*
X12313463Y-12465912D01*
X12494415Y-12694484D02*
X12380129Y-12694484D01*
X12437272Y-12694484D02*
X12437272Y-12494484D01*
X12437272Y-12494484D02*
X12418225Y-12523055D01*
X12418225Y-12523055D02*
X12399177Y-12542103D01*
X12399177Y-12542103D02*
X12380129Y-12551627D01*
X12665844Y-12494484D02*
X12627748Y-12494484D01*
X12627748Y-12494484D02*
X12608701Y-12504008D01*
X12608701Y-12504008D02*
X12599177Y-12513531D01*
X12599177Y-12513531D02*
X12580129Y-12542103D01*
X12580129Y-12542103D02*
X12570606Y-12580198D01*
X12570606Y-12580198D02*
X12570606Y-12656388D01*
X12570606Y-12656388D02*
X12580129Y-12675436D01*
X12580129Y-12675436D02*
X12589653Y-12684960D01*
X12589653Y-12684960D02*
X12608701Y-12694484D01*
X12608701Y-12694484D02*
X12646796Y-12694484D01*
X12646796Y-12694484D02*
X12665844Y-12684960D01*
X12665844Y-12684960D02*
X12675368Y-12675436D01*
X12675368Y-12675436D02*
X12684891Y-12656388D01*
X12684891Y-12656388D02*
X12684891Y-12608769D01*
X12684891Y-12608769D02*
X12675368Y-12589722D01*
X12675368Y-12589722D02*
X12665844Y-12580198D01*
X12665844Y-12580198D02*
X12646796Y-12570674D01*
X12646796Y-12570674D02*
X12608701Y-12570674D01*
X12608701Y-12570674D02*
X12589653Y-12580198D01*
X12589653Y-12580198D02*
X12580129Y-12589722D01*
X12580129Y-12589722D02*
X12570606Y-12608769D01*
X12922987Y-12694484D02*
X12922987Y-12494484D01*
X13008701Y-12694484D02*
X13008701Y-12589722D01*
X13008701Y-12589722D02*
X12999177Y-12570674D01*
X12999177Y-12570674D02*
X12980130Y-12561150D01*
X12980130Y-12561150D02*
X12951558Y-12561150D01*
X12951558Y-12561150D02*
X12932510Y-12570674D01*
X12932510Y-12570674D02*
X12922987Y-12580198D01*
X13132510Y-12694484D02*
X13113463Y-12684960D01*
X13113463Y-12684960D02*
X13103939Y-12675436D01*
X13103939Y-12675436D02*
X13094415Y-12656388D01*
X13094415Y-12656388D02*
X13094415Y-12599246D01*
X13094415Y-12599246D02*
X13103939Y-12580198D01*
X13103939Y-12580198D02*
X13113463Y-12570674D01*
X13113463Y-12570674D02*
X13132510Y-12561150D01*
X13132510Y-12561150D02*
X13161082Y-12561150D01*
X13161082Y-12561150D02*
X13180130Y-12570674D01*
X13180130Y-12570674D02*
X13189653Y-12580198D01*
X13189653Y-12580198D02*
X13199177Y-12599246D01*
X13199177Y-12599246D02*
X13199177Y-12656388D01*
X13199177Y-12656388D02*
X13189653Y-12675436D01*
X13189653Y-12675436D02*
X13180130Y-12684960D01*
X13180130Y-12684960D02*
X13161082Y-12694484D01*
X13161082Y-12694484D02*
X13132510Y-12694484D01*
X13313463Y-12694484D02*
X13294415Y-12684960D01*
X13294415Y-12684960D02*
X13284891Y-12665912D01*
X13284891Y-12665912D02*
X13284891Y-12494484D01*
X13465844Y-12684960D02*
X13446796Y-12694484D01*
X13446796Y-12694484D02*
X13408701Y-12694484D01*
X13408701Y-12694484D02*
X13389653Y-12684960D01*
X13389653Y-12684960D02*
X13380130Y-12665912D01*
X13380130Y-12665912D02*
X13380130Y-12589722D01*
X13380130Y-12589722D02*
X13389653Y-12570674D01*
X13389653Y-12570674D02*
X13408701Y-12561150D01*
X13408701Y-12561150D02*
X13446796Y-12561150D01*
X13446796Y-12561150D02*
X13465844Y-12570674D01*
X13465844Y-12570674D02*
X13475368Y-12589722D01*
X13475368Y-12589722D02*
X13475368Y-12608769D01*
X13475368Y-12608769D02*
X13380130Y-12627817D01*
X13551558Y-12684960D02*
X13570606Y-12694484D01*
X13570606Y-12694484D02*
X13608701Y-12694484D01*
X13608701Y-12694484D02*
X13627749Y-12684960D01*
X13627749Y-12684960D02*
X13637272Y-12665912D01*
X13637272Y-12665912D02*
X13637272Y-12656388D01*
X13637272Y-12656388D02*
X13627749Y-12637341D01*
X13627749Y-12637341D02*
X13608701Y-12627817D01*
X13608701Y-12627817D02*
X13580130Y-12627817D01*
X13580130Y-12627817D02*
X13561082Y-12618293D01*
X13561082Y-12618293D02*
X13551558Y-12599246D01*
X13551558Y-12599246D02*
X13551558Y-12589722D01*
X13551558Y-12589722D02*
X13561082Y-12570674D01*
X13561082Y-12570674D02*
X13580130Y-12561150D01*
X13580130Y-12561150D02*
X13608701Y-12561150D01*
X13608701Y-12561150D02*
X13627749Y-12570674D01*
X13703939Y-12770674D02*
X13713463Y-12761150D01*
X13713463Y-12761150D02*
X13732511Y-12732579D01*
X13732511Y-12732579D02*
X13742034Y-12713531D01*
X13742034Y-12713531D02*
X13751558Y-12684960D01*
X13751558Y-12684960D02*
X13761082Y-12637341D01*
X13761082Y-12637341D02*
X13761082Y-12599246D01*
X13761082Y-12599246D02*
X13751558Y-12551627D01*
X13751558Y-12551627D02*
X13742034Y-12523055D01*
X13742034Y-12523055D02*
X13732511Y-12504008D01*
X13732511Y-12504008D02*
X13713463Y-12475436D01*
X13713463Y-12475436D02*
X13703939Y-12465912D01*
D12*
X8738400Y-12867000D02*
G75*
G02*
X8638400Y-12867000I-50000J0D01*
G01*
X8638400Y-12867000D02*
G75*
G02*
X8738400Y-12867000I50000J0D01*
G01*
D11*
X9103939Y-12958484D02*
X8989653Y-12958484D01*
X9046796Y-12958484D02*
X9046796Y-12758484D01*
X9046796Y-12758484D02*
X9027748Y-12787055D01*
X9027748Y-12787055D02*
X9008701Y-12806103D01*
X9008701Y-12806103D02*
X8989653Y-12815627D01*
X9189653Y-12939436D02*
X9199177Y-12948960D01*
X9199177Y-12948960D02*
X9189653Y-12958484D01*
X9189653Y-12958484D02*
X9180129Y-12948960D01*
X9180129Y-12948960D02*
X9189653Y-12939436D01*
X9189653Y-12939436D02*
X9189653Y-12958484D01*
X9322986Y-12758484D02*
X9342034Y-12758484D01*
X9342034Y-12758484D02*
X9361082Y-12768008D01*
X9361082Y-12768008D02*
X9370605Y-12777531D01*
X9370605Y-12777531D02*
X9380129Y-12796579D01*
X9380129Y-12796579D02*
X9389653Y-12834674D01*
X9389653Y-12834674D02*
X9389653Y-12882293D01*
X9389653Y-12882293D02*
X9380129Y-12920388D01*
X9380129Y-12920388D02*
X9370605Y-12939436D01*
X9370605Y-12939436D02*
X9361082Y-12948960D01*
X9361082Y-12948960D02*
X9342034Y-12958484D01*
X9342034Y-12958484D02*
X9322986Y-12958484D01*
X9322986Y-12958484D02*
X9303939Y-12948960D01*
X9303939Y-12948960D02*
X9294415Y-12939436D01*
X9294415Y-12939436D02*
X9284891Y-12920388D01*
X9284891Y-12920388D02*
X9275367Y-12882293D01*
X9275367Y-12882293D02*
X9275367Y-12834674D01*
X9275367Y-12834674D02*
X9284891Y-12796579D01*
X9284891Y-12796579D02*
X9294415Y-12777531D01*
X9294415Y-12777531D02*
X9303939Y-12768008D01*
X9303939Y-12768008D02*
X9322986Y-12758484D01*
X9513463Y-12758484D02*
X9532510Y-12758484D01*
X9532510Y-12758484D02*
X9551558Y-12768008D01*
X9551558Y-12768008D02*
X9561082Y-12777531D01*
X9561082Y-12777531D02*
X9570605Y-12796579D01*
X9570605Y-12796579D02*
X9580129Y-12834674D01*
X9580129Y-12834674D02*
X9580129Y-12882293D01*
X9580129Y-12882293D02*
X9570605Y-12920388D01*
X9570605Y-12920388D02*
X9561082Y-12939436D01*
X9561082Y-12939436D02*
X9551558Y-12948960D01*
X9551558Y-12948960D02*
X9532510Y-12958484D01*
X9532510Y-12958484D02*
X9513463Y-12958484D01*
X9513463Y-12958484D02*
X9494415Y-12948960D01*
X9494415Y-12948960D02*
X9484891Y-12939436D01*
X9484891Y-12939436D02*
X9475367Y-12920388D01*
X9475367Y-12920388D02*
X9465844Y-12882293D01*
X9465844Y-12882293D02*
X9465844Y-12834674D01*
X9465844Y-12834674D02*
X9475367Y-12796579D01*
X9475367Y-12796579D02*
X9484891Y-12777531D01*
X9484891Y-12777531D02*
X9494415Y-12768008D01*
X9494415Y-12768008D02*
X9513463Y-12758484D01*
X9703939Y-12758484D02*
X9722986Y-12758484D01*
X9722986Y-12758484D02*
X9742034Y-12768008D01*
X9742034Y-12768008D02*
X9751558Y-12777531D01*
X9751558Y-12777531D02*
X9761082Y-12796579D01*
X9761082Y-12796579D02*
X9770605Y-12834674D01*
X9770605Y-12834674D02*
X9770605Y-12882293D01*
X9770605Y-12882293D02*
X9761082Y-12920388D01*
X9761082Y-12920388D02*
X9751558Y-12939436D01*
X9751558Y-12939436D02*
X9742034Y-12948960D01*
X9742034Y-12948960D02*
X9722986Y-12958484D01*
X9722986Y-12958484D02*
X9703939Y-12958484D01*
X9703939Y-12958484D02*
X9684891Y-12948960D01*
X9684891Y-12948960D02*
X9675367Y-12939436D01*
X9675367Y-12939436D02*
X9665844Y-12920388D01*
X9665844Y-12920388D02*
X9656320Y-12882293D01*
X9656320Y-12882293D02*
X9656320Y-12834674D01*
X9656320Y-12834674D02*
X9665844Y-12796579D01*
X9665844Y-12796579D02*
X9675367Y-12777531D01*
X9675367Y-12777531D02*
X9684891Y-12768008D01*
X9684891Y-12768008D02*
X9703939Y-12758484D01*
X9856320Y-12958484D02*
X9856320Y-12825150D01*
X9856320Y-12844198D02*
X9865844Y-12834674D01*
X9865844Y-12834674D02*
X9884891Y-12825150D01*
X9884891Y-12825150D02*
X9913463Y-12825150D01*
X9913463Y-12825150D02*
X9932510Y-12834674D01*
X9932510Y-12834674D02*
X9942034Y-12853722D01*
X9942034Y-12853722D02*
X9942034Y-12958484D01*
X9942034Y-12853722D02*
X9951558Y-12834674D01*
X9951558Y-12834674D02*
X9970605Y-12825150D01*
X9970605Y-12825150D02*
X9999177Y-12825150D01*
X9999177Y-12825150D02*
X10018225Y-12834674D01*
X10018225Y-12834674D02*
X10027748Y-12853722D01*
X10027748Y-12853722D02*
X10027748Y-12958484D01*
X10122986Y-12958484D02*
X10122986Y-12825150D01*
X10122986Y-12844198D02*
X10132510Y-12834674D01*
X10132510Y-12834674D02*
X10151558Y-12825150D01*
X10151558Y-12825150D02*
X10180129Y-12825150D01*
X10180129Y-12825150D02*
X10199177Y-12834674D01*
X10199177Y-12834674D02*
X10208701Y-12853722D01*
X10208701Y-12853722D02*
X10208701Y-12958484D01*
X10208701Y-12853722D02*
X10218225Y-12834674D01*
X10218225Y-12834674D02*
X10237272Y-12825150D01*
X10237272Y-12825150D02*
X10265844Y-12825150D01*
X10265844Y-12825150D02*
X10284891Y-12834674D01*
X10284891Y-12834674D02*
X10294415Y-12853722D01*
X10294415Y-12853722D02*
X10294415Y-12958484D01*
X10684891Y-12748960D02*
X10513463Y-13006103D01*
X10942034Y-12758484D02*
X10961082Y-12758484D01*
X10961082Y-12758484D02*
X10980129Y-12768008D01*
X10980129Y-12768008D02*
X10989653Y-12777531D01*
X10989653Y-12777531D02*
X10999177Y-12796579D01*
X10999177Y-12796579D02*
X11008701Y-12834674D01*
X11008701Y-12834674D02*
X11008701Y-12882293D01*
X11008701Y-12882293D02*
X10999177Y-12920388D01*
X10999177Y-12920388D02*
X10989653Y-12939436D01*
X10989653Y-12939436D02*
X10980129Y-12948960D01*
X10980129Y-12948960D02*
X10961082Y-12958484D01*
X10961082Y-12958484D02*
X10942034Y-12958484D01*
X10942034Y-12958484D02*
X10922987Y-12948960D01*
X10922987Y-12948960D02*
X10913463Y-12939436D01*
X10913463Y-12939436D02*
X10903939Y-12920388D01*
X10903939Y-12920388D02*
X10894415Y-12882293D01*
X10894415Y-12882293D02*
X10894415Y-12834674D01*
X10894415Y-12834674D02*
X10903939Y-12796579D01*
X10903939Y-12796579D02*
X10913463Y-12777531D01*
X10913463Y-12777531D02*
X10922987Y-12768008D01*
X10922987Y-12768008D02*
X10942034Y-12758484D01*
X11094415Y-12939436D02*
X11103939Y-12948960D01*
X11103939Y-12948960D02*
X11094415Y-12958484D01*
X11094415Y-12958484D02*
X11084891Y-12948960D01*
X11084891Y-12948960D02*
X11094415Y-12939436D01*
X11094415Y-12939436D02*
X11094415Y-12958484D01*
X11227748Y-12758484D02*
X11246796Y-12758484D01*
X11246796Y-12758484D02*
X11265844Y-12768008D01*
X11265844Y-12768008D02*
X11275367Y-12777531D01*
X11275367Y-12777531D02*
X11284891Y-12796579D01*
X11284891Y-12796579D02*
X11294415Y-12834674D01*
X11294415Y-12834674D02*
X11294415Y-12882293D01*
X11294415Y-12882293D02*
X11284891Y-12920388D01*
X11284891Y-12920388D02*
X11275367Y-12939436D01*
X11275367Y-12939436D02*
X11265844Y-12948960D01*
X11265844Y-12948960D02*
X11246796Y-12958484D01*
X11246796Y-12958484D02*
X11227748Y-12958484D01*
X11227748Y-12958484D02*
X11208701Y-12948960D01*
X11208701Y-12948960D02*
X11199177Y-12939436D01*
X11199177Y-12939436D02*
X11189653Y-12920388D01*
X11189653Y-12920388D02*
X11180129Y-12882293D01*
X11180129Y-12882293D02*
X11180129Y-12834674D01*
X11180129Y-12834674D02*
X11189653Y-12796579D01*
X11189653Y-12796579D02*
X11199177Y-12777531D01*
X11199177Y-12777531D02*
X11208701Y-12768008D01*
X11208701Y-12768008D02*
X11227748Y-12758484D01*
X11361082Y-12758484D02*
X11484891Y-12758484D01*
X11484891Y-12758484D02*
X11418225Y-12834674D01*
X11418225Y-12834674D02*
X11446796Y-12834674D01*
X11446796Y-12834674D02*
X11465844Y-12844198D01*
X11465844Y-12844198D02*
X11475367Y-12853722D01*
X11475367Y-12853722D02*
X11484891Y-12872769D01*
X11484891Y-12872769D02*
X11484891Y-12920388D01*
X11484891Y-12920388D02*
X11475367Y-12939436D01*
X11475367Y-12939436D02*
X11465844Y-12948960D01*
X11465844Y-12948960D02*
X11446796Y-12958484D01*
X11446796Y-12958484D02*
X11389653Y-12958484D01*
X11389653Y-12958484D02*
X11370606Y-12948960D01*
X11370606Y-12948960D02*
X11361082Y-12939436D01*
X11580129Y-12958484D02*
X11618225Y-12958484D01*
X11618225Y-12958484D02*
X11637272Y-12948960D01*
X11637272Y-12948960D02*
X11646796Y-12939436D01*
X11646796Y-12939436D02*
X11665844Y-12910865D01*
X11665844Y-12910865D02*
X11675367Y-12872769D01*
X11675367Y-12872769D02*
X11675367Y-12796579D01*
X11675367Y-12796579D02*
X11665844Y-12777531D01*
X11665844Y-12777531D02*
X11656320Y-12768008D01*
X11656320Y-12768008D02*
X11637272Y-12758484D01*
X11637272Y-12758484D02*
X11599177Y-12758484D01*
X11599177Y-12758484D02*
X11580129Y-12768008D01*
X11580129Y-12768008D02*
X11570606Y-12777531D01*
X11570606Y-12777531D02*
X11561082Y-12796579D01*
X11561082Y-12796579D02*
X11561082Y-12844198D01*
X11561082Y-12844198D02*
X11570606Y-12863246D01*
X11570606Y-12863246D02*
X11580129Y-12872769D01*
X11580129Y-12872769D02*
X11599177Y-12882293D01*
X11599177Y-12882293D02*
X11637272Y-12882293D01*
X11637272Y-12882293D02*
X11656320Y-12872769D01*
X11656320Y-12872769D02*
X11665844Y-12863246D01*
X11665844Y-12863246D02*
X11675367Y-12844198D01*
X11846796Y-12825150D02*
X11846796Y-12958484D01*
X11799177Y-12748960D02*
X11751558Y-12891817D01*
X11751558Y-12891817D02*
X11875367Y-12891817D01*
X11942034Y-12758484D02*
X11942034Y-12796579D01*
X12018225Y-12758484D02*
X12018225Y-12796579D01*
X12313463Y-13034674D02*
X12303939Y-13025150D01*
X12303939Y-13025150D02*
X12284891Y-12996579D01*
X12284891Y-12996579D02*
X12275368Y-12977531D01*
X12275368Y-12977531D02*
X12265844Y-12948960D01*
X12265844Y-12948960D02*
X12256320Y-12901341D01*
X12256320Y-12901341D02*
X12256320Y-12863246D01*
X12256320Y-12863246D02*
X12265844Y-12815627D01*
X12265844Y-12815627D02*
X12275368Y-12787055D01*
X12275368Y-12787055D02*
X12284891Y-12768008D01*
X12284891Y-12768008D02*
X12303939Y-12739436D01*
X12303939Y-12739436D02*
X12313463Y-12729912D01*
X12494415Y-12958484D02*
X12380129Y-12958484D01*
X12437272Y-12958484D02*
X12437272Y-12758484D01*
X12437272Y-12758484D02*
X12418225Y-12787055D01*
X12418225Y-12787055D02*
X12399177Y-12806103D01*
X12399177Y-12806103D02*
X12380129Y-12815627D01*
X12684891Y-12958484D02*
X12570606Y-12958484D01*
X12627748Y-12958484D02*
X12627748Y-12758484D01*
X12627748Y-12758484D02*
X12608701Y-12787055D01*
X12608701Y-12787055D02*
X12589653Y-12806103D01*
X12589653Y-12806103D02*
X12570606Y-12815627D01*
X12856320Y-12825150D02*
X12856320Y-12958484D01*
X12808701Y-12748960D02*
X12761082Y-12891817D01*
X12761082Y-12891817D02*
X12884891Y-12891817D01*
X13113463Y-12958484D02*
X13113463Y-12758484D01*
X13199177Y-12958484D02*
X13199177Y-12853722D01*
X13199177Y-12853722D02*
X13189653Y-12834674D01*
X13189653Y-12834674D02*
X13170606Y-12825150D01*
X13170606Y-12825150D02*
X13142034Y-12825150D01*
X13142034Y-12825150D02*
X13122987Y-12834674D01*
X13122987Y-12834674D02*
X13113463Y-12844198D01*
X13322987Y-12958484D02*
X13303939Y-12948960D01*
X13303939Y-12948960D02*
X13294415Y-12939436D01*
X13294415Y-12939436D02*
X13284891Y-12920388D01*
X13284891Y-12920388D02*
X13284891Y-12863246D01*
X13284891Y-12863246D02*
X13294415Y-12844198D01*
X13294415Y-12844198D02*
X13303939Y-12834674D01*
X13303939Y-12834674D02*
X13322987Y-12825150D01*
X13322987Y-12825150D02*
X13351558Y-12825150D01*
X13351558Y-12825150D02*
X13370606Y-12834674D01*
X13370606Y-12834674D02*
X13380130Y-12844198D01*
X13380130Y-12844198D02*
X13389653Y-12863246D01*
X13389653Y-12863246D02*
X13389653Y-12920388D01*
X13389653Y-12920388D02*
X13380130Y-12939436D01*
X13380130Y-12939436D02*
X13370606Y-12948960D01*
X13370606Y-12948960D02*
X13351558Y-12958484D01*
X13351558Y-12958484D02*
X13322987Y-12958484D01*
X13503939Y-12958484D02*
X13484891Y-12948960D01*
X13484891Y-12948960D02*
X13475368Y-12929912D01*
X13475368Y-12929912D02*
X13475368Y-12758484D01*
X13656320Y-12948960D02*
X13637272Y-12958484D01*
X13637272Y-12958484D02*
X13599177Y-12958484D01*
X13599177Y-12958484D02*
X13580130Y-12948960D01*
X13580130Y-12948960D02*
X13570606Y-12929912D01*
X13570606Y-12929912D02*
X13570606Y-12853722D01*
X13570606Y-12853722D02*
X13580130Y-12834674D01*
X13580130Y-12834674D02*
X13599177Y-12825150D01*
X13599177Y-12825150D02*
X13637272Y-12825150D01*
X13637272Y-12825150D02*
X13656320Y-12834674D01*
X13656320Y-12834674D02*
X13665844Y-12853722D01*
X13665844Y-12853722D02*
X13665844Y-12872769D01*
X13665844Y-12872769D02*
X13570606Y-12891817D01*
X13742034Y-12948960D02*
X13761082Y-12958484D01*
X13761082Y-12958484D02*
X13799177Y-12958484D01*
X13799177Y-12958484D02*
X13818225Y-12948960D01*
X13818225Y-12948960D02*
X13827749Y-12929912D01*
X13827749Y-12929912D02*
X13827749Y-12920388D01*
X13827749Y-12920388D02*
X13818225Y-12901341D01*
X13818225Y-12901341D02*
X13799177Y-12891817D01*
X13799177Y-12891817D02*
X13770606Y-12891817D01*
X13770606Y-12891817D02*
X13751558Y-12882293D01*
X13751558Y-12882293D02*
X13742034Y-12863246D01*
X13742034Y-12863246D02*
X13742034Y-12853722D01*
X13742034Y-12853722D02*
X13751558Y-12834674D01*
X13751558Y-12834674D02*
X13770606Y-12825150D01*
X13770606Y-12825150D02*
X13799177Y-12825150D01*
X13799177Y-12825150D02*
X13818225Y-12834674D01*
X13894415Y-13034674D02*
X13903939Y-13025150D01*
X13903939Y-13025150D02*
X13922987Y-12996579D01*
X13922987Y-12996579D02*
X13932511Y-12977531D01*
X13932511Y-12977531D02*
X13942034Y-12948960D01*
X13942034Y-12948960D02*
X13951558Y-12901341D01*
X13951558Y-12901341D02*
X13951558Y-12863246D01*
X13951558Y-12863246D02*
X13942034Y-12815627D01*
X13942034Y-12815627D02*
X13932511Y-12787055D01*
X13932511Y-12787055D02*
X13922987Y-12768008D01*
X13922987Y-12768008D02*
X13903939Y-12739436D01*
X13903939Y-12739436D02*
X13894415Y-12729912D01*
D13*
X8683400Y-13076000D02*
X8683400Y-13186000D01*
X8628400Y-13131000D02*
X8738400Y-13131000D01*
D11*
X9103939Y-13222484D02*
X8989653Y-13222484D01*
X9046796Y-13222484D02*
X9046796Y-13022484D01*
X9046796Y-13022484D02*
X9027748Y-13051055D01*
X9027748Y-13051055D02*
X9008701Y-13070103D01*
X9008701Y-13070103D02*
X8989653Y-13079627D01*
X9189653Y-13203436D02*
X9199177Y-13212960D01*
X9199177Y-13212960D02*
X9189653Y-13222484D01*
X9189653Y-13222484D02*
X9180129Y-13212960D01*
X9180129Y-13212960D02*
X9189653Y-13203436D01*
X9189653Y-13203436D02*
X9189653Y-13222484D01*
X9389653Y-13222484D02*
X9275367Y-13222484D01*
X9332510Y-13222484D02*
X9332510Y-13022484D01*
X9332510Y-13022484D02*
X9313463Y-13051055D01*
X9313463Y-13051055D02*
X9294415Y-13070103D01*
X9294415Y-13070103D02*
X9275367Y-13079627D01*
X9513463Y-13022484D02*
X9532510Y-13022484D01*
X9532510Y-13022484D02*
X9551558Y-13032008D01*
X9551558Y-13032008D02*
X9561082Y-13041531D01*
X9561082Y-13041531D02*
X9570605Y-13060579D01*
X9570605Y-13060579D02*
X9580129Y-13098674D01*
X9580129Y-13098674D02*
X9580129Y-13146293D01*
X9580129Y-13146293D02*
X9570605Y-13184388D01*
X9570605Y-13184388D02*
X9561082Y-13203436D01*
X9561082Y-13203436D02*
X9551558Y-13212960D01*
X9551558Y-13212960D02*
X9532510Y-13222484D01*
X9532510Y-13222484D02*
X9513463Y-13222484D01*
X9513463Y-13222484D02*
X9494415Y-13212960D01*
X9494415Y-13212960D02*
X9484891Y-13203436D01*
X9484891Y-13203436D02*
X9475367Y-13184388D01*
X9475367Y-13184388D02*
X9465844Y-13146293D01*
X9465844Y-13146293D02*
X9465844Y-13098674D01*
X9465844Y-13098674D02*
X9475367Y-13060579D01*
X9475367Y-13060579D02*
X9484891Y-13041531D01*
X9484891Y-13041531D02*
X9494415Y-13032008D01*
X9494415Y-13032008D02*
X9513463Y-13022484D01*
X9703939Y-13022484D02*
X9722986Y-13022484D01*
X9722986Y-13022484D02*
X9742034Y-13032008D01*
X9742034Y-13032008D02*
X9751558Y-13041531D01*
X9751558Y-13041531D02*
X9761082Y-13060579D01*
X9761082Y-13060579D02*
X9770605Y-13098674D01*
X9770605Y-13098674D02*
X9770605Y-13146293D01*
X9770605Y-13146293D02*
X9761082Y-13184388D01*
X9761082Y-13184388D02*
X9751558Y-13203436D01*
X9751558Y-13203436D02*
X9742034Y-13212960D01*
X9742034Y-13212960D02*
X9722986Y-13222484D01*
X9722986Y-13222484D02*
X9703939Y-13222484D01*
X9703939Y-13222484D02*
X9684891Y-13212960D01*
X9684891Y-13212960D02*
X9675367Y-13203436D01*
X9675367Y-13203436D02*
X9665844Y-13184388D01*
X9665844Y-13184388D02*
X9656320Y-13146293D01*
X9656320Y-13146293D02*
X9656320Y-13098674D01*
X9656320Y-13098674D02*
X9665844Y-13060579D01*
X9665844Y-13060579D02*
X9675367Y-13041531D01*
X9675367Y-13041531D02*
X9684891Y-13032008D01*
X9684891Y-13032008D02*
X9703939Y-13022484D01*
X9856320Y-13222484D02*
X9856320Y-13089150D01*
X9856320Y-13108198D02*
X9865844Y-13098674D01*
X9865844Y-13098674D02*
X9884891Y-13089150D01*
X9884891Y-13089150D02*
X9913463Y-13089150D01*
X9913463Y-13089150D02*
X9932510Y-13098674D01*
X9932510Y-13098674D02*
X9942034Y-13117722D01*
X9942034Y-13117722D02*
X9942034Y-13222484D01*
X9942034Y-13117722D02*
X9951558Y-13098674D01*
X9951558Y-13098674D02*
X9970605Y-13089150D01*
X9970605Y-13089150D02*
X9999177Y-13089150D01*
X9999177Y-13089150D02*
X10018225Y-13098674D01*
X10018225Y-13098674D02*
X10027748Y-13117722D01*
X10027748Y-13117722D02*
X10027748Y-13222484D01*
X10122986Y-13222484D02*
X10122986Y-13089150D01*
X10122986Y-13108198D02*
X10132510Y-13098674D01*
X10132510Y-13098674D02*
X10151558Y-13089150D01*
X10151558Y-13089150D02*
X10180129Y-13089150D01*
X10180129Y-13089150D02*
X10199177Y-13098674D01*
X10199177Y-13098674D02*
X10208701Y-13117722D01*
X10208701Y-13117722D02*
X10208701Y-13222484D01*
X10208701Y-13117722D02*
X10218225Y-13098674D01*
X10218225Y-13098674D02*
X10237272Y-13089150D01*
X10237272Y-13089150D02*
X10265844Y-13089150D01*
X10265844Y-13089150D02*
X10284891Y-13098674D01*
X10284891Y-13098674D02*
X10294415Y-13117722D01*
X10294415Y-13117722D02*
X10294415Y-13222484D01*
X10684891Y-13012960D02*
X10513463Y-13270103D01*
X10942034Y-13022484D02*
X10961082Y-13022484D01*
X10961082Y-13022484D02*
X10980129Y-13032008D01*
X10980129Y-13032008D02*
X10989653Y-13041531D01*
X10989653Y-13041531D02*
X10999177Y-13060579D01*
X10999177Y-13060579D02*
X11008701Y-13098674D01*
X11008701Y-13098674D02*
X11008701Y-13146293D01*
X11008701Y-13146293D02*
X10999177Y-13184388D01*
X10999177Y-13184388D02*
X10989653Y-13203436D01*
X10989653Y-13203436D02*
X10980129Y-13212960D01*
X10980129Y-13212960D02*
X10961082Y-13222484D01*
X10961082Y-13222484D02*
X10942034Y-13222484D01*
X10942034Y-13222484D02*
X10922987Y-13212960D01*
X10922987Y-13212960D02*
X10913463Y-13203436D01*
X10913463Y-13203436D02*
X10903939Y-13184388D01*
X10903939Y-13184388D02*
X10894415Y-13146293D01*
X10894415Y-13146293D02*
X10894415Y-13098674D01*
X10894415Y-13098674D02*
X10903939Y-13060579D01*
X10903939Y-13060579D02*
X10913463Y-13041531D01*
X10913463Y-13041531D02*
X10922987Y-13032008D01*
X10922987Y-13032008D02*
X10942034Y-13022484D01*
X11094415Y-13203436D02*
X11103939Y-13212960D01*
X11103939Y-13212960D02*
X11094415Y-13222484D01*
X11094415Y-13222484D02*
X11084891Y-13212960D01*
X11084891Y-13212960D02*
X11094415Y-13203436D01*
X11094415Y-13203436D02*
X11094415Y-13222484D01*
X11227748Y-13022484D02*
X11246796Y-13022484D01*
X11246796Y-13022484D02*
X11265844Y-13032008D01*
X11265844Y-13032008D02*
X11275367Y-13041531D01*
X11275367Y-13041531D02*
X11284891Y-13060579D01*
X11284891Y-13060579D02*
X11294415Y-13098674D01*
X11294415Y-13098674D02*
X11294415Y-13146293D01*
X11294415Y-13146293D02*
X11284891Y-13184388D01*
X11284891Y-13184388D02*
X11275367Y-13203436D01*
X11275367Y-13203436D02*
X11265844Y-13212960D01*
X11265844Y-13212960D02*
X11246796Y-13222484D01*
X11246796Y-13222484D02*
X11227748Y-13222484D01*
X11227748Y-13222484D02*
X11208701Y-13212960D01*
X11208701Y-13212960D02*
X11199177Y-13203436D01*
X11199177Y-13203436D02*
X11189653Y-13184388D01*
X11189653Y-13184388D02*
X11180129Y-13146293D01*
X11180129Y-13146293D02*
X11180129Y-13098674D01*
X11180129Y-13098674D02*
X11189653Y-13060579D01*
X11189653Y-13060579D02*
X11199177Y-13041531D01*
X11199177Y-13041531D02*
X11208701Y-13032008D01*
X11208701Y-13032008D02*
X11227748Y-13022484D01*
X11465844Y-13089150D02*
X11465844Y-13222484D01*
X11418225Y-13012960D02*
X11370606Y-13155817D01*
X11370606Y-13155817D02*
X11494415Y-13155817D01*
X11551558Y-13022484D02*
X11675367Y-13022484D01*
X11675367Y-13022484D02*
X11608701Y-13098674D01*
X11608701Y-13098674D02*
X11637272Y-13098674D01*
X11637272Y-13098674D02*
X11656320Y-13108198D01*
X11656320Y-13108198D02*
X11665844Y-13117722D01*
X11665844Y-13117722D02*
X11675367Y-13136769D01*
X11675367Y-13136769D02*
X11675367Y-13184388D01*
X11675367Y-13184388D02*
X11665844Y-13203436D01*
X11665844Y-13203436D02*
X11656320Y-13212960D01*
X11656320Y-13212960D02*
X11637272Y-13222484D01*
X11637272Y-13222484D02*
X11580129Y-13222484D01*
X11580129Y-13222484D02*
X11561082Y-13212960D01*
X11561082Y-13212960D02*
X11551558Y-13203436D01*
X11742034Y-13022484D02*
X11865844Y-13022484D01*
X11865844Y-13022484D02*
X11799177Y-13098674D01*
X11799177Y-13098674D02*
X11827748Y-13098674D01*
X11827748Y-13098674D02*
X11846796Y-13108198D01*
X11846796Y-13108198D02*
X11856320Y-13117722D01*
X11856320Y-13117722D02*
X11865844Y-13136769D01*
X11865844Y-13136769D02*
X11865844Y-13184388D01*
X11865844Y-13184388D02*
X11856320Y-13203436D01*
X11856320Y-13203436D02*
X11846796Y-13212960D01*
X11846796Y-13212960D02*
X11827748Y-13222484D01*
X11827748Y-13222484D02*
X11770606Y-13222484D01*
X11770606Y-13222484D02*
X11751558Y-13212960D01*
X11751558Y-13212960D02*
X11742034Y-13203436D01*
X11942034Y-13022484D02*
X11942034Y-13060579D01*
X12018225Y-13022484D02*
X12018225Y-13060579D01*
X12313463Y-13298674D02*
X12303939Y-13289150D01*
X12303939Y-13289150D02*
X12284891Y-13260579D01*
X12284891Y-13260579D02*
X12275368Y-13241531D01*
X12275368Y-13241531D02*
X12265844Y-13212960D01*
X12265844Y-13212960D02*
X12256320Y-13165341D01*
X12256320Y-13165341D02*
X12256320Y-13127246D01*
X12256320Y-13127246D02*
X12265844Y-13079627D01*
X12265844Y-13079627D02*
X12275368Y-13051055D01*
X12275368Y-13051055D02*
X12284891Y-13032008D01*
X12284891Y-13032008D02*
X12303939Y-13003436D01*
X12303939Y-13003436D02*
X12313463Y-12993912D01*
X12370606Y-13022484D02*
X12494415Y-13022484D01*
X12494415Y-13022484D02*
X12427748Y-13098674D01*
X12427748Y-13098674D02*
X12456320Y-13098674D01*
X12456320Y-13098674D02*
X12475368Y-13108198D01*
X12475368Y-13108198D02*
X12484891Y-13117722D01*
X12484891Y-13117722D02*
X12494415Y-13136769D01*
X12494415Y-13136769D02*
X12494415Y-13184388D01*
X12494415Y-13184388D02*
X12484891Y-13203436D01*
X12484891Y-13203436D02*
X12475368Y-13212960D01*
X12475368Y-13212960D02*
X12456320Y-13222484D01*
X12456320Y-13222484D02*
X12399177Y-13222484D01*
X12399177Y-13222484D02*
X12380129Y-13212960D01*
X12380129Y-13212960D02*
X12370606Y-13203436D01*
X12732510Y-13222484D02*
X12732510Y-13022484D01*
X12818225Y-13222484D02*
X12818225Y-13117722D01*
X12818225Y-13117722D02*
X12808701Y-13098674D01*
X12808701Y-13098674D02*
X12789653Y-13089150D01*
X12789653Y-13089150D02*
X12761082Y-13089150D01*
X12761082Y-13089150D02*
X12742034Y-13098674D01*
X12742034Y-13098674D02*
X12732510Y-13108198D01*
X12942034Y-13222484D02*
X12922987Y-13212960D01*
X12922987Y-13212960D02*
X12913463Y-13203436D01*
X12913463Y-13203436D02*
X12903939Y-13184388D01*
X12903939Y-13184388D02*
X12903939Y-13127246D01*
X12903939Y-13127246D02*
X12913463Y-13108198D01*
X12913463Y-13108198D02*
X12922987Y-13098674D01*
X12922987Y-13098674D02*
X12942034Y-13089150D01*
X12942034Y-13089150D02*
X12970606Y-13089150D01*
X12970606Y-13089150D02*
X12989653Y-13098674D01*
X12989653Y-13098674D02*
X12999177Y-13108198D01*
X12999177Y-13108198D02*
X13008701Y-13127246D01*
X13008701Y-13127246D02*
X13008701Y-13184388D01*
X13008701Y-13184388D02*
X12999177Y-13203436D01*
X12999177Y-13203436D02*
X12989653Y-13212960D01*
X12989653Y-13212960D02*
X12970606Y-13222484D01*
X12970606Y-13222484D02*
X12942034Y-13222484D01*
X13122987Y-13222484D02*
X13103939Y-13212960D01*
X13103939Y-13212960D02*
X13094415Y-13193912D01*
X13094415Y-13193912D02*
X13094415Y-13022484D01*
X13275368Y-13212960D02*
X13256320Y-13222484D01*
X13256320Y-13222484D02*
X13218225Y-13222484D01*
X13218225Y-13222484D02*
X13199177Y-13212960D01*
X13199177Y-13212960D02*
X13189653Y-13193912D01*
X13189653Y-13193912D02*
X13189653Y-13117722D01*
X13189653Y-13117722D02*
X13199177Y-13098674D01*
X13199177Y-13098674D02*
X13218225Y-13089150D01*
X13218225Y-13089150D02*
X13256320Y-13089150D01*
X13256320Y-13089150D02*
X13275368Y-13098674D01*
X13275368Y-13098674D02*
X13284891Y-13117722D01*
X13284891Y-13117722D02*
X13284891Y-13136769D01*
X13284891Y-13136769D02*
X13189653Y-13155817D01*
X13361082Y-13212960D02*
X13380130Y-13222484D01*
X13380130Y-13222484D02*
X13418225Y-13222484D01*
X13418225Y-13222484D02*
X13437272Y-13212960D01*
X13437272Y-13212960D02*
X13446796Y-13193912D01*
X13446796Y-13193912D02*
X13446796Y-13184388D01*
X13446796Y-13184388D02*
X13437272Y-13165341D01*
X13437272Y-13165341D02*
X13418225Y-13155817D01*
X13418225Y-13155817D02*
X13389653Y-13155817D01*
X13389653Y-13155817D02*
X13370606Y-13146293D01*
X13370606Y-13146293D02*
X13361082Y-13127246D01*
X13361082Y-13127246D02*
X13361082Y-13117722D01*
X13361082Y-13117722D02*
X13370606Y-13098674D01*
X13370606Y-13098674D02*
X13389653Y-13089150D01*
X13389653Y-13089150D02*
X13418225Y-13089150D01*
X13418225Y-13089150D02*
X13437272Y-13098674D01*
X13513463Y-13298674D02*
X13522987Y-13289150D01*
X13522987Y-13289150D02*
X13542034Y-13260579D01*
X13542034Y-13260579D02*
X13551558Y-13241531D01*
X13551558Y-13241531D02*
X13561082Y-13212960D01*
X13561082Y-13212960D02*
X13570606Y-13165341D01*
X13570606Y-13165341D02*
X13570606Y-13127246D01*
X13570606Y-13127246D02*
X13561082Y-13079627D01*
X13561082Y-13079627D02*
X13551558Y-13051055D01*
X13551558Y-13051055D02*
X13542034Y-13032008D01*
X13542034Y-13032008D02*
X13522987Y-13003436D01*
X13522987Y-13003436D02*
X13513463Y-12993912D01*
D14*
X8719070Y-13441669D02*
X8719070Y-13348330D01*
X8625731Y-13348330D01*
X8625731Y-13441669D01*
X8719070Y-13441669D01*
D11*
X9103939Y-13486484D02*
X8989653Y-13486484D01*
X9046796Y-13486484D02*
X9046796Y-13286484D01*
X9046796Y-13286484D02*
X9027748Y-13315055D01*
X9027748Y-13315055D02*
X9008701Y-13334103D01*
X9008701Y-13334103D02*
X8989653Y-13343627D01*
X9189653Y-13467436D02*
X9199177Y-13476960D01*
X9199177Y-13476960D02*
X9189653Y-13486484D01*
X9189653Y-13486484D02*
X9180129Y-13476960D01*
X9180129Y-13476960D02*
X9189653Y-13467436D01*
X9189653Y-13467436D02*
X9189653Y-13486484D01*
X9265844Y-13286484D02*
X9389653Y-13286484D01*
X9389653Y-13286484D02*
X9322986Y-13362674D01*
X9322986Y-13362674D02*
X9351558Y-13362674D01*
X9351558Y-13362674D02*
X9370605Y-13372198D01*
X9370605Y-13372198D02*
X9380129Y-13381722D01*
X9380129Y-13381722D02*
X9389653Y-13400769D01*
X9389653Y-13400769D02*
X9389653Y-13448388D01*
X9389653Y-13448388D02*
X9380129Y-13467436D01*
X9380129Y-13467436D02*
X9370605Y-13476960D01*
X9370605Y-13476960D02*
X9351558Y-13486484D01*
X9351558Y-13486484D02*
X9294415Y-13486484D01*
X9294415Y-13486484D02*
X9275367Y-13476960D01*
X9275367Y-13476960D02*
X9265844Y-13467436D01*
X9465844Y-13305531D02*
X9475367Y-13296008D01*
X9475367Y-13296008D02*
X9494415Y-13286484D01*
X9494415Y-13286484D02*
X9542034Y-13286484D01*
X9542034Y-13286484D02*
X9561082Y-13296008D01*
X9561082Y-13296008D02*
X9570605Y-13305531D01*
X9570605Y-13305531D02*
X9580129Y-13324579D01*
X9580129Y-13324579D02*
X9580129Y-13343627D01*
X9580129Y-13343627D02*
X9570605Y-13372198D01*
X9570605Y-13372198D02*
X9456320Y-13486484D01*
X9456320Y-13486484D02*
X9580129Y-13486484D01*
X9703939Y-13286484D02*
X9722986Y-13286484D01*
X9722986Y-13286484D02*
X9742034Y-13296008D01*
X9742034Y-13296008D02*
X9751558Y-13305531D01*
X9751558Y-13305531D02*
X9761082Y-13324579D01*
X9761082Y-13324579D02*
X9770605Y-13362674D01*
X9770605Y-13362674D02*
X9770605Y-13410293D01*
X9770605Y-13410293D02*
X9761082Y-13448388D01*
X9761082Y-13448388D02*
X9751558Y-13467436D01*
X9751558Y-13467436D02*
X9742034Y-13476960D01*
X9742034Y-13476960D02*
X9722986Y-13486484D01*
X9722986Y-13486484D02*
X9703939Y-13486484D01*
X9703939Y-13486484D02*
X9684891Y-13476960D01*
X9684891Y-13476960D02*
X9675367Y-13467436D01*
X9675367Y-13467436D02*
X9665844Y-13448388D01*
X9665844Y-13448388D02*
X9656320Y-13410293D01*
X9656320Y-13410293D02*
X9656320Y-13362674D01*
X9656320Y-13362674D02*
X9665844Y-13324579D01*
X9665844Y-13324579D02*
X9675367Y-13305531D01*
X9675367Y-13305531D02*
X9684891Y-13296008D01*
X9684891Y-13296008D02*
X9703939Y-13286484D01*
X9856320Y-13486484D02*
X9856320Y-13353150D01*
X9856320Y-13372198D02*
X9865844Y-13362674D01*
X9865844Y-13362674D02*
X9884891Y-13353150D01*
X9884891Y-13353150D02*
X9913463Y-13353150D01*
X9913463Y-13353150D02*
X9932510Y-13362674D01*
X9932510Y-13362674D02*
X9942034Y-13381722D01*
X9942034Y-13381722D02*
X9942034Y-13486484D01*
X9942034Y-13381722D02*
X9951558Y-13362674D01*
X9951558Y-13362674D02*
X9970605Y-13353150D01*
X9970605Y-13353150D02*
X9999177Y-13353150D01*
X9999177Y-13353150D02*
X10018225Y-13362674D01*
X10018225Y-13362674D02*
X10027748Y-13381722D01*
X10027748Y-13381722D02*
X10027748Y-13486484D01*
X10122986Y-13486484D02*
X10122986Y-13353150D01*
X10122986Y-13372198D02*
X10132510Y-13362674D01*
X10132510Y-13362674D02*
X10151558Y-13353150D01*
X10151558Y-13353150D02*
X10180129Y-13353150D01*
X10180129Y-13353150D02*
X10199177Y-13362674D01*
X10199177Y-13362674D02*
X10208701Y-13381722D01*
X10208701Y-13381722D02*
X10208701Y-13486484D01*
X10208701Y-13381722D02*
X10218225Y-13362674D01*
X10218225Y-13362674D02*
X10237272Y-13353150D01*
X10237272Y-13353150D02*
X10265844Y-13353150D01*
X10265844Y-13353150D02*
X10284891Y-13362674D01*
X10284891Y-13362674D02*
X10294415Y-13381722D01*
X10294415Y-13381722D02*
X10294415Y-13486484D01*
X10684891Y-13276960D02*
X10513463Y-13534103D01*
X10942034Y-13286484D02*
X10961082Y-13286484D01*
X10961082Y-13286484D02*
X10980129Y-13296008D01*
X10980129Y-13296008D02*
X10989653Y-13305531D01*
X10989653Y-13305531D02*
X10999177Y-13324579D01*
X10999177Y-13324579D02*
X11008701Y-13362674D01*
X11008701Y-13362674D02*
X11008701Y-13410293D01*
X11008701Y-13410293D02*
X10999177Y-13448388D01*
X10999177Y-13448388D02*
X10989653Y-13467436D01*
X10989653Y-13467436D02*
X10980129Y-13476960D01*
X10980129Y-13476960D02*
X10961082Y-13486484D01*
X10961082Y-13486484D02*
X10942034Y-13486484D01*
X10942034Y-13486484D02*
X10922987Y-13476960D01*
X10922987Y-13476960D02*
X10913463Y-13467436D01*
X10913463Y-13467436D02*
X10903939Y-13448388D01*
X10903939Y-13448388D02*
X10894415Y-13410293D01*
X10894415Y-13410293D02*
X10894415Y-13362674D01*
X10894415Y-13362674D02*
X10903939Y-13324579D01*
X10903939Y-13324579D02*
X10913463Y-13305531D01*
X10913463Y-13305531D02*
X10922987Y-13296008D01*
X10922987Y-13296008D02*
X10942034Y-13286484D01*
X11094415Y-13467436D02*
X11103939Y-13476960D01*
X11103939Y-13476960D02*
X11094415Y-13486484D01*
X11094415Y-13486484D02*
X11084891Y-13476960D01*
X11084891Y-13476960D02*
X11094415Y-13467436D01*
X11094415Y-13467436D02*
X11094415Y-13486484D01*
X11227748Y-13286484D02*
X11246796Y-13286484D01*
X11246796Y-13286484D02*
X11265844Y-13296008D01*
X11265844Y-13296008D02*
X11275367Y-13305531D01*
X11275367Y-13305531D02*
X11284891Y-13324579D01*
X11284891Y-13324579D02*
X11294415Y-13362674D01*
X11294415Y-13362674D02*
X11294415Y-13410293D01*
X11294415Y-13410293D02*
X11284891Y-13448388D01*
X11284891Y-13448388D02*
X11275367Y-13467436D01*
X11275367Y-13467436D02*
X11265844Y-13476960D01*
X11265844Y-13476960D02*
X11246796Y-13486484D01*
X11246796Y-13486484D02*
X11227748Y-13486484D01*
X11227748Y-13486484D02*
X11208701Y-13476960D01*
X11208701Y-13476960D02*
X11199177Y-13467436D01*
X11199177Y-13467436D02*
X11189653Y-13448388D01*
X11189653Y-13448388D02*
X11180129Y-13410293D01*
X11180129Y-13410293D02*
X11180129Y-13362674D01*
X11180129Y-13362674D02*
X11189653Y-13324579D01*
X11189653Y-13324579D02*
X11199177Y-13305531D01*
X11199177Y-13305531D02*
X11208701Y-13296008D01*
X11208701Y-13296008D02*
X11227748Y-13286484D01*
X11475367Y-13286484D02*
X11380129Y-13286484D01*
X11380129Y-13286484D02*
X11370606Y-13381722D01*
X11370606Y-13381722D02*
X11380129Y-13372198D01*
X11380129Y-13372198D02*
X11399177Y-13362674D01*
X11399177Y-13362674D02*
X11446796Y-13362674D01*
X11446796Y-13362674D02*
X11465844Y-13372198D01*
X11465844Y-13372198D02*
X11475367Y-13381722D01*
X11475367Y-13381722D02*
X11484891Y-13400769D01*
X11484891Y-13400769D02*
X11484891Y-13448388D01*
X11484891Y-13448388D02*
X11475367Y-13467436D01*
X11475367Y-13467436D02*
X11465844Y-13476960D01*
X11465844Y-13476960D02*
X11446796Y-13486484D01*
X11446796Y-13486484D02*
X11399177Y-13486484D01*
X11399177Y-13486484D02*
X11380129Y-13476960D01*
X11380129Y-13476960D02*
X11370606Y-13467436D01*
X11561082Y-13305531D02*
X11570606Y-13296008D01*
X11570606Y-13296008D02*
X11589653Y-13286484D01*
X11589653Y-13286484D02*
X11637272Y-13286484D01*
X11637272Y-13286484D02*
X11656320Y-13296008D01*
X11656320Y-13296008D02*
X11665844Y-13305531D01*
X11665844Y-13305531D02*
X11675367Y-13324579D01*
X11675367Y-13324579D02*
X11675367Y-13343627D01*
X11675367Y-13343627D02*
X11665844Y-13372198D01*
X11665844Y-13372198D02*
X11551558Y-13486484D01*
X11551558Y-13486484D02*
X11675367Y-13486484D01*
X11799177Y-13286484D02*
X11818225Y-13286484D01*
X11818225Y-13286484D02*
X11837272Y-13296008D01*
X11837272Y-13296008D02*
X11846796Y-13305531D01*
X11846796Y-13305531D02*
X11856320Y-13324579D01*
X11856320Y-13324579D02*
X11865844Y-13362674D01*
X11865844Y-13362674D02*
X11865844Y-13410293D01*
X11865844Y-13410293D02*
X11856320Y-13448388D01*
X11856320Y-13448388D02*
X11846796Y-13467436D01*
X11846796Y-13467436D02*
X11837272Y-13476960D01*
X11837272Y-13476960D02*
X11818225Y-13486484D01*
X11818225Y-13486484D02*
X11799177Y-13486484D01*
X11799177Y-13486484D02*
X11780129Y-13476960D01*
X11780129Y-13476960D02*
X11770606Y-13467436D01*
X11770606Y-13467436D02*
X11761082Y-13448388D01*
X11761082Y-13448388D02*
X11751558Y-13410293D01*
X11751558Y-13410293D02*
X11751558Y-13362674D01*
X11751558Y-13362674D02*
X11761082Y-13324579D01*
X11761082Y-13324579D02*
X11770606Y-13305531D01*
X11770606Y-13305531D02*
X11780129Y-13296008D01*
X11780129Y-13296008D02*
X11799177Y-13286484D01*
X11942034Y-13286484D02*
X11942034Y-13324579D01*
X12018225Y-13286484D02*
X12018225Y-13324579D01*
X12313463Y-13562674D02*
X12303939Y-13553150D01*
X12303939Y-13553150D02*
X12284891Y-13524579D01*
X12284891Y-13524579D02*
X12275368Y-13505531D01*
X12275368Y-13505531D02*
X12265844Y-13476960D01*
X12265844Y-13476960D02*
X12256320Y-13429341D01*
X12256320Y-13429341D02*
X12256320Y-13391246D01*
X12256320Y-13391246D02*
X12265844Y-13343627D01*
X12265844Y-13343627D02*
X12275368Y-13315055D01*
X12275368Y-13315055D02*
X12284891Y-13296008D01*
X12284891Y-13296008D02*
X12303939Y-13267436D01*
X12303939Y-13267436D02*
X12313463Y-13257912D01*
X12475368Y-13353150D02*
X12475368Y-13486484D01*
X12427748Y-13276960D02*
X12380129Y-13419817D01*
X12380129Y-13419817D02*
X12503939Y-13419817D01*
X12732510Y-13486484D02*
X12732510Y-13286484D01*
X12818225Y-13486484D02*
X12818225Y-13381722D01*
X12818225Y-13381722D02*
X12808701Y-13362674D01*
X12808701Y-13362674D02*
X12789653Y-13353150D01*
X12789653Y-13353150D02*
X12761082Y-13353150D01*
X12761082Y-13353150D02*
X12742034Y-13362674D01*
X12742034Y-13362674D02*
X12732510Y-13372198D01*
X12942034Y-13486484D02*
X12922987Y-13476960D01*
X12922987Y-13476960D02*
X12913463Y-13467436D01*
X12913463Y-13467436D02*
X12903939Y-13448388D01*
X12903939Y-13448388D02*
X12903939Y-13391246D01*
X12903939Y-13391246D02*
X12913463Y-13372198D01*
X12913463Y-13372198D02*
X12922987Y-13362674D01*
X12922987Y-13362674D02*
X12942034Y-13353150D01*
X12942034Y-13353150D02*
X12970606Y-13353150D01*
X12970606Y-13353150D02*
X12989653Y-13362674D01*
X12989653Y-13362674D02*
X12999177Y-13372198D01*
X12999177Y-13372198D02*
X13008701Y-13391246D01*
X13008701Y-13391246D02*
X13008701Y-13448388D01*
X13008701Y-13448388D02*
X12999177Y-13467436D01*
X12999177Y-13467436D02*
X12989653Y-13476960D01*
X12989653Y-13476960D02*
X12970606Y-13486484D01*
X12970606Y-13486484D02*
X12942034Y-13486484D01*
X13122987Y-13486484D02*
X13103939Y-13476960D01*
X13103939Y-13476960D02*
X13094415Y-13457912D01*
X13094415Y-13457912D02*
X13094415Y-13286484D01*
X13275368Y-13476960D02*
X13256320Y-13486484D01*
X13256320Y-13486484D02*
X13218225Y-13486484D01*
X13218225Y-13486484D02*
X13199177Y-13476960D01*
X13199177Y-13476960D02*
X13189653Y-13457912D01*
X13189653Y-13457912D02*
X13189653Y-13381722D01*
X13189653Y-13381722D02*
X13199177Y-13362674D01*
X13199177Y-13362674D02*
X13218225Y-13353150D01*
X13218225Y-13353150D02*
X13256320Y-13353150D01*
X13256320Y-13353150D02*
X13275368Y-13362674D01*
X13275368Y-13362674D02*
X13284891Y-13381722D01*
X13284891Y-13381722D02*
X13284891Y-13400769D01*
X13284891Y-13400769D02*
X13189653Y-13419817D01*
X13361082Y-13476960D02*
X13380130Y-13486484D01*
X13380130Y-13486484D02*
X13418225Y-13486484D01*
X13418225Y-13486484D02*
X13437272Y-13476960D01*
X13437272Y-13476960D02*
X13446796Y-13457912D01*
X13446796Y-13457912D02*
X13446796Y-13448388D01*
X13446796Y-13448388D02*
X13437272Y-13429341D01*
X13437272Y-13429341D02*
X13418225Y-13419817D01*
X13418225Y-13419817D02*
X13389653Y-13419817D01*
X13389653Y-13419817D02*
X13370606Y-13410293D01*
X13370606Y-13410293D02*
X13361082Y-13391246D01*
X13361082Y-13391246D02*
X13361082Y-13381722D01*
X13361082Y-13381722D02*
X13370606Y-13362674D01*
X13370606Y-13362674D02*
X13389653Y-13353150D01*
X13389653Y-13353150D02*
X13418225Y-13353150D01*
X13418225Y-13353150D02*
X13437272Y-13362674D01*
X13513463Y-13562674D02*
X13522987Y-13553150D01*
X13522987Y-13553150D02*
X13542034Y-13524579D01*
X13542034Y-13524579D02*
X13551558Y-13505531D01*
X13551558Y-13505531D02*
X13561082Y-13476960D01*
X13561082Y-13476960D02*
X13570606Y-13429341D01*
X13570606Y-13429341D02*
X13570606Y-13391246D01*
X13570606Y-13391246D02*
X13561082Y-13343627D01*
X13561082Y-13343627D02*
X13551558Y-13315055D01*
X13551558Y-13315055D02*
X13542034Y-13296008D01*
X13542034Y-13296008D02*
X13522987Y-13267436D01*
X13522987Y-13267436D02*
X13513463Y-13257912D01*
M02*
