%TF.GenerationSoftware,KiCad,Pcbnew,9.0.1*%
%TF.CreationDate,2025-05-05T17:36:47+02:00*%
%TF.ProjectId,Geocachingbox,47656f63-6163-4686-996e-67626f782e6b,rev?*%
%TF.SameCoordinates,Original*%
%TF.FileFunction,Drillmap*%
%TF.FilePolarity,Positive*%
%FSLAX45Y45*%
G04 Gerber Fmt 4.5, Leading zero omitted, Abs format (unit mm)*
G04 Created by KiCad (PCBNEW 9.0.1) date 2025-05-05 17:36:47*
%MOMM*%
%LPD*%
G01*
G04 APERTURE LIST*
%ADD10C,0.050000*%
%ADD11C,0.200000*%
%ADD12C,0.320000*%
G04 APERTURE END LIST*
D10*
X21350000Y-11960500D02*
X21350000Y-6497000D01*
X8740900Y-11960500D02*
X21350000Y-11960500D01*
X8740999Y-6497000D02*
X21350000Y-6497000D01*
X8740900Y-11960500D02*
X8740999Y-6497000D01*
D11*
D12*
X8796800Y-11584600D02*
X9116800Y-11904600D01*
X9116800Y-11584600D02*
X8796800Y-11904600D01*
X8796899Y-6552900D02*
X9116899Y-6872900D01*
X9116899Y-6552900D02*
X8796899Y-6872900D01*
X18508000Y-11584600D02*
X18828000Y-11904600D01*
X18828000Y-11584600D02*
X18508000Y-11904600D01*
X18509000Y-6552900D02*
X18829000Y-6872900D01*
X18829000Y-6552900D02*
X18509000Y-6872900D01*
D11*
X8999177Y-12274484D02*
X8999177Y-12074484D01*
X8999177Y-12074484D02*
X9046796Y-12074484D01*
X9046796Y-12074484D02*
X9075367Y-12084008D01*
X9075367Y-12084008D02*
X9094415Y-12103055D01*
X9094415Y-12103055D02*
X9103939Y-12122103D01*
X9103939Y-12122103D02*
X9113463Y-12160198D01*
X9113463Y-12160198D02*
X9113463Y-12188769D01*
X9113463Y-12188769D02*
X9103939Y-12226865D01*
X9103939Y-12226865D02*
X9094415Y-12245912D01*
X9094415Y-12245912D02*
X9075367Y-12264960D01*
X9075367Y-12264960D02*
X9046796Y-12274484D01*
X9046796Y-12274484D02*
X8999177Y-12274484D01*
X9199177Y-12274484D02*
X9199177Y-12141150D01*
X9199177Y-12179246D02*
X9208701Y-12160198D01*
X9208701Y-12160198D02*
X9218224Y-12150674D01*
X9218224Y-12150674D02*
X9237272Y-12141150D01*
X9237272Y-12141150D02*
X9256320Y-12141150D01*
X9322986Y-12274484D02*
X9322986Y-12141150D01*
X9322986Y-12074484D02*
X9313463Y-12084008D01*
X9313463Y-12084008D02*
X9322986Y-12093531D01*
X9322986Y-12093531D02*
X9332510Y-12084008D01*
X9332510Y-12084008D02*
X9322986Y-12074484D01*
X9322986Y-12074484D02*
X9322986Y-12093531D01*
X9446796Y-12274484D02*
X9427748Y-12264960D01*
X9427748Y-12264960D02*
X9418224Y-12245912D01*
X9418224Y-12245912D02*
X9418224Y-12074484D01*
X9551558Y-12274484D02*
X9532510Y-12264960D01*
X9532510Y-12264960D02*
X9522986Y-12245912D01*
X9522986Y-12245912D02*
X9522986Y-12074484D01*
X9780129Y-12274484D02*
X9780129Y-12074484D01*
X9780129Y-12074484D02*
X9846796Y-12217341D01*
X9846796Y-12217341D02*
X9913463Y-12074484D01*
X9913463Y-12074484D02*
X9913463Y-12274484D01*
X10094415Y-12274484D02*
X10094415Y-12169722D01*
X10094415Y-12169722D02*
X10084891Y-12150674D01*
X10084891Y-12150674D02*
X10065844Y-12141150D01*
X10065844Y-12141150D02*
X10027748Y-12141150D01*
X10027748Y-12141150D02*
X10008701Y-12150674D01*
X10094415Y-12264960D02*
X10075367Y-12274484D01*
X10075367Y-12274484D02*
X10027748Y-12274484D01*
X10027748Y-12274484D02*
X10008701Y-12264960D01*
X10008701Y-12264960D02*
X9999177Y-12245912D01*
X9999177Y-12245912D02*
X9999177Y-12226865D01*
X9999177Y-12226865D02*
X10008701Y-12207817D01*
X10008701Y-12207817D02*
X10027748Y-12198293D01*
X10027748Y-12198293D02*
X10075367Y-12198293D01*
X10075367Y-12198293D02*
X10094415Y-12188769D01*
X10189653Y-12141150D02*
X10189653Y-12341150D01*
X10189653Y-12150674D02*
X10208701Y-12141150D01*
X10208701Y-12141150D02*
X10246796Y-12141150D01*
X10246796Y-12141150D02*
X10265844Y-12150674D01*
X10265844Y-12150674D02*
X10275367Y-12160198D01*
X10275367Y-12160198D02*
X10284891Y-12179246D01*
X10284891Y-12179246D02*
X10284891Y-12236388D01*
X10284891Y-12236388D02*
X10275367Y-12255436D01*
X10275367Y-12255436D02*
X10265844Y-12264960D01*
X10265844Y-12264960D02*
X10246796Y-12274484D01*
X10246796Y-12274484D02*
X10208701Y-12274484D01*
X10208701Y-12274484D02*
X10189653Y-12264960D01*
X10370605Y-12255436D02*
X10380129Y-12264960D01*
X10380129Y-12264960D02*
X10370605Y-12274484D01*
X10370605Y-12274484D02*
X10361082Y-12264960D01*
X10361082Y-12264960D02*
X10370605Y-12255436D01*
X10370605Y-12255436D02*
X10370605Y-12274484D01*
X10370605Y-12150674D02*
X10380129Y-12160198D01*
X10380129Y-12160198D02*
X10370605Y-12169722D01*
X10370605Y-12169722D02*
X10361082Y-12160198D01*
X10361082Y-12160198D02*
X10370605Y-12150674D01*
X10370605Y-12150674D02*
X10370605Y-12169722D01*
X8538400Y-12503000D02*
X8738400Y-12703000D01*
X8738400Y-12503000D02*
X8538400Y-12703000D01*
X8980129Y-12494484D02*
X9103939Y-12494484D01*
X9103939Y-12494484D02*
X9037272Y-12570674D01*
X9037272Y-12570674D02*
X9065844Y-12570674D01*
X9065844Y-12570674D02*
X9084891Y-12580198D01*
X9084891Y-12580198D02*
X9094415Y-12589722D01*
X9094415Y-12589722D02*
X9103939Y-12608769D01*
X9103939Y-12608769D02*
X9103939Y-12656388D01*
X9103939Y-12656388D02*
X9094415Y-12675436D01*
X9094415Y-12675436D02*
X9084891Y-12684960D01*
X9084891Y-12684960D02*
X9065844Y-12694484D01*
X9065844Y-12694484D02*
X9008701Y-12694484D01*
X9008701Y-12694484D02*
X8989653Y-12684960D01*
X8989653Y-12684960D02*
X8980129Y-12675436D01*
X9189653Y-12675436D02*
X9199177Y-12684960D01*
X9199177Y-12684960D02*
X9189653Y-12694484D01*
X9189653Y-12694484D02*
X9180129Y-12684960D01*
X9180129Y-12684960D02*
X9189653Y-12675436D01*
X9189653Y-12675436D02*
X9189653Y-12694484D01*
X9275367Y-12513531D02*
X9284891Y-12504008D01*
X9284891Y-12504008D02*
X9303939Y-12494484D01*
X9303939Y-12494484D02*
X9351558Y-12494484D01*
X9351558Y-12494484D02*
X9370605Y-12504008D01*
X9370605Y-12504008D02*
X9380129Y-12513531D01*
X9380129Y-12513531D02*
X9389653Y-12532579D01*
X9389653Y-12532579D02*
X9389653Y-12551627D01*
X9389653Y-12551627D02*
X9380129Y-12580198D01*
X9380129Y-12580198D02*
X9265844Y-12694484D01*
X9265844Y-12694484D02*
X9389653Y-12694484D01*
X9513463Y-12494484D02*
X9532510Y-12494484D01*
X9532510Y-12494484D02*
X9551558Y-12504008D01*
X9551558Y-12504008D02*
X9561082Y-12513531D01*
X9561082Y-12513531D02*
X9570605Y-12532579D01*
X9570605Y-12532579D02*
X9580129Y-12570674D01*
X9580129Y-12570674D02*
X9580129Y-12618293D01*
X9580129Y-12618293D02*
X9570605Y-12656388D01*
X9570605Y-12656388D02*
X9561082Y-12675436D01*
X9561082Y-12675436D02*
X9551558Y-12684960D01*
X9551558Y-12684960D02*
X9532510Y-12694484D01*
X9532510Y-12694484D02*
X9513463Y-12694484D01*
X9513463Y-12694484D02*
X9494415Y-12684960D01*
X9494415Y-12684960D02*
X9484891Y-12675436D01*
X9484891Y-12675436D02*
X9475367Y-12656388D01*
X9475367Y-12656388D02*
X9465844Y-12618293D01*
X9465844Y-12618293D02*
X9465844Y-12570674D01*
X9465844Y-12570674D02*
X9475367Y-12532579D01*
X9475367Y-12532579D02*
X9484891Y-12513531D01*
X9484891Y-12513531D02*
X9494415Y-12504008D01*
X9494415Y-12504008D02*
X9513463Y-12494484D01*
X9703939Y-12494484D02*
X9722986Y-12494484D01*
X9722986Y-12494484D02*
X9742034Y-12504008D01*
X9742034Y-12504008D02*
X9751558Y-12513531D01*
X9751558Y-12513531D02*
X9761082Y-12532579D01*
X9761082Y-12532579D02*
X9770605Y-12570674D01*
X9770605Y-12570674D02*
X9770605Y-12618293D01*
X9770605Y-12618293D02*
X9761082Y-12656388D01*
X9761082Y-12656388D02*
X9751558Y-12675436D01*
X9751558Y-12675436D02*
X9742034Y-12684960D01*
X9742034Y-12684960D02*
X9722986Y-12694484D01*
X9722986Y-12694484D02*
X9703939Y-12694484D01*
X9703939Y-12694484D02*
X9684891Y-12684960D01*
X9684891Y-12684960D02*
X9675367Y-12675436D01*
X9675367Y-12675436D02*
X9665844Y-12656388D01*
X9665844Y-12656388D02*
X9656320Y-12618293D01*
X9656320Y-12618293D02*
X9656320Y-12570674D01*
X9656320Y-12570674D02*
X9665844Y-12532579D01*
X9665844Y-12532579D02*
X9675367Y-12513531D01*
X9675367Y-12513531D02*
X9684891Y-12504008D01*
X9684891Y-12504008D02*
X9703939Y-12494484D01*
X9856320Y-12694484D02*
X9856320Y-12561150D01*
X9856320Y-12580198D02*
X9865844Y-12570674D01*
X9865844Y-12570674D02*
X9884891Y-12561150D01*
X9884891Y-12561150D02*
X9913463Y-12561150D01*
X9913463Y-12561150D02*
X9932510Y-12570674D01*
X9932510Y-12570674D02*
X9942034Y-12589722D01*
X9942034Y-12589722D02*
X9942034Y-12694484D01*
X9942034Y-12589722D02*
X9951558Y-12570674D01*
X9951558Y-12570674D02*
X9970605Y-12561150D01*
X9970605Y-12561150D02*
X9999177Y-12561150D01*
X9999177Y-12561150D02*
X10018225Y-12570674D01*
X10018225Y-12570674D02*
X10027748Y-12589722D01*
X10027748Y-12589722D02*
X10027748Y-12694484D01*
X10122986Y-12694484D02*
X10122986Y-12561150D01*
X10122986Y-12580198D02*
X10132510Y-12570674D01*
X10132510Y-12570674D02*
X10151558Y-12561150D01*
X10151558Y-12561150D02*
X10180129Y-12561150D01*
X10180129Y-12561150D02*
X10199177Y-12570674D01*
X10199177Y-12570674D02*
X10208701Y-12589722D01*
X10208701Y-12589722D02*
X10208701Y-12694484D01*
X10208701Y-12589722D02*
X10218225Y-12570674D01*
X10218225Y-12570674D02*
X10237272Y-12561150D01*
X10237272Y-12561150D02*
X10265844Y-12561150D01*
X10265844Y-12561150D02*
X10284891Y-12570674D01*
X10284891Y-12570674D02*
X10294415Y-12589722D01*
X10294415Y-12589722D02*
X10294415Y-12694484D01*
X10684891Y-12484960D02*
X10513463Y-12742103D01*
X10942034Y-12494484D02*
X10961082Y-12494484D01*
X10961082Y-12494484D02*
X10980129Y-12504008D01*
X10980129Y-12504008D02*
X10989653Y-12513531D01*
X10989653Y-12513531D02*
X10999177Y-12532579D01*
X10999177Y-12532579D02*
X11008701Y-12570674D01*
X11008701Y-12570674D02*
X11008701Y-12618293D01*
X11008701Y-12618293D02*
X10999177Y-12656388D01*
X10999177Y-12656388D02*
X10989653Y-12675436D01*
X10989653Y-12675436D02*
X10980129Y-12684960D01*
X10980129Y-12684960D02*
X10961082Y-12694484D01*
X10961082Y-12694484D02*
X10942034Y-12694484D01*
X10942034Y-12694484D02*
X10922987Y-12684960D01*
X10922987Y-12684960D02*
X10913463Y-12675436D01*
X10913463Y-12675436D02*
X10903939Y-12656388D01*
X10903939Y-12656388D02*
X10894415Y-12618293D01*
X10894415Y-12618293D02*
X10894415Y-12570674D01*
X10894415Y-12570674D02*
X10903939Y-12532579D01*
X10903939Y-12532579D02*
X10913463Y-12513531D01*
X10913463Y-12513531D02*
X10922987Y-12504008D01*
X10922987Y-12504008D02*
X10942034Y-12494484D01*
X11094415Y-12675436D02*
X11103939Y-12684960D01*
X11103939Y-12684960D02*
X11094415Y-12694484D01*
X11094415Y-12694484D02*
X11084891Y-12684960D01*
X11084891Y-12684960D02*
X11094415Y-12675436D01*
X11094415Y-12675436D02*
X11094415Y-12694484D01*
X11294415Y-12694484D02*
X11180129Y-12694484D01*
X11237272Y-12694484D02*
X11237272Y-12494484D01*
X11237272Y-12494484D02*
X11218225Y-12523055D01*
X11218225Y-12523055D02*
X11199177Y-12542103D01*
X11199177Y-12542103D02*
X11180129Y-12551627D01*
X11370606Y-12513531D02*
X11380129Y-12504008D01*
X11380129Y-12504008D02*
X11399177Y-12494484D01*
X11399177Y-12494484D02*
X11446796Y-12494484D01*
X11446796Y-12494484D02*
X11465844Y-12504008D01*
X11465844Y-12504008D02*
X11475367Y-12513531D01*
X11475367Y-12513531D02*
X11484891Y-12532579D01*
X11484891Y-12532579D02*
X11484891Y-12551627D01*
X11484891Y-12551627D02*
X11475367Y-12580198D01*
X11475367Y-12580198D02*
X11361082Y-12694484D01*
X11361082Y-12694484D02*
X11484891Y-12694484D01*
X11656320Y-12494484D02*
X11618225Y-12494484D01*
X11618225Y-12494484D02*
X11599177Y-12504008D01*
X11599177Y-12504008D02*
X11589653Y-12513531D01*
X11589653Y-12513531D02*
X11570606Y-12542103D01*
X11570606Y-12542103D02*
X11561082Y-12580198D01*
X11561082Y-12580198D02*
X11561082Y-12656388D01*
X11561082Y-12656388D02*
X11570606Y-12675436D01*
X11570606Y-12675436D02*
X11580129Y-12684960D01*
X11580129Y-12684960D02*
X11599177Y-12694484D01*
X11599177Y-12694484D02*
X11637272Y-12694484D01*
X11637272Y-12694484D02*
X11656320Y-12684960D01*
X11656320Y-12684960D02*
X11665844Y-12675436D01*
X11665844Y-12675436D02*
X11675367Y-12656388D01*
X11675367Y-12656388D02*
X11675367Y-12608769D01*
X11675367Y-12608769D02*
X11665844Y-12589722D01*
X11665844Y-12589722D02*
X11656320Y-12580198D01*
X11656320Y-12580198D02*
X11637272Y-12570674D01*
X11637272Y-12570674D02*
X11599177Y-12570674D01*
X11599177Y-12570674D02*
X11580129Y-12580198D01*
X11580129Y-12580198D02*
X11570606Y-12589722D01*
X11570606Y-12589722D02*
X11561082Y-12608769D01*
X11799177Y-12494484D02*
X11818225Y-12494484D01*
X11818225Y-12494484D02*
X11837272Y-12504008D01*
X11837272Y-12504008D02*
X11846796Y-12513531D01*
X11846796Y-12513531D02*
X11856320Y-12532579D01*
X11856320Y-12532579D02*
X11865844Y-12570674D01*
X11865844Y-12570674D02*
X11865844Y-12618293D01*
X11865844Y-12618293D02*
X11856320Y-12656388D01*
X11856320Y-12656388D02*
X11846796Y-12675436D01*
X11846796Y-12675436D02*
X11837272Y-12684960D01*
X11837272Y-12684960D02*
X11818225Y-12694484D01*
X11818225Y-12694484D02*
X11799177Y-12694484D01*
X11799177Y-12694484D02*
X11780129Y-12684960D01*
X11780129Y-12684960D02*
X11770606Y-12675436D01*
X11770606Y-12675436D02*
X11761082Y-12656388D01*
X11761082Y-12656388D02*
X11751558Y-12618293D01*
X11751558Y-12618293D02*
X11751558Y-12570674D01*
X11751558Y-12570674D02*
X11761082Y-12532579D01*
X11761082Y-12532579D02*
X11770606Y-12513531D01*
X11770606Y-12513531D02*
X11780129Y-12504008D01*
X11780129Y-12504008D02*
X11799177Y-12494484D01*
X11942034Y-12494484D02*
X11942034Y-12532579D01*
X12018225Y-12494484D02*
X12018225Y-12532579D01*
X12313463Y-12770674D02*
X12303939Y-12761150D01*
X12303939Y-12761150D02*
X12284891Y-12732579D01*
X12284891Y-12732579D02*
X12275368Y-12713531D01*
X12275368Y-12713531D02*
X12265844Y-12684960D01*
X12265844Y-12684960D02*
X12256320Y-12637341D01*
X12256320Y-12637341D02*
X12256320Y-12599246D01*
X12256320Y-12599246D02*
X12265844Y-12551627D01*
X12265844Y-12551627D02*
X12275368Y-12523055D01*
X12275368Y-12523055D02*
X12284891Y-12504008D01*
X12284891Y-12504008D02*
X12303939Y-12475436D01*
X12303939Y-12475436D02*
X12313463Y-12465912D01*
X12475368Y-12561150D02*
X12475368Y-12694484D01*
X12427748Y-12484960D02*
X12380129Y-12627817D01*
X12380129Y-12627817D02*
X12503939Y-12627817D01*
X12732510Y-12694484D02*
X12732510Y-12494484D01*
X12818225Y-12694484D02*
X12818225Y-12589722D01*
X12818225Y-12589722D02*
X12808701Y-12570674D01*
X12808701Y-12570674D02*
X12789653Y-12561150D01*
X12789653Y-12561150D02*
X12761082Y-12561150D01*
X12761082Y-12561150D02*
X12742034Y-12570674D01*
X12742034Y-12570674D02*
X12732510Y-12580198D01*
X12942034Y-12694484D02*
X12922987Y-12684960D01*
X12922987Y-12684960D02*
X12913463Y-12675436D01*
X12913463Y-12675436D02*
X12903939Y-12656388D01*
X12903939Y-12656388D02*
X12903939Y-12599246D01*
X12903939Y-12599246D02*
X12913463Y-12580198D01*
X12913463Y-12580198D02*
X12922987Y-12570674D01*
X12922987Y-12570674D02*
X12942034Y-12561150D01*
X12942034Y-12561150D02*
X12970606Y-12561150D01*
X12970606Y-12561150D02*
X12989653Y-12570674D01*
X12989653Y-12570674D02*
X12999177Y-12580198D01*
X12999177Y-12580198D02*
X13008701Y-12599246D01*
X13008701Y-12599246D02*
X13008701Y-12656388D01*
X13008701Y-12656388D02*
X12999177Y-12675436D01*
X12999177Y-12675436D02*
X12989653Y-12684960D01*
X12989653Y-12684960D02*
X12970606Y-12694484D01*
X12970606Y-12694484D02*
X12942034Y-12694484D01*
X13122987Y-12694484D02*
X13103939Y-12684960D01*
X13103939Y-12684960D02*
X13094415Y-12665912D01*
X13094415Y-12665912D02*
X13094415Y-12494484D01*
X13275368Y-12684960D02*
X13256320Y-12694484D01*
X13256320Y-12694484D02*
X13218225Y-12694484D01*
X13218225Y-12694484D02*
X13199177Y-12684960D01*
X13199177Y-12684960D02*
X13189653Y-12665912D01*
X13189653Y-12665912D02*
X13189653Y-12589722D01*
X13189653Y-12589722D02*
X13199177Y-12570674D01*
X13199177Y-12570674D02*
X13218225Y-12561150D01*
X13218225Y-12561150D02*
X13256320Y-12561150D01*
X13256320Y-12561150D02*
X13275368Y-12570674D01*
X13275368Y-12570674D02*
X13284891Y-12589722D01*
X13284891Y-12589722D02*
X13284891Y-12608769D01*
X13284891Y-12608769D02*
X13189653Y-12627817D01*
X13361082Y-12684960D02*
X13380130Y-12694484D01*
X13380130Y-12694484D02*
X13418225Y-12694484D01*
X13418225Y-12694484D02*
X13437272Y-12684960D01*
X13437272Y-12684960D02*
X13446796Y-12665912D01*
X13446796Y-12665912D02*
X13446796Y-12656388D01*
X13446796Y-12656388D02*
X13437272Y-12637341D01*
X13437272Y-12637341D02*
X13418225Y-12627817D01*
X13418225Y-12627817D02*
X13389653Y-12627817D01*
X13389653Y-12627817D02*
X13370606Y-12618293D01*
X13370606Y-12618293D02*
X13361082Y-12599246D01*
X13361082Y-12599246D02*
X13361082Y-12589722D01*
X13361082Y-12589722D02*
X13370606Y-12570674D01*
X13370606Y-12570674D02*
X13389653Y-12561150D01*
X13389653Y-12561150D02*
X13418225Y-12561150D01*
X13418225Y-12561150D02*
X13437272Y-12570674D01*
X13513463Y-12770674D02*
X13522987Y-12761150D01*
X13522987Y-12761150D02*
X13542034Y-12732579D01*
X13542034Y-12732579D02*
X13551558Y-12713531D01*
X13551558Y-12713531D02*
X13561082Y-12684960D01*
X13561082Y-12684960D02*
X13570606Y-12637341D01*
X13570606Y-12637341D02*
X13570606Y-12599246D01*
X13570606Y-12599246D02*
X13561082Y-12551627D01*
X13561082Y-12551627D02*
X13551558Y-12523055D01*
X13551558Y-12523055D02*
X13542034Y-12504008D01*
X13542034Y-12504008D02*
X13522987Y-12475436D01*
X13522987Y-12475436D02*
X13513463Y-12465912D01*
X13875368Y-12770674D02*
X13865844Y-12761150D01*
X13865844Y-12761150D02*
X13846796Y-12732579D01*
X13846796Y-12732579D02*
X13837272Y-12713531D01*
X13837272Y-12713531D02*
X13827749Y-12684960D01*
X13827749Y-12684960D02*
X13818225Y-12637341D01*
X13818225Y-12637341D02*
X13818225Y-12599246D01*
X13818225Y-12599246D02*
X13827749Y-12551627D01*
X13827749Y-12551627D02*
X13837272Y-12523055D01*
X13837272Y-12523055D02*
X13846796Y-12504008D01*
X13846796Y-12504008D02*
X13865844Y-12475436D01*
X13865844Y-12475436D02*
X13875368Y-12465912D01*
X13951558Y-12561150D02*
X13951558Y-12694484D01*
X13951558Y-12580198D02*
X13961082Y-12570674D01*
X13961082Y-12570674D02*
X13980130Y-12561150D01*
X13980130Y-12561150D02*
X14008701Y-12561150D01*
X14008701Y-12561150D02*
X14027749Y-12570674D01*
X14027749Y-12570674D02*
X14037272Y-12589722D01*
X14037272Y-12589722D02*
X14037272Y-12694484D01*
X14161082Y-12694484D02*
X14142034Y-12684960D01*
X14142034Y-12684960D02*
X14132511Y-12675436D01*
X14132511Y-12675436D02*
X14122987Y-12656388D01*
X14122987Y-12656388D02*
X14122987Y-12599246D01*
X14122987Y-12599246D02*
X14132511Y-12580198D01*
X14132511Y-12580198D02*
X14142034Y-12570674D01*
X14142034Y-12570674D02*
X14161082Y-12561150D01*
X14161082Y-12561150D02*
X14189653Y-12561150D01*
X14189653Y-12561150D02*
X14208701Y-12570674D01*
X14208701Y-12570674D02*
X14218225Y-12580198D01*
X14218225Y-12580198D02*
X14227749Y-12599246D01*
X14227749Y-12599246D02*
X14227749Y-12656388D01*
X14227749Y-12656388D02*
X14218225Y-12675436D01*
X14218225Y-12675436D02*
X14208701Y-12684960D01*
X14208701Y-12684960D02*
X14189653Y-12694484D01*
X14189653Y-12694484D02*
X14161082Y-12694484D01*
X14284892Y-12561150D02*
X14361082Y-12561150D01*
X14313463Y-12494484D02*
X14313463Y-12665912D01*
X14313463Y-12665912D02*
X14322987Y-12684960D01*
X14322987Y-12684960D02*
X14342034Y-12694484D01*
X14342034Y-12694484D02*
X14361082Y-12694484D01*
X14580130Y-12561150D02*
X14580130Y-12761150D01*
X14580130Y-12570674D02*
X14599177Y-12561150D01*
X14599177Y-12561150D02*
X14637273Y-12561150D01*
X14637273Y-12561150D02*
X14656320Y-12570674D01*
X14656320Y-12570674D02*
X14665844Y-12580198D01*
X14665844Y-12580198D02*
X14675368Y-12599246D01*
X14675368Y-12599246D02*
X14675368Y-12656388D01*
X14675368Y-12656388D02*
X14665844Y-12675436D01*
X14665844Y-12675436D02*
X14656320Y-12684960D01*
X14656320Y-12684960D02*
X14637273Y-12694484D01*
X14637273Y-12694484D02*
X14599177Y-12694484D01*
X14599177Y-12694484D02*
X14580130Y-12684960D01*
X14789653Y-12694484D02*
X14770606Y-12684960D01*
X14770606Y-12684960D02*
X14761082Y-12665912D01*
X14761082Y-12665912D02*
X14761082Y-12494484D01*
X14951558Y-12694484D02*
X14951558Y-12589722D01*
X14951558Y-12589722D02*
X14942034Y-12570674D01*
X14942034Y-12570674D02*
X14922987Y-12561150D01*
X14922987Y-12561150D02*
X14884892Y-12561150D01*
X14884892Y-12561150D02*
X14865844Y-12570674D01*
X14951558Y-12684960D02*
X14932511Y-12694484D01*
X14932511Y-12694484D02*
X14884892Y-12694484D01*
X14884892Y-12694484D02*
X14865844Y-12684960D01*
X14865844Y-12684960D02*
X14856320Y-12665912D01*
X14856320Y-12665912D02*
X14856320Y-12646865D01*
X14856320Y-12646865D02*
X14865844Y-12627817D01*
X14865844Y-12627817D02*
X14884892Y-12618293D01*
X14884892Y-12618293D02*
X14932511Y-12618293D01*
X14932511Y-12618293D02*
X14951558Y-12608769D01*
X15018225Y-12561150D02*
X15094415Y-12561150D01*
X15046796Y-12494484D02*
X15046796Y-12665912D01*
X15046796Y-12665912D02*
X15056320Y-12684960D01*
X15056320Y-12684960D02*
X15075368Y-12694484D01*
X15075368Y-12694484D02*
X15094415Y-12694484D01*
X15237273Y-12684960D02*
X15218225Y-12694484D01*
X15218225Y-12694484D02*
X15180130Y-12694484D01*
X15180130Y-12694484D02*
X15161082Y-12684960D01*
X15161082Y-12684960D02*
X15151558Y-12665912D01*
X15151558Y-12665912D02*
X15151558Y-12589722D01*
X15151558Y-12589722D02*
X15161082Y-12570674D01*
X15161082Y-12570674D02*
X15180130Y-12561150D01*
X15180130Y-12561150D02*
X15218225Y-12561150D01*
X15218225Y-12561150D02*
X15237273Y-12570674D01*
X15237273Y-12570674D02*
X15246796Y-12589722D01*
X15246796Y-12589722D02*
X15246796Y-12608769D01*
X15246796Y-12608769D02*
X15151558Y-12627817D01*
X15418225Y-12694484D02*
X15418225Y-12494484D01*
X15418225Y-12684960D02*
X15399177Y-12694484D01*
X15399177Y-12694484D02*
X15361082Y-12694484D01*
X15361082Y-12694484D02*
X15342034Y-12684960D01*
X15342034Y-12684960D02*
X15332511Y-12675436D01*
X15332511Y-12675436D02*
X15322987Y-12656388D01*
X15322987Y-12656388D02*
X15322987Y-12599246D01*
X15322987Y-12599246D02*
X15332511Y-12580198D01*
X15332511Y-12580198D02*
X15342034Y-12570674D01*
X15342034Y-12570674D02*
X15361082Y-12561150D01*
X15361082Y-12561150D02*
X15399177Y-12561150D01*
X15399177Y-12561150D02*
X15418225Y-12570674D01*
X15494415Y-12770674D02*
X15503939Y-12761150D01*
X15503939Y-12761150D02*
X15522987Y-12732579D01*
X15522987Y-12732579D02*
X15532511Y-12713531D01*
X15532511Y-12713531D02*
X15542034Y-12684960D01*
X15542034Y-12684960D02*
X15551558Y-12637341D01*
X15551558Y-12637341D02*
X15551558Y-12599246D01*
X15551558Y-12599246D02*
X15542034Y-12551627D01*
X15542034Y-12551627D02*
X15532511Y-12523055D01*
X15532511Y-12523055D02*
X15522987Y-12504008D01*
X15522987Y-12504008D02*
X15503939Y-12475436D01*
X15503939Y-12475436D02*
X15494415Y-12465912D01*
M02*
