%TF.GenerationSoftware,KiCad,Pcbnew,9.0.1*%
%TF.CreationDate,2025-05-05T17:36:54+02:00*%
%TF.ProjectId,Geocachingbox,47656f63-6163-4686-996e-67626f782e6b,rev?*%
%TF.SameCoordinates,Original*%
%TF.FileFunction,Copper,L2,Bot*%
%TF.FilePolarity,Positive*%
%FSLAX46Y46*%
G04 Gerber Fmt 4.6, Leading zero omitted, Abs format (unit mm)*
G04 Created by KiCad (PCBNEW 9.0.1) date 2025-05-05 17:36:54*
%MOMM*%
%LPD*%
G01*
G04 APERTURE LIST*
%TA.AperFunction,ComponentPad*%
%ADD10R,1.700000X1.700000*%
%TD*%
%TA.AperFunction,ComponentPad*%
%ADD11C,1.700000*%
%TD*%
%TA.AperFunction,ComponentPad*%
%ADD12R,1.980000X3.960000*%
%TD*%
%TA.AperFunction,ComponentPad*%
%ADD13O,1.980000X3.960000*%
%TD*%
%TA.AperFunction,ComponentPad*%
%ADD14R,3.960000X1.980000*%
%TD*%
%TA.AperFunction,ComponentPad*%
%ADD15O,3.960000X1.980000*%
%TD*%
%TA.AperFunction,ComponentPad*%
%ADD16R,2.000000X1.905000*%
%TD*%
%TA.AperFunction,ComponentPad*%
%ADD17O,2.000000X1.905000*%
%TD*%
%TA.AperFunction,ViaPad*%
%ADD18C,0.600000*%
%TD*%
%TA.AperFunction,Conductor*%
%ADD19C,0.300000*%
%TD*%
%TA.AperFunction,Conductor*%
%ADD20C,0.450000*%
%TD*%
G04 APERTURE END LIST*
D10*
%TO.P,J9,1,Pin_1*%
%TO.N,Tilt_Sens*%
X134260000Y-110000000D03*
D11*
%TO.P,J9,2,Pin_2*%
%TO.N,GND*%
X136800000Y-110000000D03*
%TO.P,J9,3,Pin_3*%
%TO.N,+3.3V*%
X139340000Y-110000000D03*
%TD*%
D12*
%TO.P,3BAT1,1,+*%
%TO.N,+VBATT*%
X112500000Y-112235000D03*
D13*
%TO.P,3BAT1,2,-*%
%TO.N,GND*%
X107500000Y-112235000D03*
%TD*%
D10*
%TO.P,J3,1,Pin_1*%
%TO.N,unconnected-(J3-Pin_1-Pad1)*%
X169800000Y-113890000D03*
D11*
%TO.P,J3,2,Pin_2*%
%TO.N,ADC_X*%
X169800000Y-116430000D03*
%TO.P,J3,3,Pin_3*%
%TO.N,unconnected-(J3-Pin_3-Pad3)*%
X167260000Y-113890000D03*
%TO.P,J3,4,Pin_4*%
%TO.N,ADC_Y*%
X167260000Y-116430000D03*
%TO.P,J3,5,Pin_5*%
%TO.N,unconnected-(J3-Pin_5-Pad5)*%
X164720000Y-113890000D03*
%TO.P,J3,6,Pin_6*%
%TO.N,unconnected-(J3-Pin_6-Pad6)*%
X164720000Y-116430000D03*
%TO.P,J3,7,Pin_7*%
%TO.N,unconnected-(J3-Pin_7-Pad7)*%
X162180000Y-113890000D03*
%TO.P,J3,8,Pin_8*%
%TO.N,unconnected-(J3-Pin_8-Pad8)*%
X162180000Y-116430000D03*
%TO.P,J3,9,Pin_9*%
%TO.N,unconnected-(J3-Pin_9-Pad9)*%
X159640000Y-113890000D03*
%TO.P,J3,10,Pin_10*%
%TO.N,unconnected-(J3-Pin_10-Pad10)*%
X159640000Y-116430000D03*
%TO.P,J3,11,Pin_11*%
%TO.N,unconnected-(J3-Pin_11-Pad11)*%
X157100000Y-113890000D03*
%TO.P,J3,12,Pin_12*%
%TO.N,unconnected-(J3-Pin_12-Pad12)*%
X157100000Y-116430000D03*
%TD*%
D10*
%TO.P,J2,1,Pin_1*%
%TO.N,unconnected-(J2-Pin_1-Pad1)*%
X147956000Y-68145000D03*
D11*
%TO.P,J2,2,Pin_2*%
%TO.N,unconnected-(J2-Pin_2-Pad2)*%
X147956000Y-70685000D03*
%TO.P,J2,3,Pin_3*%
%TO.N,unconnected-(J2-Pin_3-Pad3)*%
X145416000Y-68145000D03*
%TO.P,J2,4,Pin_4*%
%TO.N,unconnected-(J2-Pin_4-Pad4)*%
X145416000Y-70685000D03*
%TO.P,J2,5,Pin_5*%
%TO.N,Column_3*%
X142876000Y-68145000D03*
%TO.P,J2,6,Pin_6*%
%TO.N,Line_3*%
X142876000Y-70685000D03*
%TO.P,J2,7,Pin_7*%
%TO.N,unconnected-(J2-Pin_7-Pad7)*%
X140336000Y-68145000D03*
%TO.P,J2,8,Pin_8*%
%TO.N,Line_1*%
X140336000Y-70685000D03*
%TO.P,J2,9,Pin_9*%
%TO.N,unconnected-(J2-Pin_9-Pad9)*%
X137796000Y-68145000D03*
%TO.P,J2,10,Pin_10*%
%TO.N,Line_2*%
X137796000Y-70685000D03*
%TO.P,J2,11,Pin_11*%
%TO.N,unconnected-(J2-Pin_11-Pad11)*%
X135256000Y-68145000D03*
%TO.P,J2,12,Pin_12*%
%TO.N,unconnected-(J2-Pin_12-Pad12)*%
X135256000Y-70685000D03*
%TO.P,J2,13,Pin_13*%
%TO.N,GND*%
X132716000Y-68145000D03*
%TO.P,J2,14,Pin_14*%
%TO.N,unconnected-(J2-Pin_14-Pad14)*%
X132716000Y-70685000D03*
%TO.P,J2,15,Pin_15*%
%TO.N,unconnected-(J2-Pin_15-Pad15)*%
X130176000Y-68145000D03*
%TO.P,J2,16,Pin_16*%
%TO.N,unconnected-(J2-Pin_16-Pad16)*%
X130176000Y-70685000D03*
%TO.P,J2,17,Pin_17*%
%TO.N,unconnected-(J2-Pin_17-Pad17)*%
X127636000Y-68145000D03*
%TO.P,J2,18,Pin_18*%
%TO.N,unconnected-(J2-Pin_18-Pad18)*%
X127636000Y-70685000D03*
%TO.P,J2,19,Pin_19*%
%TO.N,unconnected-(J2-Pin_19-Pad19)*%
X125096000Y-68145000D03*
%TO.P,J2,20,Pin_20*%
%TO.N,unconnected-(J2-Pin_20-Pad20)*%
X125096000Y-70685000D03*
%TD*%
D10*
%TO.P,J10,1,Pin_1*%
%TO.N,+3.3V*%
X142800000Y-79800000D03*
D11*
%TO.P,J10,2,Pin_2*%
%TO.N,SDA*%
X142800000Y-82340000D03*
%TO.P,J10,3,Pin_3*%
%TO.N,SCL*%
X142800000Y-84880000D03*
%TO.P,J10,4,Pin_4*%
%TO.N,GND*%
X142800000Y-87420000D03*
%TD*%
D10*
%TO.P,J7,1,Pin_1*%
%TO.N,GND*%
X169120000Y-96235000D03*
D11*
%TO.P,J7,2,Pin_2*%
%TO.N,+3.3V*%
X166580000Y-96235000D03*
%TO.P,J7,3,Pin_3*%
%TO.N,MISO*%
X164040000Y-96235000D03*
%TO.P,J7,4,Pin_4*%
%TO.N,MOSI*%
X161500000Y-96235000D03*
%TO.P,J7,5,Pin_5*%
%TO.N,SCK*%
X158960000Y-96235000D03*
%TO.P,J7,6,Pin_6*%
%TO.N,CS*%
X156420000Y-96235000D03*
%TD*%
D10*
%TO.P,J5,1,Pin_1*%
%TO.N,GND*%
X169160000Y-103095000D03*
D11*
%TO.P,J5,2,Pin_2*%
%TO.N,+3.3V*%
X166620000Y-103095000D03*
%TO.P,J5,3,Pin_3*%
%TO.N,MISO*%
X164080000Y-103095000D03*
%TO.P,J5,4,Pin_4*%
%TO.N,MOSI*%
X161540000Y-103095000D03*
%TO.P,J5,5,Pin_5*%
%TO.N,SCK*%
X159000000Y-103095000D03*
%TO.P,J5,6,Pin_6*%
%TO.N,CS*%
X156460000Y-103095000D03*
%TO.P,J5,7,Pin_7*%
%TO.N,unconnected-(J5-Pin_7-Pad7)*%
X153920000Y-103095000D03*
%TO.P,J5,8,Pin_8*%
%TO.N,unconnected-(J5-Pin_8-Pad8)*%
X151380000Y-103095000D03*
%TD*%
D14*
%TO.P,J8,1,Pin_1*%
%TO.N,+6V*%
X97000000Y-88000000D03*
D15*
%TO.P,J8,2,Pin_2*%
%TO.N,Net-(D1-A)*%
X97000000Y-83000000D03*
%TD*%
D16*
%TO.P,Q1,1*%
%TO.N,GND*%
X109945000Y-87740000D03*
D17*
%TO.P,Q1,2*%
%TO.N,Net-(Q1-Pad2)*%
X109945000Y-85200000D03*
%TO.P,Q1,3*%
%TO.N,Net-(D1-A)*%
X109945000Y-82660000D03*
%TD*%
D10*
%TO.P,J6,1,Pin_1*%
%TO.N,GND*%
X169160000Y-80235000D03*
D11*
%TO.P,J6,2,Pin_2*%
%TO.N,+5V*%
X166620000Y-80235000D03*
%TO.P,J6,3,Pin_3*%
%TO.N,SDA*%
X164080000Y-80235000D03*
%TO.P,J6,4,Pin_4*%
%TO.N,SCL*%
X161540000Y-80235000D03*
%TO.P,J6,5,Pin_5*%
%TO.N,TX*%
X159000000Y-80235000D03*
%TO.P,J6,6,Pin_6*%
%TO.N,RX*%
X156460000Y-80235000D03*
%TO.P,J6,7,Pin_7*%
%TO.N,unconnected-(J6-Pin_7-Pad7)*%
X153920000Y-80235000D03*
%TO.P,J6,8,Pin_8*%
%TO.N,unconnected-(J6-Pin_8-Pad8)*%
X151380000Y-80235000D03*
%TD*%
D10*
%TO.P,J13,1,Pin_1*%
%TO.N,GND*%
X135000000Y-79800000D03*
D11*
%TO.P,J13,2,Pin_2*%
%TO.N,+5V*%
X135000000Y-82340000D03*
%TO.P,J13,3,Pin_3*%
%TO.N,SDA*%
X135000000Y-84880000D03*
%TO.P,J13,4,Pin_4*%
%TO.N,SCL*%
X135000000Y-87420000D03*
%TD*%
D10*
%TO.P,J4,1,Pin_1*%
%TO.N,unconnected-(J4-Pin_1-Pad1)*%
X152019000Y-113890000D03*
D11*
%TO.P,J4,2,Pin_2*%
%TO.N,unconnected-(J4-Pin_2-Pad2)*%
X152019000Y-116430000D03*
%TO.P,J4,3,Pin_3*%
%TO.N,unconnected-(J4-Pin_3-Pad3)*%
X149479000Y-113890000D03*
%TO.P,J4,4,Pin_4*%
%TO.N,GND*%
X149479000Y-116430000D03*
%TO.P,J4,5,Pin_5*%
%TO.N,unconnected-(J4-Pin_5-Pad5)*%
X146939000Y-113890000D03*
%TO.P,J4,6,Pin_6*%
%TO.N,GND*%
X146939000Y-116430000D03*
%TO.P,J4,7,Pin_7*%
%TO.N,unconnected-(J4-Pin_7-Pad7)*%
X144399000Y-113890000D03*
%TO.P,J4,8,Pin_8*%
%TO.N,SYS_5V0*%
X144399000Y-116430000D03*
%TO.P,J4,9,Pin_9*%
%TO.N,unconnected-(J4-Pin_9-Pad9)*%
X141859000Y-113890000D03*
%TO.P,J4,10,Pin_10*%
%TO.N,+3.3V*%
X141859000Y-116430000D03*
%TO.P,J4,11,Pin_11*%
%TO.N,unconnected-(J4-Pin_11-Pad11)*%
X139319000Y-113890000D03*
%TO.P,J4,12,Pin_12*%
%TO.N,unconnected-(J4-Pin_12-Pad12)*%
X139319000Y-116430000D03*
%TO.P,J4,13,Pin_13*%
%TO.N,unconnected-(J4-Pin_13-Pad13)*%
X136779000Y-113890000D03*
%TO.P,J4,14,Pin_14*%
%TO.N,unconnected-(J4-Pin_14-Pad14)*%
X136779000Y-116430000D03*
%TO.P,J4,15,Pin_15*%
%TO.N,Tilt_Sens*%
X134239000Y-113890000D03*
%TO.P,J4,16,Pin_16*%
%TO.N,unconnected-(J4-Pin_16-Pad16)*%
X134239000Y-116430000D03*
%TD*%
D10*
%TO.P,J1,1,Pin_1*%
%TO.N,unconnected-(J1-Pin_1-Pad1)*%
X169800000Y-68145000D03*
D11*
%TO.P,J1,2,Pin_2*%
%TO.N,unconnected-(J1-Pin_2-Pad2)*%
X169800000Y-70685000D03*
%TO.P,J1,3,Pin_3*%
%TO.N,unconnected-(J1-Pin_3-Pad3)*%
X167260000Y-68145000D03*
%TO.P,J1,4,Pin_4*%
%TO.N,unconnected-(J1-Pin_4-Pad4)*%
X167260000Y-70685000D03*
%TO.P,J1,5,Pin_5*%
%TO.N,Column_1*%
X164720000Y-68145000D03*
%TO.P,J1,6,Pin_6*%
%TO.N,unconnected-(J1-Pin_6-Pad6)*%
X164720000Y-70685000D03*
%TO.P,J1,7,Pin_7*%
%TO.N,unconnected-(J1-Pin_7-Pad7)*%
X162180000Y-68145000D03*
%TO.P,J1,8,Pin_8*%
%TO.N,unconnected-(J1-Pin_8-Pad8)*%
X162180000Y-70685000D03*
%TO.P,J1,9,Pin_9*%
%TO.N,Column_2*%
X159640000Y-68145000D03*
%TO.P,J1,10,Pin_10*%
%TO.N,unconnected-(J1-Pin_10-Pad10)*%
X159640000Y-70685000D03*
%TO.P,J1,11,Pin_11*%
%TO.N,PWM_Mosfet*%
X157100000Y-68145000D03*
%TO.P,J1,12,Pin_12*%
%TO.N,unconnected-(J1-Pin_12-Pad12)*%
X157100000Y-70685000D03*
%TO.P,J1,13,Pin_13*%
%TO.N,unconnected-(J1-Pin_13-Pad13)*%
X154560000Y-68145000D03*
%TO.P,J1,14,Pin_14*%
%TO.N,unconnected-(J1-Pin_14-Pad14)*%
X154560000Y-70685000D03*
%TO.P,J1,15,Pin_15*%
%TO.N,unconnected-(J1-Pin_15-Pad15)*%
X152020000Y-68145000D03*
%TO.P,J1,16,Pin_16*%
%TO.N,unconnected-(J1-Pin_16-Pad16)*%
X152020000Y-70685000D03*
%TD*%
D10*
%TO.P,J11,1,Pin_1*%
%TO.N,+3.3V*%
X169040000Y-84235000D03*
D11*
%TO.P,J11,2,Pin_2*%
%TO.N,GND*%
X166500000Y-84235000D03*
%TO.P,J11,3,Pin_3*%
%TO.N,RX*%
X163960000Y-84235000D03*
%TO.P,J11,4,Pin_4*%
%TO.N,TX*%
X161420000Y-84235000D03*
%TO.P,J11,5,Pin_5*%
%TO.N,unconnected-(J11-Pin_5-Pad5)*%
X158880000Y-84235000D03*
%TD*%
D10*
%TO.P,J12,1,Pin_1*%
%TO.N,GND*%
X167500000Y-109735000D03*
D11*
%TO.P,J12,2,Pin_2*%
%TO.N,+3.3V*%
X164960000Y-109735000D03*
%TO.P,J12,3,Pin_3*%
%TO.N,ADC_X*%
X162420000Y-109735000D03*
%TO.P,J12,4,Pin_4*%
%TO.N,ADC_Y*%
X159880000Y-109735000D03*
%TO.P,J12,5,Pin_5*%
%TO.N,unconnected-(J12-Pin_5-Pad5)*%
X157340000Y-109735000D03*
%TD*%
D10*
%TO.P,J14,1,Pin_1*%
%TO.N,unconnected-(J14-Pin_1-Pad1)*%
X138800000Y-79760000D03*
D11*
%TO.P,J14,2,Pin_2*%
%TO.N,GND*%
X138800000Y-82300000D03*
%TO.P,J14,3,Pin_3*%
%TO.N,+3.3V*%
X138800000Y-84840000D03*
%TO.P,J14,4,Pin_4*%
%TO.N,SCL*%
X138800000Y-87380000D03*
%TO.P,J14,5,Pin_5*%
%TO.N,SDA*%
X138800000Y-89920000D03*
%TO.P,J14,6,Pin_6*%
%TO.N,unconnected-(J14-Pin_6-Pad6)*%
X138800000Y-92460000D03*
%TO.P,J14,7,Pin_7*%
%TO.N,unconnected-(J14-Pin_7-Pad7)*%
X138800000Y-95000000D03*
%TD*%
D18*
%TO.N,GND*%
X93500000Y-103600000D03*
X101590000Y-97400000D03*
X122400000Y-103800000D03*
%TO.N,Column_1*%
X188360000Y-100400000D03*
X175750000Y-75500000D03*
X175750000Y-73000000D03*
X188370000Y-85120000D03*
X188370000Y-87120000D03*
X188360000Y-98300000D03*
%TO.N,Column_2*%
X199900000Y-73600000D03*
X199700000Y-100400000D03*
X199700000Y-98300000D03*
X199680000Y-85100000D03*
X199900000Y-70900000D03*
X199680000Y-87180000D03*
%TO.N,+3.3V*%
X146900000Y-81000000D03*
%TD*%
D19*
%TO.N,Column_1*%
X188360000Y-100400000D02*
X188360000Y-98300000D01*
X188370000Y-87120000D02*
X188370000Y-85120000D01*
X175750000Y-73000000D02*
X175750000Y-75500000D01*
%TO.N,Column_2*%
X199900000Y-70900000D02*
X199900000Y-73600000D01*
X199680000Y-85100000D02*
X199680000Y-87180000D01*
X199700000Y-100400000D02*
X199700000Y-98300000D01*
D20*
%TO.N,+3.3V*%
X142800000Y-79800000D02*
X145700000Y-79800000D01*
X145700000Y-79800000D02*
X146900000Y-81000000D01*
D19*
%TO.N,SDA*%
X137100000Y-86980000D02*
X135000000Y-84880000D01*
X140800000Y-87920000D02*
X138800000Y-89920000D01*
X140800000Y-84340000D02*
X140800000Y-87920000D01*
X142800000Y-82340000D02*
X140800000Y-84340000D01*
X138800000Y-89920000D02*
X137100000Y-88220000D01*
X137100000Y-88220000D02*
X137100000Y-86980000D01*
%TD*%
%TA.AperFunction,Conductor*%
%TO.N,GND*%
G36*
X145740444Y-114543999D02*
G01*
X145779486Y-114589056D01*
X145783951Y-114597820D01*
X145908890Y-114769786D01*
X146059213Y-114920109D01*
X146231179Y-115045048D01*
X146231181Y-115045049D01*
X146231184Y-115045051D01*
X146240493Y-115049794D01*
X146291290Y-115097766D01*
X146308087Y-115165587D01*
X146285552Y-115231722D01*
X146240505Y-115270760D01*
X146231446Y-115275376D01*
X146231440Y-115275380D01*
X146177282Y-115314727D01*
X146177282Y-115314728D01*
X146809591Y-115947037D01*
X146746007Y-115964075D01*
X146631993Y-116029901D01*
X146538901Y-116122993D01*
X146473075Y-116237007D01*
X146456037Y-116300591D01*
X145823728Y-115668282D01*
X145823727Y-115668282D01*
X145784380Y-115722440D01*
X145784376Y-115722446D01*
X145779760Y-115731505D01*
X145731781Y-115782297D01*
X145663959Y-115799087D01*
X145597826Y-115776543D01*
X145558794Y-115731493D01*
X145554051Y-115722184D01*
X145554049Y-115722181D01*
X145554048Y-115722179D01*
X145429109Y-115550213D01*
X145278786Y-115399890D01*
X145106820Y-115274951D01*
X145098600Y-115270763D01*
X145098054Y-115270485D01*
X145047259Y-115222512D01*
X145030463Y-115154692D01*
X145052999Y-115088556D01*
X145098054Y-115049515D01*
X145106816Y-115045051D01*
X145193138Y-114982335D01*
X145278786Y-114920109D01*
X145278788Y-114920106D01*
X145278792Y-114920104D01*
X145429104Y-114769792D01*
X145429106Y-114769788D01*
X145429109Y-114769786D01*
X145554048Y-114597820D01*
X145554047Y-114597820D01*
X145554051Y-114597816D01*
X145558514Y-114589054D01*
X145606488Y-114538259D01*
X145674308Y-114521463D01*
X145740444Y-114543999D01*
G37*
%TD.AperFunction*%
%TA.AperFunction,Conductor*%
G36*
X148280444Y-114543999D02*
G01*
X148319486Y-114589056D01*
X148323951Y-114597820D01*
X148448890Y-114769786D01*
X148599213Y-114920109D01*
X148771179Y-115045048D01*
X148771181Y-115045049D01*
X148771184Y-115045051D01*
X148780493Y-115049794D01*
X148831290Y-115097766D01*
X148848087Y-115165587D01*
X148825552Y-115231722D01*
X148780505Y-115270760D01*
X148771446Y-115275376D01*
X148771440Y-115275380D01*
X148717282Y-115314727D01*
X148717282Y-115314728D01*
X149349591Y-115947037D01*
X149286007Y-115964075D01*
X149171993Y-116029901D01*
X149078901Y-116122993D01*
X149013075Y-116237007D01*
X148996037Y-116300591D01*
X148363728Y-115668282D01*
X148363727Y-115668282D01*
X148324380Y-115722440D01*
X148319483Y-115732051D01*
X148271506Y-115782845D01*
X148203684Y-115799638D01*
X148137550Y-115777098D01*
X148098516Y-115732048D01*
X148093626Y-115722452D01*
X148054270Y-115668282D01*
X148054269Y-115668282D01*
X147421962Y-116300590D01*
X147404925Y-116237007D01*
X147339099Y-116122993D01*
X147246007Y-116029901D01*
X147131993Y-115964075D01*
X147068409Y-115947037D01*
X147700716Y-115314728D01*
X147646547Y-115275373D01*
X147646547Y-115275372D01*
X147637500Y-115270763D01*
X147586706Y-115222788D01*
X147569912Y-115154966D01*
X147592451Y-115088832D01*
X147637508Y-115049793D01*
X147646816Y-115045051D01*
X147733147Y-114982328D01*
X147818786Y-114920109D01*
X147818788Y-114920106D01*
X147818792Y-114920104D01*
X147969104Y-114769792D01*
X147969106Y-114769788D01*
X147969109Y-114769786D01*
X148094048Y-114597820D01*
X148094047Y-114597820D01*
X148094051Y-114597816D01*
X148098514Y-114589054D01*
X148146488Y-114538259D01*
X148214308Y-114521463D01*
X148280444Y-114543999D01*
G37*
%TD.AperFunction*%
%TA.AperFunction,Conductor*%
G36*
X150603340Y-114778068D02*
G01*
X150659274Y-114819939D01*
X150676189Y-114850917D01*
X150725202Y-114982328D01*
X150725206Y-114982335D01*
X150811452Y-115097544D01*
X150811455Y-115097547D01*
X150926664Y-115183793D01*
X150926671Y-115183797D01*
X151058082Y-115232810D01*
X151114016Y-115274681D01*
X151138433Y-115340145D01*
X151123582Y-115408418D01*
X151102431Y-115436673D01*
X150988889Y-115550215D01*
X150863949Y-115722182D01*
X150859202Y-115731499D01*
X150811227Y-115782293D01*
X150743405Y-115799087D01*
X150677271Y-115776548D01*
X150638234Y-115731495D01*
X150633626Y-115722452D01*
X150594270Y-115668282D01*
X150594269Y-115668282D01*
X149961962Y-116300590D01*
X149944925Y-116237007D01*
X149879099Y-116122993D01*
X149786007Y-116029901D01*
X149671993Y-115964075D01*
X149608409Y-115947037D01*
X150240716Y-115314728D01*
X150186547Y-115275373D01*
X150186547Y-115275372D01*
X150177500Y-115270763D01*
X150126706Y-115222788D01*
X150109912Y-115154966D01*
X150132451Y-115088832D01*
X150177508Y-115049793D01*
X150186816Y-115045051D01*
X150358792Y-114920104D01*
X150472329Y-114806566D01*
X150533648Y-114773084D01*
X150603340Y-114778068D01*
G37*
%TD.AperFunction*%
%TA.AperFunction,Conductor*%
G36*
X141655703Y-85608100D02*
G01*
X141674816Y-85628924D01*
X141679066Y-85634774D01*
X141769896Y-85759792D01*
X141920213Y-85910109D01*
X142092179Y-86035048D01*
X142092181Y-86035049D01*
X142092184Y-86035051D01*
X142101493Y-86039794D01*
X142152290Y-86087766D01*
X142169087Y-86155587D01*
X142146552Y-86221722D01*
X142101505Y-86260760D01*
X142092446Y-86265376D01*
X142092440Y-86265380D01*
X142038282Y-86304727D01*
X142038282Y-86304728D01*
X142670591Y-86937037D01*
X142607007Y-86954075D01*
X142492993Y-87019901D01*
X142399901Y-87112993D01*
X142334075Y-87227007D01*
X142317037Y-87290591D01*
X141684728Y-86658282D01*
X141684727Y-86658282D01*
X141674819Y-86671921D01*
X141619489Y-86714587D01*
X141549876Y-86720566D01*
X141488080Y-86687961D01*
X141453723Y-86627123D01*
X141450500Y-86599036D01*
X141450500Y-85701813D01*
X141470185Y-85634774D01*
X141522989Y-85589019D01*
X141592147Y-85579075D01*
X141655703Y-85608100D01*
G37*
%TD.AperFunction*%
%TA.AperFunction,Conductor*%
G36*
X132250075Y-68337993D02*
G01*
X132315901Y-68452007D01*
X132408993Y-68545099D01*
X132523007Y-68610925D01*
X132586590Y-68627962D01*
X131954282Y-69260269D01*
X131954282Y-69260270D01*
X132008452Y-69299626D01*
X132008451Y-69299626D01*
X132017495Y-69304234D01*
X132068292Y-69352208D01*
X132085087Y-69420029D01*
X132062550Y-69486164D01*
X132017499Y-69525202D01*
X132008182Y-69529949D01*
X131836213Y-69654890D01*
X131685890Y-69805213D01*
X131560949Y-69977182D01*
X131556484Y-69985946D01*
X131508509Y-70036742D01*
X131440688Y-70053536D01*
X131374553Y-70030998D01*
X131335516Y-69985946D01*
X131331050Y-69977182D01*
X131206109Y-69805213D01*
X131055786Y-69654890D01*
X130883820Y-69529951D01*
X130883115Y-69529591D01*
X130875054Y-69525485D01*
X130824259Y-69477512D01*
X130807463Y-69409692D01*
X130829999Y-69343556D01*
X130875054Y-69304515D01*
X130883816Y-69300051D01*
X130970138Y-69237335D01*
X131055786Y-69175109D01*
X131055788Y-69175106D01*
X131055792Y-69175104D01*
X131206104Y-69024792D01*
X131206106Y-69024788D01*
X131206109Y-69024786D01*
X131291890Y-68906717D01*
X131331051Y-68852816D01*
X131335793Y-68843508D01*
X131383763Y-68792711D01*
X131451583Y-68775911D01*
X131517719Y-68798445D01*
X131556763Y-68843500D01*
X131561373Y-68852547D01*
X131600728Y-68906716D01*
X132233037Y-68274408D01*
X132250075Y-68337993D01*
G37*
%TD.AperFunction*%
%TA.AperFunction,Conductor*%
G36*
X133831270Y-68906717D02*
G01*
X133831270Y-68906716D01*
X133870622Y-68852555D01*
X133875232Y-68843507D01*
X133923205Y-68792709D01*
X133991025Y-68775912D01*
X134057161Y-68798447D01*
X134096204Y-68843504D01*
X134100949Y-68852817D01*
X134225890Y-69024786D01*
X134376213Y-69175109D01*
X134548182Y-69300050D01*
X134556946Y-69304516D01*
X134607742Y-69352491D01*
X134624536Y-69420312D01*
X134601998Y-69486447D01*
X134556946Y-69525484D01*
X134548182Y-69529949D01*
X134376213Y-69654890D01*
X134225890Y-69805213D01*
X134100949Y-69977182D01*
X134096484Y-69985946D01*
X134048509Y-70036742D01*
X133980688Y-70053536D01*
X133914553Y-70030998D01*
X133875516Y-69985946D01*
X133871050Y-69977182D01*
X133746109Y-69805213D01*
X133595786Y-69654890D01*
X133423817Y-69529949D01*
X133414504Y-69525204D01*
X133363707Y-69477230D01*
X133346912Y-69409409D01*
X133369449Y-69343274D01*
X133414507Y-69304232D01*
X133423555Y-69299622D01*
X133477716Y-69260270D01*
X133477717Y-69260270D01*
X132845408Y-68627962D01*
X132908993Y-68610925D01*
X133023007Y-68545099D01*
X133116099Y-68452007D01*
X133181925Y-68337993D01*
X133198962Y-68274408D01*
X133831270Y-68906717D01*
G37*
%TD.AperFunction*%
%TA.AperFunction,Conductor*%
G36*
X185475083Y-65478943D02*
G01*
X185504455Y-65484968D01*
X185508263Y-65488686D01*
X185513366Y-65490185D01*
X185532990Y-65512832D01*
X185554444Y-65533782D01*
X185555637Y-65538968D01*
X185559121Y-65542989D01*
X185563386Y-65572656D01*
X185570108Y-65601874D01*
X185568307Y-65606881D01*
X185569065Y-65612147D01*
X185556611Y-65639415D01*
X185546471Y-65667624D01*
X185541320Y-65672898D01*
X185540040Y-65675703D01*
X185521813Y-65692876D01*
X185467263Y-65734733D01*
X185467256Y-65734739D01*
X185295739Y-65906256D01*
X185295733Y-65906263D01*
X185148067Y-66098706D01*
X185026777Y-66308785D01*
X185026773Y-66308794D01*
X184933947Y-66532895D01*
X184871161Y-66767214D01*
X184839500Y-67007711D01*
X184839500Y-67250288D01*
X184871161Y-67490785D01*
X184933947Y-67725104D01*
X185026773Y-67949205D01*
X185026777Y-67949214D01*
X185039840Y-67971840D01*
X185148064Y-68159289D01*
X185148066Y-68159292D01*
X185148067Y-68159293D01*
X185295733Y-68351736D01*
X185295739Y-68351743D01*
X185467256Y-68523260D01*
X185467263Y-68523266D01*
X185575932Y-68606650D01*
X185659711Y-68670936D01*
X185869788Y-68792224D01*
X186093900Y-68885054D01*
X186328211Y-68947838D01*
X186508586Y-68971584D01*
X186568711Y-68979500D01*
X186568712Y-68979500D01*
X186811289Y-68979500D01*
X186859388Y-68973167D01*
X187051789Y-68947838D01*
X187286100Y-68885054D01*
X187510212Y-68792224D01*
X187720289Y-68670936D01*
X187912738Y-68523265D01*
X188084265Y-68351738D01*
X188231936Y-68159289D01*
X188353224Y-67949212D01*
X188446054Y-67725100D01*
X188508838Y-67490789D01*
X188540500Y-67250288D01*
X188540500Y-67007712D01*
X188538161Y-66989949D01*
X188531251Y-66937455D01*
X188508838Y-66767211D01*
X188446054Y-66532900D01*
X188353224Y-66308788D01*
X188231936Y-66098711D01*
X188084265Y-65906262D01*
X188084260Y-65906256D01*
X187912743Y-65734739D01*
X187912736Y-65734733D01*
X187858187Y-65692876D01*
X187816984Y-65636448D01*
X187812829Y-65566702D01*
X187847041Y-65505782D01*
X187908759Y-65473029D01*
X187933673Y-65470500D01*
X212875500Y-65470500D01*
X212942539Y-65490185D01*
X212988294Y-65542989D01*
X212999500Y-65594500D01*
X212999500Y-118980500D01*
X212979815Y-119047539D01*
X212927011Y-119093294D01*
X212875500Y-119104500D01*
X187923673Y-119104500D01*
X187856634Y-119084815D01*
X187810879Y-119032011D01*
X187800935Y-118962853D01*
X187829960Y-118899297D01*
X187848187Y-118882124D01*
X187877775Y-118859419D01*
X187902738Y-118840265D01*
X188074265Y-118668738D01*
X188221936Y-118476289D01*
X188343224Y-118266212D01*
X188436054Y-118042100D01*
X188498838Y-117807789D01*
X188530500Y-117567288D01*
X188530500Y-117324712D01*
X188498838Y-117084211D01*
X188436054Y-116849900D01*
X188343224Y-116625788D01*
X188221936Y-116415711D01*
X188074265Y-116223262D01*
X188074260Y-116223256D01*
X187902743Y-116051739D01*
X187902736Y-116051733D01*
X187710293Y-115904067D01*
X187710292Y-115904066D01*
X187710289Y-115904064D01*
X187529418Y-115799638D01*
X187500214Y-115782777D01*
X187500205Y-115782773D01*
X187276104Y-115689947D01*
X187041785Y-115627161D01*
X186801289Y-115595500D01*
X186801288Y-115595500D01*
X186558712Y-115595500D01*
X186558711Y-115595500D01*
X186318214Y-115627161D01*
X186083895Y-115689947D01*
X185859794Y-115782773D01*
X185859785Y-115782777D01*
X185649706Y-115904067D01*
X185457263Y-116051733D01*
X185457256Y-116051739D01*
X185285739Y-116223256D01*
X185285733Y-116223263D01*
X185138067Y-116415706D01*
X185016777Y-116625785D01*
X185016773Y-116625794D01*
X184923947Y-116849895D01*
X184861161Y-117084214D01*
X184829500Y-117324711D01*
X184829500Y-117567288D01*
X184861161Y-117807785D01*
X184923947Y-118042104D01*
X185016773Y-118266205D01*
X185016776Y-118266212D01*
X185138064Y-118476289D01*
X185138066Y-118476292D01*
X185138067Y-118476293D01*
X185285733Y-118668736D01*
X185285739Y-118668743D01*
X185457256Y-118840260D01*
X185457263Y-118840266D01*
X185511813Y-118882124D01*
X185553016Y-118938552D01*
X185557171Y-119008298D01*
X185522959Y-119069218D01*
X185461241Y-119101971D01*
X185436327Y-119104500D01*
X90811673Y-119104500D01*
X90744634Y-119084815D01*
X90698879Y-119032011D01*
X90688935Y-118962853D01*
X90717960Y-118899297D01*
X90736187Y-118882124D01*
X90765775Y-118859419D01*
X90790738Y-118840265D01*
X90962265Y-118668738D01*
X91109936Y-118476289D01*
X91231224Y-118266212D01*
X91324054Y-118042100D01*
X91386838Y-117807789D01*
X91418500Y-117567288D01*
X91418500Y-117324712D01*
X91386838Y-117084211D01*
X91324054Y-116849900D01*
X91231224Y-116625788D01*
X91109936Y-116415711D01*
X90962265Y-116223262D01*
X90962260Y-116223256D01*
X90790743Y-116051739D01*
X90790736Y-116051733D01*
X90598293Y-115904067D01*
X90598292Y-115904066D01*
X90598289Y-115904064D01*
X90417418Y-115799638D01*
X90388214Y-115782777D01*
X90388205Y-115782773D01*
X90164104Y-115689947D01*
X89929785Y-115627161D01*
X89689289Y-115595500D01*
X89689288Y-115595500D01*
X89446712Y-115595500D01*
X89446711Y-115595500D01*
X89206214Y-115627161D01*
X88971895Y-115689947D01*
X88747794Y-115782773D01*
X88747785Y-115782777D01*
X88537706Y-115904067D01*
X88345263Y-116051733D01*
X88345256Y-116051739D01*
X88173739Y-116223256D01*
X88131937Y-116277734D01*
X88075508Y-116318936D01*
X88005762Y-116323091D01*
X87944842Y-116288878D01*
X87912090Y-116227161D01*
X87909561Y-116202245D01*
X87909563Y-116122993D01*
X87909653Y-111127734D01*
X106010000Y-111127734D01*
X106010000Y-111985000D01*
X106889175Y-111985000D01*
X106865364Y-112042485D01*
X106840000Y-112169996D01*
X106840000Y-112300004D01*
X106865364Y-112427515D01*
X106889175Y-112485000D01*
X106010000Y-112485000D01*
X106010000Y-113342265D01*
X106046689Y-113573909D01*
X106119164Y-113796965D01*
X106225638Y-114005930D01*
X106363494Y-114195672D01*
X106529327Y-114361505D01*
X106719069Y-114499361D01*
X106928036Y-114605835D01*
X107151089Y-114678310D01*
X107250000Y-114693976D01*
X107250000Y-112845824D01*
X107307485Y-112869636D01*
X107434996Y-112895000D01*
X107565004Y-112895000D01*
X107692515Y-112869636D01*
X107750000Y-112845824D01*
X107750000Y-114693975D01*
X107848909Y-114678310D01*
X107848912Y-114678310D01*
X108071963Y-114605835D01*
X108280930Y-114499361D01*
X108470672Y-114361505D01*
X108636505Y-114195672D01*
X108774361Y-114005930D01*
X108880835Y-113796965D01*
X108953310Y-113573909D01*
X108990000Y-113342265D01*
X108990000Y-112485000D01*
X108110825Y-112485000D01*
X108134636Y-112427515D01*
X108160000Y-112300004D01*
X108160000Y-112169996D01*
X108134636Y-112042485D01*
X108110825Y-111985000D01*
X108990000Y-111985000D01*
X108990000Y-111127734D01*
X108953310Y-110896090D01*
X108880835Y-110673034D01*
X108774361Y-110464069D01*
X108638223Y-110276692D01*
X108638221Y-110276688D01*
X108638220Y-110276687D01*
X108636508Y-110274330D01*
X108569313Y-110207135D01*
X111009500Y-110207135D01*
X111009500Y-114262870D01*
X111009501Y-114262876D01*
X111015908Y-114322483D01*
X111066202Y-114457328D01*
X111066206Y-114457335D01*
X111152452Y-114572544D01*
X111152455Y-114572547D01*
X111267664Y-114658793D01*
X111267671Y-114658797D01*
X111402517Y-114709091D01*
X111402516Y-114709091D01*
X111409444Y-114709835D01*
X111462127Y-114715500D01*
X113537872Y-114715499D01*
X113597483Y-114709091D01*
X113732331Y-114658796D01*
X113847546Y-114572546D01*
X113933796Y-114457331D01*
X113984091Y-114322483D01*
X113990500Y-114262873D01*
X113990500Y-113783713D01*
X132888500Y-113783713D01*
X132888500Y-113996286D01*
X132920079Y-114195672D01*
X132921754Y-114206243D01*
X132940155Y-114262876D01*
X132987444Y-114408414D01*
X133083951Y-114597820D01*
X133208890Y-114769786D01*
X133359213Y-114920109D01*
X133531182Y-115045050D01*
X133539946Y-115049516D01*
X133590742Y-115097491D01*
X133607536Y-115165312D01*
X133584998Y-115231447D01*
X133539946Y-115270484D01*
X133531182Y-115274949D01*
X133359213Y-115399890D01*
X133208890Y-115550213D01*
X133083951Y-115722179D01*
X132987444Y-115911585D01*
X132921753Y-116113760D01*
X132904411Y-116223256D01*
X132888500Y-116323713D01*
X132888500Y-116536287D01*
X132921754Y-116746243D01*
X132955434Y-116849900D01*
X132987444Y-116948414D01*
X133083951Y-117137820D01*
X133208890Y-117309786D01*
X133359213Y-117460109D01*
X133531179Y-117585048D01*
X133531181Y-117585049D01*
X133531184Y-117585051D01*
X133720588Y-117681557D01*
X133922757Y-117747246D01*
X134132713Y-117780500D01*
X134132714Y-117780500D01*
X134345286Y-117780500D01*
X134345287Y-117780500D01*
X134555243Y-117747246D01*
X134757412Y-117681557D01*
X134946816Y-117585051D01*
X135001572Y-117545269D01*
X135118786Y-117460109D01*
X135118788Y-117460106D01*
X135118792Y-117460104D01*
X135269104Y-117309792D01*
X135269106Y-117309788D01*
X135269109Y-117309786D01*
X135394048Y-117137820D01*
X135394047Y-117137820D01*
X135394051Y-117137816D01*
X135398514Y-117129054D01*
X135446488Y-117078259D01*
X135514308Y-117061463D01*
X135580444Y-117083999D01*
X135619486Y-117129056D01*
X135623951Y-117137820D01*
X135748890Y-117309786D01*
X135899213Y-117460109D01*
X136071179Y-117585048D01*
X136071181Y-117585049D01*
X136071184Y-117585051D01*
X136260588Y-117681557D01*
X136462757Y-117747246D01*
X136672713Y-117780500D01*
X136672714Y-117780500D01*
X136885286Y-117780500D01*
X136885287Y-117780500D01*
X137095243Y-117747246D01*
X137297412Y-117681557D01*
X137486816Y-117585051D01*
X137541572Y-117545269D01*
X137658786Y-117460109D01*
X137658788Y-117460106D01*
X137658792Y-117460104D01*
X137809104Y-117309792D01*
X137809106Y-117309788D01*
X137809109Y-117309786D01*
X137934048Y-117137820D01*
X137934047Y-117137820D01*
X137934051Y-117137816D01*
X137938514Y-117129054D01*
X137986488Y-117078259D01*
X138054308Y-117061463D01*
X138120444Y-117083999D01*
X138159486Y-117129056D01*
X138163951Y-117137820D01*
X138288890Y-117309786D01*
X138439213Y-117460109D01*
X138611179Y-117585048D01*
X138611181Y-117585049D01*
X138611184Y-117585051D01*
X138800588Y-117681557D01*
X139002757Y-117747246D01*
X139212713Y-117780500D01*
X139212714Y-117780500D01*
X139425286Y-117780500D01*
X139425287Y-117780500D01*
X139635243Y-117747246D01*
X139837412Y-117681557D01*
X140026816Y-117585051D01*
X140081572Y-117545269D01*
X140198786Y-117460109D01*
X140198788Y-117460106D01*
X140198792Y-117460104D01*
X140349104Y-117309792D01*
X140349106Y-117309788D01*
X140349109Y-117309786D01*
X140474048Y-117137820D01*
X140474047Y-117137820D01*
X140474051Y-117137816D01*
X140478514Y-117129054D01*
X140526488Y-117078259D01*
X140594308Y-117061463D01*
X140660444Y-117083999D01*
X140699486Y-117129056D01*
X140703951Y-117137820D01*
X140828890Y-117309786D01*
X140979213Y-117460109D01*
X141151179Y-117585048D01*
X141151181Y-117585049D01*
X141151184Y-117585051D01*
X141340588Y-117681557D01*
X141542757Y-117747246D01*
X141752713Y-117780500D01*
X141752714Y-117780500D01*
X141965286Y-117780500D01*
X141965287Y-117780500D01*
X142175243Y-117747246D01*
X142377412Y-117681557D01*
X142566816Y-117585051D01*
X142621572Y-117545269D01*
X142738786Y-117460109D01*
X142738788Y-117460106D01*
X142738792Y-117460104D01*
X142889104Y-117309792D01*
X142889106Y-117309788D01*
X142889109Y-117309786D01*
X143014048Y-117137820D01*
X143014047Y-117137820D01*
X143014051Y-117137816D01*
X143018514Y-117129054D01*
X143066488Y-117078259D01*
X143134308Y-117061463D01*
X143200444Y-117083999D01*
X143239486Y-117129056D01*
X143243951Y-117137820D01*
X143368890Y-117309786D01*
X143519213Y-117460109D01*
X143691179Y-117585048D01*
X143691181Y-117585049D01*
X143691184Y-117585051D01*
X143880588Y-117681557D01*
X144082757Y-117747246D01*
X144292713Y-117780500D01*
X144292714Y-117780500D01*
X144505286Y-117780500D01*
X144505287Y-117780500D01*
X144715243Y-117747246D01*
X144917412Y-117681557D01*
X145106816Y-117585051D01*
X145161572Y-117545269D01*
X145278786Y-117460109D01*
X145278788Y-117460106D01*
X145278792Y-117460104D01*
X145429104Y-117309792D01*
X145429106Y-117309788D01*
X145429109Y-117309786D01*
X145514890Y-117191717D01*
X145554051Y-117137816D01*
X145558793Y-117128508D01*
X145606763Y-117077711D01*
X145674583Y-117060911D01*
X145740719Y-117083445D01*
X145779763Y-117128500D01*
X145784373Y-117137547D01*
X145823728Y-117191716D01*
X146456037Y-116559408D01*
X146473075Y-116622993D01*
X146538901Y-116737007D01*
X146631993Y-116830099D01*
X146746007Y-116895925D01*
X146809590Y-116912962D01*
X146177282Y-117545269D01*
X146177282Y-117545270D01*
X146231449Y-117584624D01*
X146420782Y-117681095D01*
X146622870Y-117746757D01*
X146832754Y-117780000D01*
X147045246Y-117780000D01*
X147255127Y-117746757D01*
X147255130Y-117746757D01*
X147457217Y-117681095D01*
X147646554Y-117584622D01*
X147700716Y-117545270D01*
X147700717Y-117545270D01*
X147068408Y-116912962D01*
X147131993Y-116895925D01*
X147246007Y-116830099D01*
X147339099Y-116737007D01*
X147404925Y-116622993D01*
X147421962Y-116559409D01*
X148054270Y-117191717D01*
X148054270Y-117191716D01*
X148093622Y-117137554D01*
X148098514Y-117127954D01*
X148146488Y-117077157D01*
X148214308Y-117060361D01*
X148280444Y-117082897D01*
X148319486Y-117127954D01*
X148324375Y-117137550D01*
X148363728Y-117191716D01*
X148996037Y-116559408D01*
X149013075Y-116622993D01*
X149078901Y-116737007D01*
X149171993Y-116830099D01*
X149286007Y-116895925D01*
X149349590Y-116912962D01*
X148717282Y-117545269D01*
X148717282Y-117545270D01*
X148771449Y-117584624D01*
X148960782Y-117681095D01*
X149162870Y-117746757D01*
X149372754Y-117780000D01*
X149585246Y-117780000D01*
X149795127Y-117746757D01*
X149795130Y-117746757D01*
X149997217Y-117681095D01*
X150186554Y-117584622D01*
X150240716Y-117545270D01*
X150240717Y-117545270D01*
X149608408Y-116912962D01*
X149671993Y-116895925D01*
X149786007Y-116830099D01*
X149879099Y-116737007D01*
X149944925Y-116622993D01*
X149961962Y-116559408D01*
X150594270Y-117191717D01*
X150594270Y-117191716D01*
X150633622Y-117137555D01*
X150638232Y-117128507D01*
X150686205Y-117077709D01*
X150754025Y-117060912D01*
X150820161Y-117083447D01*
X150859204Y-117128504D01*
X150863949Y-117137817D01*
X150988890Y-117309786D01*
X151139213Y-117460109D01*
X151311179Y-117585048D01*
X151311181Y-117585049D01*
X151311184Y-117585051D01*
X151500588Y-117681557D01*
X151702757Y-117747246D01*
X151912713Y-117780500D01*
X151912714Y-117780500D01*
X152125286Y-117780500D01*
X152125287Y-117780500D01*
X152335243Y-117747246D01*
X152537412Y-117681557D01*
X152726816Y-117585051D01*
X152781572Y-117545269D01*
X152898786Y-117460109D01*
X152898788Y-117460106D01*
X152898792Y-117460104D01*
X153049104Y-117309792D01*
X153049106Y-117309788D01*
X153049109Y-117309786D01*
X153174048Y-117137820D01*
X153174047Y-117137820D01*
X153174051Y-117137816D01*
X153270557Y-116948412D01*
X153336246Y-116746243D01*
X153369500Y-116536287D01*
X153369500Y-116323713D01*
X153336246Y-116113757D01*
X153270557Y-115911588D01*
X153174051Y-115722184D01*
X153174049Y-115722181D01*
X153174048Y-115722179D01*
X153049109Y-115550213D01*
X152935569Y-115436673D01*
X152902084Y-115375350D01*
X152907068Y-115305658D01*
X152948940Y-115249725D01*
X152979915Y-115232810D01*
X153111331Y-115183796D01*
X153226546Y-115097546D01*
X153312796Y-114982331D01*
X153363091Y-114847483D01*
X153369500Y-114787873D01*
X153369499Y-113783713D01*
X155749500Y-113783713D01*
X155749500Y-113996286D01*
X155781079Y-114195672D01*
X155782754Y-114206243D01*
X155801155Y-114262876D01*
X155848444Y-114408414D01*
X155944951Y-114597820D01*
X156069890Y-114769786D01*
X156220213Y-114920109D01*
X156392182Y-115045050D01*
X156400946Y-115049516D01*
X156451742Y-115097491D01*
X156468536Y-115165312D01*
X156445998Y-115231447D01*
X156400946Y-115270484D01*
X156392182Y-115274949D01*
X156220213Y-115399890D01*
X156069890Y-115550213D01*
X155944951Y-115722179D01*
X155848444Y-115911585D01*
X155782753Y-116113760D01*
X155765411Y-116223256D01*
X155749500Y-116323713D01*
X155749500Y-116536287D01*
X155782754Y-116746243D01*
X155816434Y-116849900D01*
X155848444Y-116948414D01*
X155944951Y-117137820D01*
X156069890Y-117309786D01*
X156220213Y-117460109D01*
X156392179Y-117585048D01*
X156392181Y-117585049D01*
X156392184Y-117585051D01*
X156581588Y-117681557D01*
X156783757Y-117747246D01*
X156993713Y-117780500D01*
X156993714Y-117780500D01*
X157206286Y-117780500D01*
X157206287Y-117780500D01*
X157416243Y-117747246D01*
X157618412Y-117681557D01*
X157807816Y-117585051D01*
X157862572Y-117545269D01*
X157979786Y-117460109D01*
X157979788Y-117460106D01*
X157979792Y-117460104D01*
X158130104Y-117309792D01*
X158130106Y-117309788D01*
X158130109Y-117309786D01*
X158255048Y-117137820D01*
X158255047Y-117137820D01*
X158255051Y-117137816D01*
X158259514Y-117129054D01*
X158307488Y-117078259D01*
X158375308Y-117061463D01*
X158441444Y-117083999D01*
X158480486Y-117129056D01*
X158484951Y-117137820D01*
X158609890Y-117309786D01*
X158760213Y-117460109D01*
X158932179Y-117585048D01*
X158932181Y-117585049D01*
X158932184Y-117585051D01*
X159121588Y-117681557D01*
X159323757Y-117747246D01*
X159533713Y-117780500D01*
X159533714Y-117780500D01*
X159746286Y-117780500D01*
X159746287Y-117780500D01*
X159956243Y-117747246D01*
X160158412Y-117681557D01*
X160347816Y-117585051D01*
X160402572Y-117545269D01*
X160519786Y-117460109D01*
X160519788Y-117460106D01*
X160519792Y-117460104D01*
X160670104Y-117309792D01*
X160670106Y-117309788D01*
X160670109Y-117309786D01*
X160795048Y-117137820D01*
X160795047Y-117137820D01*
X160795051Y-117137816D01*
X160799514Y-117129054D01*
X160847488Y-117078259D01*
X160915308Y-117061463D01*
X160981444Y-117083999D01*
X161020486Y-117129056D01*
X161024951Y-117137820D01*
X161149890Y-117309786D01*
X161300213Y-117460109D01*
X161472179Y-117585048D01*
X161472181Y-117585049D01*
X161472184Y-117585051D01*
X161661588Y-117681557D01*
X161863757Y-117747246D01*
X162073713Y-117780500D01*
X162073714Y-117780500D01*
X162286286Y-117780500D01*
X162286287Y-117780500D01*
X162496243Y-117747246D01*
X162698412Y-117681557D01*
X162887816Y-117585051D01*
X162942572Y-117545269D01*
X163059786Y-117460109D01*
X163059788Y-117460106D01*
X163059792Y-117460104D01*
X163210104Y-117309792D01*
X163210106Y-117309788D01*
X163210109Y-117309786D01*
X163335048Y-117137820D01*
X163335047Y-117137820D01*
X163335051Y-117137816D01*
X163339514Y-117129054D01*
X163387488Y-117078259D01*
X163455308Y-117061463D01*
X163521444Y-117083999D01*
X163560486Y-117129056D01*
X163564951Y-117137820D01*
X163689890Y-117309786D01*
X163840213Y-117460109D01*
X164012179Y-117585048D01*
X164012181Y-117585049D01*
X164012184Y-117585051D01*
X164201588Y-117681557D01*
X164403757Y-117747246D01*
X164613713Y-117780500D01*
X164613714Y-117780500D01*
X164826286Y-117780500D01*
X164826287Y-117780500D01*
X165036243Y-117747246D01*
X165238412Y-117681557D01*
X165427816Y-117585051D01*
X165482572Y-117545269D01*
X165599786Y-117460109D01*
X165599788Y-117460106D01*
X165599792Y-117460104D01*
X165750104Y-117309792D01*
X165750106Y-117309788D01*
X165750109Y-117309786D01*
X165875048Y-117137820D01*
X165875047Y-117137820D01*
X165875051Y-117137816D01*
X165879514Y-117129054D01*
X165927488Y-117078259D01*
X165995308Y-117061463D01*
X166061444Y-117083999D01*
X166100486Y-117129056D01*
X166104951Y-117137820D01*
X166229890Y-117309786D01*
X166380213Y-117460109D01*
X166552179Y-117585048D01*
X166552181Y-117585049D01*
X166552184Y-117585051D01*
X166741588Y-117681557D01*
X166943757Y-117747246D01*
X167153713Y-117780500D01*
X167153714Y-117780500D01*
X167366286Y-117780500D01*
X167366287Y-117780500D01*
X167576243Y-117747246D01*
X167778412Y-117681557D01*
X167967816Y-117585051D01*
X168022572Y-117545269D01*
X168139786Y-117460109D01*
X168139788Y-117460106D01*
X168139792Y-117460104D01*
X168290104Y-117309792D01*
X168290106Y-117309788D01*
X168290109Y-117309786D01*
X168415048Y-117137820D01*
X168415047Y-117137820D01*
X168415051Y-117137816D01*
X168419514Y-117129054D01*
X168467488Y-117078259D01*
X168535308Y-117061463D01*
X168601444Y-117083999D01*
X168640486Y-117129056D01*
X168644951Y-117137820D01*
X168769890Y-117309786D01*
X168920213Y-117460109D01*
X169092179Y-117585048D01*
X169092181Y-117585049D01*
X169092184Y-117585051D01*
X169281588Y-117681557D01*
X169483757Y-117747246D01*
X169693713Y-117780500D01*
X169693714Y-117780500D01*
X169906286Y-117780500D01*
X169906287Y-117780500D01*
X170116243Y-117747246D01*
X170318412Y-117681557D01*
X170507816Y-117585051D01*
X170562572Y-117545269D01*
X170679786Y-117460109D01*
X170679788Y-117460106D01*
X170679792Y-117460104D01*
X170830104Y-117309792D01*
X170830106Y-117309788D01*
X170830109Y-117309786D01*
X170955048Y-117137820D01*
X170955047Y-117137820D01*
X170955051Y-117137816D01*
X171051557Y-116948412D01*
X171117246Y-116746243D01*
X171150500Y-116536287D01*
X171150500Y-116323713D01*
X171117246Y-116113757D01*
X171051557Y-115911588D01*
X170955051Y-115722184D01*
X170955049Y-115722181D01*
X170955048Y-115722179D01*
X170830109Y-115550213D01*
X170716569Y-115436673D01*
X170683084Y-115375350D01*
X170688068Y-115305658D01*
X170729940Y-115249725D01*
X170760915Y-115232810D01*
X170892331Y-115183796D01*
X171007546Y-115097546D01*
X171093796Y-114982331D01*
X171144091Y-114847483D01*
X171150500Y-114787873D01*
X171150499Y-112992128D01*
X171144091Y-112932517D01*
X171142810Y-112929083D01*
X171093797Y-112797671D01*
X171093793Y-112797664D01*
X171007547Y-112682455D01*
X171007544Y-112682452D01*
X170892335Y-112596206D01*
X170892328Y-112596202D01*
X170757482Y-112545908D01*
X170757483Y-112545908D01*
X170697883Y-112539501D01*
X170697881Y-112539500D01*
X170697873Y-112539500D01*
X170697864Y-112539500D01*
X168902129Y-112539500D01*
X168902123Y-112539501D01*
X168842516Y-112545908D01*
X168707671Y-112596202D01*
X168707664Y-112596206D01*
X168592455Y-112682452D01*
X168592452Y-112682455D01*
X168506206Y-112797664D01*
X168506203Y-112797669D01*
X168457189Y-112929083D01*
X168415317Y-112985016D01*
X168349853Y-113009433D01*
X168281580Y-112994581D01*
X168253326Y-112973430D01*
X168139786Y-112859890D01*
X167967820Y-112734951D01*
X167778414Y-112638444D01*
X167778413Y-112638443D01*
X167778412Y-112638443D01*
X167576243Y-112572754D01*
X167576241Y-112572753D01*
X167576240Y-112572753D01*
X167414957Y-112547208D01*
X167366287Y-112539500D01*
X167153713Y-112539500D01*
X167105042Y-112547208D01*
X166943760Y-112572753D01*
X166741585Y-112638444D01*
X166552179Y-112734951D01*
X166380213Y-112859890D01*
X166229890Y-113010213D01*
X166104949Y-113182182D01*
X166100484Y-113190946D01*
X166052509Y-113241742D01*
X165984688Y-113258536D01*
X165918553Y-113235998D01*
X165879516Y-113190946D01*
X165875050Y-113182182D01*
X165750109Y-113010213D01*
X165599786Y-112859890D01*
X165427820Y-112734951D01*
X165238414Y-112638444D01*
X165238413Y-112638443D01*
X165238412Y-112638443D01*
X165036243Y-112572754D01*
X165036241Y-112572753D01*
X165036240Y-112572753D01*
X164874957Y-112547208D01*
X164826287Y-112539500D01*
X164613713Y-112539500D01*
X164565042Y-112547208D01*
X164403760Y-112572753D01*
X164201585Y-112638444D01*
X164012179Y-112734951D01*
X163840213Y-112859890D01*
X163689890Y-113010213D01*
X163564949Y-113182182D01*
X163560484Y-113190946D01*
X163512509Y-113241742D01*
X163444688Y-113258536D01*
X163378553Y-113235998D01*
X163339516Y-113190946D01*
X163335050Y-113182182D01*
X163210109Y-113010213D01*
X163059786Y-112859890D01*
X162887820Y-112734951D01*
X162698414Y-112638444D01*
X162698413Y-112638443D01*
X162698412Y-112638443D01*
X162496243Y-112572754D01*
X162496241Y-112572753D01*
X162496240Y-112572753D01*
X162334957Y-112547208D01*
X162286287Y-112539500D01*
X162073713Y-112539500D01*
X162025042Y-112547208D01*
X161863760Y-112572753D01*
X161661585Y-112638444D01*
X161472179Y-112734951D01*
X161300213Y-112859890D01*
X161149890Y-113010213D01*
X161024949Y-113182182D01*
X161020484Y-113190946D01*
X160972509Y-113241742D01*
X160904688Y-113258536D01*
X160838553Y-113235998D01*
X160799516Y-113190946D01*
X160795050Y-113182182D01*
X160670109Y-113010213D01*
X160519786Y-112859890D01*
X160347820Y-112734951D01*
X160158414Y-112638444D01*
X160158413Y-112638443D01*
X160158412Y-112638443D01*
X159956243Y-112572754D01*
X159956241Y-112572753D01*
X159956240Y-112572753D01*
X159794957Y-112547208D01*
X159746287Y-112539500D01*
X159533713Y-112539500D01*
X159485042Y-112547208D01*
X159323760Y-112572753D01*
X159121585Y-112638444D01*
X158932179Y-112734951D01*
X158760213Y-112859890D01*
X158609890Y-113010213D01*
X158484949Y-113182182D01*
X158480484Y-113190946D01*
X158432509Y-113241742D01*
X158364688Y-113258536D01*
X158298553Y-113235998D01*
X158259516Y-113190946D01*
X158255050Y-113182182D01*
X158130109Y-113010213D01*
X157979786Y-112859890D01*
X157807820Y-112734951D01*
X157618414Y-112638444D01*
X157618413Y-112638443D01*
X157618412Y-112638443D01*
X157416243Y-112572754D01*
X157416241Y-112572753D01*
X157416240Y-112572753D01*
X157254957Y-112547208D01*
X157206287Y-112539500D01*
X156993713Y-112539500D01*
X156945042Y-112547208D01*
X156783760Y-112572753D01*
X156581585Y-112638444D01*
X156392179Y-112734951D01*
X156220213Y-112859890D01*
X156069890Y-113010213D01*
X155944951Y-113182179D01*
X155848444Y-113371585D01*
X155782753Y-113573760D01*
X155749500Y-113783713D01*
X153369499Y-113783713D01*
X153369499Y-112992128D01*
X153363091Y-112932517D01*
X153361810Y-112929083D01*
X153312797Y-112797671D01*
X153312793Y-112797664D01*
X153226547Y-112682455D01*
X153226544Y-112682452D01*
X153111335Y-112596206D01*
X153111328Y-112596202D01*
X152976482Y-112545908D01*
X152976483Y-112545908D01*
X152916883Y-112539501D01*
X152916881Y-112539500D01*
X152916873Y-112539500D01*
X152916864Y-112539500D01*
X151121129Y-112539500D01*
X151121123Y-112539501D01*
X151061516Y-112545908D01*
X150926671Y-112596202D01*
X150926664Y-112596206D01*
X150811455Y-112682452D01*
X150811452Y-112682455D01*
X150725206Y-112797664D01*
X150725203Y-112797669D01*
X150676189Y-112929083D01*
X150634317Y-112985016D01*
X150568853Y-113009433D01*
X150500580Y-112994581D01*
X150472326Y-112973430D01*
X150358786Y-112859890D01*
X150186820Y-112734951D01*
X149997414Y-112638444D01*
X149997413Y-112638443D01*
X149997412Y-112638443D01*
X149795243Y-112572754D01*
X149795241Y-112572753D01*
X149795240Y-112572753D01*
X149633957Y-112547208D01*
X149585287Y-112539500D01*
X149372713Y-112539500D01*
X149324042Y-112547208D01*
X149162760Y-112572753D01*
X148960585Y-112638444D01*
X148771179Y-112734951D01*
X148599213Y-112859890D01*
X148448890Y-113010213D01*
X148323949Y-113182182D01*
X148319484Y-113190946D01*
X148271509Y-113241742D01*
X148203688Y-113258536D01*
X148137553Y-113235998D01*
X148098516Y-113190946D01*
X148094050Y-113182182D01*
X147969109Y-113010213D01*
X147818786Y-112859890D01*
X147646820Y-112734951D01*
X147457414Y-112638444D01*
X147457413Y-112638443D01*
X147457412Y-112638443D01*
X147255243Y-112572754D01*
X147255241Y-112572753D01*
X147255240Y-112572753D01*
X147093957Y-112547208D01*
X147045287Y-112539500D01*
X146832713Y-112539500D01*
X146784042Y-112547208D01*
X146622760Y-112572753D01*
X146420585Y-112638444D01*
X146231179Y-112734951D01*
X146059213Y-112859890D01*
X145908890Y-113010213D01*
X145783949Y-113182182D01*
X145779484Y-113190946D01*
X145731509Y-113241742D01*
X145663688Y-113258536D01*
X145597553Y-113235998D01*
X145558516Y-113190946D01*
X145554050Y-113182182D01*
X145429109Y-113010213D01*
X145278786Y-112859890D01*
X145106820Y-112734951D01*
X144917414Y-112638444D01*
X144917413Y-112638443D01*
X144917412Y-112638443D01*
X144715243Y-112572754D01*
X144715241Y-112572753D01*
X144715240Y-112572753D01*
X144553957Y-112547208D01*
X144505287Y-112539500D01*
X144292713Y-112539500D01*
X144244042Y-112547208D01*
X144082760Y-112572753D01*
X143880585Y-112638444D01*
X143691179Y-112734951D01*
X143519213Y-112859890D01*
X143368890Y-113010213D01*
X143243949Y-113182182D01*
X143239484Y-113190946D01*
X143191509Y-113241742D01*
X143123688Y-113258536D01*
X143057553Y-113235998D01*
X143018516Y-113190946D01*
X143014050Y-113182182D01*
X142889109Y-113010213D01*
X142738786Y-112859890D01*
X142566820Y-112734951D01*
X142377414Y-112638444D01*
X142377413Y-112638443D01*
X142377412Y-112638443D01*
X142175243Y-112572754D01*
X142175241Y-112572753D01*
X142175240Y-112572753D01*
X142013957Y-112547208D01*
X141965287Y-112539500D01*
X141752713Y-112539500D01*
X141704042Y-112547208D01*
X141542760Y-112572753D01*
X141340585Y-112638444D01*
X141151179Y-112734951D01*
X140979213Y-112859890D01*
X140828890Y-113010213D01*
X140703949Y-113182182D01*
X140699484Y-113190946D01*
X140651509Y-113241742D01*
X140583688Y-113258536D01*
X140517553Y-113235998D01*
X140478516Y-113190946D01*
X140474050Y-113182182D01*
X140349109Y-113010213D01*
X140198786Y-112859890D01*
X140026820Y-112734951D01*
X139837414Y-112638444D01*
X139837413Y-112638443D01*
X139837412Y-112638443D01*
X139635243Y-112572754D01*
X139635241Y-112572753D01*
X139635240Y-112572753D01*
X139473957Y-112547208D01*
X139425287Y-112539500D01*
X139212713Y-112539500D01*
X139164042Y-112547208D01*
X139002760Y-112572753D01*
X138800585Y-112638444D01*
X138611179Y-112734951D01*
X138439213Y-112859890D01*
X138288890Y-113010213D01*
X138163949Y-113182182D01*
X138159484Y-113190946D01*
X138111509Y-113241742D01*
X138043688Y-113258536D01*
X137977553Y-113235998D01*
X137938516Y-113190946D01*
X137934050Y-113182182D01*
X137809109Y-113010213D01*
X137658786Y-112859890D01*
X137486820Y-112734951D01*
X137297414Y-112638444D01*
X137297413Y-112638443D01*
X137297412Y-112638443D01*
X137095243Y-112572754D01*
X137095241Y-112572753D01*
X137095240Y-112572753D01*
X136933957Y-112547208D01*
X136885287Y-112539500D01*
X136672713Y-112539500D01*
X136624042Y-112547208D01*
X136462760Y-112572753D01*
X136260585Y-112638444D01*
X136071179Y-112734951D01*
X135899213Y-112859890D01*
X135748890Y-113010213D01*
X135623949Y-113182182D01*
X135619484Y-113190946D01*
X135571509Y-113241742D01*
X135503688Y-113258536D01*
X135437553Y-113235998D01*
X135398516Y-113190946D01*
X135394050Y-113182182D01*
X135269109Y-113010213D01*
X135118786Y-112859890D01*
X134946820Y-112734951D01*
X134757414Y-112638444D01*
X134757413Y-112638443D01*
X134757412Y-112638443D01*
X134555243Y-112572754D01*
X134555241Y-112572753D01*
X134555240Y-112572753D01*
X134393957Y-112547208D01*
X134345287Y-112539500D01*
X134132713Y-112539500D01*
X134084042Y-112547208D01*
X133922760Y-112572753D01*
X133720585Y-112638444D01*
X133531179Y-112734951D01*
X133359213Y-112859890D01*
X133208890Y-113010213D01*
X133083951Y-113182179D01*
X132987444Y-113371585D01*
X132921753Y-113573760D01*
X132888500Y-113783713D01*
X113990500Y-113783713D01*
X113990499Y-112169996D01*
X113990499Y-110207129D01*
X113990498Y-110207123D01*
X113990497Y-110207116D01*
X113984091Y-110147517D01*
X113979459Y-110135099D01*
X113933797Y-110012671D01*
X113933793Y-110012664D01*
X113847547Y-109897455D01*
X113847544Y-109897452D01*
X113732335Y-109811206D01*
X113732328Y-109811202D01*
X113597482Y-109760908D01*
X113597483Y-109760908D01*
X113537883Y-109754501D01*
X113537881Y-109754500D01*
X113537873Y-109754500D01*
X113537864Y-109754500D01*
X111462129Y-109754500D01*
X111462123Y-109754501D01*
X111402516Y-109760908D01*
X111267671Y-109811202D01*
X111267664Y-109811206D01*
X111152455Y-109897452D01*
X111152452Y-109897455D01*
X111066206Y-110012664D01*
X111066202Y-110012671D01*
X111015908Y-110147517D01*
X111010626Y-110196650D01*
X111009501Y-110207123D01*
X111009500Y-110207135D01*
X108569313Y-110207135D01*
X108470672Y-110108494D01*
X108280930Y-109970638D01*
X108071963Y-109864164D01*
X107848905Y-109791688D01*
X107750000Y-109776022D01*
X107750000Y-111624175D01*
X107692515Y-111600364D01*
X107565004Y-111575000D01*
X107434996Y-111575000D01*
X107307485Y-111600364D01*
X107250000Y-111624175D01*
X107250000Y-109776022D01*
X107151094Y-109791688D01*
X107151093Y-109791688D01*
X106928036Y-109864164D01*
X106719069Y-109970638D01*
X106529327Y-110108494D01*
X106363494Y-110274327D01*
X106225638Y-110464069D01*
X106119164Y-110673034D01*
X106046689Y-110896090D01*
X106010000Y-111127734D01*
X87909653Y-111127734D01*
X87909654Y-111092335D01*
X87909666Y-110383259D01*
X87909689Y-109102135D01*
X132909500Y-109102135D01*
X132909500Y-110897870D01*
X132909501Y-110897876D01*
X132915908Y-110957483D01*
X132966202Y-111092328D01*
X132966206Y-111092335D01*
X133052452Y-111207544D01*
X133052455Y-111207547D01*
X133167664Y-111293793D01*
X133167671Y-111293797D01*
X133302517Y-111344091D01*
X133302516Y-111344091D01*
X133309444Y-111344835D01*
X133362127Y-111350500D01*
X135157872Y-111350499D01*
X135217483Y-111344091D01*
X135352331Y-111293796D01*
X135467546Y-111207546D01*
X135553796Y-111092331D01*
X135604091Y-110957483D01*
X135610500Y-110897873D01*
X135610499Y-110873979D01*
X135613330Y-110860963D01*
X135623940Y-110841525D01*
X135630179Y-110820275D01*
X135646803Y-110799643D01*
X135646808Y-110799636D01*
X135646811Y-110799634D01*
X135646818Y-110799626D01*
X136317037Y-110129408D01*
X136334075Y-110192993D01*
X136399901Y-110307007D01*
X136492993Y-110400099D01*
X136607007Y-110465925D01*
X136670590Y-110482962D01*
X136038282Y-111115269D01*
X136038282Y-111115270D01*
X136092449Y-111154624D01*
X136281782Y-111251095D01*
X136483870Y-111316757D01*
X136693754Y-111350000D01*
X136906246Y-111350000D01*
X137116127Y-111316757D01*
X137116130Y-111316757D01*
X137318217Y-111251095D01*
X137507554Y-111154622D01*
X137561716Y-111115270D01*
X137561717Y-111115270D01*
X136929408Y-110482962D01*
X136992993Y-110465925D01*
X137107007Y-110400099D01*
X137200099Y-110307007D01*
X137265925Y-110192993D01*
X137282962Y-110129408D01*
X137915270Y-110761717D01*
X137915270Y-110761716D01*
X137954622Y-110707555D01*
X137959232Y-110698507D01*
X138007205Y-110647709D01*
X138075025Y-110630912D01*
X138141161Y-110653447D01*
X138180204Y-110698504D01*
X138184949Y-110707817D01*
X138309890Y-110879786D01*
X138460213Y-111030109D01*
X138632179Y-111155048D01*
X138632181Y-111155049D01*
X138632184Y-111155051D01*
X138821588Y-111251557D01*
X139023757Y-111317246D01*
X139233713Y-111350500D01*
X139233714Y-111350500D01*
X139446286Y-111350500D01*
X139446287Y-111350500D01*
X139656243Y-111317246D01*
X139858412Y-111251557D01*
X140047816Y-111155051D01*
X140085415Y-111127734D01*
X140219786Y-111030109D01*
X140219788Y-111030106D01*
X140219792Y-111030104D01*
X140370104Y-110879792D01*
X140370106Y-110879788D01*
X140370109Y-110879786D01*
X140495048Y-110707820D01*
X140495050Y-110707817D01*
X140495051Y-110707816D01*
X140591557Y-110518412D01*
X140657246Y-110316243D01*
X140690500Y-110106287D01*
X140690500Y-109893713D01*
X140657246Y-109683757D01*
X140639361Y-109628713D01*
X155989500Y-109628713D01*
X155989500Y-109841286D01*
X156016644Y-110012671D01*
X156022754Y-110051243D01*
X156073404Y-110207128D01*
X156088444Y-110253414D01*
X156184951Y-110442820D01*
X156309890Y-110614786D01*
X156460213Y-110765109D01*
X156632179Y-110890048D01*
X156632181Y-110890049D01*
X156632184Y-110890051D01*
X156821588Y-110986557D01*
X157023757Y-111052246D01*
X157233713Y-111085500D01*
X157233714Y-111085500D01*
X157446286Y-111085500D01*
X157446287Y-111085500D01*
X157656243Y-111052246D01*
X157858412Y-110986557D01*
X158047816Y-110890051D01*
X158069789Y-110874086D01*
X158219786Y-110765109D01*
X158219788Y-110765106D01*
X158219792Y-110765104D01*
X158370104Y-110614792D01*
X158370106Y-110614788D01*
X158370109Y-110614786D01*
X158495048Y-110442820D01*
X158495047Y-110442820D01*
X158495051Y-110442816D01*
X158499514Y-110434054D01*
X158547488Y-110383259D01*
X158615308Y-110366463D01*
X158681444Y-110388999D01*
X158720486Y-110434056D01*
X158724951Y-110442820D01*
X158849890Y-110614786D01*
X159000213Y-110765109D01*
X159172179Y-110890048D01*
X159172181Y-110890049D01*
X159172184Y-110890051D01*
X159361588Y-110986557D01*
X159563757Y-111052246D01*
X159773713Y-111085500D01*
X159773714Y-111085500D01*
X159986286Y-111085500D01*
X159986287Y-111085500D01*
X160196243Y-111052246D01*
X160398412Y-110986557D01*
X160587816Y-110890051D01*
X160609789Y-110874086D01*
X160759786Y-110765109D01*
X160759788Y-110765106D01*
X160759792Y-110765104D01*
X160910104Y-110614792D01*
X160910106Y-110614788D01*
X160910109Y-110614786D01*
X161035048Y-110442820D01*
X161035047Y-110442820D01*
X161035051Y-110442816D01*
X161039514Y-110434054D01*
X161087488Y-110383259D01*
X161155308Y-110366463D01*
X161221444Y-110388999D01*
X161260486Y-110434056D01*
X161264951Y-110442820D01*
X161389890Y-110614786D01*
X161540213Y-110765109D01*
X161712179Y-110890048D01*
X161712181Y-110890049D01*
X161712184Y-110890051D01*
X161901588Y-110986557D01*
X162103757Y-111052246D01*
X162313713Y-111085500D01*
X162313714Y-111085500D01*
X162526286Y-111085500D01*
X162526287Y-111085500D01*
X162736243Y-111052246D01*
X162938412Y-110986557D01*
X163127816Y-110890051D01*
X163149789Y-110874086D01*
X163299786Y-110765109D01*
X163299788Y-110765106D01*
X163299792Y-110765104D01*
X163450104Y-110614792D01*
X163450106Y-110614788D01*
X163450109Y-110614786D01*
X163575048Y-110442820D01*
X163575047Y-110442820D01*
X163575051Y-110442816D01*
X163579514Y-110434054D01*
X163627488Y-110383259D01*
X163695308Y-110366463D01*
X163761444Y-110388999D01*
X163800486Y-110434056D01*
X163804951Y-110442820D01*
X163929890Y-110614786D01*
X164080213Y-110765109D01*
X164252179Y-110890048D01*
X164252181Y-110890049D01*
X164252184Y-110890051D01*
X164441588Y-110986557D01*
X164643757Y-111052246D01*
X164853713Y-111085500D01*
X164853714Y-111085500D01*
X165066286Y-111085500D01*
X165066287Y-111085500D01*
X165276243Y-111052246D01*
X165478412Y-110986557D01*
X165667816Y-110890051D01*
X165754478Y-110827088D01*
X165839784Y-110765110D01*
X165839784Y-110765109D01*
X165839792Y-110765104D01*
X165953717Y-110651178D01*
X166015036Y-110617696D01*
X166084728Y-110622680D01*
X166140662Y-110664551D01*
X166157577Y-110695528D01*
X166206646Y-110827088D01*
X166206649Y-110827093D01*
X166292809Y-110942187D01*
X166292812Y-110942190D01*
X166407906Y-111028350D01*
X166407913Y-111028354D01*
X166542620Y-111078596D01*
X166542627Y-111078598D01*
X166602155Y-111084999D01*
X166602172Y-111085000D01*
X167250000Y-111085000D01*
X167250000Y-110168012D01*
X167307007Y-110200925D01*
X167434174Y-110235000D01*
X167565826Y-110235000D01*
X167692993Y-110200925D01*
X167750000Y-110168012D01*
X167750000Y-111085000D01*
X168397828Y-111085000D01*
X168397844Y-111084999D01*
X168457372Y-111078598D01*
X168457379Y-111078596D01*
X168592086Y-111028354D01*
X168592093Y-111028350D01*
X168707187Y-110942190D01*
X168707190Y-110942187D01*
X168793350Y-110827093D01*
X168793354Y-110827086D01*
X168843596Y-110692379D01*
X168843598Y-110692372D01*
X168849999Y-110632844D01*
X168850000Y-110632827D01*
X168850000Y-109985000D01*
X167933012Y-109985000D01*
X167965925Y-109927993D01*
X168000000Y-109800826D01*
X168000000Y-109669174D01*
X167965925Y-109542007D01*
X167933012Y-109485000D01*
X168850000Y-109485000D01*
X168850000Y-108837172D01*
X168849999Y-108837155D01*
X168843598Y-108777627D01*
X168843596Y-108777620D01*
X168793354Y-108642913D01*
X168793350Y-108642906D01*
X168707190Y-108527812D01*
X168707187Y-108527809D01*
X168592093Y-108441649D01*
X168592086Y-108441645D01*
X168457379Y-108391403D01*
X168457372Y-108391401D01*
X168397844Y-108385000D01*
X167750000Y-108385000D01*
X167750000Y-109301988D01*
X167692993Y-109269075D01*
X167565826Y-109235000D01*
X167434174Y-109235000D01*
X167307007Y-109269075D01*
X167250000Y-109301988D01*
X167250000Y-108385000D01*
X166602155Y-108385000D01*
X166542627Y-108391401D01*
X166542620Y-108391403D01*
X166407913Y-108441645D01*
X166407906Y-108441649D01*
X166292812Y-108527809D01*
X166292809Y-108527812D01*
X166206649Y-108642906D01*
X166206646Y-108642912D01*
X166157577Y-108774471D01*
X166115705Y-108830404D01*
X166050241Y-108854821D01*
X165981968Y-108839969D01*
X165953714Y-108818818D01*
X165839786Y-108704890D01*
X165667820Y-108579951D01*
X165478414Y-108483444D01*
X165478413Y-108483443D01*
X165478412Y-108483443D01*
X165276243Y-108417754D01*
X165276241Y-108417753D01*
X165276240Y-108417753D01*
X165114957Y-108392208D01*
X165066287Y-108384500D01*
X164853713Y-108384500D01*
X164805042Y-108392208D01*
X164643760Y-108417753D01*
X164441585Y-108483444D01*
X164252179Y-108579951D01*
X164080213Y-108704890D01*
X163929890Y-108855213D01*
X163804949Y-109027182D01*
X163800484Y-109035946D01*
X163752509Y-109086742D01*
X163684688Y-109103536D01*
X163618553Y-109080998D01*
X163579516Y-109035946D01*
X163575050Y-109027182D01*
X163450109Y-108855213D01*
X163299786Y-108704890D01*
X163127820Y-108579951D01*
X162938414Y-108483444D01*
X162938413Y-108483443D01*
X162938412Y-108483443D01*
X162736243Y-108417754D01*
X162736241Y-108417753D01*
X162736240Y-108417753D01*
X162574957Y-108392208D01*
X162526287Y-108384500D01*
X162313713Y-108384500D01*
X162265042Y-108392208D01*
X162103760Y-108417753D01*
X161901585Y-108483444D01*
X161712179Y-108579951D01*
X161540213Y-108704890D01*
X161389890Y-108855213D01*
X161264949Y-109027182D01*
X161260484Y-109035946D01*
X161212509Y-109086742D01*
X161144688Y-109103536D01*
X161078553Y-109080998D01*
X161039516Y-109035946D01*
X161035050Y-109027182D01*
X160910109Y-108855213D01*
X160759786Y-108704890D01*
X160587820Y-108579951D01*
X160398414Y-108483444D01*
X160398413Y-108483443D01*
X160398412Y-108483443D01*
X160196243Y-108417754D01*
X160196241Y-108417753D01*
X160196240Y-108417753D01*
X160034957Y-108392208D01*
X159986287Y-108384500D01*
X159773713Y-108384500D01*
X159725042Y-108392208D01*
X159563760Y-108417753D01*
X159361585Y-108483444D01*
X159172179Y-108579951D01*
X159000213Y-108704890D01*
X158849890Y-108855213D01*
X158724949Y-109027182D01*
X158720484Y-109035946D01*
X158672509Y-109086742D01*
X158604688Y-109103536D01*
X158538553Y-109080998D01*
X158499516Y-109035946D01*
X158495050Y-109027182D01*
X158370109Y-108855213D01*
X158219786Y-108704890D01*
X158047820Y-108579951D01*
X157858414Y-108483444D01*
X157858413Y-108483443D01*
X157858412Y-108483443D01*
X157656243Y-108417754D01*
X157656241Y-108417753D01*
X157656240Y-108417753D01*
X157494957Y-108392208D01*
X157446287Y-108384500D01*
X157233713Y-108384500D01*
X157185042Y-108392208D01*
X157023760Y-108417753D01*
X156821585Y-108483444D01*
X156632179Y-108579951D01*
X156460213Y-108704890D01*
X156309890Y-108855213D01*
X156184951Y-109027179D01*
X156088444Y-109216585D01*
X156022753Y-109418760D01*
X155989500Y-109628713D01*
X140639361Y-109628713D01*
X140591557Y-109481588D01*
X140495051Y-109292184D01*
X140495049Y-109292181D01*
X140495048Y-109292179D01*
X140370109Y-109120213D01*
X140219786Y-108969890D01*
X140047820Y-108844951D01*
X139858414Y-108748444D01*
X139858413Y-108748443D01*
X139858412Y-108748443D01*
X139656243Y-108682754D01*
X139656241Y-108682753D01*
X139656240Y-108682753D01*
X139494957Y-108657208D01*
X139446287Y-108649500D01*
X139233713Y-108649500D01*
X139185042Y-108657208D01*
X139023760Y-108682753D01*
X138821585Y-108748444D01*
X138632179Y-108844951D01*
X138460213Y-108969890D01*
X138309890Y-109120213D01*
X138184949Y-109292182D01*
X138180202Y-109301499D01*
X138132227Y-109352293D01*
X138064405Y-109369087D01*
X137998271Y-109346548D01*
X137959234Y-109301495D01*
X137954626Y-109292452D01*
X137915270Y-109238282D01*
X137915269Y-109238282D01*
X137282962Y-109870590D01*
X137265925Y-109807007D01*
X137200099Y-109692993D01*
X137107007Y-109599901D01*
X136992993Y-109534075D01*
X136929409Y-109517037D01*
X137561716Y-108884728D01*
X137507550Y-108845375D01*
X137318217Y-108748904D01*
X137116129Y-108683242D01*
X136906246Y-108650000D01*
X136693754Y-108650000D01*
X136483872Y-108683242D01*
X136483869Y-108683242D01*
X136281782Y-108748904D01*
X136092439Y-108845380D01*
X136038282Y-108884727D01*
X136038282Y-108884728D01*
X136670591Y-109517037D01*
X136607007Y-109534075D01*
X136492993Y-109599901D01*
X136399901Y-109692993D01*
X136334075Y-109807007D01*
X136317037Y-109870591D01*
X135646818Y-109200372D01*
X135613333Y-109139049D01*
X135613330Y-109139036D01*
X135610499Y-109126015D01*
X135610499Y-109102128D01*
X135604091Y-109042517D01*
X135575926Y-108967002D01*
X135553798Y-108907673D01*
X135553793Y-108907664D01*
X135467547Y-108792455D01*
X135467544Y-108792452D01*
X135352335Y-108706206D01*
X135352328Y-108706202D01*
X135217482Y-108655908D01*
X135217483Y-108655908D01*
X135157883Y-108649501D01*
X135157881Y-108649500D01*
X135157873Y-108649500D01*
X135157864Y-108649500D01*
X133362129Y-108649500D01*
X133362123Y-108649501D01*
X133302516Y-108655908D01*
X133167671Y-108706202D01*
X133167664Y-108706206D01*
X133052455Y-108792452D01*
X133052452Y-108792455D01*
X132966206Y-108907664D01*
X132966202Y-108907671D01*
X132915908Y-109042517D01*
X132909501Y-109102116D01*
X132909500Y-109102135D01*
X87909689Y-109102135D01*
X87909799Y-102988713D01*
X150029500Y-102988713D01*
X150029500Y-103201286D01*
X150062753Y-103411239D01*
X150128444Y-103613414D01*
X150224951Y-103802820D01*
X150349890Y-103974786D01*
X150500213Y-104125109D01*
X150672179Y-104250048D01*
X150672181Y-104250049D01*
X150672184Y-104250051D01*
X150861588Y-104346557D01*
X151063757Y-104412246D01*
X151273713Y-104445500D01*
X151273714Y-104445500D01*
X151486286Y-104445500D01*
X151486287Y-104445500D01*
X151696243Y-104412246D01*
X151898412Y-104346557D01*
X152087816Y-104250051D01*
X152174478Y-104187088D01*
X152259786Y-104125109D01*
X152259788Y-104125106D01*
X152259792Y-104125104D01*
X152410104Y-103974792D01*
X152410106Y-103974788D01*
X152410109Y-103974786D01*
X152535048Y-103802820D01*
X152535047Y-103802820D01*
X152535051Y-103802816D01*
X152539514Y-103794054D01*
X152587488Y-103743259D01*
X152655308Y-103726463D01*
X152721444Y-103748999D01*
X152760486Y-103794056D01*
X152764951Y-103802820D01*
X152889890Y-103974786D01*
X153040213Y-104125109D01*
X153212179Y-104250048D01*
X153212181Y-104250049D01*
X153212184Y-104250051D01*
X153401588Y-104346557D01*
X153603757Y-104412246D01*
X153813713Y-104445500D01*
X153813714Y-104445500D01*
X154026286Y-104445500D01*
X154026287Y-104445500D01*
X154236243Y-104412246D01*
X154438412Y-104346557D01*
X154627816Y-104250051D01*
X154714478Y-104187088D01*
X154799786Y-104125109D01*
X154799788Y-104125106D01*
X154799792Y-104125104D01*
X154950104Y-103974792D01*
X154950106Y-103974788D01*
X154950109Y-103974786D01*
X155075048Y-103802820D01*
X155075047Y-103802820D01*
X155075051Y-103802816D01*
X155079514Y-103794054D01*
X155127488Y-103743259D01*
X155195308Y-103726463D01*
X155261444Y-103748999D01*
X155300486Y-103794056D01*
X155304951Y-103802820D01*
X155429890Y-103974786D01*
X155580213Y-104125109D01*
X155752179Y-104250048D01*
X155752181Y-104250049D01*
X155752184Y-104250051D01*
X155941588Y-104346557D01*
X156143757Y-104412246D01*
X156353713Y-104445500D01*
X156353714Y-104445500D01*
X156566286Y-104445500D01*
X156566287Y-104445500D01*
X156776243Y-104412246D01*
X156978412Y-104346557D01*
X157167816Y-104250051D01*
X157254478Y-104187088D01*
X157339786Y-104125109D01*
X157339788Y-104125106D01*
X157339792Y-104125104D01*
X157490104Y-103974792D01*
X157490106Y-103974788D01*
X157490109Y-103974786D01*
X157615048Y-103802820D01*
X157615047Y-103802820D01*
X157615051Y-103802816D01*
X157619514Y-103794054D01*
X157667488Y-103743259D01*
X157735308Y-103726463D01*
X157801444Y-103748999D01*
X157840486Y-103794056D01*
X157844951Y-103802820D01*
X157969890Y-103974786D01*
X158120213Y-104125109D01*
X158292179Y-104250048D01*
X158292181Y-104250049D01*
X158292184Y-104250051D01*
X158481588Y-104346557D01*
X158683757Y-104412246D01*
X158893713Y-104445500D01*
X158893714Y-104445500D01*
X159106286Y-104445500D01*
X159106287Y-104445500D01*
X159316243Y-104412246D01*
X159518412Y-104346557D01*
X159707816Y-104250051D01*
X159794478Y-104187088D01*
X159879786Y-104125109D01*
X159879788Y-104125106D01*
X159879792Y-104125104D01*
X160030104Y-103974792D01*
X160030106Y-103974788D01*
X160030109Y-103974786D01*
X160155048Y-103802820D01*
X160155047Y-103802820D01*
X160155051Y-103802816D01*
X160159514Y-103794054D01*
X160207488Y-103743259D01*
X160275308Y-103726463D01*
X160341444Y-103748999D01*
X160380486Y-103794056D01*
X160384951Y-103802820D01*
X160509890Y-103974786D01*
X160660213Y-104125109D01*
X160832179Y-104250048D01*
X160832181Y-104250049D01*
X160832184Y-104250051D01*
X161021588Y-104346557D01*
X161223757Y-104412246D01*
X161433713Y-104445500D01*
X161433714Y-104445500D01*
X161646286Y-104445500D01*
X161646287Y-104445500D01*
X161856243Y-104412246D01*
X162058412Y-104346557D01*
X162247816Y-104250051D01*
X162334478Y-104187088D01*
X162419786Y-104125109D01*
X162419788Y-104125106D01*
X162419792Y-104125104D01*
X162570104Y-103974792D01*
X162570106Y-103974788D01*
X162570109Y-103974786D01*
X162695048Y-103802820D01*
X162695047Y-103802820D01*
X162695051Y-103802816D01*
X162699514Y-103794054D01*
X162747488Y-103743259D01*
X162815308Y-103726463D01*
X162881444Y-103748999D01*
X162920486Y-103794056D01*
X162924951Y-103802820D01*
X163049890Y-103974786D01*
X163200213Y-104125109D01*
X163372179Y-104250048D01*
X163372181Y-104250049D01*
X163372184Y-104250051D01*
X163561588Y-104346557D01*
X163763757Y-104412246D01*
X163973713Y-104445500D01*
X163973714Y-104445500D01*
X164186286Y-104445500D01*
X164186287Y-104445500D01*
X164396243Y-104412246D01*
X164598412Y-104346557D01*
X164787816Y-104250051D01*
X164874478Y-104187088D01*
X164959786Y-104125109D01*
X164959788Y-104125106D01*
X164959792Y-104125104D01*
X165110104Y-103974792D01*
X165110106Y-103974788D01*
X165110109Y-103974786D01*
X165235048Y-103802820D01*
X165235047Y-103802820D01*
X165235051Y-103802816D01*
X165239514Y-103794054D01*
X165287488Y-103743259D01*
X165355308Y-103726463D01*
X165421444Y-103748999D01*
X165460486Y-103794056D01*
X165464951Y-103802820D01*
X165589890Y-103974786D01*
X165740213Y-104125109D01*
X165912179Y-104250048D01*
X165912181Y-104250049D01*
X165912184Y-104250051D01*
X166101588Y-104346557D01*
X166303757Y-104412246D01*
X166513713Y-104445500D01*
X166513714Y-104445500D01*
X166726286Y-104445500D01*
X166726287Y-104445500D01*
X166936243Y-104412246D01*
X167138412Y-104346557D01*
X167327816Y-104250051D01*
X167414478Y-104187088D01*
X167499784Y-104125110D01*
X167499784Y-104125109D01*
X167499792Y-104125104D01*
X167613717Y-104011178D01*
X167675036Y-103977696D01*
X167744728Y-103982680D01*
X167800662Y-104024551D01*
X167817577Y-104055528D01*
X167866646Y-104187088D01*
X167866649Y-104187093D01*
X167952809Y-104302187D01*
X167952812Y-104302190D01*
X168067906Y-104388350D01*
X168067913Y-104388354D01*
X168202620Y-104438596D01*
X168202627Y-104438598D01*
X168262155Y-104444999D01*
X168262172Y-104445000D01*
X168910000Y-104445000D01*
X168910000Y-103528012D01*
X168967007Y-103560925D01*
X169094174Y-103595000D01*
X169225826Y-103595000D01*
X169352993Y-103560925D01*
X169410000Y-103528012D01*
X169410000Y-104445000D01*
X170057828Y-104445000D01*
X170057844Y-104444999D01*
X170117372Y-104438598D01*
X170117379Y-104438596D01*
X170252086Y-104388354D01*
X170252093Y-104388350D01*
X170367187Y-104302190D01*
X170367190Y-104302187D01*
X170453350Y-104187093D01*
X170453354Y-104187086D01*
X170503596Y-104052379D01*
X170503598Y-104052372D01*
X170509999Y-103992844D01*
X170510000Y-103992827D01*
X170510000Y-103345000D01*
X169593012Y-103345000D01*
X169625925Y-103287993D01*
X169660000Y-103160826D01*
X169660000Y-103029174D01*
X169625925Y-102902007D01*
X169593012Y-102845000D01*
X170510000Y-102845000D01*
X170510000Y-102197172D01*
X170509999Y-102197155D01*
X170503598Y-102137627D01*
X170503596Y-102137620D01*
X170453354Y-102002913D01*
X170453350Y-102002906D01*
X170367190Y-101887812D01*
X170367187Y-101887809D01*
X170252093Y-101801649D01*
X170252086Y-101801645D01*
X170117379Y-101751403D01*
X170117372Y-101751401D01*
X170057844Y-101745000D01*
X169410000Y-101745000D01*
X169410000Y-102661988D01*
X169352993Y-102629075D01*
X169225826Y-102595000D01*
X169094174Y-102595000D01*
X168967007Y-102629075D01*
X168910000Y-102661988D01*
X168910000Y-101745000D01*
X168262155Y-101745000D01*
X168202627Y-101751401D01*
X168202620Y-101751403D01*
X168067913Y-101801645D01*
X168067906Y-101801649D01*
X167952812Y-101887809D01*
X167952809Y-101887812D01*
X167866649Y-102002906D01*
X167866646Y-102002912D01*
X167817577Y-102134471D01*
X167775705Y-102190404D01*
X167710241Y-102214821D01*
X167641968Y-102199969D01*
X167613714Y-102178818D01*
X167499786Y-102064890D01*
X167327820Y-101939951D01*
X167138414Y-101843444D01*
X167138413Y-101843443D01*
X167138412Y-101843443D01*
X166936243Y-101777754D01*
X166936241Y-101777753D01*
X166936240Y-101777753D01*
X166774957Y-101752208D01*
X166726287Y-101744500D01*
X166513713Y-101744500D01*
X166465042Y-101752208D01*
X166303760Y-101777753D01*
X166101585Y-101843444D01*
X165912179Y-101939951D01*
X165740213Y-102064890D01*
X165589890Y-102215213D01*
X165464949Y-102387182D01*
X165460484Y-102395946D01*
X165412509Y-102446742D01*
X165344688Y-102463536D01*
X165278553Y-102440998D01*
X165239516Y-102395946D01*
X165235050Y-102387182D01*
X165110109Y-102215213D01*
X164959786Y-102064890D01*
X164787820Y-101939951D01*
X164598414Y-101843444D01*
X164598413Y-101843443D01*
X164598412Y-101843443D01*
X164396243Y-101777754D01*
X164396241Y-101777753D01*
X164396240Y-101777753D01*
X164234957Y-101752208D01*
X164186287Y-101744500D01*
X163973713Y-101744500D01*
X163925042Y-101752208D01*
X163763760Y-101777753D01*
X163561585Y-101843444D01*
X163372179Y-101939951D01*
X163200213Y-102064890D01*
X163049890Y-102215213D01*
X162924949Y-102387182D01*
X162920484Y-102395946D01*
X162872509Y-102446742D01*
X162804688Y-102463536D01*
X162738553Y-102440998D01*
X162699516Y-102395946D01*
X162695050Y-102387182D01*
X162570109Y-102215213D01*
X162419786Y-102064890D01*
X162247820Y-101939951D01*
X162058414Y-101843444D01*
X162058413Y-101843443D01*
X162058412Y-101843443D01*
X161856243Y-101777754D01*
X161856241Y-101777753D01*
X161856240Y-101777753D01*
X161694957Y-101752208D01*
X161646287Y-101744500D01*
X161433713Y-101744500D01*
X161385042Y-101752208D01*
X161223760Y-101777753D01*
X161021585Y-101843444D01*
X160832179Y-101939951D01*
X160660213Y-102064890D01*
X160509890Y-102215213D01*
X160384949Y-102387182D01*
X160380484Y-102395946D01*
X160332509Y-102446742D01*
X160264688Y-102463536D01*
X160198553Y-102440998D01*
X160159516Y-102395946D01*
X160155050Y-102387182D01*
X160030109Y-102215213D01*
X159879786Y-102064890D01*
X159707820Y-101939951D01*
X159518414Y-101843444D01*
X159518413Y-101843443D01*
X159518412Y-101843443D01*
X159316243Y-101777754D01*
X159316241Y-101777753D01*
X159316240Y-101777753D01*
X159154957Y-101752208D01*
X159106287Y-101744500D01*
X158893713Y-101744500D01*
X158845042Y-101752208D01*
X158683760Y-101777753D01*
X158481585Y-101843444D01*
X158292179Y-101939951D01*
X158120213Y-102064890D01*
X157969890Y-102215213D01*
X157844949Y-102387182D01*
X157840484Y-102395946D01*
X157792509Y-102446742D01*
X157724688Y-102463536D01*
X157658553Y-102440998D01*
X157619516Y-102395946D01*
X157615050Y-102387182D01*
X157490109Y-102215213D01*
X157339786Y-102064890D01*
X157167820Y-101939951D01*
X156978414Y-101843444D01*
X156978413Y-101843443D01*
X156978412Y-101843443D01*
X156776243Y-101777754D01*
X156776241Y-101777753D01*
X156776240Y-101777753D01*
X156614957Y-101752208D01*
X156566287Y-101744500D01*
X156353713Y-101744500D01*
X156305042Y-101752208D01*
X156143760Y-101777753D01*
X155941585Y-101843444D01*
X155752179Y-101939951D01*
X155580213Y-102064890D01*
X155429890Y-102215213D01*
X155304949Y-102387182D01*
X155300484Y-102395946D01*
X155252509Y-102446742D01*
X155184688Y-102463536D01*
X155118553Y-102440998D01*
X155079516Y-102395946D01*
X155075050Y-102387182D01*
X154950109Y-102215213D01*
X154799786Y-102064890D01*
X154627820Y-101939951D01*
X154438414Y-101843444D01*
X154438413Y-101843443D01*
X154438412Y-101843443D01*
X154236243Y-101777754D01*
X154236241Y-101777753D01*
X154236240Y-101777753D01*
X154074957Y-101752208D01*
X154026287Y-101744500D01*
X153813713Y-101744500D01*
X153765042Y-101752208D01*
X153603760Y-101777753D01*
X153401585Y-101843444D01*
X153212179Y-101939951D01*
X153040213Y-102064890D01*
X152889890Y-102215213D01*
X152764949Y-102387182D01*
X152760484Y-102395946D01*
X152712509Y-102446742D01*
X152644688Y-102463536D01*
X152578553Y-102440998D01*
X152539516Y-102395946D01*
X152535050Y-102387182D01*
X152410109Y-102215213D01*
X152259786Y-102064890D01*
X152087820Y-101939951D01*
X151898414Y-101843444D01*
X151898413Y-101843443D01*
X151898412Y-101843443D01*
X151696243Y-101777754D01*
X151696241Y-101777753D01*
X151696240Y-101777753D01*
X151534957Y-101752208D01*
X151486287Y-101744500D01*
X151273713Y-101744500D01*
X151225042Y-101752208D01*
X151063760Y-101777753D01*
X150861585Y-101843444D01*
X150672179Y-101939951D01*
X150500213Y-102064890D01*
X150349890Y-102215213D01*
X150224951Y-102387179D01*
X150128444Y-102576585D01*
X150062753Y-102778760D01*
X150029500Y-102988713D01*
X87909799Y-102988713D01*
X87909885Y-98221153D01*
X187559500Y-98221153D01*
X187559500Y-98378846D01*
X187590261Y-98533489D01*
X187590264Y-98533501D01*
X187650602Y-98679172D01*
X187650606Y-98679179D01*
X187688602Y-98736044D01*
X187709480Y-98802721D01*
X187709500Y-98804935D01*
X187709500Y-99895064D01*
X187689815Y-99962103D01*
X187688603Y-99963954D01*
X187650608Y-100020817D01*
X187650602Y-100020828D01*
X187590264Y-100166498D01*
X187590261Y-100166510D01*
X187559500Y-100321153D01*
X187559500Y-100478846D01*
X187590261Y-100633489D01*
X187590264Y-100633501D01*
X187650602Y-100779172D01*
X187650609Y-100779185D01*
X187738210Y-100910288D01*
X187738213Y-100910292D01*
X187849707Y-101021786D01*
X187849711Y-101021789D01*
X187980814Y-101109390D01*
X187980827Y-101109397D01*
X188126498Y-101169735D01*
X188126503Y-101169737D01*
X188281153Y-101200499D01*
X188281156Y-101200500D01*
X188281158Y-101200500D01*
X188438844Y-101200500D01*
X188438845Y-101200499D01*
X188593497Y-101169737D01*
X188739179Y-101109394D01*
X188870289Y-101021789D01*
X188981789Y-100910289D01*
X189069394Y-100779179D01*
X189129737Y-100633497D01*
X189160500Y-100478842D01*
X189160500Y-100321158D01*
X189160500Y-100321155D01*
X189160499Y-100321153D01*
X189129738Y-100166510D01*
X189129737Y-100166503D01*
X189069394Y-100020821D01*
X189031396Y-99963953D01*
X189010520Y-99897276D01*
X189010500Y-99895064D01*
X189010500Y-98804935D01*
X189030185Y-98737896D01*
X189031366Y-98736090D01*
X189069394Y-98679179D01*
X189129737Y-98533497D01*
X189160500Y-98378842D01*
X189160500Y-98221158D01*
X189160500Y-98221155D01*
X189160499Y-98221153D01*
X198899500Y-98221153D01*
X198899500Y-98378846D01*
X198930261Y-98533489D01*
X198930264Y-98533501D01*
X198990602Y-98679172D01*
X198990606Y-98679179D01*
X199028602Y-98736044D01*
X199049480Y-98802721D01*
X199049500Y-98804935D01*
X199049500Y-99895064D01*
X199029815Y-99962103D01*
X199028603Y-99963954D01*
X198990608Y-100020817D01*
X198990602Y-100020828D01*
X198930264Y-100166498D01*
X198930261Y-100166510D01*
X198899500Y-100321153D01*
X198899500Y-100478846D01*
X198930261Y-100633489D01*
X198930264Y-100633501D01*
X198990602Y-100779172D01*
X198990609Y-100779185D01*
X199078210Y-100910288D01*
X199078213Y-100910292D01*
X199189707Y-101021786D01*
X199189711Y-101021789D01*
X199320814Y-101109390D01*
X199320827Y-101109397D01*
X199466498Y-101169735D01*
X199466503Y-101169737D01*
X199621153Y-101200499D01*
X199621156Y-101200500D01*
X199621158Y-101200500D01*
X199778844Y-101200500D01*
X199778845Y-101200499D01*
X199933497Y-101169737D01*
X200079179Y-101109394D01*
X200210289Y-101021789D01*
X200321789Y-100910289D01*
X200409394Y-100779179D01*
X200469737Y-100633497D01*
X200500500Y-100478842D01*
X200500500Y-100321158D01*
X200500500Y-100321155D01*
X200500499Y-100321153D01*
X200469738Y-100166510D01*
X200469737Y-100166503D01*
X200409394Y-100020821D01*
X200371396Y-99963953D01*
X200350520Y-99897276D01*
X200350500Y-99895064D01*
X200350500Y-98804935D01*
X200370185Y-98737896D01*
X200371366Y-98736090D01*
X200409394Y-98679179D01*
X200469737Y-98533497D01*
X200500500Y-98378842D01*
X200500500Y-98221158D01*
X200500500Y-98221155D01*
X200500499Y-98221153D01*
X200469738Y-98066510D01*
X200469737Y-98066503D01*
X200469735Y-98066498D01*
X200409397Y-97920827D01*
X200409390Y-97920814D01*
X200321789Y-97789711D01*
X200321786Y-97789707D01*
X200210292Y-97678213D01*
X200210288Y-97678210D01*
X200079185Y-97590609D01*
X200079172Y-97590602D01*
X199933501Y-97530264D01*
X199933489Y-97530261D01*
X199778845Y-97499500D01*
X199778842Y-97499500D01*
X199621158Y-97499500D01*
X199621155Y-97499500D01*
X199466510Y-97530261D01*
X199466498Y-97530264D01*
X199320827Y-97590602D01*
X199320814Y-97590609D01*
X199189711Y-97678210D01*
X199189707Y-97678213D01*
X199078213Y-97789707D01*
X199078210Y-97789711D01*
X198990609Y-97920814D01*
X198990602Y-97920827D01*
X198930264Y-98066498D01*
X198930261Y-98066510D01*
X198899500Y-98221153D01*
X189160499Y-98221153D01*
X189129738Y-98066510D01*
X189129737Y-98066503D01*
X189129735Y-98066498D01*
X189069397Y-97920827D01*
X189069390Y-97920814D01*
X188981789Y-97789711D01*
X188981786Y-97789707D01*
X188870292Y-97678213D01*
X188870288Y-97678210D01*
X188739185Y-97590609D01*
X188739172Y-97590602D01*
X188593501Y-97530264D01*
X188593489Y-97530261D01*
X188438845Y-97499500D01*
X188438842Y-97499500D01*
X188281158Y-97499500D01*
X188281155Y-97499500D01*
X188126510Y-97530261D01*
X188126498Y-97530264D01*
X187980827Y-97590602D01*
X187980814Y-97590609D01*
X187849711Y-97678210D01*
X187849707Y-97678213D01*
X187738213Y-97789707D01*
X187738210Y-97789711D01*
X187650609Y-97920814D01*
X187650602Y-97920827D01*
X187590264Y-98066498D01*
X187590261Y-98066510D01*
X187559500Y-98221153D01*
X87909885Y-98221153D01*
X87910050Y-89049687D01*
X87910088Y-86962135D01*
X94519500Y-86962135D01*
X94519500Y-89037870D01*
X94519501Y-89037876D01*
X94525908Y-89097483D01*
X94576202Y-89232328D01*
X94576206Y-89232335D01*
X94662452Y-89347544D01*
X94662455Y-89347547D01*
X94777664Y-89433793D01*
X94777671Y-89433797D01*
X94912517Y-89484091D01*
X94912516Y-89484091D01*
X94919444Y-89484835D01*
X94972127Y-89490500D01*
X99027872Y-89490499D01*
X99087483Y-89484091D01*
X99222331Y-89433796D01*
X99337546Y-89347546D01*
X99423796Y-89232331D01*
X99474091Y-89097483D01*
X99480500Y-89037873D01*
X99480499Y-86962128D01*
X99474091Y-86902517D01*
X99473743Y-86901585D01*
X99423797Y-86767671D01*
X99423793Y-86767664D01*
X99337547Y-86652455D01*
X99337544Y-86652452D01*
X99222335Y-86566206D01*
X99222328Y-86566202D01*
X99087482Y-86515908D01*
X99087483Y-86515908D01*
X99027883Y-86509501D01*
X99027881Y-86509500D01*
X99027873Y-86509500D01*
X99027864Y-86509500D01*
X94972129Y-86509500D01*
X94972123Y-86509501D01*
X94912516Y-86515908D01*
X94777671Y-86566202D01*
X94777664Y-86566206D01*
X94662455Y-86652452D01*
X94662452Y-86652455D01*
X94576206Y-86767664D01*
X94576202Y-86767671D01*
X94525908Y-86902517D01*
X94519857Y-86958804D01*
X94519501Y-86962123D01*
X94519500Y-86962135D01*
X87910088Y-86962135D01*
X87910088Y-86958804D01*
X87910107Y-85910104D01*
X87910161Y-82882695D01*
X94519500Y-82882695D01*
X94519500Y-83117305D01*
X94523517Y-83142669D01*
X94556201Y-83349027D01*
X94628697Y-83572150D01*
X94735212Y-83781195D01*
X94873104Y-83970989D01*
X94873108Y-83970994D01*
X95039005Y-84136891D01*
X95039010Y-84136895D01*
X95174040Y-84234999D01*
X95228808Y-84274790D01*
X95437847Y-84381301D01*
X95437849Y-84381302D01*
X95528039Y-84410606D01*
X95660974Y-84453799D01*
X95892695Y-84490500D01*
X95892696Y-84490500D01*
X98107304Y-84490500D01*
X98107305Y-84490500D01*
X98339026Y-84453799D01*
X98562153Y-84381301D01*
X98771192Y-84274790D01*
X98960996Y-84136890D01*
X99126890Y-83970996D01*
X99264790Y-83781192D01*
X99371301Y-83572153D01*
X99443799Y-83349026D01*
X99480500Y-83117305D01*
X99480500Y-82882695D01*
X99443799Y-82650974D01*
X99432477Y-82616127D01*
X99420444Y-82579091D01*
X99409577Y-82545646D01*
X108444500Y-82545646D01*
X108444500Y-82774353D01*
X108480278Y-83000246D01*
X108480278Y-83000249D01*
X108550950Y-83217755D01*
X108617836Y-83349026D01*
X108654783Y-83421538D01*
X108789214Y-83606566D01*
X108950934Y-83768286D01*
X108957903Y-83773349D01*
X109035438Y-83829682D01*
X109078103Y-83885013D01*
X109084082Y-83954626D01*
X109051476Y-84016421D01*
X109035438Y-84030318D01*
X108950932Y-84091715D01*
X108789216Y-84253431D01*
X108789216Y-84253432D01*
X108789214Y-84253434D01*
X108773698Y-84274790D01*
X108654783Y-84438461D01*
X108550950Y-84642244D01*
X108480278Y-84859750D01*
X108480278Y-84859753D01*
X108452511Y-85035066D01*
X108444500Y-85085646D01*
X108444500Y-85314354D01*
X108456421Y-85389622D01*
X108480278Y-85540246D01*
X108480278Y-85540249D01*
X108550950Y-85757755D01*
X108628576Y-85910104D01*
X108654783Y-85961538D01*
X108787829Y-86144660D01*
X108811309Y-86210466D01*
X108795484Y-86278520D01*
X108745378Y-86327215D01*
X108730848Y-86333726D01*
X108702912Y-86344146D01*
X108702906Y-86344149D01*
X108587812Y-86430309D01*
X108587809Y-86430312D01*
X108501649Y-86545406D01*
X108501645Y-86545413D01*
X108451403Y-86680120D01*
X108451401Y-86680127D01*
X108445000Y-86739655D01*
X108445000Y-87490000D01*
X109454252Y-87490000D01*
X109432482Y-87527708D01*
X109395000Y-87667591D01*
X109395000Y-87812409D01*
X109432482Y-87952292D01*
X109454252Y-87990000D01*
X108445000Y-87990000D01*
X108445000Y-88740344D01*
X108451401Y-88799872D01*
X108451403Y-88799879D01*
X108501645Y-88934586D01*
X108501649Y-88934593D01*
X108587809Y-89049687D01*
X108587812Y-89049690D01*
X108702906Y-89135850D01*
X108702913Y-89135854D01*
X108837620Y-89186096D01*
X108837627Y-89186098D01*
X108897155Y-89192499D01*
X108897172Y-89192500D01*
X109695000Y-89192500D01*
X109695000Y-88230747D01*
X109732708Y-88252518D01*
X109872591Y-88290000D01*
X110017409Y-88290000D01*
X110157292Y-88252518D01*
X110195000Y-88230747D01*
X110195000Y-89192500D01*
X110992828Y-89192500D01*
X110992844Y-89192499D01*
X111052372Y-89186098D01*
X111052379Y-89186096D01*
X111187086Y-89135854D01*
X111187093Y-89135850D01*
X111302187Y-89049690D01*
X111302190Y-89049687D01*
X111388350Y-88934593D01*
X111388354Y-88934586D01*
X111438596Y-88799879D01*
X111438598Y-88799872D01*
X111444999Y-88740344D01*
X111445000Y-88740327D01*
X111445000Y-87990000D01*
X110435748Y-87990000D01*
X110457518Y-87952292D01*
X110495000Y-87812409D01*
X110495000Y-87667591D01*
X110457518Y-87527708D01*
X110435748Y-87490000D01*
X111445000Y-87490000D01*
X111445000Y-86739672D01*
X111444999Y-86739655D01*
X111438598Y-86680127D01*
X111438596Y-86680120D01*
X111388354Y-86545413D01*
X111388350Y-86545406D01*
X111302190Y-86430312D01*
X111302187Y-86430309D01*
X111187093Y-86344149D01*
X111187083Y-86344144D01*
X111159153Y-86333726D01*
X111103220Y-86291854D01*
X111078804Y-86226389D01*
X111093657Y-86158116D01*
X111102159Y-86144675D01*
X111235217Y-85961538D01*
X111339048Y-85757758D01*
X111388703Y-85604935D01*
X111409721Y-85540249D01*
X111409721Y-85540248D01*
X111409722Y-85540245D01*
X111445500Y-85314354D01*
X111445500Y-85085646D01*
X111409722Y-84859755D01*
X111409721Y-84859751D01*
X111409721Y-84859750D01*
X111339049Y-84642244D01*
X111312280Y-84589707D01*
X111235217Y-84438462D01*
X111100786Y-84253434D01*
X110939066Y-84091714D01*
X110854559Y-84030316D01*
X110811896Y-83974988D01*
X110805917Y-83905375D01*
X110838523Y-83843580D01*
X110854556Y-83829685D01*
X110939066Y-83768286D01*
X111100786Y-83606566D01*
X111235217Y-83421538D01*
X111339048Y-83217758D01*
X111363446Y-83142669D01*
X111409721Y-83000249D01*
X111409721Y-83000248D01*
X111409722Y-83000245D01*
X111445500Y-82774354D01*
X111445500Y-82545646D01*
X111409722Y-82319755D01*
X111409721Y-82319751D01*
X111409721Y-82319750D01*
X111392633Y-82267159D01*
X111381766Y-82233713D01*
X133649500Y-82233713D01*
X133649500Y-82446286D01*
X133681918Y-82650970D01*
X133682754Y-82656243D01*
X133721130Y-82774353D01*
X133748444Y-82858414D01*
X133844951Y-83047820D01*
X133969890Y-83219786D01*
X134120213Y-83370109D01*
X134292182Y-83495050D01*
X134300946Y-83499516D01*
X134351742Y-83547491D01*
X134368536Y-83615312D01*
X134345998Y-83681447D01*
X134300946Y-83720484D01*
X134292182Y-83724949D01*
X134120213Y-83849890D01*
X133969890Y-84000213D01*
X133844951Y-84172179D01*
X133748444Y-84361585D01*
X133682753Y-84563760D01*
X133649500Y-84773713D01*
X133649500Y-84986286D01*
X133679998Y-85178846D01*
X133682754Y-85196243D01*
X133745726Y-85390051D01*
X133748444Y-85398414D01*
X133844951Y-85587820D01*
X133969890Y-85759786D01*
X134120213Y-85910109D01*
X134292182Y-86035050D01*
X134300946Y-86039516D01*
X134351742Y-86087491D01*
X134368536Y-86155312D01*
X134345998Y-86221447D01*
X134300946Y-86260484D01*
X134292182Y-86264949D01*
X134120213Y-86389890D01*
X133969890Y-86540213D01*
X133844951Y-86712179D01*
X133748444Y-86901585D01*
X133682753Y-87103760D01*
X133649500Y-87313713D01*
X133649500Y-87526286D01*
X133682735Y-87736127D01*
X133682754Y-87736243D01*
X133732627Y-87889737D01*
X133748444Y-87938414D01*
X133844951Y-88127820D01*
X133969890Y-88299786D01*
X134120213Y-88450109D01*
X134292179Y-88575048D01*
X134292181Y-88575049D01*
X134292184Y-88575051D01*
X134481588Y-88671557D01*
X134683757Y-88737246D01*
X134893713Y-88770500D01*
X134893714Y-88770500D01*
X135106286Y-88770500D01*
X135106287Y-88770500D01*
X135316243Y-88737246D01*
X135518412Y-88671557D01*
X135707816Y-88575051D01*
X135772405Y-88528125D01*
X135879786Y-88450109D01*
X135879788Y-88450106D01*
X135879792Y-88450104D01*
X136030104Y-88299792D01*
X136030106Y-88299788D01*
X136030109Y-88299786D01*
X136155048Y-88127820D01*
X136155047Y-88127820D01*
X136155051Y-88127816D01*
X136215015Y-88010128D01*
X136262989Y-87959333D01*
X136330810Y-87942538D01*
X136396945Y-87965075D01*
X136440397Y-88019790D01*
X136449500Y-88066424D01*
X136449500Y-88284069D01*
X136449500Y-88284071D01*
X136449499Y-88284071D01*
X136474497Y-88409738D01*
X136474499Y-88409744D01*
X136523535Y-88528127D01*
X136554603Y-88574624D01*
X136594726Y-88634673D01*
X136594727Y-88634674D01*
X137449342Y-89489288D01*
X137482827Y-89550611D01*
X137482319Y-89598755D01*
X137483516Y-89598945D01*
X137449500Y-89813713D01*
X137449500Y-90026286D01*
X137482753Y-90236239D01*
X137548444Y-90438414D01*
X137644951Y-90627820D01*
X137769890Y-90799786D01*
X137920213Y-90950109D01*
X138092182Y-91075050D01*
X138100946Y-91079516D01*
X138151742Y-91127491D01*
X138168536Y-91195312D01*
X138145998Y-91261447D01*
X138100946Y-91300484D01*
X138092182Y-91304949D01*
X137920213Y-91429890D01*
X137769890Y-91580213D01*
X137644951Y-91752179D01*
X137548444Y-91941585D01*
X137482753Y-92143760D01*
X137449500Y-92353713D01*
X137449500Y-92566286D01*
X137482753Y-92776239D01*
X137548444Y-92978414D01*
X137644951Y-93167820D01*
X137769890Y-93339786D01*
X137920213Y-93490109D01*
X138092182Y-93615050D01*
X138100946Y-93619516D01*
X138151742Y-93667491D01*
X138168536Y-93735312D01*
X138145998Y-93801447D01*
X138100946Y-93840484D01*
X138092182Y-93844949D01*
X137920213Y-93969890D01*
X137769890Y-94120213D01*
X137644951Y-94292179D01*
X137548444Y-94481585D01*
X137482753Y-94683760D01*
X137449500Y-94893713D01*
X137449500Y-95106286D01*
X137476636Y-95277620D01*
X137482754Y-95316243D01*
X137489554Y-95337172D01*
X137548444Y-95518414D01*
X137644951Y-95707820D01*
X137769890Y-95879786D01*
X137920213Y-96030109D01*
X138092179Y-96155048D01*
X138092181Y-96155049D01*
X138092184Y-96155051D01*
X138281588Y-96251557D01*
X138483757Y-96317246D01*
X138693713Y-96350500D01*
X138693714Y-96350500D01*
X138906286Y-96350500D01*
X138906287Y-96350500D01*
X139116243Y-96317246D01*
X139318412Y-96251557D01*
X139507816Y-96155051D01*
X139544067Y-96128713D01*
X155069500Y-96128713D01*
X155069500Y-96341286D01*
X155102753Y-96551239D01*
X155168444Y-96753414D01*
X155264951Y-96942820D01*
X155389890Y-97114786D01*
X155540213Y-97265109D01*
X155712179Y-97390048D01*
X155712181Y-97390049D01*
X155712184Y-97390051D01*
X155901588Y-97486557D01*
X156103757Y-97552246D01*
X156313713Y-97585500D01*
X156313714Y-97585500D01*
X156526286Y-97585500D01*
X156526287Y-97585500D01*
X156736243Y-97552246D01*
X156938412Y-97486557D01*
X157127816Y-97390051D01*
X157214478Y-97327088D01*
X157299786Y-97265109D01*
X157299788Y-97265106D01*
X157299792Y-97265104D01*
X157450104Y-97114792D01*
X157450106Y-97114788D01*
X157450109Y-97114786D01*
X157575048Y-96942820D01*
X157575047Y-96942820D01*
X157575051Y-96942816D01*
X157579514Y-96934054D01*
X157627488Y-96883259D01*
X157695308Y-96866463D01*
X157761444Y-96888999D01*
X157800486Y-96934056D01*
X157804951Y-96942820D01*
X157929890Y-97114786D01*
X158080213Y-97265109D01*
X158252179Y-97390048D01*
X158252181Y-97390049D01*
X158252184Y-97390051D01*
X158441588Y-97486557D01*
X158643757Y-97552246D01*
X158853713Y-97585500D01*
X158853714Y-97585500D01*
X159066286Y-97585500D01*
X159066287Y-97585500D01*
X159276243Y-97552246D01*
X159478412Y-97486557D01*
X159667816Y-97390051D01*
X159754478Y-97327088D01*
X159839786Y-97265109D01*
X159839788Y-97265106D01*
X159839792Y-97265104D01*
X159990104Y-97114792D01*
X159990106Y-97114788D01*
X159990109Y-97114786D01*
X160115048Y-96942820D01*
X160115047Y-96942820D01*
X160115051Y-96942816D01*
X160119514Y-96934054D01*
X160167488Y-96883259D01*
X160235308Y-96866463D01*
X160301444Y-96888999D01*
X160340486Y-96934056D01*
X160344951Y-96942820D01*
X160469890Y-97114786D01*
X160620213Y-97265109D01*
X160792179Y-97390048D01*
X160792181Y-97390049D01*
X160792184Y-97390051D01*
X160981588Y-97486557D01*
X161183757Y-97552246D01*
X161393713Y-97585500D01*
X161393714Y-97585500D01*
X161606286Y-97585500D01*
X161606287Y-97585500D01*
X161816243Y-97552246D01*
X162018412Y-97486557D01*
X162207816Y-97390051D01*
X162294478Y-97327088D01*
X162379786Y-97265109D01*
X162379788Y-97265106D01*
X162379792Y-97265104D01*
X162530104Y-97114792D01*
X162530106Y-97114788D01*
X162530109Y-97114786D01*
X162655048Y-96942820D01*
X162655047Y-96942820D01*
X162655051Y-96942816D01*
X162659514Y-96934054D01*
X162707488Y-96883259D01*
X162775308Y-96866463D01*
X162841444Y-96888999D01*
X162880486Y-96934056D01*
X162884951Y-96942820D01*
X163009890Y-97114786D01*
X163160213Y-97265109D01*
X163332179Y-97390048D01*
X163332181Y-97390049D01*
X163332184Y-97390051D01*
X163521588Y-97486557D01*
X163723757Y-97552246D01*
X163933713Y-97585500D01*
X163933714Y-97585500D01*
X164146286Y-97585500D01*
X164146287Y-97585500D01*
X164356243Y-97552246D01*
X164558412Y-97486557D01*
X164747816Y-97390051D01*
X164834478Y-97327088D01*
X164919786Y-97265109D01*
X164919788Y-97265106D01*
X164919792Y-97265104D01*
X165070104Y-97114792D01*
X165070106Y-97114788D01*
X165070109Y-97114786D01*
X165195048Y-96942820D01*
X165195047Y-96942820D01*
X165195051Y-96942816D01*
X165199514Y-96934054D01*
X165247488Y-96883259D01*
X165315308Y-96866463D01*
X165381444Y-96888999D01*
X165420486Y-96934056D01*
X165424951Y-96942820D01*
X165549890Y-97114786D01*
X165700213Y-97265109D01*
X165872179Y-97390048D01*
X165872181Y-97390049D01*
X165872184Y-97390051D01*
X166061588Y-97486557D01*
X166263757Y-97552246D01*
X166473713Y-97585500D01*
X166473714Y-97585500D01*
X166686286Y-97585500D01*
X166686287Y-97585500D01*
X166896243Y-97552246D01*
X167098412Y-97486557D01*
X167287816Y-97390051D01*
X167374478Y-97327088D01*
X167459784Y-97265110D01*
X167459784Y-97265109D01*
X167459792Y-97265104D01*
X167573717Y-97151178D01*
X167635036Y-97117696D01*
X167704728Y-97122680D01*
X167760662Y-97164551D01*
X167777577Y-97195528D01*
X167826646Y-97327088D01*
X167826649Y-97327093D01*
X167912809Y-97442187D01*
X167912812Y-97442190D01*
X168027906Y-97528350D01*
X168027913Y-97528354D01*
X168162620Y-97578596D01*
X168162627Y-97578598D01*
X168222155Y-97584999D01*
X168222172Y-97585000D01*
X168870000Y-97585000D01*
X168870000Y-96668012D01*
X168927007Y-96700925D01*
X169054174Y-96735000D01*
X169185826Y-96735000D01*
X169312993Y-96700925D01*
X169370000Y-96668012D01*
X169370000Y-97585000D01*
X170017828Y-97585000D01*
X170017844Y-97584999D01*
X170077372Y-97578598D01*
X170077379Y-97578596D01*
X170212086Y-97528354D01*
X170212093Y-97528350D01*
X170327187Y-97442190D01*
X170327190Y-97442187D01*
X170413350Y-97327093D01*
X170413354Y-97327086D01*
X170463596Y-97192379D01*
X170463598Y-97192372D01*
X170469999Y-97132844D01*
X170470000Y-97132827D01*
X170470000Y-96485000D01*
X169553012Y-96485000D01*
X169585925Y-96427993D01*
X169620000Y-96300826D01*
X169620000Y-96169174D01*
X169585925Y-96042007D01*
X169553012Y-95985000D01*
X170470000Y-95985000D01*
X170470000Y-95337172D01*
X170469999Y-95337155D01*
X170463598Y-95277627D01*
X170463596Y-95277620D01*
X170413354Y-95142913D01*
X170413350Y-95142906D01*
X170327190Y-95027812D01*
X170327187Y-95027809D01*
X170212093Y-94941649D01*
X170212086Y-94941645D01*
X170077379Y-94891403D01*
X170077372Y-94891401D01*
X170017844Y-94885000D01*
X169370000Y-94885000D01*
X169370000Y-95801988D01*
X169312993Y-95769075D01*
X169185826Y-95735000D01*
X169054174Y-95735000D01*
X168927007Y-95769075D01*
X168870000Y-95801988D01*
X168870000Y-94885000D01*
X168222155Y-94885000D01*
X168162627Y-94891401D01*
X168162620Y-94891403D01*
X168027913Y-94941645D01*
X168027906Y-94941649D01*
X167912812Y-95027809D01*
X167912809Y-95027812D01*
X167826649Y-95142906D01*
X167826646Y-95142912D01*
X167777577Y-95274471D01*
X167735705Y-95330404D01*
X167670241Y-95354821D01*
X167601968Y-95339969D01*
X167573714Y-95318818D01*
X167459786Y-95204890D01*
X167287820Y-95079951D01*
X167098414Y-94983444D01*
X167098413Y-94983443D01*
X167098412Y-94983443D01*
X166896243Y-94917754D01*
X166896241Y-94917753D01*
X166896240Y-94917753D01*
X166734957Y-94892208D01*
X166686287Y-94884500D01*
X166473713Y-94884500D01*
X166425042Y-94892208D01*
X166263760Y-94917753D01*
X166061585Y-94983444D01*
X165872179Y-95079951D01*
X165700213Y-95204890D01*
X165549890Y-95355213D01*
X165424949Y-95527182D01*
X165420484Y-95535946D01*
X165372509Y-95586742D01*
X165304688Y-95603536D01*
X165238553Y-95580998D01*
X165199516Y-95535946D01*
X165195050Y-95527182D01*
X165070109Y-95355213D01*
X164919786Y-95204890D01*
X164747820Y-95079951D01*
X164558414Y-94983444D01*
X164558413Y-94983443D01*
X164558412Y-94983443D01*
X164356243Y-94917754D01*
X164356241Y-94917753D01*
X164356240Y-94917753D01*
X164194957Y-94892208D01*
X164146287Y-94884500D01*
X163933713Y-94884500D01*
X163885042Y-94892208D01*
X163723760Y-94917753D01*
X163521585Y-94983444D01*
X163332179Y-95079951D01*
X163160213Y-95204890D01*
X163009890Y-95355213D01*
X162884949Y-95527182D01*
X162880484Y-95535946D01*
X162832509Y-95586742D01*
X162764688Y-95603536D01*
X162698553Y-95580998D01*
X162659516Y-95535946D01*
X162655050Y-95527182D01*
X162530109Y-95355213D01*
X162379786Y-95204890D01*
X162207820Y-95079951D01*
X162018414Y-94983444D01*
X162018413Y-94983443D01*
X162018412Y-94983443D01*
X161816243Y-94917754D01*
X161816241Y-94917753D01*
X161816240Y-94917753D01*
X161654957Y-94892208D01*
X161606287Y-94884500D01*
X161393713Y-94884500D01*
X161345042Y-94892208D01*
X161183760Y-94917753D01*
X160981585Y-94983444D01*
X160792179Y-95079951D01*
X160620213Y-95204890D01*
X160469890Y-95355213D01*
X160344949Y-95527182D01*
X160340484Y-95535946D01*
X160292509Y-95586742D01*
X160224688Y-95603536D01*
X160158553Y-95580998D01*
X160119516Y-95535946D01*
X160115050Y-95527182D01*
X159990109Y-95355213D01*
X159839786Y-95204890D01*
X159667820Y-95079951D01*
X159478414Y-94983444D01*
X159478413Y-94983443D01*
X159478412Y-94983443D01*
X159276243Y-94917754D01*
X159276241Y-94917753D01*
X159276240Y-94917753D01*
X159114957Y-94892208D01*
X159066287Y-94884500D01*
X158853713Y-94884500D01*
X158805042Y-94892208D01*
X158643760Y-94917753D01*
X158441585Y-94983444D01*
X158252179Y-95079951D01*
X158080213Y-95204890D01*
X157929890Y-95355213D01*
X157804949Y-95527182D01*
X157800484Y-95535946D01*
X157752509Y-95586742D01*
X157684688Y-95603536D01*
X157618553Y-95580998D01*
X157579516Y-95535946D01*
X157575050Y-95527182D01*
X157450109Y-95355213D01*
X157299786Y-95204890D01*
X157127820Y-95079951D01*
X156938414Y-94983444D01*
X156938413Y-94983443D01*
X156938412Y-94983443D01*
X156736243Y-94917754D01*
X156736241Y-94917753D01*
X156736240Y-94917753D01*
X156574957Y-94892208D01*
X156526287Y-94884500D01*
X156313713Y-94884500D01*
X156265042Y-94892208D01*
X156103760Y-94917753D01*
X155901585Y-94983444D01*
X155712179Y-95079951D01*
X155540213Y-95204890D01*
X155389890Y-95355213D01*
X155264951Y-95527179D01*
X155168444Y-95716585D01*
X155102753Y-95918760D01*
X155069500Y-96128713D01*
X139544067Y-96128713D01*
X139679792Y-96030104D01*
X139830104Y-95879792D01*
X139830106Y-95879788D01*
X139830109Y-95879786D01*
X139955048Y-95707820D01*
X139955047Y-95707820D01*
X139955051Y-95707816D01*
X140051557Y-95518412D01*
X140117246Y-95316243D01*
X140150500Y-95106287D01*
X140150500Y-94893713D01*
X140117246Y-94683757D01*
X140051557Y-94481588D01*
X139955051Y-94292184D01*
X139955049Y-94292181D01*
X139955048Y-94292179D01*
X139830109Y-94120213D01*
X139679786Y-93969890D01*
X139507820Y-93844951D01*
X139507115Y-93844591D01*
X139499054Y-93840485D01*
X139448259Y-93792512D01*
X139431463Y-93724692D01*
X139453999Y-93658556D01*
X139499054Y-93619515D01*
X139507816Y-93615051D01*
X139529789Y-93599086D01*
X139679786Y-93490109D01*
X139679788Y-93490106D01*
X139679792Y-93490104D01*
X139830104Y-93339792D01*
X139830106Y-93339788D01*
X139830109Y-93339786D01*
X139955048Y-93167820D01*
X139955047Y-93167820D01*
X139955051Y-93167816D01*
X140051557Y-92978412D01*
X140117246Y-92776243D01*
X140150500Y-92566287D01*
X140150500Y-92353713D01*
X140117246Y-92143757D01*
X140051557Y-91941588D01*
X139955051Y-91752184D01*
X139955049Y-91752181D01*
X139955048Y-91752179D01*
X139830109Y-91580213D01*
X139679786Y-91429890D01*
X139507820Y-91304951D01*
X139507115Y-91304591D01*
X139499054Y-91300485D01*
X139448259Y-91252512D01*
X139431463Y-91184692D01*
X139453999Y-91118556D01*
X139499054Y-91079515D01*
X139507816Y-91075051D01*
X139529789Y-91059086D01*
X139679786Y-90950109D01*
X139679788Y-90950106D01*
X139679792Y-90950104D01*
X139830104Y-90799792D01*
X139830106Y-90799788D01*
X139830109Y-90799786D01*
X139955048Y-90627820D01*
X139955047Y-90627820D01*
X139955051Y-90627816D01*
X140051557Y-90438412D01*
X140117246Y-90236243D01*
X140150500Y-90026287D01*
X140150500Y-89813713D01*
X140117246Y-89603757D01*
X140116484Y-89598945D01*
X140118133Y-89598683D01*
X140121241Y-89536169D01*
X140150654Y-89489289D01*
X141005276Y-88634669D01*
X141239616Y-88400330D01*
X141305273Y-88334672D01*
X141305273Y-88334671D01*
X141305276Y-88334669D01*
X141376465Y-88228127D01*
X141417093Y-88130041D01*
X141460933Y-88075638D01*
X141527227Y-88053573D01*
X141594927Y-88070852D01*
X141642138Y-88121198D01*
X141645373Y-88127547D01*
X141684728Y-88181716D01*
X142317037Y-87549408D01*
X142334075Y-87612993D01*
X142399901Y-87727007D01*
X142492993Y-87820099D01*
X142607007Y-87885925D01*
X142670590Y-87902962D01*
X142038282Y-88535269D01*
X142038282Y-88535270D01*
X142092449Y-88574624D01*
X142281782Y-88671095D01*
X142483870Y-88736757D01*
X142693754Y-88770000D01*
X142906246Y-88770000D01*
X143116127Y-88736757D01*
X143116130Y-88736757D01*
X143318217Y-88671095D01*
X143507554Y-88574622D01*
X143561716Y-88535270D01*
X143561717Y-88535270D01*
X142929408Y-87902962D01*
X142992993Y-87885925D01*
X143107007Y-87820099D01*
X143200099Y-87727007D01*
X143265925Y-87612993D01*
X143282962Y-87549409D01*
X143915270Y-88181717D01*
X143915270Y-88181716D01*
X143954622Y-88127554D01*
X144051095Y-87938217D01*
X144116757Y-87736130D01*
X144116757Y-87736127D01*
X144150000Y-87526246D01*
X144150000Y-87313753D01*
X144116757Y-87103872D01*
X144116757Y-87103869D01*
X144051095Y-86901782D01*
X143954624Y-86712449D01*
X143915270Y-86658282D01*
X143915269Y-86658282D01*
X143282962Y-87290590D01*
X143265925Y-87227007D01*
X143200099Y-87112993D01*
X143107007Y-87019901D01*
X142992993Y-86954075D01*
X142929409Y-86937037D01*
X143561716Y-86304728D01*
X143507547Y-86265373D01*
X143507547Y-86265372D01*
X143498500Y-86260763D01*
X143447706Y-86212788D01*
X143430912Y-86144966D01*
X143453451Y-86078832D01*
X143498508Y-86039793D01*
X143507816Y-86035051D01*
X143608999Y-85961538D01*
X143679786Y-85910109D01*
X143679788Y-85910106D01*
X143679792Y-85910104D01*
X143830104Y-85759792D01*
X143830106Y-85759788D01*
X143830109Y-85759786D01*
X143955048Y-85587820D01*
X143955047Y-85587820D01*
X143955051Y-85587816D01*
X144051557Y-85398412D01*
X144117246Y-85196243D01*
X144150500Y-84986287D01*
X144150500Y-84773713D01*
X144117246Y-84563757D01*
X144051557Y-84361588D01*
X143987057Y-84234999D01*
X143959103Y-84180136D01*
X143959102Y-84180134D01*
X143955050Y-84172182D01*
X143923468Y-84128713D01*
X157529500Y-84128713D01*
X157529500Y-84341286D01*
X157558400Y-84523757D01*
X157562754Y-84551243D01*
X157622042Y-84733713D01*
X157628444Y-84753414D01*
X157724951Y-84942820D01*
X157849890Y-85114786D01*
X158000213Y-85265109D01*
X158172179Y-85390048D01*
X158172181Y-85390049D01*
X158172184Y-85390051D01*
X158361588Y-85486557D01*
X158563757Y-85552246D01*
X158773713Y-85585500D01*
X158773714Y-85585500D01*
X158986286Y-85585500D01*
X158986287Y-85585500D01*
X159196243Y-85552246D01*
X159398412Y-85486557D01*
X159587816Y-85390051D01*
X159665651Y-85333501D01*
X159759786Y-85265109D01*
X159759788Y-85265106D01*
X159759792Y-85265104D01*
X159910104Y-85114792D01*
X159910106Y-85114788D01*
X159910109Y-85114786D01*
X160035048Y-84942820D01*
X160035047Y-84942820D01*
X160035051Y-84942816D01*
X160039514Y-84934054D01*
X160087488Y-84883259D01*
X160155308Y-84866463D01*
X160221444Y-84888999D01*
X160260486Y-84934056D01*
X160264951Y-84942820D01*
X160389890Y-85114786D01*
X160540213Y-85265109D01*
X160712179Y-85390048D01*
X160712181Y-85390049D01*
X160712184Y-85390051D01*
X160901588Y-85486557D01*
X161103757Y-85552246D01*
X161313713Y-85585500D01*
X161313714Y-85585500D01*
X161526286Y-85585500D01*
X161526287Y-85585500D01*
X161736243Y-85552246D01*
X161938412Y-85486557D01*
X162127816Y-85390051D01*
X162205651Y-85333501D01*
X162299786Y-85265109D01*
X162299788Y-85265106D01*
X162299792Y-85265104D01*
X162450104Y-85114792D01*
X162450106Y-85114788D01*
X162450109Y-85114786D01*
X162575048Y-84942820D01*
X162575047Y-84942820D01*
X162575051Y-84942816D01*
X162579514Y-84934054D01*
X162627488Y-84883259D01*
X162695308Y-84866463D01*
X162761444Y-84888999D01*
X162800486Y-84934056D01*
X162804951Y-84942820D01*
X162929890Y-85114786D01*
X163080213Y-85265109D01*
X163252179Y-85390048D01*
X163252181Y-85390049D01*
X163252184Y-85390051D01*
X163441588Y-85486557D01*
X163643757Y-85552246D01*
X163853713Y-85585500D01*
X163853714Y-85585500D01*
X164066286Y-85585500D01*
X164066287Y-85585500D01*
X164276243Y-85552246D01*
X164478412Y-85486557D01*
X164667816Y-85390051D01*
X164745651Y-85333501D01*
X164839786Y-85265109D01*
X164839788Y-85265106D01*
X164839792Y-85265104D01*
X164990104Y-85114792D01*
X164990106Y-85114788D01*
X164990109Y-85114786D01*
X165058136Y-85021153D01*
X165115051Y-84942816D01*
X165119793Y-84933508D01*
X165167763Y-84882711D01*
X165235583Y-84865911D01*
X165301719Y-84888445D01*
X165340763Y-84933500D01*
X165345373Y-84942547D01*
X165384728Y-84996716D01*
X166017037Y-84364408D01*
X166034075Y-84427993D01*
X166099901Y-84542007D01*
X166192993Y-84635099D01*
X166307007Y-84700925D01*
X166370590Y-84717962D01*
X165738282Y-85350269D01*
X165738282Y-85350270D01*
X165792449Y-85389624D01*
X165981782Y-85486095D01*
X166183870Y-85551757D01*
X166393754Y-85585000D01*
X166606246Y-85585000D01*
X166816127Y-85551757D01*
X166816130Y-85551757D01*
X167018217Y-85486095D01*
X167207554Y-85389622D01*
X167261716Y-85350270D01*
X167261717Y-85350270D01*
X166629408Y-84717962D01*
X166692993Y-84700925D01*
X166807007Y-84635099D01*
X166900099Y-84542007D01*
X166965925Y-84427993D01*
X166982962Y-84364409D01*
X167653181Y-85034628D01*
X167686666Y-85095951D01*
X167689500Y-85122300D01*
X167689500Y-85132865D01*
X167689501Y-85132876D01*
X167695908Y-85192483D01*
X167746202Y-85327328D01*
X167746206Y-85327335D01*
X167832452Y-85442544D01*
X167832455Y-85442547D01*
X167947664Y-85528793D01*
X167947671Y-85528797D01*
X168082517Y-85579091D01*
X168082516Y-85579091D01*
X168089444Y-85579835D01*
X168142127Y-85585500D01*
X169937872Y-85585499D01*
X169997483Y-85579091D01*
X170132331Y-85528796D01*
X170247546Y-85442546D01*
X170333796Y-85327331D01*
X170384091Y-85192483D01*
X170390500Y-85132873D01*
X170390500Y-85041153D01*
X187569500Y-85041153D01*
X187569500Y-85198846D01*
X187600261Y-85353489D01*
X187600264Y-85353501D01*
X187660602Y-85499172D01*
X187660606Y-85499179D01*
X187698602Y-85556044D01*
X187719480Y-85622721D01*
X187719500Y-85624935D01*
X187719500Y-86615064D01*
X187699815Y-86682103D01*
X187698603Y-86683954D01*
X187660608Y-86740817D01*
X187660602Y-86740828D01*
X187600264Y-86886498D01*
X187600261Y-86886510D01*
X187569500Y-87041153D01*
X187569500Y-87198846D01*
X187600261Y-87353489D01*
X187600264Y-87353501D01*
X187660602Y-87499172D01*
X187660609Y-87499185D01*
X187748210Y-87630288D01*
X187748213Y-87630292D01*
X187859707Y-87741786D01*
X187859711Y-87741789D01*
X187990814Y-87829390D01*
X187990827Y-87829397D01*
X188127300Y-87885925D01*
X188136503Y-87889737D01*
X188288644Y-87920000D01*
X188291153Y-87920499D01*
X188291156Y-87920500D01*
X188291158Y-87920500D01*
X188448844Y-87920500D01*
X188448845Y-87920499D01*
X188603497Y-87889737D01*
X188749179Y-87829394D01*
X188880289Y-87741789D01*
X188991789Y-87630289D01*
X189079394Y-87499179D01*
X189139737Y-87353497D01*
X189170500Y-87198842D01*
X189170500Y-87041158D01*
X189170500Y-87041155D01*
X189170499Y-87041153D01*
X189154780Y-86962128D01*
X189139737Y-86886503D01*
X189079394Y-86740821D01*
X189041396Y-86683953D01*
X189020520Y-86617276D01*
X189020500Y-86615064D01*
X189020500Y-85624935D01*
X189040185Y-85557896D01*
X189041366Y-85556090D01*
X189079394Y-85499179D01*
X189139737Y-85353497D01*
X189170500Y-85198842D01*
X189170500Y-85041158D01*
X189170121Y-85039251D01*
X189170121Y-85039248D01*
X189166522Y-85021153D01*
X198879500Y-85021153D01*
X198879500Y-85178846D01*
X198910261Y-85333489D01*
X198910264Y-85333501D01*
X198970602Y-85479172D01*
X198970606Y-85479179D01*
X199008602Y-85536044D01*
X199029480Y-85602721D01*
X199029500Y-85604935D01*
X199029500Y-86675064D01*
X199009815Y-86742103D01*
X199008603Y-86743954D01*
X198970608Y-86800817D01*
X198970602Y-86800828D01*
X198910264Y-86946498D01*
X198910261Y-86946510D01*
X198879500Y-87101153D01*
X198879500Y-87258846D01*
X198910261Y-87413489D01*
X198910264Y-87413501D01*
X198970602Y-87559172D01*
X198970609Y-87559185D01*
X199058210Y-87690288D01*
X199058213Y-87690292D01*
X199169707Y-87801786D01*
X199169711Y-87801789D01*
X199300814Y-87889390D01*
X199300827Y-87889397D01*
X199429123Y-87942538D01*
X199446503Y-87949737D01*
X199601153Y-87980499D01*
X199601156Y-87980500D01*
X199601158Y-87980500D01*
X199758844Y-87980500D01*
X199758845Y-87980499D01*
X199913497Y-87949737D01*
X200059179Y-87889394D01*
X200190289Y-87801789D01*
X200301789Y-87690289D01*
X200389394Y-87559179D01*
X200449737Y-87413497D01*
X200480500Y-87258842D01*
X200480500Y-87101158D01*
X200480500Y-87101155D01*
X200480499Y-87101153D01*
X200468565Y-87041158D01*
X200449737Y-86946503D01*
X200431133Y-86901588D01*
X200389397Y-86800828D01*
X200389396Y-86800827D01*
X200389394Y-86800821D01*
X200351396Y-86743953D01*
X200330520Y-86677276D01*
X200330500Y-86675064D01*
X200330500Y-85604935D01*
X200350185Y-85537896D01*
X200351366Y-85536090D01*
X200389394Y-85479179D01*
X200449737Y-85333497D01*
X200480500Y-85178842D01*
X200480500Y-85021158D01*
X200480500Y-85021155D01*
X200480499Y-85021153D01*
X200463174Y-84934056D01*
X200449737Y-84866503D01*
X200449735Y-84866498D01*
X200389397Y-84720827D01*
X200389390Y-84720814D01*
X200301789Y-84589711D01*
X200301786Y-84589707D01*
X200190292Y-84478213D01*
X200190288Y-84478210D01*
X200059185Y-84390609D01*
X200059172Y-84390602D01*
X199913501Y-84330264D01*
X199913489Y-84330261D01*
X199758845Y-84299500D01*
X199758842Y-84299500D01*
X199601158Y-84299500D01*
X199601155Y-84299500D01*
X199446510Y-84330261D01*
X199446498Y-84330264D01*
X199300827Y-84390602D01*
X199300814Y-84390609D01*
X199169711Y-84478210D01*
X199169707Y-84478213D01*
X199058213Y-84589707D01*
X199058210Y-84589711D01*
X198970609Y-84720814D01*
X198970602Y-84720827D01*
X198910264Y-84866498D01*
X198910261Y-84866510D01*
X198879500Y-85021153D01*
X189166522Y-85021153D01*
X189139738Y-84886508D01*
X189139737Y-84886507D01*
X189139737Y-84886503D01*
X189128656Y-84859750D01*
X189079397Y-84740827D01*
X189079390Y-84740814D01*
X188991789Y-84609711D01*
X188991786Y-84609707D01*
X188880292Y-84498213D01*
X188880288Y-84498210D01*
X188749185Y-84410609D01*
X188749172Y-84410602D01*
X188603501Y-84350264D01*
X188603489Y-84350261D01*
X188448845Y-84319500D01*
X188448842Y-84319500D01*
X188291158Y-84319500D01*
X188291155Y-84319500D01*
X188136510Y-84350261D01*
X188136498Y-84350264D01*
X187990827Y-84410602D01*
X187990814Y-84410609D01*
X187859711Y-84498210D01*
X187859707Y-84498213D01*
X187748213Y-84609707D01*
X187748210Y-84609711D01*
X187660609Y-84740814D01*
X187660602Y-84740827D01*
X187600264Y-84886498D01*
X187600261Y-84886510D01*
X187569500Y-85041153D01*
X170390500Y-85041153D01*
X170390499Y-84235000D01*
X170390499Y-83337129D01*
X170390498Y-83337123D01*
X170390497Y-83337116D01*
X170384091Y-83277517D01*
X170361802Y-83217758D01*
X170333797Y-83142671D01*
X170333793Y-83142664D01*
X170247547Y-83027455D01*
X170247544Y-83027452D01*
X170132335Y-82941206D01*
X170132328Y-82941202D01*
X169997482Y-82890908D01*
X169997483Y-82890908D01*
X169937883Y-82884501D01*
X169937881Y-82884500D01*
X169937873Y-82884500D01*
X169937864Y-82884500D01*
X168142129Y-82884500D01*
X168142123Y-82884501D01*
X168082516Y-82890908D01*
X167947671Y-82941202D01*
X167947664Y-82941206D01*
X167832455Y-83027452D01*
X167832452Y-83027455D01*
X167746206Y-83142664D01*
X167746202Y-83142671D01*
X167695908Y-83277517D01*
X167689501Y-83337116D01*
X167689501Y-83337123D01*
X167689500Y-83337135D01*
X167689500Y-83347690D01*
X167669815Y-83414729D01*
X167653181Y-83435371D01*
X166982962Y-84105590D01*
X166965925Y-84042007D01*
X166900099Y-83927993D01*
X166807007Y-83834901D01*
X166692993Y-83769075D01*
X166629409Y-83752037D01*
X167261716Y-83119728D01*
X167207550Y-83080375D01*
X167018217Y-82983904D01*
X166816129Y-82918242D01*
X166606246Y-82885000D01*
X166393754Y-82885000D01*
X166183872Y-82918242D01*
X166183869Y-82918242D01*
X165981782Y-82983904D01*
X165792439Y-83080380D01*
X165738282Y-83119727D01*
X165738282Y-83119728D01*
X166370591Y-83752037D01*
X166307007Y-83769075D01*
X166192993Y-83834901D01*
X166099901Y-83927993D01*
X166034075Y-84042007D01*
X166017037Y-84105591D01*
X165384728Y-83473282D01*
X165384727Y-83473282D01*
X165345380Y-83527440D01*
X165345376Y-83527446D01*
X165340760Y-83536505D01*
X165292781Y-83587297D01*
X165224959Y-83604087D01*
X165158826Y-83581543D01*
X165119794Y-83536493D01*
X165115051Y-83527184D01*
X165115049Y-83527181D01*
X165115048Y-83527179D01*
X164990109Y-83355213D01*
X164839786Y-83204890D01*
X164667820Y-83079951D01*
X164478414Y-82983444D01*
X164478413Y-82983443D01*
X164478412Y-82983443D01*
X164276243Y-82917754D01*
X164276241Y-82917753D01*
X164276240Y-82917753D01*
X164114957Y-82892208D01*
X164066287Y-82884500D01*
X163853713Y-82884500D01*
X163805042Y-82892208D01*
X163643760Y-82917753D01*
X163441585Y-82983444D01*
X163252179Y-83079951D01*
X163080213Y-83204890D01*
X162929890Y-83355213D01*
X162804949Y-83527182D01*
X162800484Y-83535946D01*
X162752509Y-83586742D01*
X162684688Y-83603536D01*
X162618553Y-83580998D01*
X162579516Y-83535946D01*
X162575050Y-83527182D01*
X162450109Y-83355213D01*
X162299786Y-83204890D01*
X162127820Y-83079951D01*
X161938414Y-82983444D01*
X161938413Y-82983443D01*
X161938412Y-82983443D01*
X161736243Y-82917754D01*
X161736241Y-82917753D01*
X161736240Y-82917753D01*
X161574957Y-82892208D01*
X161526287Y-82884500D01*
X161313713Y-82884500D01*
X161265042Y-82892208D01*
X161103760Y-82917753D01*
X160901585Y-82983444D01*
X160712179Y-83079951D01*
X160540213Y-83204890D01*
X160389890Y-83355213D01*
X160264949Y-83527182D01*
X160260484Y-83535946D01*
X160212509Y-83586742D01*
X160144688Y-83603536D01*
X160078553Y-83580998D01*
X160039516Y-83535946D01*
X160035050Y-83527182D01*
X159910109Y-83355213D01*
X159759786Y-83204890D01*
X159587820Y-83079951D01*
X159398414Y-82983444D01*
X159398413Y-82983443D01*
X159398412Y-82983443D01*
X159196243Y-82917754D01*
X159196241Y-82917753D01*
X159196240Y-82917753D01*
X159034957Y-82892208D01*
X158986287Y-82884500D01*
X158773713Y-82884500D01*
X158725042Y-82892208D01*
X158563760Y-82917753D01*
X158361585Y-82983444D01*
X158172179Y-83079951D01*
X158000213Y-83204890D01*
X157849890Y-83355213D01*
X157724951Y-83527179D01*
X157628444Y-83716585D01*
X157562753Y-83918760D01*
X157529500Y-84128713D01*
X143923468Y-84128713D01*
X143830109Y-84000213D01*
X143679786Y-83849890D01*
X143507820Y-83724951D01*
X143507115Y-83724591D01*
X143499054Y-83720485D01*
X143448259Y-83672512D01*
X143431463Y-83604692D01*
X143453999Y-83538556D01*
X143499054Y-83499515D01*
X143507816Y-83495051D01*
X143617626Y-83415270D01*
X143679786Y-83370109D01*
X143679788Y-83370106D01*
X143679792Y-83370104D01*
X143830104Y-83219792D01*
X143830106Y-83219788D01*
X143830109Y-83219786D01*
X143955048Y-83047820D01*
X143955047Y-83047820D01*
X143955051Y-83047816D01*
X144051557Y-82858412D01*
X144117246Y-82656243D01*
X144150500Y-82446287D01*
X144150500Y-82233713D01*
X144117246Y-82023757D01*
X144051557Y-81821588D01*
X143955051Y-81632184D01*
X143955049Y-81632181D01*
X143955048Y-81632179D01*
X143830109Y-81460213D01*
X143716569Y-81346673D01*
X143683084Y-81285350D01*
X143688068Y-81215658D01*
X143729940Y-81159725D01*
X143760915Y-81142810D01*
X143892331Y-81093796D01*
X144007546Y-81007546D01*
X144093796Y-80892331D01*
X144144091Y-80757483D01*
X144150500Y-80697873D01*
X144150500Y-80649500D01*
X144170185Y-80582461D01*
X144222989Y-80536706D01*
X144274500Y-80525500D01*
X145348126Y-80525500D01*
X145415165Y-80545185D01*
X145435807Y-80561819D01*
X146128927Y-81254939D01*
X146155807Y-81295167D01*
X146190604Y-81379176D01*
X146190609Y-81379185D01*
X146278210Y-81510288D01*
X146278213Y-81510292D01*
X146389707Y-81621786D01*
X146389711Y-81621789D01*
X146520814Y-81709390D01*
X146520827Y-81709397D01*
X146666498Y-81769735D01*
X146666503Y-81769737D01*
X146818644Y-81800000D01*
X146821153Y-81800499D01*
X146821156Y-81800500D01*
X146821158Y-81800500D01*
X146978844Y-81800500D01*
X146978845Y-81800499D01*
X147133497Y-81769737D01*
X147269426Y-81713434D01*
X147279172Y-81709397D01*
X147279172Y-81709396D01*
X147279179Y-81709394D01*
X147410289Y-81621789D01*
X147521789Y-81510289D01*
X147609394Y-81379179D01*
X147669737Y-81233497D01*
X147700500Y-81078842D01*
X147700500Y-80921158D01*
X147700500Y-80921155D01*
X147700499Y-80921153D01*
X147694765Y-80892328D01*
X147669737Y-80766503D01*
X147666001Y-80757483D01*
X147609397Y-80620827D01*
X147609390Y-80620814D01*
X147521789Y-80489711D01*
X147521786Y-80489707D01*
X147410292Y-80378213D01*
X147410288Y-80378210D01*
X147279185Y-80290609D01*
X147279176Y-80290604D01*
X147195167Y-80255807D01*
X147188234Y-80251174D01*
X147183193Y-80250078D01*
X147154939Y-80228927D01*
X147137534Y-80211522D01*
X147054725Y-80128713D01*
X150029500Y-80128713D01*
X150029500Y-80341286D01*
X150061794Y-80545185D01*
X150062754Y-80551243D01*
X150110400Y-80697883D01*
X150128444Y-80753414D01*
X150224951Y-80942820D01*
X150349890Y-81114786D01*
X150500213Y-81265109D01*
X150672179Y-81390048D01*
X150672181Y-81390049D01*
X150672184Y-81390051D01*
X150861588Y-81486557D01*
X151063757Y-81552246D01*
X151273713Y-81585500D01*
X151273714Y-81585500D01*
X151486286Y-81585500D01*
X151486287Y-81585500D01*
X151696243Y-81552246D01*
X151898412Y-81486557D01*
X152087816Y-81390051D01*
X152174478Y-81327088D01*
X152259786Y-81265109D01*
X152259788Y-81265106D01*
X152259792Y-81265104D01*
X152410104Y-81114792D01*
X152410106Y-81114788D01*
X152410109Y-81114786D01*
X152535048Y-80942820D01*
X152535047Y-80942820D01*
X152535051Y-80942816D01*
X152539514Y-80934054D01*
X152587488Y-80883259D01*
X152655308Y-80866463D01*
X152721444Y-80888999D01*
X152760486Y-80934056D01*
X152764951Y-80942820D01*
X152889890Y-81114786D01*
X153040213Y-81265109D01*
X153212179Y-81390048D01*
X153212181Y-81390049D01*
X153212184Y-81390051D01*
X153401588Y-81486557D01*
X153603757Y-81552246D01*
X153813713Y-81585500D01*
X153813714Y-81585500D01*
X154026286Y-81585500D01*
X154026287Y-81585500D01*
X154236243Y-81552246D01*
X154438412Y-81486557D01*
X154627816Y-81390051D01*
X154714478Y-81327088D01*
X154799786Y-81265109D01*
X154799788Y-81265106D01*
X154799792Y-81265104D01*
X154950104Y-81114792D01*
X154950106Y-81114788D01*
X154950109Y-81114786D01*
X155075048Y-80942820D01*
X155075047Y-80942820D01*
X155075051Y-80942816D01*
X155079514Y-80934054D01*
X155127488Y-80883259D01*
X155195308Y-80866463D01*
X155261444Y-80888999D01*
X155300486Y-80934056D01*
X155304951Y-80942820D01*
X155429890Y-81114786D01*
X155580213Y-81265109D01*
X155752179Y-81390048D01*
X155752181Y-81390049D01*
X155752184Y-81390051D01*
X155941588Y-81486557D01*
X156143757Y-81552246D01*
X156353713Y-81585500D01*
X156353714Y-81585500D01*
X156566286Y-81585500D01*
X156566287Y-81585500D01*
X156776243Y-81552246D01*
X156978412Y-81486557D01*
X157167816Y-81390051D01*
X157254478Y-81327088D01*
X157339786Y-81265109D01*
X157339788Y-81265106D01*
X157339792Y-81265104D01*
X157490104Y-81114792D01*
X157490106Y-81114788D01*
X157490109Y-81114786D01*
X157615048Y-80942820D01*
X157615047Y-80942820D01*
X157615051Y-80942816D01*
X157619514Y-80934054D01*
X157667488Y-80883259D01*
X157735308Y-80866463D01*
X157801444Y-80888999D01*
X157840486Y-80934056D01*
X157844951Y-80942820D01*
X157969890Y-81114786D01*
X158120213Y-81265109D01*
X158292179Y-81390048D01*
X158292181Y-81390049D01*
X158292184Y-81390051D01*
X158481588Y-81486557D01*
X158683757Y-81552246D01*
X158893713Y-81585500D01*
X158893714Y-81585500D01*
X159106286Y-81585500D01*
X159106287Y-81585500D01*
X159316243Y-81552246D01*
X159518412Y-81486557D01*
X159707816Y-81390051D01*
X159794478Y-81327088D01*
X159879786Y-81265109D01*
X159879788Y-81265106D01*
X159879792Y-81265104D01*
X160030104Y-81114792D01*
X160030106Y-81114788D01*
X160030109Y-81114786D01*
X160155048Y-80942820D01*
X160155047Y-80942820D01*
X160155051Y-80942816D01*
X160159514Y-80934054D01*
X160207488Y-80883259D01*
X160275308Y-80866463D01*
X160341444Y-80888999D01*
X160380486Y-80934056D01*
X160384951Y-80942820D01*
X160509890Y-81114786D01*
X160660213Y-81265109D01*
X160832179Y-81390048D01*
X160832181Y-81390049D01*
X160832184Y-81390051D01*
X161021588Y-81486557D01*
X161223757Y-81552246D01*
X161433713Y-81585500D01*
X161433714Y-81585500D01*
X161646286Y-81585500D01*
X161646287Y-81585500D01*
X161856243Y-81552246D01*
X162058412Y-81486557D01*
X162247816Y-81390051D01*
X162334478Y-81327088D01*
X162419786Y-81265109D01*
X162419788Y-81265106D01*
X162419792Y-81265104D01*
X162570104Y-81114792D01*
X162570106Y-81114788D01*
X162570109Y-81114786D01*
X162695048Y-80942820D01*
X162695047Y-80942820D01*
X162695051Y-80942816D01*
X162699514Y-80934054D01*
X162747488Y-80883259D01*
X162815308Y-80866463D01*
X162881444Y-80888999D01*
X162920486Y-80934056D01*
X162924951Y-80942820D01*
X163049890Y-81114786D01*
X163200213Y-81265109D01*
X163372179Y-81390048D01*
X163372181Y-81390049D01*
X163372184Y-81390051D01*
X163561588Y-81486557D01*
X163763757Y-81552246D01*
X163973713Y-81585500D01*
X163973714Y-81585500D01*
X164186286Y-81585500D01*
X164186287Y-81585500D01*
X164396243Y-81552246D01*
X164598412Y-81486557D01*
X164787816Y-81390051D01*
X164874478Y-81327088D01*
X164959786Y-81265109D01*
X164959788Y-81265106D01*
X164959792Y-81265104D01*
X165110104Y-81114792D01*
X165110106Y-81114788D01*
X165110109Y-81114786D01*
X165235048Y-80942820D01*
X165235047Y-80942820D01*
X165235051Y-80942816D01*
X165239514Y-80934054D01*
X165287488Y-80883259D01*
X165355308Y-80866463D01*
X165421444Y-80888999D01*
X165460486Y-80934056D01*
X165464951Y-80942820D01*
X165589890Y-81114786D01*
X165740213Y-81265109D01*
X165912179Y-81390048D01*
X165912181Y-81390049D01*
X165912184Y-81390051D01*
X166101588Y-81486557D01*
X166303757Y-81552246D01*
X166513713Y-81585500D01*
X166513714Y-81585500D01*
X166726286Y-81585500D01*
X166726287Y-81585500D01*
X166936243Y-81552246D01*
X167138412Y-81486557D01*
X167327816Y-81390051D01*
X167414478Y-81327088D01*
X167499784Y-81265110D01*
X167499784Y-81265109D01*
X167499792Y-81265104D01*
X167613717Y-81151178D01*
X167675036Y-81117696D01*
X167744728Y-81122680D01*
X167800662Y-81164551D01*
X167817577Y-81195528D01*
X167866646Y-81327088D01*
X167866649Y-81327093D01*
X167952809Y-81442187D01*
X167952812Y-81442190D01*
X168067906Y-81528350D01*
X168067913Y-81528354D01*
X168202620Y-81578596D01*
X168202627Y-81578598D01*
X168262155Y-81584999D01*
X168262172Y-81585000D01*
X168910000Y-81585000D01*
X168910000Y-80668012D01*
X168967007Y-80700925D01*
X169094174Y-80735000D01*
X169225826Y-80735000D01*
X169352993Y-80700925D01*
X169410000Y-80668012D01*
X169410000Y-81585000D01*
X170057828Y-81585000D01*
X170057844Y-81584999D01*
X170117372Y-81578598D01*
X170117379Y-81578596D01*
X170252086Y-81528354D01*
X170252093Y-81528350D01*
X170367187Y-81442190D01*
X170367190Y-81442187D01*
X170453350Y-81327093D01*
X170453354Y-81327086D01*
X170503596Y-81192379D01*
X170503598Y-81192372D01*
X170509999Y-81132844D01*
X170510000Y-81132827D01*
X170510000Y-80485000D01*
X169593012Y-80485000D01*
X169625925Y-80427993D01*
X169660000Y-80300826D01*
X169660000Y-80169174D01*
X169625925Y-80042007D01*
X169593012Y-79985000D01*
X170510000Y-79985000D01*
X170510000Y-79337172D01*
X170509999Y-79337155D01*
X170503598Y-79277627D01*
X170503596Y-79277620D01*
X170453354Y-79142913D01*
X170453350Y-79142906D01*
X170367190Y-79027812D01*
X170367187Y-79027809D01*
X170252093Y-78941649D01*
X170252086Y-78941645D01*
X170117379Y-78891403D01*
X170117372Y-78891401D01*
X170057844Y-78885000D01*
X169410000Y-78885000D01*
X169410000Y-79801988D01*
X169352993Y-79769075D01*
X169225826Y-79735000D01*
X169094174Y-79735000D01*
X168967007Y-79769075D01*
X168910000Y-79801988D01*
X168910000Y-78885000D01*
X168262155Y-78885000D01*
X168202627Y-78891401D01*
X168202620Y-78891403D01*
X168067913Y-78941645D01*
X168067906Y-78941649D01*
X167952812Y-79027809D01*
X167952809Y-79027812D01*
X167866649Y-79142906D01*
X167866646Y-79142912D01*
X167817577Y-79274471D01*
X167775705Y-79330404D01*
X167710241Y-79354821D01*
X167641968Y-79339969D01*
X167613714Y-79318818D01*
X167499786Y-79204890D01*
X167327820Y-79079951D01*
X167138414Y-78983444D01*
X167138413Y-78983443D01*
X167138412Y-78983443D01*
X166936243Y-78917754D01*
X166936241Y-78917753D01*
X166936240Y-78917753D01*
X166774957Y-78892208D01*
X166726287Y-78884500D01*
X166513713Y-78884500D01*
X166465042Y-78892208D01*
X166303760Y-78917753D01*
X166101585Y-78983444D01*
X165912179Y-79079951D01*
X165740213Y-79204890D01*
X165589890Y-79355213D01*
X165464949Y-79527182D01*
X165460484Y-79535946D01*
X165412509Y-79586742D01*
X165344688Y-79603536D01*
X165278553Y-79580998D01*
X165239516Y-79535946D01*
X165235050Y-79527182D01*
X165110109Y-79355213D01*
X164959786Y-79204890D01*
X164787820Y-79079951D01*
X164598414Y-78983444D01*
X164598413Y-78983443D01*
X164598412Y-78983443D01*
X164396243Y-78917754D01*
X164396241Y-78917753D01*
X164396240Y-78917753D01*
X164234957Y-78892208D01*
X164186287Y-78884500D01*
X163973713Y-78884500D01*
X163925042Y-78892208D01*
X163763760Y-78917753D01*
X163561585Y-78983444D01*
X163372179Y-79079951D01*
X163200213Y-79204890D01*
X163049890Y-79355213D01*
X162924949Y-79527182D01*
X162920484Y-79535946D01*
X162872509Y-79586742D01*
X162804688Y-79603536D01*
X162738553Y-79580998D01*
X162699516Y-79535946D01*
X162695050Y-79527182D01*
X162570109Y-79355213D01*
X162419786Y-79204890D01*
X162247820Y-79079951D01*
X162058414Y-78983444D01*
X162058413Y-78983443D01*
X162058412Y-78983443D01*
X161856243Y-78917754D01*
X161856241Y-78917753D01*
X161856240Y-78917753D01*
X161694957Y-78892208D01*
X161646287Y-78884500D01*
X161433713Y-78884500D01*
X161385042Y-78892208D01*
X161223760Y-78917753D01*
X161021585Y-78983444D01*
X160832179Y-79079951D01*
X160660213Y-79204890D01*
X160509890Y-79355213D01*
X160384949Y-79527182D01*
X160380484Y-79535946D01*
X160332509Y-79586742D01*
X160264688Y-79603536D01*
X160198553Y-79580998D01*
X160159516Y-79535946D01*
X160155050Y-79527182D01*
X160030109Y-79355213D01*
X159879786Y-79204890D01*
X159707820Y-79079951D01*
X159518414Y-78983444D01*
X159518413Y-78983443D01*
X159518412Y-78983443D01*
X159316243Y-78917754D01*
X159316241Y-78917753D01*
X159316240Y-78917753D01*
X159154957Y-78892208D01*
X159106287Y-78884500D01*
X158893713Y-78884500D01*
X158845042Y-78892208D01*
X158683760Y-78917753D01*
X158481585Y-78983444D01*
X158292179Y-79079951D01*
X158120213Y-79204890D01*
X157969890Y-79355213D01*
X157844949Y-79527182D01*
X157840484Y-79535946D01*
X157792509Y-79586742D01*
X157724688Y-79603536D01*
X157658553Y-79580998D01*
X157619516Y-79535946D01*
X157615050Y-79527182D01*
X157490109Y-79355213D01*
X157339786Y-79204890D01*
X157167820Y-79079951D01*
X156978414Y-78983444D01*
X156978413Y-78983443D01*
X156978412Y-78983443D01*
X156776243Y-78917754D01*
X156776241Y-78917753D01*
X156776240Y-78917753D01*
X156614957Y-78892208D01*
X156566287Y-78884500D01*
X156353713Y-78884500D01*
X156305042Y-78892208D01*
X156143760Y-78917753D01*
X155941585Y-78983444D01*
X155752179Y-79079951D01*
X155580213Y-79204890D01*
X155429890Y-79355213D01*
X155304949Y-79527182D01*
X155300484Y-79535946D01*
X155252509Y-79586742D01*
X155184688Y-79603536D01*
X155118553Y-79580998D01*
X155079516Y-79535946D01*
X155075050Y-79527182D01*
X154950109Y-79355213D01*
X154799786Y-79204890D01*
X154627820Y-79079951D01*
X154438414Y-78983444D01*
X154438413Y-78983443D01*
X154438412Y-78983443D01*
X154236243Y-78917754D01*
X154236241Y-78917753D01*
X154236240Y-78917753D01*
X154074957Y-78892208D01*
X154026287Y-78884500D01*
X153813713Y-78884500D01*
X153765042Y-78892208D01*
X153603760Y-78917753D01*
X153401585Y-78983444D01*
X153212179Y-79079951D01*
X153040213Y-79204890D01*
X152889890Y-79355213D01*
X152764949Y-79527182D01*
X152760484Y-79535946D01*
X152712509Y-79586742D01*
X152644688Y-79603536D01*
X152578553Y-79580998D01*
X152539516Y-79535946D01*
X152535050Y-79527182D01*
X152410109Y-79355213D01*
X152259786Y-79204890D01*
X152087820Y-79079951D01*
X151898414Y-78983444D01*
X151898413Y-78983443D01*
X151898412Y-78983443D01*
X151696243Y-78917754D01*
X151696241Y-78917753D01*
X151696240Y-78917753D01*
X151534957Y-78892208D01*
X151486287Y-78884500D01*
X151273713Y-78884500D01*
X151225042Y-78892208D01*
X151063760Y-78917753D01*
X150861585Y-78983444D01*
X150672179Y-79079951D01*
X150500213Y-79204890D01*
X150349890Y-79355213D01*
X150224951Y-79527179D01*
X150128444Y-79716585D01*
X150062753Y-79918760D01*
X150029500Y-80128713D01*
X147054725Y-80128713D01*
X146162483Y-79236470D01*
X146162482Y-79236469D01*
X146103066Y-79196769D01*
X146043653Y-79157071D01*
X146009470Y-79142912D01*
X145911620Y-79102381D01*
X145911614Y-79102379D01*
X145771457Y-79074500D01*
X145771455Y-79074500D01*
X144274499Y-79074500D01*
X144207460Y-79054815D01*
X144161705Y-79002011D01*
X144150499Y-78950500D01*
X144150499Y-78902129D01*
X144150498Y-78902123D01*
X144150497Y-78902116D01*
X144144091Y-78842517D01*
X144093884Y-78707906D01*
X144093797Y-78707671D01*
X144093793Y-78707664D01*
X144007547Y-78592455D01*
X144007544Y-78592452D01*
X143892335Y-78506206D01*
X143892328Y-78506202D01*
X143757482Y-78455908D01*
X143757483Y-78455908D01*
X143697883Y-78449501D01*
X143697881Y-78449500D01*
X143697873Y-78449500D01*
X143697864Y-78449500D01*
X141902129Y-78449500D01*
X141902123Y-78449501D01*
X141842516Y-78455908D01*
X141707671Y-78506202D01*
X141707664Y-78506206D01*
X141592455Y-78592452D01*
X141592452Y-78592455D01*
X141506206Y-78707664D01*
X141506202Y-78707671D01*
X141455908Y-78842517D01*
X141452732Y-78872064D01*
X141449501Y-78902123D01*
X141449500Y-78902135D01*
X141449500Y-80697870D01*
X141449501Y-80697876D01*
X141455908Y-80757483D01*
X141506202Y-80892328D01*
X141506206Y-80892335D01*
X141592452Y-81007544D01*
X141592455Y-81007547D01*
X141707664Y-81093793D01*
X141707671Y-81093797D01*
X141839082Y-81142810D01*
X141895016Y-81184681D01*
X141919433Y-81250145D01*
X141904582Y-81318418D01*
X141883431Y-81346673D01*
X141769889Y-81460215D01*
X141644951Y-81632179D01*
X141548444Y-81821585D01*
X141482753Y-82023760D01*
X141449500Y-82233713D01*
X141449500Y-82446286D01*
X141483516Y-82661055D01*
X141481879Y-82661314D01*
X141478734Y-82723895D01*
X141449342Y-82770711D01*
X140294727Y-83925325D01*
X140294726Y-83925326D01*
X140223533Y-84031875D01*
X140183158Y-84129350D01*
X140139317Y-84183753D01*
X140073022Y-84205818D01*
X140005323Y-84188538D01*
X139958112Y-84138191D01*
X139955050Y-84132182D01*
X139830109Y-83960213D01*
X139679786Y-83809890D01*
X139507817Y-83684949D01*
X139498504Y-83680204D01*
X139447707Y-83632230D01*
X139430912Y-83564409D01*
X139453449Y-83498274D01*
X139498507Y-83459232D01*
X139507555Y-83454622D01*
X139561716Y-83415270D01*
X139561717Y-83415270D01*
X138929408Y-82782962D01*
X138992993Y-82765925D01*
X139107007Y-82700099D01*
X139200099Y-82607007D01*
X139265925Y-82492993D01*
X139282962Y-82429409D01*
X139915270Y-83061717D01*
X139915270Y-83061716D01*
X139954622Y-83007554D01*
X140051095Y-82818217D01*
X140116757Y-82616130D01*
X140116757Y-82616127D01*
X140150000Y-82406246D01*
X140150000Y-82193753D01*
X140116757Y-81983872D01*
X140116757Y-81983869D01*
X140051095Y-81781782D01*
X139954624Y-81592449D01*
X139915270Y-81538282D01*
X139915269Y-81538282D01*
X139282962Y-82170590D01*
X139265925Y-82107007D01*
X139200099Y-81992993D01*
X139107007Y-81899901D01*
X138992993Y-81834075D01*
X138929409Y-81817037D01*
X139599627Y-81146818D01*
X139660950Y-81113333D01*
X139687307Y-81110499D01*
X139697872Y-81110499D01*
X139757483Y-81104091D01*
X139892331Y-81053796D01*
X140007546Y-80967546D01*
X140093796Y-80852331D01*
X140144091Y-80717483D01*
X140150500Y-80657873D01*
X140150499Y-78862128D01*
X140144091Y-78802517D01*
X140108803Y-78707906D01*
X140093797Y-78667671D01*
X140093793Y-78667664D01*
X140007547Y-78552455D01*
X140007544Y-78552452D01*
X139892335Y-78466206D01*
X139892328Y-78466202D01*
X139757482Y-78415908D01*
X139757483Y-78415908D01*
X139697883Y-78409501D01*
X139697881Y-78409500D01*
X139697873Y-78409500D01*
X139697864Y-78409500D01*
X137902129Y-78409500D01*
X137902123Y-78409501D01*
X137842516Y-78415908D01*
X137707671Y-78466202D01*
X137707664Y-78466206D01*
X137592455Y-78552452D01*
X137592452Y-78552455D01*
X137506206Y-78667664D01*
X137506202Y-78667671D01*
X137455908Y-78802517D01*
X137449501Y-78862116D01*
X137449501Y-78862123D01*
X137449500Y-78862135D01*
X137449500Y-80657870D01*
X137449501Y-80657876D01*
X137455908Y-80717483D01*
X137506202Y-80852328D01*
X137506206Y-80852335D01*
X137592452Y-80967544D01*
X137592455Y-80967547D01*
X137707664Y-81053793D01*
X137707671Y-81053797D01*
X137752618Y-81070561D01*
X137842517Y-81104091D01*
X137902127Y-81110500D01*
X137912685Y-81110499D01*
X137979723Y-81130179D01*
X138000372Y-81146818D01*
X138670591Y-81817037D01*
X138607007Y-81834075D01*
X138492993Y-81899901D01*
X138399901Y-81992993D01*
X138334075Y-82107007D01*
X138317037Y-82170591D01*
X137684728Y-81538282D01*
X137684727Y-81538282D01*
X137645380Y-81592439D01*
X137548904Y-81781782D01*
X137483242Y-81983869D01*
X137483242Y-81983872D01*
X137450000Y-82193753D01*
X137450000Y-82406246D01*
X137483242Y-82616127D01*
X137483242Y-82616130D01*
X137548904Y-82818217D01*
X137645375Y-83007550D01*
X137684728Y-83061716D01*
X138317037Y-82429408D01*
X138334075Y-82492993D01*
X138399901Y-82607007D01*
X138492993Y-82700099D01*
X138607007Y-82765925D01*
X138670590Y-82782962D01*
X138038282Y-83415269D01*
X138038282Y-83415270D01*
X138092452Y-83454626D01*
X138092451Y-83454626D01*
X138101495Y-83459234D01*
X138152292Y-83507208D01*
X138169087Y-83575029D01*
X138146550Y-83641164D01*
X138101499Y-83680202D01*
X138092182Y-83684949D01*
X137920213Y-83809890D01*
X137769890Y-83960213D01*
X137644951Y-84132179D01*
X137548444Y-84321585D01*
X137482753Y-84523760D01*
X137449500Y-84733713D01*
X137449500Y-84946286D01*
X137479052Y-85132873D01*
X137482754Y-85156243D01*
X137546847Y-85353501D01*
X137548444Y-85358414D01*
X137644951Y-85547820D01*
X137769890Y-85719786D01*
X137920213Y-85870109D01*
X138092182Y-85995050D01*
X138100946Y-85999516D01*
X138151742Y-86047491D01*
X138168536Y-86115312D01*
X138145998Y-86181447D01*
X138100946Y-86220484D01*
X138092182Y-86224949D01*
X137920213Y-86349890D01*
X137769898Y-86500205D01*
X137769893Y-86500211D01*
X137758552Y-86515820D01*
X137703220Y-86558482D01*
X137633606Y-86564458D01*
X137571813Y-86531849D01*
X137570557Y-86530610D01*
X136350657Y-85310711D01*
X136317172Y-85249388D01*
X136317689Y-85201245D01*
X136316484Y-85201055D01*
X136341809Y-85041158D01*
X136350500Y-84986287D01*
X136350500Y-84773713D01*
X136317246Y-84563757D01*
X136251557Y-84361588D01*
X136155051Y-84172184D01*
X136155049Y-84172181D01*
X136155048Y-84172179D01*
X136030109Y-84000213D01*
X135879786Y-83849890D01*
X135707820Y-83724951D01*
X135707115Y-83724591D01*
X135699054Y-83720485D01*
X135648259Y-83672512D01*
X135631463Y-83604692D01*
X135653999Y-83538556D01*
X135699054Y-83499515D01*
X135707816Y-83495051D01*
X135817626Y-83415270D01*
X135879786Y-83370109D01*
X135879788Y-83370106D01*
X135879792Y-83370104D01*
X136030104Y-83219792D01*
X136030106Y-83219788D01*
X136030109Y-83219786D01*
X136155048Y-83047820D01*
X136155047Y-83047820D01*
X136155051Y-83047816D01*
X136251557Y-82858412D01*
X136317246Y-82656243D01*
X136350500Y-82446287D01*
X136350500Y-82233713D01*
X136317246Y-82023757D01*
X136251557Y-81821588D01*
X136155051Y-81632184D01*
X136155049Y-81632181D01*
X136155048Y-81632179D01*
X136030109Y-81460213D01*
X135916181Y-81346285D01*
X135882696Y-81284962D01*
X135887680Y-81215270D01*
X135929552Y-81159337D01*
X135960529Y-81142422D01*
X136092086Y-81093354D01*
X136092093Y-81093350D01*
X136207187Y-81007190D01*
X136207190Y-81007187D01*
X136293350Y-80892093D01*
X136293354Y-80892086D01*
X136343596Y-80757379D01*
X136343598Y-80757372D01*
X136349999Y-80697844D01*
X136350000Y-80697827D01*
X136350000Y-80050000D01*
X135433012Y-80050000D01*
X135465925Y-79992993D01*
X135500000Y-79865826D01*
X135500000Y-79734174D01*
X135465925Y-79607007D01*
X135433012Y-79550000D01*
X136350000Y-79550000D01*
X136350000Y-78902172D01*
X136349999Y-78902160D01*
X136346763Y-78872064D01*
X136346763Y-78872061D01*
X136343598Y-78842627D01*
X136343596Y-78842620D01*
X136293354Y-78707913D01*
X136293350Y-78707906D01*
X136207190Y-78592812D01*
X136207187Y-78592809D01*
X136092093Y-78506649D01*
X136092086Y-78506645D01*
X135957379Y-78456403D01*
X135957372Y-78456401D01*
X135897844Y-78450000D01*
X135250000Y-78450000D01*
X135250000Y-79366988D01*
X135192993Y-79334075D01*
X135065826Y-79300000D01*
X134934174Y-79300000D01*
X134807007Y-79334075D01*
X134750000Y-79366988D01*
X134750000Y-78450000D01*
X134102155Y-78450000D01*
X134042627Y-78456401D01*
X134042620Y-78456403D01*
X133907913Y-78506645D01*
X133907906Y-78506649D01*
X133792812Y-78592809D01*
X133792809Y-78592812D01*
X133706649Y-78707906D01*
X133706645Y-78707913D01*
X133656403Y-78842620D01*
X133656401Y-78842627D01*
X133650000Y-78902155D01*
X133650000Y-79550000D01*
X134566988Y-79550000D01*
X134534075Y-79607007D01*
X134500000Y-79734174D01*
X134500000Y-79865826D01*
X134534075Y-79992993D01*
X134566988Y-80050000D01*
X133650000Y-80050000D01*
X133650000Y-80697844D01*
X133656401Y-80757372D01*
X133656403Y-80757379D01*
X133706645Y-80892086D01*
X133706649Y-80892093D01*
X133792809Y-81007187D01*
X133792812Y-81007190D01*
X133907906Y-81093350D01*
X133907913Y-81093354D01*
X134039470Y-81142422D01*
X134095404Y-81184293D01*
X134119821Y-81249758D01*
X134104969Y-81318031D01*
X134083819Y-81346285D01*
X133969889Y-81460215D01*
X133844951Y-81632179D01*
X133748444Y-81821585D01*
X133682753Y-82023760D01*
X133649500Y-82233713D01*
X111381766Y-82233713D01*
X111339049Y-82102244D01*
X111283383Y-81992993D01*
X111235217Y-81898462D01*
X111100786Y-81713434D01*
X110939066Y-81551714D01*
X110754038Y-81417283D01*
X110700586Y-81390048D01*
X110550255Y-81313450D01*
X110332748Y-81242778D01*
X110159068Y-81215270D01*
X110106854Y-81207000D01*
X109783146Y-81207000D01*
X109730932Y-81215270D01*
X109557253Y-81242778D01*
X109557250Y-81242778D01*
X109339744Y-81313450D01*
X109135961Y-81417283D01*
X109076874Y-81460213D01*
X108950934Y-81551714D01*
X108950932Y-81551716D01*
X108950931Y-81551716D01*
X108789216Y-81713431D01*
X108789216Y-81713432D01*
X108789214Y-81713434D01*
X108748307Y-81769738D01*
X108654783Y-81898461D01*
X108550950Y-82102244D01*
X108480278Y-82319750D01*
X108480278Y-82319753D01*
X108444500Y-82545646D01*
X99409577Y-82545646D01*
X99371302Y-82427849D01*
X99360295Y-82406246D01*
X99264790Y-82218808D01*
X99246587Y-82193753D01*
X99126895Y-82029010D01*
X99126891Y-82029005D01*
X98960994Y-81863108D01*
X98960989Y-81863104D01*
X98771195Y-81725212D01*
X98771194Y-81725211D01*
X98771192Y-81725210D01*
X98588619Y-81632184D01*
X98562150Y-81618697D01*
X98339027Y-81546201D01*
X98112305Y-81510292D01*
X98107305Y-81509500D01*
X95892695Y-81509500D01*
X95887695Y-81510292D01*
X95660972Y-81546201D01*
X95437849Y-81618697D01*
X95228804Y-81725212D01*
X95039010Y-81863104D01*
X95039005Y-81863108D01*
X94873108Y-82029005D01*
X94873104Y-82029010D01*
X94735212Y-82218804D01*
X94628697Y-82427849D01*
X94556201Y-82650972D01*
X94529712Y-82818217D01*
X94519500Y-82882695D01*
X87910161Y-82882695D01*
X87910340Y-72921153D01*
X174949500Y-72921153D01*
X174949500Y-73078846D01*
X174980261Y-73233489D01*
X174980264Y-73233501D01*
X175040602Y-73379172D01*
X175040606Y-73379179D01*
X175078602Y-73436044D01*
X175099480Y-73502721D01*
X175099500Y-73504935D01*
X175099500Y-74995064D01*
X175079815Y-75062103D01*
X175078603Y-75063954D01*
X175040608Y-75120817D01*
X175040602Y-75120828D01*
X174980264Y-75266498D01*
X174980261Y-75266510D01*
X174949500Y-75421153D01*
X174949500Y-75578846D01*
X174980261Y-75733489D01*
X174980264Y-75733501D01*
X175040602Y-75879172D01*
X175040609Y-75879185D01*
X175128210Y-76010288D01*
X175128213Y-76010292D01*
X175239707Y-76121786D01*
X175239711Y-76121789D01*
X175370814Y-76209390D01*
X175370827Y-76209397D01*
X175516498Y-76269735D01*
X175516503Y-76269737D01*
X175671153Y-76300499D01*
X175671156Y-76300500D01*
X175671158Y-76300500D01*
X175828844Y-76300500D01*
X175828845Y-76300499D01*
X175983497Y-76269737D01*
X176129179Y-76209394D01*
X176260289Y-76121789D01*
X176371789Y-76010289D01*
X176459394Y-75879179D01*
X176519737Y-75733497D01*
X176550500Y-75578842D01*
X176550500Y-75421158D01*
X176550500Y-75421155D01*
X176550499Y-75421153D01*
X176519738Y-75266510D01*
X176519737Y-75266503D01*
X176459394Y-75120821D01*
X176421396Y-75063953D01*
X176400520Y-74997276D01*
X176400500Y-74995064D01*
X176400500Y-73504935D01*
X176420185Y-73437896D01*
X176421366Y-73436090D01*
X176459394Y-73379179D01*
X176519737Y-73233497D01*
X176550500Y-73078842D01*
X176550500Y-72921158D01*
X176550500Y-72921155D01*
X176550499Y-72921153D01*
X176519738Y-72766510D01*
X176519737Y-72766503D01*
X176519735Y-72766498D01*
X176459397Y-72620827D01*
X176459390Y-72620814D01*
X176371789Y-72489711D01*
X176371786Y-72489707D01*
X176260292Y-72378213D01*
X176260288Y-72378210D01*
X176129185Y-72290609D01*
X176129172Y-72290602D01*
X175983501Y-72230264D01*
X175983489Y-72230261D01*
X175828845Y-72199500D01*
X175828842Y-72199500D01*
X175671158Y-72199500D01*
X175671155Y-72199500D01*
X175516510Y-72230261D01*
X175516498Y-72230264D01*
X175370827Y-72290602D01*
X175370814Y-72290609D01*
X175239711Y-72378210D01*
X175239707Y-72378213D01*
X175128213Y-72489707D01*
X175128210Y-72489711D01*
X175040609Y-72620814D01*
X175040602Y-72620827D01*
X174980264Y-72766498D01*
X174980261Y-72766510D01*
X174949500Y-72921153D01*
X87910340Y-72921153D01*
X87910422Y-68372587D01*
X87930108Y-68305550D01*
X87982913Y-68259796D01*
X88052071Y-68249853D01*
X88115626Y-68278880D01*
X88132798Y-68297105D01*
X88174718Y-68351736D01*
X88174724Y-68351743D01*
X88346241Y-68523260D01*
X88346248Y-68523266D01*
X88454917Y-68606650D01*
X88538696Y-68670936D01*
X88748773Y-68792224D01*
X88972885Y-68885054D01*
X89207196Y-68947838D01*
X89387571Y-68971584D01*
X89447696Y-68979500D01*
X89447697Y-68979500D01*
X89690274Y-68979500D01*
X89738373Y-68973167D01*
X89930774Y-68947838D01*
X90165085Y-68885054D01*
X90389197Y-68792224D01*
X90599274Y-68670936D01*
X90791723Y-68523265D01*
X90963250Y-68351738D01*
X91110921Y-68159289D01*
X91180536Y-68038713D01*
X123745500Y-68038713D01*
X123745500Y-68251287D01*
X123778754Y-68461243D01*
X123798906Y-68523265D01*
X123844444Y-68663414D01*
X123940951Y-68852820D01*
X124065890Y-69024786D01*
X124216213Y-69175109D01*
X124388182Y-69300050D01*
X124396946Y-69304516D01*
X124447742Y-69352491D01*
X124464536Y-69420312D01*
X124441998Y-69486447D01*
X124396946Y-69525484D01*
X124388182Y-69529949D01*
X124216213Y-69654890D01*
X124065890Y-69805213D01*
X123940951Y-69977179D01*
X123844444Y-70166585D01*
X123778753Y-70368760D01*
X123745500Y-70578713D01*
X123745500Y-70791286D01*
X123775206Y-70978846D01*
X123778754Y-71001243D01*
X123821727Y-71133501D01*
X123844444Y-71203414D01*
X123940951Y-71392820D01*
X124065890Y-71564786D01*
X124216213Y-71715109D01*
X124388179Y-71840048D01*
X124388181Y-71840049D01*
X124388184Y-71840051D01*
X124577588Y-71936557D01*
X124779757Y-72002246D01*
X124989713Y-72035500D01*
X124989714Y-72035500D01*
X125202286Y-72035500D01*
X125202287Y-72035500D01*
X125412243Y-72002246D01*
X125614412Y-71936557D01*
X125803816Y-71840051D01*
X125825789Y-71824086D01*
X125975786Y-71715109D01*
X125975788Y-71715106D01*
X125975792Y-71715104D01*
X126126104Y-71564792D01*
X126126106Y-71564788D01*
X126126109Y-71564786D01*
X126251048Y-71392820D01*
X126251047Y-71392820D01*
X126251051Y-71392816D01*
X126255514Y-71384054D01*
X126303488Y-71333259D01*
X126371308Y-71316463D01*
X126437444Y-71338999D01*
X126476486Y-71384056D01*
X126480951Y-71392820D01*
X126605890Y-71564786D01*
X126756213Y-71715109D01*
X126928179Y-71840048D01*
X126928181Y-71840049D01*
X126928184Y-71840051D01*
X127117588Y-71936557D01*
X127319757Y-72002246D01*
X127529713Y-72035500D01*
X127529714Y-72035500D01*
X127742286Y-72035500D01*
X127742287Y-72035500D01*
X127952243Y-72002246D01*
X128154412Y-71936557D01*
X128343816Y-71840051D01*
X128365789Y-71824086D01*
X128515786Y-71715109D01*
X128515788Y-71715106D01*
X128515792Y-71715104D01*
X128666104Y-71564792D01*
X128666106Y-71564788D01*
X128666109Y-71564786D01*
X128791048Y-71392820D01*
X128791047Y-71392820D01*
X128791051Y-71392816D01*
X128795514Y-71384054D01*
X128843488Y-71333259D01*
X128911308Y-71316463D01*
X128977444Y-71338999D01*
X129016486Y-71384056D01*
X129020951Y-71392820D01*
X129145890Y-71564786D01*
X129296213Y-71715109D01*
X129468179Y-71840048D01*
X129468181Y-71840049D01*
X129468184Y-71840051D01*
X129657588Y-71936557D01*
X129859757Y-72002246D01*
X130069713Y-72035500D01*
X130069714Y-72035500D01*
X130282286Y-72035500D01*
X130282287Y-72035500D01*
X130492243Y-72002246D01*
X130694412Y-71936557D01*
X130883816Y-71840051D01*
X130905789Y-71824086D01*
X131055786Y-71715109D01*
X131055788Y-71715106D01*
X131055792Y-71715104D01*
X131206104Y-71564792D01*
X131206106Y-71564788D01*
X131206109Y-71564786D01*
X131331048Y-71392820D01*
X131331047Y-71392820D01*
X131331051Y-71392816D01*
X131335514Y-71384054D01*
X131383488Y-71333259D01*
X131451308Y-71316463D01*
X131517444Y-71338999D01*
X131556486Y-71384056D01*
X131560951Y-71392820D01*
X131685890Y-71564786D01*
X131836213Y-71715109D01*
X132008179Y-71840048D01*
X132008181Y-71840049D01*
X132008184Y-71840051D01*
X132197588Y-71936557D01*
X132399757Y-72002246D01*
X132609713Y-72035500D01*
X132609714Y-72035500D01*
X132822286Y-72035500D01*
X132822287Y-72035500D01*
X133032243Y-72002246D01*
X133234412Y-71936557D01*
X133423816Y-71840051D01*
X133445789Y-71824086D01*
X133595786Y-71715109D01*
X133595788Y-71715106D01*
X133595792Y-71715104D01*
X133746104Y-71564792D01*
X133746106Y-71564788D01*
X133746109Y-71564786D01*
X133871048Y-71392820D01*
X133871047Y-71392820D01*
X133871051Y-71392816D01*
X133875514Y-71384054D01*
X133923488Y-71333259D01*
X133991308Y-71316463D01*
X134057444Y-71338999D01*
X134096486Y-71384056D01*
X134100951Y-71392820D01*
X134225890Y-71564786D01*
X134376213Y-71715109D01*
X134548179Y-71840048D01*
X134548181Y-71840049D01*
X134548184Y-71840051D01*
X134737588Y-71936557D01*
X134939757Y-72002246D01*
X135149713Y-72035500D01*
X135149714Y-72035500D01*
X135362286Y-72035500D01*
X135362287Y-72035500D01*
X135572243Y-72002246D01*
X135774412Y-71936557D01*
X135963816Y-71840051D01*
X135985789Y-71824086D01*
X136135786Y-71715109D01*
X136135788Y-71715106D01*
X136135792Y-71715104D01*
X136286104Y-71564792D01*
X136286106Y-71564788D01*
X136286109Y-71564786D01*
X136411048Y-71392820D01*
X136411047Y-71392820D01*
X136411051Y-71392816D01*
X136415514Y-71384054D01*
X136463488Y-71333259D01*
X136531308Y-71316463D01*
X136597444Y-71338999D01*
X136636486Y-71384056D01*
X136640951Y-71392820D01*
X136765890Y-71564786D01*
X136916213Y-71715109D01*
X137088179Y-71840048D01*
X137088181Y-71840049D01*
X137088184Y-71840051D01*
X137277588Y-71936557D01*
X137479757Y-72002246D01*
X137689713Y-72035500D01*
X137689714Y-72035500D01*
X137902286Y-72035500D01*
X137902287Y-72035500D01*
X138112243Y-72002246D01*
X138314412Y-71936557D01*
X138503816Y-71840051D01*
X138525789Y-71824086D01*
X138675786Y-71715109D01*
X138675788Y-71715106D01*
X138675792Y-71715104D01*
X138826104Y-71564792D01*
X138826106Y-71564788D01*
X138826109Y-71564786D01*
X138951048Y-71392820D01*
X138951047Y-71392820D01*
X138951051Y-71392816D01*
X138955514Y-71384054D01*
X139003488Y-71333259D01*
X139071308Y-71316463D01*
X139137444Y-71338999D01*
X139176486Y-71384056D01*
X139180951Y-71392820D01*
X139305890Y-71564786D01*
X139456213Y-71715109D01*
X139628179Y-71840048D01*
X139628181Y-71840049D01*
X139628184Y-71840051D01*
X139817588Y-71936557D01*
X140019757Y-72002246D01*
X140229713Y-72035500D01*
X140229714Y-72035500D01*
X140442286Y-72035500D01*
X140442287Y-72035500D01*
X140652243Y-72002246D01*
X140854412Y-71936557D01*
X141043816Y-71840051D01*
X141065789Y-71824086D01*
X141215786Y-71715109D01*
X141215788Y-71715106D01*
X141215792Y-71715104D01*
X141366104Y-71564792D01*
X141366106Y-71564788D01*
X141366109Y-71564786D01*
X141491048Y-71392820D01*
X141491047Y-71392820D01*
X141491051Y-71392816D01*
X141495514Y-71384054D01*
X141543488Y-71333259D01*
X141611308Y-71316463D01*
X141677444Y-71338999D01*
X141716486Y-71384056D01*
X141720951Y-71392820D01*
X141845890Y-71564786D01*
X141996213Y-71715109D01*
X142168179Y-71840048D01*
X142168181Y-71840049D01*
X142168184Y-71840051D01*
X142357588Y-71936557D01*
X142559757Y-72002246D01*
X142769713Y-72035500D01*
X142769714Y-72035500D01*
X142982286Y-72035500D01*
X142982287Y-72035500D01*
X143192243Y-72002246D01*
X143394412Y-71936557D01*
X143583816Y-71840051D01*
X143605789Y-71824086D01*
X143755786Y-71715109D01*
X143755788Y-71715106D01*
X143755792Y-71715104D01*
X143906104Y-71564792D01*
X143906106Y-71564788D01*
X143906109Y-71564786D01*
X144031048Y-71392820D01*
X144031047Y-71392820D01*
X144031051Y-71392816D01*
X144035514Y-71384054D01*
X144083488Y-71333259D01*
X144151308Y-71316463D01*
X144217444Y-71338999D01*
X144256486Y-71384056D01*
X144260951Y-71392820D01*
X144385890Y-71564786D01*
X144536213Y-71715109D01*
X144708179Y-71840048D01*
X144708181Y-71840049D01*
X144708184Y-71840051D01*
X144897588Y-71936557D01*
X145099757Y-72002246D01*
X145309713Y-72035500D01*
X145309714Y-72035500D01*
X145522286Y-72035500D01*
X145522287Y-72035500D01*
X145732243Y-72002246D01*
X145934412Y-71936557D01*
X146123816Y-71840051D01*
X146145789Y-71824086D01*
X146295786Y-71715109D01*
X146295788Y-71715106D01*
X146295792Y-71715104D01*
X146446104Y-71564792D01*
X146446106Y-71564788D01*
X146446109Y-71564786D01*
X146571048Y-71392820D01*
X146571047Y-71392820D01*
X146571051Y-71392816D01*
X146575514Y-71384054D01*
X146623488Y-71333259D01*
X146691308Y-71316463D01*
X146757444Y-71338999D01*
X146796486Y-71384056D01*
X146800951Y-71392820D01*
X146925890Y-71564786D01*
X147076213Y-71715109D01*
X147248179Y-71840048D01*
X147248181Y-71840049D01*
X147248184Y-71840051D01*
X147437588Y-71936557D01*
X147639757Y-72002246D01*
X147849713Y-72035500D01*
X147849714Y-72035500D01*
X148062286Y-72035500D01*
X148062287Y-72035500D01*
X148272243Y-72002246D01*
X148474412Y-71936557D01*
X148663816Y-71840051D01*
X148685789Y-71824086D01*
X148835786Y-71715109D01*
X148835788Y-71715106D01*
X148835792Y-71715104D01*
X148986104Y-71564792D01*
X148986106Y-71564788D01*
X148986109Y-71564786D01*
X149111048Y-71392820D01*
X149111047Y-71392820D01*
X149111051Y-71392816D01*
X149207557Y-71203412D01*
X149273246Y-71001243D01*
X149306500Y-70791287D01*
X149306500Y-70578713D01*
X149273246Y-70368757D01*
X149207557Y-70166588D01*
X149111051Y-69977184D01*
X149111049Y-69977181D01*
X149111048Y-69977179D01*
X148986109Y-69805213D01*
X148872569Y-69691673D01*
X148839084Y-69630350D01*
X148844068Y-69560658D01*
X148885940Y-69504725D01*
X148916915Y-69487810D01*
X149048331Y-69438796D01*
X149163546Y-69352546D01*
X149249796Y-69237331D01*
X149300091Y-69102483D01*
X149306500Y-69042873D01*
X149306499Y-68038713D01*
X150669500Y-68038713D01*
X150669500Y-68251287D01*
X150702754Y-68461243D01*
X150722906Y-68523265D01*
X150768444Y-68663414D01*
X150864951Y-68852820D01*
X150989890Y-69024786D01*
X151140213Y-69175109D01*
X151312182Y-69300050D01*
X151320946Y-69304516D01*
X151371742Y-69352491D01*
X151388536Y-69420312D01*
X151365998Y-69486447D01*
X151320946Y-69525484D01*
X151312182Y-69529949D01*
X151140213Y-69654890D01*
X150989890Y-69805213D01*
X150864951Y-69977179D01*
X150768444Y-70166585D01*
X150702753Y-70368760D01*
X150669500Y-70578713D01*
X150669500Y-70791286D01*
X150699206Y-70978846D01*
X150702754Y-71001243D01*
X150745727Y-71133501D01*
X150768444Y-71203414D01*
X150864951Y-71392820D01*
X150989890Y-71564786D01*
X151140213Y-71715109D01*
X151312179Y-71840048D01*
X151312181Y-71840049D01*
X151312184Y-71840051D01*
X151501588Y-71936557D01*
X151703757Y-72002246D01*
X151913713Y-72035500D01*
X151913714Y-72035500D01*
X152126286Y-72035500D01*
X152126287Y-72035500D01*
X152336243Y-72002246D01*
X152538412Y-71936557D01*
X152727816Y-71840051D01*
X152749789Y-71824086D01*
X152899786Y-71715109D01*
X152899788Y-71715106D01*
X152899792Y-71715104D01*
X153050104Y-71564792D01*
X153050106Y-71564788D01*
X153050109Y-71564786D01*
X153175048Y-71392820D01*
X153175047Y-71392820D01*
X153175051Y-71392816D01*
X153179514Y-71384054D01*
X153227488Y-71333259D01*
X153295308Y-71316463D01*
X153361444Y-71338999D01*
X153400486Y-71384056D01*
X153404951Y-71392820D01*
X153529890Y-71564786D01*
X153680213Y-71715109D01*
X153852179Y-71840048D01*
X153852181Y-71840049D01*
X153852184Y-71840051D01*
X154041588Y-71936557D01*
X154243757Y-72002246D01*
X154453713Y-72035500D01*
X154453714Y-72035500D01*
X154666286Y-72035500D01*
X154666287Y-72035500D01*
X154876243Y-72002246D01*
X155078412Y-71936557D01*
X155267816Y-71840051D01*
X155289789Y-71824086D01*
X155439786Y-71715109D01*
X155439788Y-71715106D01*
X155439792Y-71715104D01*
X155590104Y-71564792D01*
X155590106Y-71564788D01*
X155590109Y-71564786D01*
X155715048Y-71392820D01*
X155715047Y-71392820D01*
X155715051Y-71392816D01*
X155719514Y-71384054D01*
X155767488Y-71333259D01*
X155835308Y-71316463D01*
X155901444Y-71338999D01*
X155940486Y-71384056D01*
X155944951Y-71392820D01*
X156069890Y-71564786D01*
X156220213Y-71715109D01*
X156392179Y-71840048D01*
X156392181Y-71840049D01*
X156392184Y-71840051D01*
X156581588Y-71936557D01*
X156783757Y-72002246D01*
X156993713Y-72035500D01*
X156993714Y-72035500D01*
X157206286Y-72035500D01*
X157206287Y-72035500D01*
X157416243Y-72002246D01*
X157618412Y-71936557D01*
X157807816Y-71840051D01*
X157829789Y-71824086D01*
X157979786Y-71715109D01*
X157979788Y-71715106D01*
X157979792Y-71715104D01*
X158130104Y-71564792D01*
X158130106Y-71564788D01*
X158130109Y-71564786D01*
X158255048Y-71392820D01*
X158255047Y-71392820D01*
X158255051Y-71392816D01*
X158259514Y-71384054D01*
X158307488Y-71333259D01*
X158375308Y-71316463D01*
X158441444Y-71338999D01*
X158480486Y-71384056D01*
X158484951Y-71392820D01*
X158609890Y-71564786D01*
X158760213Y-71715109D01*
X158932179Y-71840048D01*
X158932181Y-71840049D01*
X158932184Y-71840051D01*
X159121588Y-71936557D01*
X159323757Y-72002246D01*
X159533713Y-72035500D01*
X159533714Y-72035500D01*
X159746286Y-72035500D01*
X159746287Y-72035500D01*
X159956243Y-72002246D01*
X160158412Y-71936557D01*
X160347816Y-71840051D01*
X160369789Y-71824086D01*
X160519786Y-71715109D01*
X160519788Y-71715106D01*
X160519792Y-71715104D01*
X160670104Y-71564792D01*
X160670106Y-71564788D01*
X160670109Y-71564786D01*
X160795048Y-71392820D01*
X160795047Y-71392820D01*
X160795051Y-71392816D01*
X160799514Y-71384054D01*
X160847488Y-71333259D01*
X160915308Y-71316463D01*
X160981444Y-71338999D01*
X161020486Y-71384056D01*
X161024951Y-71392820D01*
X161149890Y-71564786D01*
X161300213Y-71715109D01*
X161472179Y-71840048D01*
X161472181Y-71840049D01*
X161472184Y-71840051D01*
X161661588Y-71936557D01*
X161863757Y-72002246D01*
X162073713Y-72035500D01*
X162073714Y-72035500D01*
X162286286Y-72035500D01*
X162286287Y-72035500D01*
X162496243Y-72002246D01*
X162698412Y-71936557D01*
X162887816Y-71840051D01*
X162909789Y-71824086D01*
X163059786Y-71715109D01*
X163059788Y-71715106D01*
X163059792Y-71715104D01*
X163210104Y-71564792D01*
X163210106Y-71564788D01*
X163210109Y-71564786D01*
X163335048Y-71392820D01*
X163335047Y-71392820D01*
X163335051Y-71392816D01*
X163339514Y-71384054D01*
X163387488Y-71333259D01*
X163455308Y-71316463D01*
X163521444Y-71338999D01*
X163560486Y-71384056D01*
X163564951Y-71392820D01*
X163689890Y-71564786D01*
X163840213Y-71715109D01*
X164012179Y-71840048D01*
X164012181Y-71840049D01*
X164012184Y-71840051D01*
X164201588Y-71936557D01*
X164403757Y-72002246D01*
X164613713Y-72035500D01*
X164613714Y-72035500D01*
X164826286Y-72035500D01*
X164826287Y-72035500D01*
X165036243Y-72002246D01*
X165238412Y-71936557D01*
X165427816Y-71840051D01*
X165449789Y-71824086D01*
X165599786Y-71715109D01*
X165599788Y-71715106D01*
X165599792Y-71715104D01*
X165750104Y-71564792D01*
X165750106Y-71564788D01*
X165750109Y-71564786D01*
X165875048Y-71392820D01*
X165875047Y-71392820D01*
X165875051Y-71392816D01*
X165879514Y-71384054D01*
X165927488Y-71333259D01*
X165995308Y-71316463D01*
X166061444Y-71338999D01*
X166100486Y-71384056D01*
X166104951Y-71392820D01*
X166229890Y-71564786D01*
X166380213Y-71715109D01*
X166552179Y-71840048D01*
X166552181Y-71840049D01*
X166552184Y-71840051D01*
X166741588Y-71936557D01*
X166943757Y-72002246D01*
X167153713Y-72035500D01*
X167153714Y-72035500D01*
X167366286Y-72035500D01*
X167366287Y-72035500D01*
X167576243Y-72002246D01*
X167778412Y-71936557D01*
X167967816Y-71840051D01*
X167989789Y-71824086D01*
X168139786Y-71715109D01*
X168139788Y-71715106D01*
X168139792Y-71715104D01*
X168290104Y-71564792D01*
X168290106Y-71564788D01*
X168290109Y-71564786D01*
X168415048Y-71392820D01*
X168415047Y-71392820D01*
X168415051Y-71392816D01*
X168419514Y-71384054D01*
X168467488Y-71333259D01*
X168535308Y-71316463D01*
X168601444Y-71338999D01*
X168640486Y-71384056D01*
X168644951Y-71392820D01*
X168769890Y-71564786D01*
X168920213Y-71715109D01*
X169092179Y-71840048D01*
X169092181Y-71840049D01*
X169092184Y-71840051D01*
X169281588Y-71936557D01*
X169483757Y-72002246D01*
X169693713Y-72035500D01*
X169693714Y-72035500D01*
X169906286Y-72035500D01*
X169906287Y-72035500D01*
X170116243Y-72002246D01*
X170318412Y-71936557D01*
X170507816Y-71840051D01*
X170529789Y-71824086D01*
X170679786Y-71715109D01*
X170679788Y-71715106D01*
X170679792Y-71715104D01*
X170830104Y-71564792D01*
X170830106Y-71564788D01*
X170830109Y-71564786D01*
X170955048Y-71392820D01*
X170955047Y-71392820D01*
X170955051Y-71392816D01*
X171051557Y-71203412D01*
X171117246Y-71001243D01*
X171145770Y-70821153D01*
X199099500Y-70821153D01*
X199099500Y-70978846D01*
X199130261Y-71133489D01*
X199130264Y-71133501D01*
X199190602Y-71279172D01*
X199190606Y-71279179D01*
X199228602Y-71336044D01*
X199249480Y-71402721D01*
X199249500Y-71404935D01*
X199249500Y-73095064D01*
X199229815Y-73162103D01*
X199228603Y-73163954D01*
X199190608Y-73220817D01*
X199190602Y-73220828D01*
X199130264Y-73366498D01*
X199130261Y-73366510D01*
X199099500Y-73521153D01*
X199099500Y-73678846D01*
X199130261Y-73833489D01*
X199130264Y-73833501D01*
X199190602Y-73979172D01*
X199190609Y-73979185D01*
X199278210Y-74110288D01*
X199278213Y-74110292D01*
X199389707Y-74221786D01*
X199389711Y-74221789D01*
X199520814Y-74309390D01*
X199520827Y-74309397D01*
X199666498Y-74369735D01*
X199666503Y-74369737D01*
X199821153Y-74400499D01*
X199821156Y-74400500D01*
X199821158Y-74400500D01*
X199978844Y-74400500D01*
X199978845Y-74400499D01*
X200133497Y-74369737D01*
X200279179Y-74309394D01*
X200410289Y-74221789D01*
X200521789Y-74110289D01*
X200609394Y-73979179D01*
X200669737Y-73833497D01*
X200700500Y-73678842D01*
X200700500Y-73521158D01*
X200700500Y-73521155D01*
X200700499Y-73521153D01*
X200669738Y-73366510D01*
X200669737Y-73366503D01*
X200609394Y-73220821D01*
X200571396Y-73163953D01*
X200550520Y-73097276D01*
X200550500Y-73095064D01*
X200550500Y-71404935D01*
X200570185Y-71337896D01*
X200571366Y-71336090D01*
X200609394Y-71279179D01*
X200669737Y-71133497D01*
X200700500Y-70978842D01*
X200700500Y-70821158D01*
X200700500Y-70821155D01*
X200700499Y-70821153D01*
X200669738Y-70666510D01*
X200669737Y-70666503D01*
X200669735Y-70666498D01*
X200609397Y-70520827D01*
X200609390Y-70520814D01*
X200521789Y-70389711D01*
X200521786Y-70389707D01*
X200410292Y-70278213D01*
X200410288Y-70278210D01*
X200279185Y-70190609D01*
X200279172Y-70190602D01*
X200133501Y-70130264D01*
X200133489Y-70130261D01*
X199978845Y-70099500D01*
X199978842Y-70099500D01*
X199821158Y-70099500D01*
X199821155Y-70099500D01*
X199666510Y-70130261D01*
X199666498Y-70130264D01*
X199520827Y-70190602D01*
X199520814Y-70190609D01*
X199389711Y-70278210D01*
X199389707Y-70278213D01*
X199278213Y-70389707D01*
X199278210Y-70389711D01*
X199190609Y-70520814D01*
X199190602Y-70520827D01*
X199130264Y-70666498D01*
X199130261Y-70666510D01*
X199099500Y-70821153D01*
X171145770Y-70821153D01*
X171150500Y-70791287D01*
X171150500Y-70578713D01*
X171117246Y-70368757D01*
X171051557Y-70166588D01*
X170955051Y-69977184D01*
X170955049Y-69977181D01*
X170955048Y-69977179D01*
X170830109Y-69805213D01*
X170716569Y-69691673D01*
X170683084Y-69630350D01*
X170688068Y-69560658D01*
X170729940Y-69504725D01*
X170760915Y-69487810D01*
X170892331Y-69438796D01*
X171007546Y-69352546D01*
X171093796Y-69237331D01*
X171144091Y-69102483D01*
X171150500Y-69042873D01*
X171150499Y-67247128D01*
X171144091Y-67187517D01*
X171142810Y-67184083D01*
X171093797Y-67052671D01*
X171093793Y-67052664D01*
X171007547Y-66937455D01*
X171007544Y-66937452D01*
X170892335Y-66851206D01*
X170892328Y-66851202D01*
X170757482Y-66800908D01*
X170757483Y-66800908D01*
X170697883Y-66794501D01*
X170697881Y-66794500D01*
X170697873Y-66794500D01*
X170697864Y-66794500D01*
X168902129Y-66794500D01*
X168902123Y-66794501D01*
X168842516Y-66800908D01*
X168707671Y-66851202D01*
X168707664Y-66851206D01*
X168592455Y-66937452D01*
X168592452Y-66937455D01*
X168506206Y-67052664D01*
X168506203Y-67052669D01*
X168457189Y-67184083D01*
X168415317Y-67240016D01*
X168349853Y-67264433D01*
X168281580Y-67249581D01*
X168253326Y-67228430D01*
X168139786Y-67114890D01*
X167967820Y-66989951D01*
X167778414Y-66893444D01*
X167778413Y-66893443D01*
X167778412Y-66893443D01*
X167576243Y-66827754D01*
X167576241Y-66827753D01*
X167576240Y-66827753D01*
X167414957Y-66802208D01*
X167366287Y-66794500D01*
X167153713Y-66794500D01*
X167105042Y-66802208D01*
X166943760Y-66827753D01*
X166741585Y-66893444D01*
X166552179Y-66989951D01*
X166380213Y-67114890D01*
X166229890Y-67265213D01*
X166104949Y-67437182D01*
X166100484Y-67445946D01*
X166052509Y-67496742D01*
X165984688Y-67513536D01*
X165918553Y-67490998D01*
X165879516Y-67445946D01*
X165875050Y-67437182D01*
X165750109Y-67265213D01*
X165599786Y-67114890D01*
X165427820Y-66989951D01*
X165238414Y-66893444D01*
X165238413Y-66893443D01*
X165238412Y-66893443D01*
X165036243Y-66827754D01*
X165036241Y-66827753D01*
X165036240Y-66827753D01*
X164874957Y-66802208D01*
X164826287Y-66794500D01*
X164613713Y-66794500D01*
X164565042Y-66802208D01*
X164403760Y-66827753D01*
X164201585Y-66893444D01*
X164012179Y-66989951D01*
X163840213Y-67114890D01*
X163689890Y-67265213D01*
X163564949Y-67437182D01*
X163560484Y-67445946D01*
X163512509Y-67496742D01*
X163444688Y-67513536D01*
X163378553Y-67490998D01*
X163339516Y-67445946D01*
X163335050Y-67437182D01*
X163210109Y-67265213D01*
X163059786Y-67114890D01*
X162887820Y-66989951D01*
X162698414Y-66893444D01*
X162698413Y-66893443D01*
X162698412Y-66893443D01*
X162496243Y-66827754D01*
X162496241Y-66827753D01*
X162496240Y-66827753D01*
X162334957Y-66802208D01*
X162286287Y-66794500D01*
X162073713Y-66794500D01*
X162025042Y-66802208D01*
X161863760Y-66827753D01*
X161661585Y-66893444D01*
X161472179Y-66989951D01*
X161300213Y-67114890D01*
X161149890Y-67265213D01*
X161024949Y-67437182D01*
X161020484Y-67445946D01*
X160972509Y-67496742D01*
X160904688Y-67513536D01*
X160838553Y-67490998D01*
X160799516Y-67445946D01*
X160795050Y-67437182D01*
X160670109Y-67265213D01*
X160519786Y-67114890D01*
X160347820Y-66989951D01*
X160158414Y-66893444D01*
X160158413Y-66893443D01*
X160158412Y-66893443D01*
X159956243Y-66827754D01*
X159956241Y-66827753D01*
X159956240Y-66827753D01*
X159794957Y-66802208D01*
X159746287Y-66794500D01*
X159533713Y-66794500D01*
X159485042Y-66802208D01*
X159323760Y-66827753D01*
X159121585Y-66893444D01*
X158932179Y-66989951D01*
X158760213Y-67114890D01*
X158609890Y-67265213D01*
X158484949Y-67437182D01*
X158480484Y-67445946D01*
X158432509Y-67496742D01*
X158364688Y-67513536D01*
X158298553Y-67490998D01*
X158259516Y-67445946D01*
X158255050Y-67437182D01*
X158130109Y-67265213D01*
X157979786Y-67114890D01*
X157807820Y-66989951D01*
X157618414Y-66893444D01*
X157618413Y-66893443D01*
X157618412Y-66893443D01*
X157416243Y-66827754D01*
X157416241Y-66827753D01*
X157416240Y-66827753D01*
X157254957Y-66802208D01*
X157206287Y-66794500D01*
X156993713Y-66794500D01*
X156945042Y-66802208D01*
X156783760Y-66827753D01*
X156581585Y-66893444D01*
X156392179Y-66989951D01*
X156220213Y-67114890D01*
X156069890Y-67265213D01*
X155944949Y-67437182D01*
X155940484Y-67445946D01*
X155892509Y-67496742D01*
X155824688Y-67513536D01*
X155758553Y-67490998D01*
X155719516Y-67445946D01*
X155715050Y-67437182D01*
X155590109Y-67265213D01*
X155439786Y-67114890D01*
X155267820Y-66989951D01*
X155078414Y-66893444D01*
X155078413Y-66893443D01*
X155078412Y-66893443D01*
X154876243Y-66827754D01*
X154876241Y-66827753D01*
X154876240Y-66827753D01*
X154714957Y-66802208D01*
X154666287Y-66794500D01*
X154453713Y-66794500D01*
X154405042Y-66802208D01*
X154243760Y-66827753D01*
X154041585Y-66893444D01*
X153852179Y-66989951D01*
X153680213Y-67114890D01*
X153529890Y-67265213D01*
X153404949Y-67437182D01*
X153400484Y-67445946D01*
X153352509Y-67496742D01*
X153284688Y-67513536D01*
X153218553Y-67490998D01*
X153179516Y-67445946D01*
X153175050Y-67437182D01*
X153050109Y-67265213D01*
X152899786Y-67114890D01*
X152727820Y-66989951D01*
X152538414Y-66893444D01*
X152538413Y-66893443D01*
X152538412Y-66893443D01*
X152336243Y-66827754D01*
X152336241Y-66827753D01*
X152336240Y-66827753D01*
X152174957Y-66802208D01*
X152126287Y-66794500D01*
X151913713Y-66794500D01*
X151865042Y-66802208D01*
X151703760Y-66827753D01*
X151501585Y-66893444D01*
X151312179Y-66989951D01*
X151140213Y-67114890D01*
X150989890Y-67265213D01*
X150864951Y-67437179D01*
X150768444Y-67626585D01*
X150702753Y-67828760D01*
X150669500Y-68038713D01*
X149306499Y-68038713D01*
X149306499Y-67247128D01*
X149300091Y-67187517D01*
X149298810Y-67184083D01*
X149249797Y-67052671D01*
X149249793Y-67052664D01*
X149163547Y-66937455D01*
X149163544Y-66937452D01*
X149048335Y-66851206D01*
X149048328Y-66851202D01*
X148913482Y-66800908D01*
X148913483Y-66800908D01*
X148853883Y-66794501D01*
X148853881Y-66794500D01*
X148853873Y-66794500D01*
X148853864Y-66794500D01*
X147058129Y-66794500D01*
X147058123Y-66794501D01*
X146998516Y-66800908D01*
X146863671Y-66851202D01*
X146863664Y-66851206D01*
X146748455Y-66937452D01*
X146748452Y-66937455D01*
X146662206Y-67052664D01*
X146662203Y-67052669D01*
X146613189Y-67184083D01*
X146571317Y-67240016D01*
X146505853Y-67264433D01*
X146437580Y-67249581D01*
X146409326Y-67228430D01*
X146295786Y-67114890D01*
X146123820Y-66989951D01*
X145934414Y-66893444D01*
X145934413Y-66893443D01*
X145934412Y-66893443D01*
X145732243Y-66827754D01*
X145732241Y-66827753D01*
X145732240Y-66827753D01*
X145570957Y-66802208D01*
X145522287Y-66794500D01*
X145309713Y-66794500D01*
X145261042Y-66802208D01*
X145099760Y-66827753D01*
X144897585Y-66893444D01*
X144708179Y-66989951D01*
X144536213Y-67114890D01*
X144385890Y-67265213D01*
X144260949Y-67437182D01*
X144256484Y-67445946D01*
X144208509Y-67496742D01*
X144140688Y-67513536D01*
X144074553Y-67490998D01*
X144035516Y-67445946D01*
X144031050Y-67437182D01*
X143906109Y-67265213D01*
X143755786Y-67114890D01*
X143583820Y-66989951D01*
X143394414Y-66893444D01*
X143394413Y-66893443D01*
X143394412Y-66893443D01*
X143192243Y-66827754D01*
X143192241Y-66827753D01*
X143192240Y-66827753D01*
X143030957Y-66802208D01*
X142982287Y-66794500D01*
X142769713Y-66794500D01*
X142721042Y-66802208D01*
X142559760Y-66827753D01*
X142357585Y-66893444D01*
X142168179Y-66989951D01*
X141996213Y-67114890D01*
X141845890Y-67265213D01*
X141720949Y-67437182D01*
X141716484Y-67445946D01*
X141668509Y-67496742D01*
X141600688Y-67513536D01*
X141534553Y-67490998D01*
X141495516Y-67445946D01*
X141491050Y-67437182D01*
X141366109Y-67265213D01*
X141215786Y-67114890D01*
X141043820Y-66989951D01*
X140854414Y-66893444D01*
X140854413Y-66893443D01*
X140854412Y-66893443D01*
X140652243Y-66827754D01*
X140652241Y-66827753D01*
X140652240Y-66827753D01*
X140490957Y-66802208D01*
X140442287Y-66794500D01*
X140229713Y-66794500D01*
X140181042Y-66802208D01*
X140019760Y-66827753D01*
X139817585Y-66893444D01*
X139628179Y-66989951D01*
X139456213Y-67114890D01*
X139305890Y-67265213D01*
X139180949Y-67437182D01*
X139176484Y-67445946D01*
X139128509Y-67496742D01*
X139060688Y-67513536D01*
X138994553Y-67490998D01*
X138955516Y-67445946D01*
X138951050Y-67437182D01*
X138826109Y-67265213D01*
X138675786Y-67114890D01*
X138503820Y-66989951D01*
X138314414Y-66893444D01*
X138314413Y-66893443D01*
X138314412Y-66893443D01*
X138112243Y-66827754D01*
X138112241Y-66827753D01*
X138112240Y-66827753D01*
X137950957Y-66802208D01*
X137902287Y-66794500D01*
X137689713Y-66794500D01*
X137641042Y-66802208D01*
X137479760Y-66827753D01*
X137277585Y-66893444D01*
X137088179Y-66989951D01*
X136916213Y-67114890D01*
X136765890Y-67265213D01*
X136640949Y-67437182D01*
X136636484Y-67445946D01*
X136588509Y-67496742D01*
X136520688Y-67513536D01*
X136454553Y-67490998D01*
X136415516Y-67445946D01*
X136411050Y-67437182D01*
X136286109Y-67265213D01*
X136135786Y-67114890D01*
X135963820Y-66989951D01*
X135774414Y-66893444D01*
X135774413Y-66893443D01*
X135774412Y-66893443D01*
X135572243Y-66827754D01*
X135572241Y-66827753D01*
X135572240Y-66827753D01*
X135410957Y-66802208D01*
X135362287Y-66794500D01*
X135149713Y-66794500D01*
X135101042Y-66802208D01*
X134939760Y-66827753D01*
X134737585Y-66893444D01*
X134548179Y-66989951D01*
X134376213Y-67114890D01*
X134225890Y-67265213D01*
X134100949Y-67437182D01*
X134096202Y-67446499D01*
X134048227Y-67497293D01*
X133980405Y-67514087D01*
X133914271Y-67491548D01*
X133875234Y-67446495D01*
X133870626Y-67437452D01*
X133831270Y-67383282D01*
X133831269Y-67383282D01*
X133198962Y-68015590D01*
X133181925Y-67952007D01*
X133116099Y-67837993D01*
X133023007Y-67744901D01*
X132908993Y-67679075D01*
X132845409Y-67662037D01*
X133477716Y-67029728D01*
X133423550Y-66990375D01*
X133234217Y-66893904D01*
X133032129Y-66828242D01*
X132822246Y-66795000D01*
X132609754Y-66795000D01*
X132399872Y-66828242D01*
X132399869Y-66828242D01*
X132197782Y-66893904D01*
X132008439Y-66990380D01*
X131954282Y-67029727D01*
X131954282Y-67029728D01*
X132586591Y-67662037D01*
X132523007Y-67679075D01*
X132408993Y-67744901D01*
X132315901Y-67837993D01*
X132250075Y-67952007D01*
X132233037Y-68015591D01*
X131600728Y-67383282D01*
X131600727Y-67383282D01*
X131561380Y-67437440D01*
X131561376Y-67437446D01*
X131556760Y-67446505D01*
X131508781Y-67497297D01*
X131440959Y-67514087D01*
X131374826Y-67491543D01*
X131335794Y-67446493D01*
X131331051Y-67437184D01*
X131331049Y-67437181D01*
X131331048Y-67437179D01*
X131206109Y-67265213D01*
X131055786Y-67114890D01*
X130883820Y-66989951D01*
X130694414Y-66893444D01*
X130694413Y-66893443D01*
X130694412Y-66893443D01*
X130492243Y-66827754D01*
X130492241Y-66827753D01*
X130492240Y-66827753D01*
X130330957Y-66802208D01*
X130282287Y-66794500D01*
X130069713Y-66794500D01*
X130021042Y-66802208D01*
X129859760Y-66827753D01*
X129657585Y-66893444D01*
X129468179Y-66989951D01*
X129296213Y-67114890D01*
X129145890Y-67265213D01*
X129020949Y-67437182D01*
X129016484Y-67445946D01*
X128968509Y-67496742D01*
X128900688Y-67513536D01*
X128834553Y-67490998D01*
X128795516Y-67445946D01*
X128791050Y-67437182D01*
X128666109Y-67265213D01*
X128515786Y-67114890D01*
X128343820Y-66989951D01*
X128154414Y-66893444D01*
X128154413Y-66893443D01*
X128154412Y-66893443D01*
X127952243Y-66827754D01*
X127952241Y-66827753D01*
X127952240Y-66827753D01*
X127790957Y-66802208D01*
X127742287Y-66794500D01*
X127529713Y-66794500D01*
X127481042Y-66802208D01*
X127319760Y-66827753D01*
X127117585Y-66893444D01*
X126928179Y-66989951D01*
X126756213Y-67114890D01*
X126605890Y-67265213D01*
X126480949Y-67437182D01*
X126476484Y-67445946D01*
X126428509Y-67496742D01*
X126360688Y-67513536D01*
X126294553Y-67490998D01*
X126255516Y-67445946D01*
X126251050Y-67437182D01*
X126126109Y-67265213D01*
X125975786Y-67114890D01*
X125803820Y-66989951D01*
X125614414Y-66893444D01*
X125614413Y-66893443D01*
X125614412Y-66893443D01*
X125412243Y-66827754D01*
X125412241Y-66827753D01*
X125412240Y-66827753D01*
X125250957Y-66802208D01*
X125202287Y-66794500D01*
X124989713Y-66794500D01*
X124941042Y-66802208D01*
X124779760Y-66827753D01*
X124577585Y-66893444D01*
X124388179Y-66989951D01*
X124216213Y-67114890D01*
X124065890Y-67265213D01*
X123940951Y-67437179D01*
X123844444Y-67626585D01*
X123778753Y-67828760D01*
X123745500Y-68038713D01*
X91180536Y-68038713D01*
X91232209Y-67949212D01*
X91325039Y-67725100D01*
X91387823Y-67490789D01*
X91419485Y-67250288D01*
X91419485Y-67007712D01*
X91417146Y-66989949D01*
X91410236Y-66937455D01*
X91387823Y-66767211D01*
X91325039Y-66532900D01*
X91232209Y-66308788D01*
X91110921Y-66098711D01*
X90963250Y-65906262D01*
X90963245Y-65906256D01*
X90791728Y-65734739D01*
X90791721Y-65734733D01*
X90737172Y-65692876D01*
X90695969Y-65636448D01*
X90691814Y-65566702D01*
X90726026Y-65505782D01*
X90787744Y-65473029D01*
X90812658Y-65470500D01*
X185446327Y-65470500D01*
X185475083Y-65478943D01*
G37*
%TD.AperFunction*%
%TD*%
M02*
