%TF.GenerationSoftware,KiCad,Pcbnew,9.0.1*%
%TF.CreationDate,2025-05-05T17:36:54+02:00*%
%TF.ProjectId,Geocachingbox,47656f63-6163-4686-996e-67626f782e6b,rev?*%
%TF.SameCoordinates,Original*%
%TF.FileFunction,Soldermask,Bot*%
%TF.FilePolarity,Negative*%
%FSLAX46Y46*%
G04 Gerber Fmt 4.6, Leading zero omitted, Abs format (unit mm)*
G04 Created by KiCad (PCBNEW 9.0.1) date 2025-05-05 17:36:54*
%MOMM*%
%LPD*%
G01*
G04 APERTURE LIST*
%ADD10R,1.700000X1.700000*%
%ADD11C,1.700000*%
%ADD12R,1.980000X3.960000*%
%ADD13O,1.980000X3.960000*%
%ADD14C,3.200000*%
%ADD15R,3.960000X1.980000*%
%ADD16O,3.960000X1.980000*%
%ADD17R,2.000000X1.905000*%
%ADD18O,2.000000X1.905000*%
G04 APERTURE END LIST*
D10*
%TO.C,J9*%
X134260000Y-110000000D03*
D11*
X136800000Y-110000000D03*
X139340000Y-110000000D03*
%TD*%
D12*
%TO.C,3BAT1*%
X112500000Y-112235000D03*
D13*
X107500000Y-112235000D03*
%TD*%
D10*
%TO.C,J3*%
X169800000Y-113890000D03*
D11*
X169800000Y-116430000D03*
X167260000Y-113890000D03*
X167260000Y-116430000D03*
X164720000Y-113890000D03*
X164720000Y-116430000D03*
X162180000Y-113890000D03*
X162180000Y-116430000D03*
X159640000Y-113890000D03*
X159640000Y-116430000D03*
X157100000Y-113890000D03*
X157100000Y-116430000D03*
%TD*%
D10*
%TO.C,J2*%
X147956000Y-68145000D03*
D11*
X147956000Y-70685000D03*
X145416000Y-68145000D03*
X145416000Y-70685000D03*
X142876000Y-68145000D03*
X142876000Y-70685000D03*
X140336000Y-68145000D03*
X140336000Y-70685000D03*
X137796000Y-68145000D03*
X137796000Y-70685000D03*
X135256000Y-68145000D03*
X135256000Y-70685000D03*
X132716000Y-68145000D03*
X132716000Y-70685000D03*
X130176000Y-68145000D03*
X130176000Y-70685000D03*
X127636000Y-68145000D03*
X127636000Y-70685000D03*
X125096000Y-68145000D03*
X125096000Y-70685000D03*
%TD*%
D14*
%TO.C,H2*%
X89568985Y-67129000D03*
%TD*%
D10*
%TO.C,J10*%
X142800000Y-79800000D03*
D11*
X142800000Y-82340000D03*
X142800000Y-84880000D03*
X142800000Y-87420000D03*
%TD*%
D10*
%TO.C,J7*%
X169120000Y-96235000D03*
D11*
X166580000Y-96235000D03*
X164040000Y-96235000D03*
X161500000Y-96235000D03*
X158960000Y-96235000D03*
X156420000Y-96235000D03*
%TD*%
D10*
%TO.C,J5*%
X169160000Y-103095000D03*
D11*
X166620000Y-103095000D03*
X164080000Y-103095000D03*
X161540000Y-103095000D03*
X159000000Y-103095000D03*
X156460000Y-103095000D03*
X153920000Y-103095000D03*
X151380000Y-103095000D03*
%TD*%
D15*
%TO.C,J8*%
X97000000Y-88000000D03*
D16*
X97000000Y-83000000D03*
%TD*%
D17*
%TO.C,Q1*%
X109945000Y-87740000D03*
D18*
X109945000Y-85200000D03*
X109945000Y-82660000D03*
%TD*%
D10*
%TO.C,J6*%
X169160000Y-80235000D03*
D11*
X166620000Y-80235000D03*
X164080000Y-80235000D03*
X161540000Y-80235000D03*
X159000000Y-80235000D03*
X156460000Y-80235000D03*
X153920000Y-80235000D03*
X151380000Y-80235000D03*
%TD*%
D10*
%TO.C,J13*%
X135000000Y-79800000D03*
D11*
X135000000Y-82340000D03*
X135000000Y-84880000D03*
X135000000Y-87420000D03*
%TD*%
D10*
%TO.C,J4*%
X152019000Y-113890000D03*
D11*
X152019000Y-116430000D03*
X149479000Y-113890000D03*
X149479000Y-116430000D03*
X146939000Y-113890000D03*
X146939000Y-116430000D03*
X144399000Y-113890000D03*
X144399000Y-116430000D03*
X141859000Y-113890000D03*
X141859000Y-116430000D03*
X139319000Y-113890000D03*
X139319000Y-116430000D03*
X136779000Y-113890000D03*
X136779000Y-116430000D03*
X134239000Y-113890000D03*
X134239000Y-116430000D03*
%TD*%
D14*
%TO.C,H1*%
X89568000Y-117446000D03*
%TD*%
D10*
%TO.C,J1*%
X169800000Y-68145000D03*
D11*
X169800000Y-70685000D03*
X167260000Y-68145000D03*
X167260000Y-70685000D03*
X164720000Y-68145000D03*
X164720000Y-70685000D03*
X162180000Y-68145000D03*
X162180000Y-70685000D03*
X159640000Y-68145000D03*
X159640000Y-70685000D03*
X157100000Y-68145000D03*
X157100000Y-70685000D03*
X154560000Y-68145000D03*
X154560000Y-70685000D03*
X152020000Y-68145000D03*
X152020000Y-70685000D03*
%TD*%
D10*
%TO.C,J11*%
X169040000Y-84235000D03*
D11*
X166500000Y-84235000D03*
X163960000Y-84235000D03*
X161420000Y-84235000D03*
X158880000Y-84235000D03*
%TD*%
D10*
%TO.C,J12*%
X167500000Y-109735000D03*
D11*
X164960000Y-109735000D03*
X162420000Y-109735000D03*
X159880000Y-109735000D03*
X157340000Y-109735000D03*
%TD*%
D14*
%TO.C,H4*%
X186690000Y-67129000D03*
%TD*%
%TO.C,H3*%
X186680000Y-117446000D03*
%TD*%
D10*
%TO.C,J14*%
X138800000Y-79760000D03*
D11*
X138800000Y-82300000D03*
X138800000Y-84840000D03*
X138800000Y-87380000D03*
X138800000Y-89920000D03*
X138800000Y-92460000D03*
X138800000Y-95000000D03*
%TD*%
M02*
