%TF.GenerationSoftware,KiCad,Pcbnew,9.0.1*%
%TF.CreationDate,2025-05-05T17:36:54+02:00*%
%TF.ProjectId,Geocachingbox,47656f63-6163-4686-996e-67626f782e6b,rev?*%
%TF.SameCoordinates,Original*%
%TF.FileFunction,Copper,L1,Top*%
%TF.FilePolarity,Positive*%
%FSLAX46Y46*%
G04 Gerber Fmt 4.6, Leading zero omitted, Abs format (unit mm)*
G04 Created by KiCad (PCBNEW 9.0.1) date 2025-05-05 17:36:54*
%MOMM*%
%LPD*%
G01*
G04 APERTURE LIST*
G04 Aperture macros list*
%AMRoundRect*
0 Rectangle with rounded corners*
0 $1 Rounding radius*
0 $2 $3 $4 $5 $6 $7 $8 $9 X,Y pos of 4 corners*
0 Add a 4 corners polygon primitive as box body*
4,1,4,$2,$3,$4,$5,$6,$7,$8,$9,$2,$3,0*
0 Add four circle primitives for the rounded corners*
1,1,$1+$1,$2,$3*
1,1,$1+$1,$4,$5*
1,1,$1+$1,$6,$7*
1,1,$1+$1,$8,$9*
0 Add four rect primitives between the rounded corners*
20,1,$1+$1,$2,$3,$4,$5,0*
20,1,$1+$1,$4,$5,$6,$7,0*
20,1,$1+$1,$6,$7,$8,$9,0*
20,1,$1+$1,$8,$9,$2,$3,0*%
G04 Aperture macros list end*
%TA.AperFunction,SMDPad,CuDef*%
%ADD10RoundRect,0.225000X-0.375000X0.225000X-0.375000X-0.225000X0.375000X-0.225000X0.375000X0.225000X0*%
%TD*%
%TA.AperFunction,ComponentPad*%
%ADD11R,1.700000X1.700000*%
%TD*%
%TA.AperFunction,ComponentPad*%
%ADD12C,1.700000*%
%TD*%
%TA.AperFunction,SMDPad,CuDef*%
%ADD13RoundRect,0.250000X0.650000X-1.500000X0.650000X1.500000X-0.650000X1.500000X-0.650000X-1.500000X0*%
%TD*%
%TA.AperFunction,SMDPad,CuDef*%
%ADD14RoundRect,0.250000X0.325000X0.650000X-0.325000X0.650000X-0.325000X-0.650000X0.325000X-0.650000X0*%
%TD*%
%TA.AperFunction,ComponentPad*%
%ADD15R,1.980000X3.960000*%
%TD*%
%TA.AperFunction,ComponentPad*%
%ADD16O,1.980000X3.960000*%
%TD*%
%TA.AperFunction,SMDPad,CuDef*%
%ADD17R,1.550000X1.300000*%
%TD*%
%TA.AperFunction,ComponentPad*%
%ADD18R,3.960000X1.980000*%
%TD*%
%TA.AperFunction,ComponentPad*%
%ADD19O,3.960000X1.980000*%
%TD*%
%TA.AperFunction,ComponentPad*%
%ADD20R,2.000000X1.905000*%
%TD*%
%TA.AperFunction,ComponentPad*%
%ADD21O,2.000000X1.905000*%
%TD*%
%TA.AperFunction,SMDPad,CuDef*%
%ADD22RoundRect,0.250000X-0.450000X0.350000X-0.450000X-0.350000X0.450000X-0.350000X0.450000X0.350000X0*%
%TD*%
%TA.AperFunction,SMDPad,CuDef*%
%ADD23RoundRect,0.250000X0.450000X-0.350000X0.450000X0.350000X-0.450000X0.350000X-0.450000X-0.350000X0*%
%TD*%
%TA.AperFunction,SMDPad,CuDef*%
%ADD24RoundRect,0.250000X-0.650000X0.325000X-0.650000X-0.325000X0.650000X-0.325000X0.650000X0.325000X0*%
%TD*%
%TA.AperFunction,SMDPad,CuDef*%
%ADD25R,2.054151X0.953389*%
%TD*%
%TA.AperFunction,SMDPad,CuDef*%
%ADD26R,2.054151X3.212132*%
%TD*%
%TA.AperFunction,SMDPad,CuDef*%
%ADD27RoundRect,0.250000X0.350000X0.450000X-0.350000X0.450000X-0.350000X-0.450000X0.350000X-0.450000X0*%
%TD*%
%TA.AperFunction,SMDPad,CuDef*%
%ADD28RoundRect,0.250000X0.650000X-0.325000X0.650000X0.325000X-0.650000X0.325000X-0.650000X-0.325000X0*%
%TD*%
%TA.AperFunction,SMDPad,CuDef*%
%ADD29RoundRect,0.225000X0.375000X-0.225000X0.375000X0.225000X-0.375000X0.225000X-0.375000X-0.225000X0*%
%TD*%
%TA.AperFunction,SMDPad,CuDef*%
%ADD30RoundRect,0.250000X0.350000X-0.850000X0.350000X0.850000X-0.350000X0.850000X-0.350000X-0.850000X0*%
%TD*%
%TA.AperFunction,SMDPad,CuDef*%
%ADD31RoundRect,0.249997X2.650003X-2.950003X2.650003X2.950003X-2.650003X2.950003X-2.650003X-2.950003X0*%
%TD*%
%TA.AperFunction,ViaPad*%
%ADD32C,0.600000*%
%TD*%
%TA.AperFunction,Conductor*%
%ADD33C,0.300000*%
%TD*%
%TA.AperFunction,Conductor*%
%ADD34C,0.400000*%
%TD*%
%TA.AperFunction,Conductor*%
%ADD35C,0.450000*%
%TD*%
G04 APERTURE END LIST*
D10*
%TO.P,D10,1,K*%
%TO.N,Line_3*%
X203100000Y-99430000D03*
%TO.P,D10,2,A*%
%TO.N,Net-(D10-A)*%
X203100000Y-102730000D03*
%TD*%
D11*
%TO.P,J9,1,Pin_1*%
%TO.N,Tilt_Sens*%
X134260000Y-110000000D03*
D12*
%TO.P,J9,2,Pin_2*%
%TO.N,GND*%
X136800000Y-110000000D03*
%TO.P,J9,3,Pin_3*%
%TO.N,+3.3V*%
X139340000Y-110000000D03*
%TD*%
D13*
%TO.P,D11,1,K*%
%TO.N,SYS_5V0*%
X130400000Y-116300000D03*
%TO.P,D11,2,A*%
%TO.N,+5V*%
X130400000Y-111300000D03*
%TD*%
D14*
%TO.P,C3,1*%
%TO.N,+5V*%
X128750000Y-100900000D03*
%TO.P,C3,2*%
%TO.N,GND*%
X125800000Y-100900000D03*
%TD*%
D15*
%TO.P,3BAT1,1,+*%
%TO.N,+VBATT*%
X112500000Y-112235000D03*
D16*
%TO.P,3BAT1,2,-*%
%TO.N,GND*%
X107500000Y-112235000D03*
%TD*%
D11*
%TO.P,J3,1,Pin_1*%
%TO.N,unconnected-(J3-Pin_1-Pad1)*%
X169800000Y-113890000D03*
D12*
%TO.P,J3,2,Pin_2*%
%TO.N,ADC_X*%
X169800000Y-116430000D03*
%TO.P,J3,3,Pin_3*%
%TO.N,unconnected-(J3-Pin_3-Pad3)*%
X167260000Y-113890000D03*
%TO.P,J3,4,Pin_4*%
%TO.N,ADC_Y*%
X167260000Y-116430000D03*
%TO.P,J3,5,Pin_5*%
%TO.N,unconnected-(J3-Pin_5-Pad5)*%
X164720000Y-113890000D03*
%TO.P,J3,6,Pin_6*%
%TO.N,unconnected-(J3-Pin_6-Pad6)*%
X164720000Y-116430000D03*
%TO.P,J3,7,Pin_7*%
%TO.N,unconnected-(J3-Pin_7-Pad7)*%
X162180000Y-113890000D03*
%TO.P,J3,8,Pin_8*%
%TO.N,unconnected-(J3-Pin_8-Pad8)*%
X162180000Y-116430000D03*
%TO.P,J3,9,Pin_9*%
%TO.N,unconnected-(J3-Pin_9-Pad9)*%
X159640000Y-113890000D03*
%TO.P,J3,10,Pin_10*%
%TO.N,unconnected-(J3-Pin_10-Pad10)*%
X159640000Y-116430000D03*
%TO.P,J3,11,Pin_11*%
%TO.N,unconnected-(J3-Pin_11-Pad11)*%
X157100000Y-113890000D03*
%TO.P,J3,12,Pin_12*%
%TO.N,unconnected-(J3-Pin_12-Pad12)*%
X157100000Y-116430000D03*
%TD*%
D17*
%TO.P,SW3,1,1*%
%TO.N,Net-(D8-A)*%
X203020000Y-78430000D03*
X210980000Y-78430000D03*
%TO.P,SW3,2,2*%
%TO.N,Column_3*%
X203020000Y-82930000D03*
X210980000Y-82930000D03*
%TD*%
%TO.P,SW8,1,1*%
%TO.N,Net-(D9-A)*%
X191730000Y-104980000D03*
X199690000Y-104980000D03*
%TO.P,SW8,2,2*%
%TO.N,Column_2*%
X191730000Y-109480000D03*
X199690000Y-109480000D03*
%TD*%
D11*
%TO.P,J2,1,Pin_1*%
%TO.N,unconnected-(J2-Pin_1-Pad1)*%
X147956000Y-68145000D03*
D12*
%TO.P,J2,2,Pin_2*%
%TO.N,unconnected-(J2-Pin_2-Pad2)*%
X147956000Y-70685000D03*
%TO.P,J2,3,Pin_3*%
%TO.N,unconnected-(J2-Pin_3-Pad3)*%
X145416000Y-68145000D03*
%TO.P,J2,4,Pin_4*%
%TO.N,unconnected-(J2-Pin_4-Pad4)*%
X145416000Y-70685000D03*
%TO.P,J2,5,Pin_5*%
%TO.N,Column_3*%
X142876000Y-68145000D03*
%TO.P,J2,6,Pin_6*%
%TO.N,Line_3*%
X142876000Y-70685000D03*
%TO.P,J2,7,Pin_7*%
%TO.N,unconnected-(J2-Pin_7-Pad7)*%
X140336000Y-68145000D03*
%TO.P,J2,8,Pin_8*%
%TO.N,Line_1*%
X140336000Y-70685000D03*
%TO.P,J2,9,Pin_9*%
%TO.N,unconnected-(J2-Pin_9-Pad9)*%
X137796000Y-68145000D03*
%TO.P,J2,10,Pin_10*%
%TO.N,Line_2*%
X137796000Y-70685000D03*
%TO.P,J2,11,Pin_11*%
%TO.N,unconnected-(J2-Pin_11-Pad11)*%
X135256000Y-68145000D03*
%TO.P,J2,12,Pin_12*%
%TO.N,unconnected-(J2-Pin_12-Pad12)*%
X135256000Y-70685000D03*
%TO.P,J2,13,Pin_13*%
%TO.N,GND*%
X132716000Y-68145000D03*
%TO.P,J2,14,Pin_14*%
%TO.N,unconnected-(J2-Pin_14-Pad14)*%
X132716000Y-70685000D03*
%TO.P,J2,15,Pin_15*%
%TO.N,unconnected-(J2-Pin_15-Pad15)*%
X130176000Y-68145000D03*
%TO.P,J2,16,Pin_16*%
%TO.N,unconnected-(J2-Pin_16-Pad16)*%
X130176000Y-70685000D03*
%TO.P,J2,17,Pin_17*%
%TO.N,unconnected-(J2-Pin_17-Pad17)*%
X127636000Y-68145000D03*
%TO.P,J2,18,Pin_18*%
%TO.N,unconnected-(J2-Pin_18-Pad18)*%
X127636000Y-70685000D03*
%TO.P,J2,19,Pin_19*%
%TO.N,unconnected-(J2-Pin_19-Pad19)*%
X125096000Y-68145000D03*
%TO.P,J2,20,Pin_20*%
%TO.N,unconnected-(J2-Pin_20-Pad20)*%
X125096000Y-70685000D03*
%TD*%
D11*
%TO.P,J10,1,Pin_1*%
%TO.N,+3.3V*%
X142800000Y-79800000D03*
D12*
%TO.P,J10,2,Pin_2*%
%TO.N,SDA*%
X142800000Y-82340000D03*
%TO.P,J10,3,Pin_3*%
%TO.N,SCL*%
X142800000Y-84880000D03*
%TO.P,J10,4,Pin_4*%
%TO.N,GND*%
X142800000Y-87420000D03*
%TD*%
D11*
%TO.P,J7,1,Pin_1*%
%TO.N,GND*%
X169120000Y-96235000D03*
D12*
%TO.P,J7,2,Pin_2*%
%TO.N,+3.3V*%
X166580000Y-96235000D03*
%TO.P,J7,3,Pin_3*%
%TO.N,MISO*%
X164040000Y-96235000D03*
%TO.P,J7,4,Pin_4*%
%TO.N,MOSI*%
X161500000Y-96235000D03*
%TO.P,J7,5,Pin_5*%
%TO.N,SCK*%
X158960000Y-96235000D03*
%TO.P,J7,6,Pin_6*%
%TO.N,CS*%
X156420000Y-96235000D03*
%TD*%
D11*
%TO.P,J5,1,Pin_1*%
%TO.N,GND*%
X169160000Y-103095000D03*
D12*
%TO.P,J5,2,Pin_2*%
%TO.N,+3.3V*%
X166620000Y-103095000D03*
%TO.P,J5,3,Pin_3*%
%TO.N,MISO*%
X164080000Y-103095000D03*
%TO.P,J5,4,Pin_4*%
%TO.N,MOSI*%
X161540000Y-103095000D03*
%TO.P,J5,5,Pin_5*%
%TO.N,SCK*%
X159000000Y-103095000D03*
%TO.P,J5,6,Pin_6*%
%TO.N,CS*%
X156460000Y-103095000D03*
%TO.P,J5,7,Pin_7*%
%TO.N,unconnected-(J5-Pin_7-Pad7)*%
X153920000Y-103095000D03*
%TO.P,J5,8,Pin_8*%
%TO.N,unconnected-(J5-Pin_8-Pad8)*%
X151380000Y-103095000D03*
%TD*%
D18*
%TO.P,J8,1,Pin_1*%
%TO.N,+6V*%
X97000000Y-88000000D03*
D19*
%TO.P,J8,2,Pin_2*%
%TO.N,Net-(D1-A)*%
X97000000Y-83000000D03*
%TD*%
D10*
%TO.P,D6,1,K*%
%TO.N,Line_2*%
X203050000Y-86080000D03*
%TO.P,D6,2,A*%
%TO.N,Net-(D6-A)*%
X203050000Y-89380000D03*
%TD*%
%TO.P,D4,1,K*%
%TO.N,Line_2*%
X191750000Y-86080000D03*
%TO.P,D4,2,A*%
%TO.N,Net-(D4-A)*%
X191750000Y-89380000D03*
%TD*%
D20*
%TO.P,Q1,1*%
%TO.N,GND*%
X109945000Y-87740000D03*
D21*
%TO.P,Q1,2*%
%TO.N,Net-(Q1-Pad2)*%
X109945000Y-85200000D03*
%TO.P,Q1,3*%
%TO.N,Net-(D1-A)*%
X109945000Y-82660000D03*
%TD*%
D10*
%TO.P,D7,1,K*%
%TO.N,Line_3*%
X180550000Y-99430000D03*
%TO.P,D7,2,A*%
%TO.N,Net-(D7-A)*%
X180550000Y-102730000D03*
%TD*%
D17*
%TO.P,SW6,1,1*%
%TO.N,Net-(D6-A)*%
X203010000Y-91630000D03*
X210970000Y-91630000D03*
%TO.P,SW6,2,2*%
%TO.N,Column_3*%
X203010000Y-96130000D03*
X210970000Y-96130000D03*
%TD*%
%TO.P,SW5,1,1*%
%TO.N,Net-(D4-A)*%
X191710000Y-91630000D03*
X199670000Y-91630000D03*
%TO.P,SW5,2,2*%
%TO.N,Column_2*%
X191710000Y-96130000D03*
X199670000Y-96130000D03*
%TD*%
%TO.P,SW7,1,1*%
%TO.N,Net-(D7-A)*%
X180420000Y-104980000D03*
X188380000Y-104980000D03*
%TO.P,SW7,2,2*%
%TO.N,Column_1*%
X180420000Y-109480000D03*
X188380000Y-109480000D03*
%TD*%
D10*
%TO.P,D8,1,K*%
%TO.N,Line_1*%
X203100000Y-72830000D03*
%TO.P,D8,2,A*%
%TO.N,Net-(D8-A)*%
X203100000Y-76130000D03*
%TD*%
D22*
%TO.P,R3,1*%
%TO.N,Net-(U3-ADJ)*%
X91590000Y-101575000D03*
%TO.P,R3,2*%
%TO.N,GND*%
X91590000Y-103575000D03*
%TD*%
D23*
%TO.P,R5,1*%
%TO.N,Net-(U3-ADJ)*%
X91590000Y-99575000D03*
%TO.P,R5,2*%
%TO.N,Net-(R4-Pad2)*%
X91590000Y-97575000D03*
%TD*%
D10*
%TO.P,D9,1,K*%
%TO.N,Line_3*%
X191800000Y-99430000D03*
%TO.P,D9,2,A*%
%TO.N,Net-(D9-A)*%
X191800000Y-102730000D03*
%TD*%
%TO.P,D5,1,K*%
%TO.N,Line_1*%
X191800000Y-72830000D03*
%TO.P,D5,2,A*%
%TO.N,Net-(D5-A)*%
X191800000Y-76130000D03*
%TD*%
D11*
%TO.P,J6,1,Pin_1*%
%TO.N,GND*%
X169160000Y-80235000D03*
D12*
%TO.P,J6,2,Pin_2*%
%TO.N,+5V*%
X166620000Y-80235000D03*
%TO.P,J6,3,Pin_3*%
%TO.N,SDA*%
X164080000Y-80235000D03*
%TO.P,J6,4,Pin_4*%
%TO.N,SCL*%
X161540000Y-80235000D03*
%TO.P,J6,5,Pin_5*%
%TO.N,TX*%
X159000000Y-80235000D03*
%TO.P,J6,6,Pin_6*%
%TO.N,RX*%
X156460000Y-80235000D03*
%TO.P,J6,7,Pin_7*%
%TO.N,unconnected-(J6-Pin_7-Pad7)*%
X153920000Y-80235000D03*
%TO.P,J6,8,Pin_8*%
%TO.N,unconnected-(J6-Pin_8-Pad8)*%
X151380000Y-80235000D03*
%TD*%
D11*
%TO.P,J13,1,Pin_1*%
%TO.N,GND*%
X135000000Y-79800000D03*
D12*
%TO.P,J13,2,Pin_2*%
%TO.N,+5V*%
X135000000Y-82340000D03*
%TO.P,J13,3,Pin_3*%
%TO.N,SDA*%
X135000000Y-84880000D03*
%TO.P,J13,4,Pin_4*%
%TO.N,SCL*%
X135000000Y-87420000D03*
%TD*%
D17*
%TO.P,SW4,1,1*%
%TO.N,Net-(D3-A)*%
X180400000Y-91630000D03*
X188360000Y-91630000D03*
%TO.P,SW4,2,2*%
%TO.N,Column_1*%
X180400000Y-96130000D03*
X188360000Y-96130000D03*
%TD*%
%TO.P,SW9,1,1*%
%TO.N,Net-(D10-A)*%
X203030000Y-104980000D03*
X210990000Y-104980000D03*
%TO.P,SW9,2,2*%
%TO.N,Column_3*%
X203030000Y-109480000D03*
X210990000Y-109480000D03*
%TD*%
D11*
%TO.P,J4,1,Pin_1*%
%TO.N,unconnected-(J4-Pin_1-Pad1)*%
X152019000Y-113890000D03*
D12*
%TO.P,J4,2,Pin_2*%
%TO.N,unconnected-(J4-Pin_2-Pad2)*%
X152019000Y-116430000D03*
%TO.P,J4,3,Pin_3*%
%TO.N,unconnected-(J4-Pin_3-Pad3)*%
X149479000Y-113890000D03*
%TO.P,J4,4,Pin_4*%
%TO.N,GND*%
X149479000Y-116430000D03*
%TO.P,J4,5,Pin_5*%
%TO.N,unconnected-(J4-Pin_5-Pad5)*%
X146939000Y-113890000D03*
%TO.P,J4,6,Pin_6*%
%TO.N,GND*%
X146939000Y-116430000D03*
%TO.P,J4,7,Pin_7*%
%TO.N,unconnected-(J4-Pin_7-Pad7)*%
X144399000Y-113890000D03*
%TO.P,J4,8,Pin_8*%
%TO.N,SYS_5V0*%
X144399000Y-116430000D03*
%TO.P,J4,9,Pin_9*%
%TO.N,unconnected-(J4-Pin_9-Pad9)*%
X141859000Y-113890000D03*
%TO.P,J4,10,Pin_10*%
%TO.N,+3.3V*%
X141859000Y-116430000D03*
%TO.P,J4,11,Pin_11*%
%TO.N,unconnected-(J4-Pin_11-Pad11)*%
X139319000Y-113890000D03*
%TO.P,J4,12,Pin_12*%
%TO.N,unconnected-(J4-Pin_12-Pad12)*%
X139319000Y-116430000D03*
%TO.P,J4,13,Pin_13*%
%TO.N,unconnected-(J4-Pin_13-Pad13)*%
X136779000Y-113890000D03*
%TO.P,J4,14,Pin_14*%
%TO.N,unconnected-(J4-Pin_14-Pad14)*%
X136779000Y-116430000D03*
%TO.P,J4,15,Pin_15*%
%TO.N,Tilt_Sens*%
X134239000Y-113890000D03*
%TO.P,J4,16,Pin_16*%
%TO.N,unconnected-(J4-Pin_16-Pad16)*%
X134239000Y-116430000D03*
%TD*%
D11*
%TO.P,J1,1,Pin_1*%
%TO.N,unconnected-(J1-Pin_1-Pad1)*%
X169800000Y-68145000D03*
D12*
%TO.P,J1,2,Pin_2*%
%TO.N,unconnected-(J1-Pin_2-Pad2)*%
X169800000Y-70685000D03*
%TO.P,J1,3,Pin_3*%
%TO.N,unconnected-(J1-Pin_3-Pad3)*%
X167260000Y-68145000D03*
%TO.P,J1,4,Pin_4*%
%TO.N,unconnected-(J1-Pin_4-Pad4)*%
X167260000Y-70685000D03*
%TO.P,J1,5,Pin_5*%
%TO.N,Column_1*%
X164720000Y-68145000D03*
%TO.P,J1,6,Pin_6*%
%TO.N,unconnected-(J1-Pin_6-Pad6)*%
X164720000Y-70685000D03*
%TO.P,J1,7,Pin_7*%
%TO.N,unconnected-(J1-Pin_7-Pad7)*%
X162180000Y-68145000D03*
%TO.P,J1,8,Pin_8*%
%TO.N,unconnected-(J1-Pin_8-Pad8)*%
X162180000Y-70685000D03*
%TO.P,J1,9,Pin_9*%
%TO.N,Column_2*%
X159640000Y-68145000D03*
%TO.P,J1,10,Pin_10*%
%TO.N,unconnected-(J1-Pin_10-Pad10)*%
X159640000Y-70685000D03*
%TO.P,J1,11,Pin_11*%
%TO.N,PWM_Mosfet*%
X157100000Y-68145000D03*
%TO.P,J1,12,Pin_12*%
%TO.N,unconnected-(J1-Pin_12-Pad12)*%
X157100000Y-70685000D03*
%TO.P,J1,13,Pin_13*%
%TO.N,unconnected-(J1-Pin_13-Pad13)*%
X154560000Y-68145000D03*
%TO.P,J1,14,Pin_14*%
%TO.N,unconnected-(J1-Pin_14-Pad14)*%
X154560000Y-70685000D03*
%TO.P,J1,15,Pin_15*%
%TO.N,unconnected-(J1-Pin_15-Pad15)*%
X152020000Y-68145000D03*
%TO.P,J1,16,Pin_16*%
%TO.N,unconnected-(J1-Pin_16-Pad16)*%
X152020000Y-70685000D03*
%TD*%
D17*
%TO.P,SW1,1,1*%
%TO.N,Net-(D2-A)*%
X180410000Y-78430000D03*
X188370000Y-78430000D03*
%TO.P,SW1,2,2*%
%TO.N,Column_1*%
X180410000Y-82930000D03*
X188370000Y-82930000D03*
%TD*%
D24*
%TO.P,C2,1*%
%TO.N,+6V*%
X101800000Y-92600000D03*
%TO.P,C2,2*%
%TO.N,GND*%
X101800000Y-95550000D03*
%TD*%
D22*
%TO.P,R4,1*%
%TO.N,+6V*%
X91590000Y-93575000D03*
%TO.P,R4,2*%
%TO.N,Net-(R4-Pad2)*%
X91590000Y-95575000D03*
%TD*%
D25*
%TO.P,U5,1,GND*%
%TO.N,GND*%
X124100000Y-103600000D03*
%TO.P,U5,2,OUT*%
%TO.N,+5V*%
X124100000Y-105900000D03*
%TO.P,U5,3,IN*%
%TO.N,+VBATT*%
X124100000Y-108200000D03*
D26*
%TO.P,U5,4,OUT*%
%TO.N,+5V*%
X130450000Y-105900000D03*
%TD*%
D27*
%TO.P,R2,1*%
%TO.N,+3.3V*%
X166250000Y-99735000D03*
%TO.P,R2,2*%
%TO.N,MISO*%
X164250000Y-99735000D03*
%TD*%
D11*
%TO.P,J11,1,Pin_1*%
%TO.N,+3.3V*%
X169040000Y-84235000D03*
D12*
%TO.P,J11,2,Pin_2*%
%TO.N,GND*%
X166500000Y-84235000D03*
%TO.P,J11,3,Pin_3*%
%TO.N,RX*%
X163960000Y-84235000D03*
%TO.P,J11,4,Pin_4*%
%TO.N,TX*%
X161420000Y-84235000D03*
%TO.P,J11,5,Pin_5*%
%TO.N,unconnected-(J11-Pin_5-Pad5)*%
X158880000Y-84235000D03*
%TD*%
D10*
%TO.P,D2,1,K*%
%TO.N,Line_1*%
X180500000Y-72830000D03*
%TO.P,D2,2,A*%
%TO.N,Net-(D2-A)*%
X180500000Y-76130000D03*
%TD*%
D28*
%TO.P,C1,1*%
%TO.N,+VBATT*%
X120775000Y-107375000D03*
%TO.P,C1,2*%
%TO.N,GND*%
X120775000Y-104425000D03*
%TD*%
D11*
%TO.P,J12,1,Pin_1*%
%TO.N,GND*%
X167500000Y-109735000D03*
D12*
%TO.P,J12,2,Pin_2*%
%TO.N,+3.3V*%
X164960000Y-109735000D03*
%TO.P,J12,3,Pin_3*%
%TO.N,ADC_X*%
X162420000Y-109735000D03*
%TO.P,J12,4,Pin_4*%
%TO.N,ADC_Y*%
X159880000Y-109735000D03*
%TO.P,J12,5,Pin_5*%
%TO.N,unconnected-(J12-Pin_5-Pad5)*%
X157340000Y-109735000D03*
%TD*%
D29*
%TO.P,D1,1,K*%
%TO.N,+6V*%
X105000000Y-86850000D03*
%TO.P,D1,2,A*%
%TO.N,Net-(D1-A)*%
X105000000Y-83550000D03*
%TD*%
D11*
%TO.P,J14,1,Pin_1*%
%TO.N,unconnected-(J14-Pin_1-Pad1)*%
X138800000Y-79760000D03*
D12*
%TO.P,J14,2,Pin_2*%
%TO.N,GND*%
X138800000Y-82300000D03*
%TO.P,J14,3,Pin_3*%
%TO.N,+3.3V*%
X138800000Y-84840000D03*
%TO.P,J14,4,Pin_4*%
%TO.N,SCL*%
X138800000Y-87380000D03*
%TO.P,J14,5,Pin_5*%
%TO.N,SDA*%
X138800000Y-89920000D03*
%TO.P,J14,6,Pin_6*%
%TO.N,unconnected-(J14-Pin_6-Pad6)*%
X138800000Y-92460000D03*
%TO.P,J14,7,Pin_7*%
%TO.N,unconnected-(J14-Pin_7-Pad7)*%
X138800000Y-95000000D03*
%TD*%
D30*
%TO.P,U3,1,ADJ*%
%TO.N,Net-(U3-ADJ)*%
X94382500Y-101275000D03*
D31*
%TO.P,U3,2,VO*%
%TO.N,+6V*%
X96662500Y-94975000D03*
D30*
%TO.P,U3,3,VI*%
%TO.N,+VBATT*%
X98942500Y-101275000D03*
%TD*%
D17*
%TO.P,SW2,1,1*%
%TO.N,Net-(D5-A)*%
X191720000Y-78430000D03*
X199680000Y-78430000D03*
%TO.P,SW2,2,2*%
%TO.N,Column_2*%
X191720000Y-82930000D03*
X199680000Y-82930000D03*
%TD*%
D27*
%TO.P,R1,1*%
%TO.N,PWM_Mosfet*%
X114800000Y-85200000D03*
%TO.P,R1,2*%
%TO.N,Net-(Q1-Pad2)*%
X112800000Y-85200000D03*
%TD*%
D28*
%TO.P,C4,1*%
%TO.N,+VBATT*%
X101590000Y-102050000D03*
%TO.P,C4,2*%
%TO.N,GND*%
X101590000Y-99100000D03*
%TD*%
D10*
%TO.P,D3,1,K*%
%TO.N,Line_2*%
X180450000Y-86080000D03*
%TO.P,D3,2,A*%
%TO.N,Net-(D3-A)*%
X180450000Y-89380000D03*
%TD*%
D32*
%TO.N,GND*%
X93500000Y-103600000D03*
X101590000Y-97400000D03*
X122400000Y-103800000D03*
%TO.N,Column_1*%
X188360000Y-100400000D03*
X175750000Y-75500000D03*
X175750000Y-73000000D03*
X188370000Y-85120000D03*
X188370000Y-87120000D03*
X188360000Y-98300000D03*
%TO.N,Column_2*%
X199900000Y-73600000D03*
X199700000Y-100400000D03*
X199700000Y-98300000D03*
X199680000Y-85100000D03*
X199900000Y-70900000D03*
X199680000Y-87180000D03*
%TO.N,+3.3V*%
X146900000Y-81000000D03*
%TD*%
D33*
%TO.N,GND*%
X124100000Y-103600000D02*
X122600000Y-103600000D01*
X124100000Y-101700000D02*
X124900000Y-100900000D01*
X101590000Y-95760000D02*
X101800000Y-95550000D01*
X121775000Y-104425000D02*
X122400000Y-103800000D01*
X120775000Y-104425000D02*
X121775000Y-104425000D01*
X93475000Y-103575000D02*
X93500000Y-103600000D01*
X101590000Y-97400000D02*
X101590000Y-95760000D01*
X91590000Y-103575000D02*
X93475000Y-103575000D01*
X122600000Y-103600000D02*
X122400000Y-103800000D01*
X124900000Y-100900000D02*
X125800000Y-100900000D01*
X101590000Y-99100000D02*
X101590000Y-97400000D01*
X124100000Y-103600000D02*
X124100000Y-101700000D01*
D34*
%TO.N,+5V*%
X136900000Y-78100000D02*
X136900000Y-80440000D01*
X162885000Y-76500000D02*
X138500000Y-76500000D01*
X166620000Y-80235000D02*
X162885000Y-76500000D01*
X136900000Y-80440000D02*
X135000000Y-82340000D01*
X138500000Y-76500000D02*
X136900000Y-78100000D01*
D33*
%TO.N,Net-(D2-A)*%
X180500000Y-76130000D02*
X180500000Y-78340000D01*
X180500000Y-78340000D02*
X180410000Y-78430000D01*
%TO.N,Line_1*%
X180500000Y-72830000D02*
X178682000Y-74648000D01*
X191800000Y-72830000D02*
X180500000Y-72830000D01*
X178682000Y-74648000D02*
X144299000Y-74648000D01*
X203100000Y-72830000D02*
X191800000Y-72830000D01*
X144299000Y-74648000D02*
X140336000Y-70685000D01*
%TO.N,Line_2*%
X191750000Y-86080000D02*
X180450000Y-86080000D01*
X203050000Y-86080000D02*
X191750000Y-86080000D01*
X170199000Y-75199000D02*
X142310000Y-75199000D01*
X180450000Y-85450000D02*
X170199000Y-75199000D01*
X142310000Y-75199000D02*
X137796000Y-70685000D01*
X180450000Y-86080000D02*
X180450000Y-85450000D01*
%TO.N,Net-(D3-A)*%
X180450000Y-91580000D02*
X180400000Y-91630000D01*
X180450000Y-89380000D02*
X180450000Y-91580000D01*
%TO.N,Net-(D4-A)*%
X191750000Y-91590000D02*
X191710000Y-91630000D01*
X191750000Y-89380000D02*
X191750000Y-91590000D01*
%TO.N,Net-(D5-A)*%
X191800000Y-78350000D02*
X191720000Y-78430000D01*
X191800000Y-76130000D02*
X191800000Y-78350000D01*
%TO.N,Net-(D6-A)*%
X203050000Y-91590000D02*
X203010000Y-91630000D01*
X203050000Y-89380000D02*
X203050000Y-91590000D01*
%TO.N,Line_3*%
X178750000Y-85500000D02*
X169000000Y-75750000D01*
X136545000Y-70166819D02*
X137277819Y-69434000D01*
X203100000Y-99430000D02*
X191800000Y-99430000D01*
X178750000Y-97630000D02*
X178750000Y-85500000D01*
X191800000Y-99430000D02*
X180550000Y-99430000D01*
X140500000Y-75750000D02*
X136545000Y-71795000D01*
X180550000Y-99430000D02*
X178750000Y-97630000D01*
X141625000Y-69434000D02*
X142876000Y-70685000D01*
X169000000Y-75750000D02*
X140500000Y-75750000D01*
X136545000Y-71795000D02*
X136545000Y-70166819D01*
X137277819Y-69434000D02*
X141625000Y-69434000D01*
%TO.N,Net-(D7-A)*%
X180550000Y-104850000D02*
X180420000Y-104980000D01*
X180550000Y-102730000D02*
X180550000Y-104850000D01*
%TO.N,Net-(D8-A)*%
X203100000Y-78350000D02*
X203020000Y-78430000D01*
X203100000Y-76130000D02*
X203100000Y-78350000D01*
%TO.N,Net-(D9-A)*%
X191800000Y-104910000D02*
X191730000Y-104980000D01*
X191800000Y-102730000D02*
X191800000Y-104910000D01*
%TO.N,Net-(D10-A)*%
X203100000Y-102730000D02*
X203100000Y-104910000D01*
X203100000Y-104910000D02*
X203030000Y-104980000D01*
%TO.N,Column_1*%
X180410000Y-80660000D02*
X180410000Y-82930000D01*
X186750000Y-92500000D02*
X188360000Y-94110000D01*
X166009000Y-69434000D02*
X172184000Y-69434000D01*
X172184000Y-69434000D02*
X175750000Y-73000000D01*
X188370000Y-82930000D02*
X180410000Y-82930000D01*
X188360000Y-100400000D02*
X188360000Y-102390000D01*
X164720000Y-68145000D02*
X166009000Y-69434000D01*
X187000000Y-103750000D02*
X187000000Y-105750000D01*
X188360000Y-94110000D02*
X188360000Y-96130000D01*
X175750000Y-76000000D02*
X180410000Y-80660000D01*
X188370000Y-85120000D02*
X188370000Y-82930000D01*
X188380000Y-109480000D02*
X180420000Y-109480000D01*
X188370000Y-87120000D02*
X188370000Y-89130000D01*
X175750000Y-75500000D02*
X175750000Y-76000000D01*
X187000000Y-105750000D02*
X188380000Y-107130000D01*
X186750000Y-90750000D02*
X186750000Y-92500000D01*
X188360000Y-98300000D02*
X188360000Y-96130000D01*
X188360000Y-102390000D02*
X187000000Y-103750000D01*
X180400000Y-96130000D02*
X188360000Y-96130000D01*
X188370000Y-89130000D02*
X186750000Y-90750000D01*
X188380000Y-107130000D02*
X188380000Y-109480000D01*
%TO.N,PWM_Mosfet*%
X114800000Y-85200000D02*
X114800000Y-74900000D01*
X114800000Y-74900000D02*
X123400000Y-66300000D01*
X155255000Y-66300000D02*
X157100000Y-68145000D01*
X123400000Y-66300000D02*
X155255000Y-66300000D01*
%TO.N,Column_2*%
X201000000Y-105900000D02*
X199690000Y-107210000D01*
X199700000Y-100400000D02*
X199700000Y-102900000D01*
X199680000Y-82930000D02*
X199680000Y-85100000D01*
X199900000Y-76600000D02*
X200900000Y-77600000D01*
X199690000Y-109480000D02*
X191730000Y-109480000D01*
X191710000Y-96130000D02*
X199670000Y-96130000D01*
X201000000Y-104200000D02*
X201000000Y-105900000D01*
X199680000Y-85100000D02*
X199680000Y-85180000D01*
X199680000Y-87180000D02*
X199680000Y-89580000D01*
X200846000Y-90746000D02*
X200846000Y-92454000D01*
X199900000Y-73600000D02*
X199900000Y-76600000D01*
X200900000Y-79300000D02*
X199680000Y-80520000D01*
X161285000Y-66500000D02*
X174000000Y-66500000D01*
X200846000Y-92454000D02*
X199670000Y-93630000D01*
X199670000Y-93630000D02*
X199670000Y-96130000D01*
X159640000Y-68145000D02*
X161285000Y-66500000D01*
X199690000Y-107210000D02*
X199690000Y-109480000D01*
X200900000Y-77600000D02*
X200900000Y-79300000D01*
X199700000Y-98300000D02*
X199670000Y-98270000D01*
X199670000Y-98270000D02*
X199670000Y-96130000D01*
X178400000Y-70900000D02*
X199900000Y-70900000D01*
X199680000Y-89580000D02*
X200846000Y-90746000D01*
X199700000Y-102900000D02*
X201000000Y-104200000D01*
X174000000Y-66500000D02*
X178400000Y-70900000D01*
X199680000Y-82930000D02*
X191720000Y-82930000D01*
X199680000Y-80520000D02*
X199680000Y-82930000D01*
%TO.N,Column_3*%
X212500000Y-92500000D02*
X210970000Y-94030000D01*
X210970000Y-102720000D02*
X212500000Y-104250000D01*
X148896000Y-69396000D02*
X153500000Y-74000000D01*
X144127000Y-69396000D02*
X148896000Y-69396000D01*
X210980000Y-82930000D02*
X203020000Y-82930000D01*
X142876000Y-68145000D02*
X144127000Y-69396000D01*
X210980000Y-88980000D02*
X212500000Y-90500000D01*
X153500000Y-74000000D02*
X177000000Y-74000000D01*
X179250000Y-71750000D02*
X209500000Y-71750000D01*
X177000000Y-74000000D02*
X179250000Y-71750000D01*
X210980000Y-82930000D02*
X210980000Y-88980000D01*
X210990000Y-109480000D02*
X203030000Y-109480000D01*
X212250000Y-74500000D02*
X212250000Y-80250000D01*
X212500000Y-106000000D02*
X210990000Y-107510000D01*
X210970000Y-96130000D02*
X210970000Y-102720000D01*
X212500000Y-104250000D02*
X212500000Y-106000000D01*
X210970000Y-94030000D02*
X210970000Y-96130000D01*
X212500000Y-90500000D02*
X212500000Y-92500000D01*
X210980000Y-81520000D02*
X210980000Y-82930000D01*
X203010000Y-96130000D02*
X210970000Y-96130000D01*
X210990000Y-107510000D02*
X210990000Y-109480000D01*
X212250000Y-80250000D02*
X210980000Y-81520000D01*
X209500000Y-71750000D02*
X212250000Y-74500000D01*
%TO.N,ADC_X*%
X167500000Y-111750000D02*
X168549000Y-112799000D01*
X168549000Y-115179000D02*
X169800000Y-116430000D01*
X163500000Y-111750000D02*
X167500000Y-111750000D01*
X162420000Y-110670000D02*
X163500000Y-111750000D01*
X162420000Y-109735000D02*
X162420000Y-110670000D01*
X168549000Y-112799000D02*
X168549000Y-115179000D01*
%TO.N,ADC_Y*%
X165971000Y-112971000D02*
X165971000Y-115141000D01*
X159880000Y-109735000D02*
X159880000Y-110880000D01*
X159880000Y-110880000D02*
X161301000Y-112301000D01*
X165301000Y-112301000D02*
X165971000Y-112971000D01*
X161301000Y-112301000D02*
X165301000Y-112301000D01*
X165971000Y-115141000D02*
X167260000Y-116430000D01*
%TO.N,+3.3V*%
X140570000Y-111230000D02*
X139340000Y-110000000D01*
D35*
X169335000Y-99735000D02*
X171200000Y-101600000D01*
X166620000Y-106580000D02*
X166620000Y-103095000D01*
X166250000Y-100930000D02*
X166250000Y-99735000D01*
X166580000Y-94720000D02*
X169040000Y-92260000D01*
D33*
X141859000Y-116430000D02*
X140570000Y-115141000D01*
D35*
X171200000Y-101600000D02*
X171200000Y-105200000D01*
X159560000Y-87700000D02*
X166580000Y-94720000D01*
X168700000Y-107700000D02*
X165500000Y-107700000D01*
X166620000Y-103095000D02*
X166620000Y-101300000D01*
X141565000Y-79800000D02*
X142800000Y-79800000D01*
X140800000Y-82840000D02*
X140800000Y-80565000D01*
X166250000Y-99735000D02*
X169335000Y-99735000D01*
X166620000Y-101300000D02*
X166250000Y-100930000D01*
X164960000Y-108240000D02*
X164960000Y-109735000D01*
X165500000Y-107700000D02*
X166620000Y-106580000D01*
X166250000Y-99735000D02*
X166250000Y-96565000D01*
X171200000Y-105200000D02*
X168700000Y-107700000D01*
X165500000Y-107700000D02*
X164960000Y-108240000D01*
X146900000Y-81000000D02*
X153600000Y-87700000D01*
X138800000Y-84840000D02*
X140800000Y-82840000D01*
X169040000Y-92260000D02*
X169040000Y-84235000D01*
X140800000Y-80565000D02*
X141565000Y-79800000D01*
D33*
X140570000Y-115141000D02*
X140570000Y-111230000D01*
D35*
X166580000Y-96235000D02*
X166580000Y-94720000D01*
X166250000Y-96565000D02*
X166580000Y-96235000D01*
X153600000Y-87700000D02*
X159560000Y-87700000D01*
D33*
%TO.N,Tilt_Sens*%
X134239000Y-113890000D02*
X134239000Y-110021000D01*
X134239000Y-110021000D02*
X134260000Y-110000000D01*
%TO.N,MISO*%
X164080000Y-96275000D02*
X164040000Y-96235000D01*
X164040000Y-99525000D02*
X164250000Y-99735000D01*
X164040000Y-96235000D02*
X164040000Y-99525000D01*
X164080000Y-99905000D02*
X164250000Y-99735000D01*
X164080000Y-103095000D02*
X164080000Y-99905000D01*
%TO.N,MOSI*%
X161540000Y-103095000D02*
X161540000Y-96275000D01*
X161540000Y-96275000D02*
X161500000Y-96235000D01*
%TO.N,SCK*%
X159000000Y-96275000D02*
X158960000Y-96235000D01*
X159000000Y-103095000D02*
X159000000Y-96275000D01*
%TO.N,CS*%
X156460000Y-103095000D02*
X156460000Y-96275000D01*
X156460000Y-96275000D02*
X156420000Y-96235000D01*
%TO.N,RX*%
X162500000Y-87000000D02*
X158000000Y-87000000D01*
X163960000Y-84235000D02*
X163960000Y-85540000D01*
X158000000Y-87000000D02*
X156460000Y-85460000D01*
X163960000Y-85540000D02*
X162500000Y-87000000D01*
X156460000Y-85460000D02*
X156460000Y-80235000D01*
%TO.N,SDA*%
X162449000Y-77199000D02*
X147941000Y-77199000D01*
X164080000Y-78830000D02*
X162449000Y-77199000D01*
X164080000Y-80235000D02*
X164080000Y-78830000D01*
X142840000Y-82340000D02*
X142800000Y-82340000D01*
X147941000Y-77199000D02*
X142800000Y-82340000D01*
%TO.N,TX*%
X157011000Y-82224000D02*
X159000000Y-80235000D01*
X161420000Y-85580000D02*
X160551000Y-86449000D01*
X161420000Y-84235000D02*
X161420000Y-85580000D01*
X158228232Y-86449000D02*
X157011000Y-85231768D01*
X157011000Y-85231768D02*
X157011000Y-82224000D01*
X160551000Y-86449000D02*
X158228232Y-86449000D01*
%TO.N,SCL*%
X141300000Y-84880000D02*
X138800000Y-87380000D01*
X142800000Y-84880000D02*
X141300000Y-84880000D01*
X145000000Y-82680000D02*
X145000000Y-80919232D01*
X142800000Y-84880000D02*
X145000000Y-82680000D01*
X145000000Y-80919232D02*
X148169232Y-77750000D01*
X138800000Y-87380000D02*
X135040000Y-87380000D01*
X148169232Y-77750000D02*
X160500000Y-77750000D01*
X161540000Y-78790000D02*
X161540000Y-80235000D01*
X135040000Y-87380000D02*
X135000000Y-87420000D01*
X160500000Y-77750000D02*
X161540000Y-78790000D01*
%TO.N,Net-(Q1-Pad2)*%
X109945000Y-85200000D02*
X112800000Y-85200000D01*
%TO.N,Net-(R4-Pad2)*%
X91590000Y-97575000D02*
X91590000Y-95575000D01*
%TD*%
%TA.AperFunction,Conductor*%
%TO.N,SYS_5V0*%
G36*
X129157016Y-114119685D02*
G01*
X129202771Y-114172489D01*
X129212715Y-114241647D01*
X129183690Y-114305203D01*
X129177658Y-114311681D01*
X129157684Y-114331654D01*
X129065643Y-114480875D01*
X129065641Y-114480880D01*
X129010494Y-114647302D01*
X129010493Y-114647309D01*
X129000000Y-114750013D01*
X129000000Y-116050000D01*
X131799999Y-116050000D01*
X131799999Y-114750028D01*
X131799998Y-114750013D01*
X131789505Y-114647302D01*
X131734358Y-114480880D01*
X131734356Y-114480875D01*
X131642315Y-114331654D01*
X131622342Y-114311681D01*
X131588857Y-114250358D01*
X131593841Y-114180666D01*
X131635713Y-114124733D01*
X131701177Y-114100316D01*
X131710023Y-114100000D01*
X132546510Y-114100000D01*
X132613549Y-114119685D01*
X132636707Y-114138909D01*
X133126444Y-114658031D01*
X133136565Y-114670237D01*
X133194526Y-114750013D01*
X133208896Y-114769792D01*
X133359208Y-114920104D01*
X133405221Y-114953534D01*
X133408836Y-114957366D01*
X133410501Y-114957370D01*
X133531184Y-115045051D01*
X133531186Y-115045052D01*
X133539946Y-115049516D01*
X133590742Y-115097491D01*
X133607536Y-115165312D01*
X133584998Y-115231447D01*
X133539946Y-115270484D01*
X133531182Y-115274949D01*
X133359213Y-115399890D01*
X133208890Y-115550213D01*
X133083951Y-115722179D01*
X132987444Y-115911585D01*
X132921753Y-116113760D01*
X132888500Y-116323713D01*
X132888500Y-116536286D01*
X132921753Y-116746239D01*
X132987444Y-116948414D01*
X133083951Y-117137820D01*
X133208890Y-117309786D01*
X133359213Y-117460109D01*
X133531179Y-117585048D01*
X133531181Y-117585049D01*
X133531184Y-117585051D01*
X133720588Y-117681557D01*
X133922757Y-117747246D01*
X134132713Y-117780500D01*
X134132714Y-117780500D01*
X134345286Y-117780500D01*
X134345287Y-117780500D01*
X134555243Y-117747246D01*
X134757412Y-117681557D01*
X134946816Y-117585051D01*
X135001572Y-117545269D01*
X135118786Y-117460109D01*
X135118788Y-117460106D01*
X135118792Y-117460104D01*
X135269104Y-117309792D01*
X135269106Y-117309788D01*
X135269109Y-117309786D01*
X135394048Y-117137820D01*
X135394047Y-117137820D01*
X135394051Y-117137816D01*
X135398514Y-117129054D01*
X135446488Y-117078259D01*
X135514308Y-117061463D01*
X135580444Y-117083999D01*
X135619486Y-117129056D01*
X135623951Y-117137820D01*
X135748890Y-117309786D01*
X135899213Y-117460109D01*
X136071179Y-117585048D01*
X136071181Y-117585049D01*
X136071184Y-117585051D01*
X136260588Y-117681557D01*
X136462757Y-117747246D01*
X136672713Y-117780500D01*
X136672714Y-117780500D01*
X136885286Y-117780500D01*
X136885287Y-117780500D01*
X137095243Y-117747246D01*
X137297412Y-117681557D01*
X137486816Y-117585051D01*
X137541572Y-117545269D01*
X137658786Y-117460109D01*
X137658788Y-117460106D01*
X137658792Y-117460104D01*
X137809104Y-117309792D01*
X137809106Y-117309788D01*
X137809109Y-117309786D01*
X137934048Y-117137820D01*
X137934047Y-117137820D01*
X137934051Y-117137816D01*
X137938514Y-117129054D01*
X137986488Y-117078259D01*
X138054308Y-117061463D01*
X138120444Y-117083999D01*
X138159486Y-117129056D01*
X138163951Y-117137820D01*
X138288890Y-117309786D01*
X138439213Y-117460109D01*
X138611179Y-117585048D01*
X138611181Y-117585049D01*
X138611184Y-117585051D01*
X138800588Y-117681557D01*
X139002757Y-117747246D01*
X139212713Y-117780500D01*
X139212714Y-117780500D01*
X139425286Y-117780500D01*
X139425287Y-117780500D01*
X139635243Y-117747246D01*
X139837412Y-117681557D01*
X140026816Y-117585051D01*
X140081572Y-117545269D01*
X140198786Y-117460109D01*
X140198788Y-117460106D01*
X140198792Y-117460104D01*
X140349104Y-117309792D01*
X140349106Y-117309788D01*
X140349109Y-117309786D01*
X140474048Y-117137820D01*
X140474047Y-117137820D01*
X140474051Y-117137816D01*
X140478514Y-117129054D01*
X140526488Y-117078259D01*
X140594308Y-117061463D01*
X140660444Y-117083999D01*
X140699486Y-117129056D01*
X140703951Y-117137820D01*
X140828890Y-117309786D01*
X140979213Y-117460109D01*
X141151179Y-117585048D01*
X141151181Y-117585049D01*
X141151184Y-117585051D01*
X141340588Y-117681557D01*
X141542757Y-117747246D01*
X141752713Y-117780500D01*
X141752714Y-117780500D01*
X141965286Y-117780500D01*
X141965287Y-117780500D01*
X142175243Y-117747246D01*
X142377412Y-117681557D01*
X142566816Y-117585051D01*
X142621572Y-117545269D01*
X142738786Y-117460109D01*
X142738788Y-117460106D01*
X142738792Y-117460104D01*
X142889104Y-117309792D01*
X142889106Y-117309788D01*
X142889109Y-117309786D01*
X142974890Y-117191717D01*
X143014051Y-117137816D01*
X143018793Y-117128508D01*
X143066763Y-117077711D01*
X143134583Y-117060911D01*
X143200719Y-117083445D01*
X143239763Y-117128500D01*
X143244373Y-117137547D01*
X143283728Y-117191716D01*
X143916037Y-116559408D01*
X143933075Y-116622993D01*
X143998901Y-116737007D01*
X144091993Y-116830099D01*
X144206007Y-116895925D01*
X144269590Y-116912962D01*
X143637282Y-117545269D01*
X143637282Y-117545270D01*
X143691449Y-117584624D01*
X143880782Y-117681095D01*
X144082870Y-117746757D01*
X144292754Y-117780000D01*
X144505246Y-117780000D01*
X144715127Y-117746757D01*
X144715130Y-117746757D01*
X144917217Y-117681095D01*
X145106554Y-117584622D01*
X145160716Y-117545270D01*
X145160717Y-117545270D01*
X144528408Y-116912962D01*
X144591993Y-116895925D01*
X144706007Y-116830099D01*
X144799099Y-116737007D01*
X144864925Y-116622993D01*
X144881962Y-116559409D01*
X145514270Y-117191717D01*
X145514270Y-117191716D01*
X145553622Y-117137555D01*
X145558232Y-117128507D01*
X145560862Y-117125722D01*
X145561793Y-117122005D01*
X145584662Y-117100520D01*
X145606205Y-117077709D01*
X145609924Y-117076787D01*
X145612716Y-117074165D01*
X145643570Y-117068454D01*
X145674025Y-117060912D01*
X145677650Y-117062147D01*
X145681419Y-117061450D01*
X145710465Y-117073328D01*
X145740161Y-117083447D01*
X145743573Y-117086868D01*
X145746089Y-117087897D01*
X145752766Y-117096084D01*
X145770256Y-117113620D01*
X145775251Y-117120746D01*
X145783949Y-117137816D01*
X145876973Y-117265853D01*
X145877537Y-117266658D01*
X145888398Y-117298807D01*
X145899798Y-117330757D01*
X145899853Y-117332715D01*
X145899900Y-117332852D01*
X145899862Y-117333003D01*
X145900000Y-117337836D01*
X145900000Y-118980500D01*
X145880315Y-119047539D01*
X145827511Y-119093294D01*
X145776000Y-119104500D01*
X127424000Y-119104500D01*
X127356961Y-119084815D01*
X127311206Y-119032011D01*
X127300000Y-118980500D01*
X127300000Y-117849986D01*
X129000001Y-117849986D01*
X129010494Y-117952697D01*
X129065641Y-118119119D01*
X129065643Y-118119124D01*
X129157684Y-118268345D01*
X129281654Y-118392315D01*
X129430875Y-118484356D01*
X129430880Y-118484358D01*
X129597302Y-118539505D01*
X129597309Y-118539506D01*
X129700019Y-118549999D01*
X130149999Y-118549999D01*
X130650000Y-118549999D01*
X131099972Y-118549999D01*
X131099986Y-118549998D01*
X131202697Y-118539505D01*
X131369119Y-118484358D01*
X131369124Y-118484356D01*
X131518345Y-118392315D01*
X131642315Y-118268345D01*
X131734356Y-118119124D01*
X131734358Y-118119119D01*
X131789505Y-117952697D01*
X131789506Y-117952690D01*
X131799999Y-117849986D01*
X131800000Y-117849973D01*
X131800000Y-116550000D01*
X130650000Y-116550000D01*
X130650000Y-118549999D01*
X130149999Y-118549999D01*
X130150000Y-118549998D01*
X130150000Y-116550000D01*
X129000001Y-116550000D01*
X129000001Y-117849986D01*
X127300000Y-117849986D01*
X127300000Y-114224000D01*
X127319685Y-114156961D01*
X127372489Y-114111206D01*
X127424000Y-114100000D01*
X129089977Y-114100000D01*
X129157016Y-114119685D01*
G37*
%TD.AperFunction*%
%TA.AperFunction,Conductor*%
G36*
X143577271Y-114991260D02*
G01*
X143644243Y-115011168D01*
X143649742Y-115014942D01*
X143654636Y-115018498D01*
X143691184Y-115045051D01*
X143700493Y-115049794D01*
X143751290Y-115097766D01*
X143768087Y-115165587D01*
X143745552Y-115231722D01*
X143700505Y-115270760D01*
X143691446Y-115275376D01*
X143691440Y-115275380D01*
X143637282Y-115314727D01*
X143637282Y-115314728D01*
X144269591Y-115947037D01*
X144206007Y-115964075D01*
X144091993Y-116029901D01*
X143998901Y-116122993D01*
X143933075Y-116237007D01*
X143916037Y-116300591D01*
X143283728Y-115668282D01*
X143283727Y-115668282D01*
X143244380Y-115722440D01*
X143244376Y-115722446D01*
X143239760Y-115731505D01*
X143191781Y-115782297D01*
X143123959Y-115799087D01*
X143057826Y-115776543D01*
X143018794Y-115731493D01*
X143014051Y-115722184D01*
X143014049Y-115722181D01*
X143014048Y-115722179D01*
X142889109Y-115550213D01*
X142738786Y-115399890D01*
X142566820Y-115274951D01*
X142558600Y-115270763D01*
X142558054Y-115270485D01*
X142554397Y-115267030D01*
X142549540Y-115265716D01*
X142529247Y-115243278D01*
X142507259Y-115222512D01*
X142506049Y-115217628D01*
X142502674Y-115213896D01*
X142497733Y-115184050D01*
X142490463Y-115154692D01*
X142492085Y-115149929D01*
X142491264Y-115144964D01*
X142503243Y-115117185D01*
X142512999Y-115088556D01*
X142517481Y-115084169D01*
X142518932Y-115080806D01*
X142529801Y-115072112D01*
X142545109Y-115057132D01*
X142551349Y-115052931D01*
X142566816Y-115045051D01*
X142614154Y-115010658D01*
X142615995Y-115009419D01*
X142647254Y-114999514D01*
X142678155Y-114988489D01*
X142682412Y-114988374D01*
X142682601Y-114988315D01*
X142682784Y-114988364D01*
X142685629Y-114988288D01*
X143577271Y-114991260D01*
G37*
%TD.AperFunction*%
%TA.AperFunction,Conductor*%
G36*
X145776416Y-114998591D02*
G01*
X145843387Y-115018498D01*
X145888965Y-115071454D01*
X145900000Y-115122589D01*
X145900000Y-115522162D01*
X145880315Y-115589201D01*
X145876322Y-115595042D01*
X145783951Y-115722182D01*
X145783945Y-115722190D01*
X145783944Y-115722190D01*
X145779202Y-115731499D01*
X145731227Y-115782293D01*
X145663405Y-115799087D01*
X145597271Y-115776548D01*
X145558234Y-115731495D01*
X145553626Y-115722452D01*
X145514270Y-115668282D01*
X145514269Y-115668282D01*
X144881962Y-116300590D01*
X144864925Y-116237007D01*
X144799099Y-116122993D01*
X144706007Y-116029901D01*
X144591993Y-115964075D01*
X144528409Y-115947037D01*
X145160716Y-115314728D01*
X145106547Y-115275373D01*
X145106547Y-115275372D01*
X145097500Y-115270763D01*
X145093465Y-115266952D01*
X145088122Y-115265459D01*
X145068340Y-115243222D01*
X145046706Y-115222788D01*
X145045372Y-115217402D01*
X145041684Y-115213256D01*
X145037065Y-115183854D01*
X145029912Y-115154966D01*
X145031702Y-115149713D01*
X145030841Y-115144232D01*
X145042849Y-115117003D01*
X145052451Y-115088832D01*
X145057388Y-115084039D01*
X145059036Y-115080304D01*
X145071070Y-115070759D01*
X145085406Y-115056846D01*
X145091247Y-115052983D01*
X145106816Y-115045051D01*
X145142967Y-115018785D01*
X145145243Y-115017281D01*
X145176117Y-115007777D01*
X145206556Y-114996917D01*
X145211863Y-114996774D01*
X145212021Y-114996726D01*
X145212165Y-114996766D01*
X145214031Y-114996716D01*
X145776416Y-114998591D01*
G37*
%TD.AperFunction*%
%TD*%
%TA.AperFunction,Conductor*%
%TO.N,+5V*%
G36*
X132543039Y-99219685D02*
G01*
X132588794Y-99272489D01*
X132600000Y-99324000D01*
X132600000Y-113470500D01*
X132580315Y-113537539D01*
X132527511Y-113583294D01*
X132476000Y-113594500D01*
X131710004Y-113594500D01*
X131692021Y-113594820D01*
X131684376Y-113595093D01*
X131683131Y-113595138D01*
X131683127Y-113595138D01*
X131683105Y-113595139D01*
X131665119Y-113596103D01*
X131665107Y-113596105D01*
X131629747Y-113603797D01*
X131560056Y-113598811D01*
X131504123Y-113556938D01*
X131479708Y-113491473D01*
X131494561Y-113423201D01*
X131515711Y-113394948D01*
X131642317Y-113268342D01*
X131734356Y-113119124D01*
X131734358Y-113119119D01*
X131789505Y-112952697D01*
X131789506Y-112952690D01*
X131799999Y-112849986D01*
X131800000Y-112849973D01*
X131800000Y-111550000D01*
X130650000Y-111550000D01*
X130650000Y-113549999D01*
X131099972Y-113549999D01*
X131099986Y-113549998D01*
X131201932Y-113539584D01*
X131270625Y-113552354D01*
X131321509Y-113600234D01*
X131338430Y-113668024D01*
X131316014Y-113734201D01*
X131302215Y-113750623D01*
X131289157Y-113763681D01*
X131227834Y-113797166D01*
X131201476Y-113800000D01*
X129598392Y-113800000D01*
X129531353Y-113780315D01*
X129517189Y-113769713D01*
X129510228Y-113763681D01*
X129501831Y-113756404D01*
X129464058Y-113697627D01*
X129464058Y-113627758D01*
X129501833Y-113568980D01*
X129565388Y-113539955D01*
X129595639Y-113539335D01*
X129700021Y-113549999D01*
X130149999Y-113549999D01*
X130150000Y-113549998D01*
X130150000Y-111550000D01*
X129000001Y-111550000D01*
X129000001Y-112849986D01*
X129010494Y-112952697D01*
X129065641Y-113119119D01*
X129065643Y-113119124D01*
X129157684Y-113268345D01*
X129286537Y-113397198D01*
X129320022Y-113458521D01*
X129315038Y-113528213D01*
X129273166Y-113584146D01*
X129207702Y-113608563D01*
X129181210Y-113607617D01*
X129089977Y-113594500D01*
X127424000Y-113594500D01*
X127356961Y-113574815D01*
X127311206Y-113522011D01*
X127300000Y-113470500D01*
X127300000Y-109750013D01*
X129000000Y-109750013D01*
X129000000Y-111050000D01*
X130150000Y-111050000D01*
X130650000Y-111050000D01*
X131799999Y-111050000D01*
X131799999Y-109750028D01*
X131799998Y-109750013D01*
X131789505Y-109647302D01*
X131734358Y-109480880D01*
X131734356Y-109480875D01*
X131642315Y-109331654D01*
X131518345Y-109207684D01*
X131369124Y-109115643D01*
X131369119Y-109115641D01*
X131202697Y-109060494D01*
X131202690Y-109060493D01*
X131099986Y-109050000D01*
X130650000Y-109050000D01*
X130650000Y-111050000D01*
X130150000Y-111050000D01*
X130150000Y-109050000D01*
X129700028Y-109050000D01*
X129700012Y-109050001D01*
X129597302Y-109060494D01*
X129430880Y-109115641D01*
X129430875Y-109115643D01*
X129281654Y-109207684D01*
X129157684Y-109331654D01*
X129065643Y-109480875D01*
X129065641Y-109480880D01*
X129010494Y-109647302D01*
X129010493Y-109647309D01*
X129000000Y-109750013D01*
X127300000Y-109750013D01*
X127300000Y-107553910D01*
X128922924Y-107553910D01*
X128929325Y-107613438D01*
X128929327Y-107613445D01*
X128979569Y-107748152D01*
X128979573Y-107748159D01*
X129065733Y-107863253D01*
X129065736Y-107863256D01*
X129180830Y-107949416D01*
X129180837Y-107949420D01*
X129315544Y-107999662D01*
X129315551Y-107999664D01*
X129375079Y-108006065D01*
X129375096Y-108006066D01*
X130200000Y-108006066D01*
X130700000Y-108006066D01*
X131524904Y-108006066D01*
X131524920Y-108006065D01*
X131584448Y-107999664D01*
X131584455Y-107999662D01*
X131719162Y-107949420D01*
X131719169Y-107949416D01*
X131834263Y-107863256D01*
X131834266Y-107863253D01*
X131920426Y-107748159D01*
X131920430Y-107748152D01*
X131970672Y-107613445D01*
X131970674Y-107613438D01*
X131977075Y-107553910D01*
X131977076Y-107553893D01*
X131977076Y-106150000D01*
X130700000Y-106150000D01*
X130700000Y-108006066D01*
X130200000Y-108006066D01*
X130200000Y-106150000D01*
X128922924Y-106150000D01*
X128922924Y-107553910D01*
X127300000Y-107553910D01*
X127300000Y-107000000D01*
X126476158Y-107000000D01*
X126409119Y-106980315D01*
X126373669Y-106944865D01*
X126373482Y-106945006D01*
X126372507Y-106943704D01*
X126371844Y-106943041D01*
X126370831Y-106941466D01*
X126370829Y-106941463D01*
X126370825Y-106941457D01*
X126341085Y-106907135D01*
X126325076Y-106888659D01*
X126325072Y-106888656D01*
X126325070Y-106888653D01*
X126216336Y-106794433D01*
X126216333Y-106794431D01*
X126216331Y-106794430D01*
X126085465Y-106734664D01*
X126085460Y-106734662D01*
X126085459Y-106734662D01*
X126018420Y-106714977D01*
X126018422Y-106714977D01*
X126018417Y-106714976D01*
X125970944Y-106708150D01*
X125876000Y-106694500D01*
X125720782Y-106694500D01*
X125653743Y-106674815D01*
X125607988Y-106622011D01*
X125598044Y-106552853D01*
X125604600Y-106527166D01*
X125620673Y-106484071D01*
X125620674Y-106484067D01*
X125627075Y-106424539D01*
X125627076Y-106424522D01*
X125627076Y-106150000D01*
X124224000Y-106150000D01*
X124156961Y-106130315D01*
X124111206Y-106077511D01*
X124100000Y-106026000D01*
X124100000Y-105774000D01*
X124119685Y-105706961D01*
X124172489Y-105661206D01*
X124224000Y-105650000D01*
X125627076Y-105650000D01*
X125627076Y-105375477D01*
X125627075Y-105375460D01*
X125620674Y-105315932D01*
X125620672Y-105315925D01*
X125570430Y-105181218D01*
X125570426Y-105181211D01*
X125484266Y-105066117D01*
X125484263Y-105066114D01*
X125369169Y-104979954D01*
X125369162Y-104979950D01*
X125262537Y-104940182D01*
X125206603Y-104898311D01*
X125182186Y-104832847D01*
X125197038Y-104764574D01*
X125246443Y-104715168D01*
X125305870Y-104700000D01*
X127300000Y-104700000D01*
X127300000Y-104246089D01*
X128922924Y-104246089D01*
X128922924Y-105650000D01*
X130200000Y-105650000D01*
X130700000Y-105650000D01*
X131977076Y-105650000D01*
X131977076Y-104246106D01*
X131977075Y-104246089D01*
X131970674Y-104186561D01*
X131970672Y-104186554D01*
X131920430Y-104051847D01*
X131920426Y-104051840D01*
X131834266Y-103936746D01*
X131834263Y-103936743D01*
X131719169Y-103850583D01*
X131719162Y-103850579D01*
X131584455Y-103800337D01*
X131584448Y-103800335D01*
X131524920Y-103793934D01*
X130700000Y-103793934D01*
X130700000Y-105650000D01*
X130200000Y-105650000D01*
X130200000Y-103793934D01*
X129375079Y-103793934D01*
X129315551Y-103800335D01*
X129315544Y-103800337D01*
X129180837Y-103850579D01*
X129180830Y-103850583D01*
X129065736Y-103936743D01*
X129065733Y-103936746D01*
X128979573Y-104051840D01*
X128979569Y-104051847D01*
X128929327Y-104186554D01*
X128929325Y-104186561D01*
X128922924Y-104246089D01*
X127300000Y-104246089D01*
X127300000Y-101599986D01*
X127675001Y-101599986D01*
X127685494Y-101702697D01*
X127740641Y-101869119D01*
X127740643Y-101869124D01*
X127832684Y-102018345D01*
X127956654Y-102142315D01*
X128105875Y-102234356D01*
X128105880Y-102234358D01*
X128272302Y-102289505D01*
X128272309Y-102289506D01*
X128375019Y-102299999D01*
X128499999Y-102299999D01*
X129000000Y-102299999D01*
X129124972Y-102299999D01*
X129124986Y-102299998D01*
X129227697Y-102289505D01*
X129394119Y-102234358D01*
X129394124Y-102234356D01*
X129543345Y-102142315D01*
X129667315Y-102018345D01*
X129759356Y-101869124D01*
X129759358Y-101869119D01*
X129814505Y-101702697D01*
X129814506Y-101702690D01*
X129824999Y-101599986D01*
X129825000Y-101599973D01*
X129825000Y-101150000D01*
X129000000Y-101150000D01*
X129000000Y-102299999D01*
X128499999Y-102299999D01*
X128500000Y-102299998D01*
X128500000Y-101150000D01*
X127675001Y-101150000D01*
X127675001Y-101599986D01*
X127300000Y-101599986D01*
X127300000Y-100200013D01*
X127675000Y-100200013D01*
X127675000Y-100650000D01*
X128500000Y-100650000D01*
X129000000Y-100650000D01*
X129824999Y-100650000D01*
X129824999Y-100200028D01*
X129824998Y-100200013D01*
X129814505Y-100097302D01*
X129759358Y-99930880D01*
X129759356Y-99930875D01*
X129667315Y-99781654D01*
X129543345Y-99657684D01*
X129394124Y-99565643D01*
X129394119Y-99565641D01*
X129227697Y-99510494D01*
X129227690Y-99510493D01*
X129124986Y-99500000D01*
X129000000Y-99500000D01*
X129000000Y-100650000D01*
X128500000Y-100650000D01*
X128500000Y-99500000D01*
X128375027Y-99500000D01*
X128375012Y-99500001D01*
X128272302Y-99510494D01*
X128105880Y-99565641D01*
X128105875Y-99565643D01*
X127956654Y-99657684D01*
X127832684Y-99781654D01*
X127740643Y-99930875D01*
X127740641Y-99930880D01*
X127685494Y-100097302D01*
X127685493Y-100097309D01*
X127675000Y-100200013D01*
X127300000Y-100200013D01*
X127300000Y-99324000D01*
X127319685Y-99256961D01*
X127372489Y-99211206D01*
X127424000Y-99200000D01*
X132476000Y-99200000D01*
X132543039Y-99219685D01*
G37*
%TD.AperFunction*%
%TD*%
%TA.AperFunction,Conductor*%
%TO.N,+VBATT*%
G36*
X100114185Y-99569184D02*
G01*
X100122340Y-99567866D01*
X100147261Y-99578723D01*
X100173380Y-99586256D01*
X100178819Y-99592472D01*
X100186395Y-99595773D01*
X100201491Y-99618383D01*
X100219390Y-99638838D01*
X100224552Y-99651889D01*
X100240048Y-99698652D01*
X100255186Y-99744334D01*
X100347288Y-99893656D01*
X100471344Y-100017712D01*
X100614280Y-100105875D01*
X100620668Y-100109815D01*
X100631170Y-100113294D01*
X100643863Y-100117500D01*
X100697029Y-100152255D01*
X100897525Y-100375028D01*
X101100000Y-100600000D01*
X114348638Y-100600000D01*
X114415677Y-100619685D01*
X114436319Y-100636319D01*
X119700000Y-105900000D01*
X121866634Y-105900000D01*
X121933673Y-105919685D01*
X121962194Y-105944979D01*
X122899596Y-107078581D01*
X122927148Y-107142789D01*
X122915613Y-107211700D01*
X122868653Y-107263435D01*
X122847372Y-107273783D01*
X122830838Y-107279950D01*
X122830830Y-107279954D01*
X122715736Y-107366114D01*
X122715733Y-107366117D01*
X122629573Y-107481211D01*
X122629569Y-107481218D01*
X122579327Y-107615925D01*
X122579325Y-107615932D01*
X122572924Y-107675460D01*
X122572924Y-107950000D01*
X125627076Y-107950000D01*
X125627076Y-107675477D01*
X125627075Y-107675460D01*
X125620674Y-107615932D01*
X125620672Y-107615925D01*
X125570430Y-107481218D01*
X125570429Y-107481216D01*
X125508366Y-107398311D01*
X125483949Y-107332847D01*
X125498800Y-107264574D01*
X125548205Y-107215168D01*
X125607633Y-107200000D01*
X125876000Y-107200000D01*
X125943039Y-107219685D01*
X125988794Y-107272489D01*
X126000000Y-107324000D01*
X126000000Y-109876000D01*
X125980315Y-109943039D01*
X125927511Y-109988794D01*
X125876000Y-110000000D01*
X116999999Y-110000000D01*
X116000000Y-110999999D01*
X116000000Y-115876000D01*
X115980315Y-115943039D01*
X115927511Y-115988794D01*
X115876000Y-116000000D01*
X110124000Y-116000000D01*
X110056961Y-115980315D01*
X110011206Y-115927511D01*
X110000000Y-115876000D01*
X110000000Y-110207155D01*
X111010000Y-110207155D01*
X111010000Y-111985000D01*
X111889175Y-111985000D01*
X111865364Y-112042485D01*
X111840000Y-112169996D01*
X111840000Y-112300004D01*
X111865364Y-112427515D01*
X111889175Y-112485000D01*
X111010000Y-112485000D01*
X111010000Y-114262844D01*
X111016401Y-114322372D01*
X111016403Y-114322379D01*
X111066645Y-114457086D01*
X111066649Y-114457093D01*
X111152809Y-114572187D01*
X111152812Y-114572190D01*
X111267906Y-114658350D01*
X111267913Y-114658354D01*
X111402620Y-114708596D01*
X111402627Y-114708598D01*
X111462155Y-114714999D01*
X111462172Y-114715000D01*
X112250000Y-114715000D01*
X112250000Y-112845824D01*
X112307485Y-112869636D01*
X112434996Y-112895000D01*
X112565004Y-112895000D01*
X112692515Y-112869636D01*
X112750000Y-112845824D01*
X112750000Y-114715000D01*
X113537828Y-114715000D01*
X113537844Y-114714999D01*
X113597372Y-114708598D01*
X113597379Y-114708596D01*
X113732086Y-114658354D01*
X113732093Y-114658350D01*
X113847187Y-114572190D01*
X113847190Y-114572187D01*
X113933350Y-114457093D01*
X113933354Y-114457086D01*
X113983596Y-114322379D01*
X113983598Y-114322372D01*
X113989999Y-114262844D01*
X113990000Y-114262827D01*
X113990000Y-112485000D01*
X113110825Y-112485000D01*
X113134636Y-112427515D01*
X113160000Y-112300004D01*
X113160000Y-112169996D01*
X113134636Y-112042485D01*
X113110825Y-111985000D01*
X113990000Y-111985000D01*
X113990000Y-110207172D01*
X113989999Y-110207155D01*
X113983598Y-110147627D01*
X113983596Y-110147620D01*
X113933354Y-110012913D01*
X113933350Y-110012906D01*
X113847190Y-109897812D01*
X113847187Y-109897809D01*
X113732093Y-109811649D01*
X113732086Y-109811645D01*
X113597379Y-109761403D01*
X113597372Y-109761401D01*
X113537844Y-109755000D01*
X112750000Y-109755000D01*
X112750000Y-111624175D01*
X112692515Y-111600364D01*
X112565004Y-111575000D01*
X112434996Y-111575000D01*
X112307485Y-111600364D01*
X112250000Y-111624175D01*
X112250000Y-109755000D01*
X111462155Y-109755000D01*
X111402627Y-109761401D01*
X111402620Y-109761403D01*
X111267913Y-109811645D01*
X111267906Y-109811649D01*
X111152812Y-109897809D01*
X111152809Y-109897812D01*
X111066649Y-110012906D01*
X111066645Y-110012913D01*
X111016403Y-110147620D01*
X111016401Y-110147627D01*
X111010000Y-110207155D01*
X110000000Y-110207155D01*
X110000000Y-110000000D01*
X108724539Y-108724539D01*
X122572924Y-108724539D01*
X122579325Y-108784067D01*
X122579327Y-108784074D01*
X122629569Y-108918781D01*
X122629573Y-108918788D01*
X122715733Y-109033882D01*
X122715736Y-109033885D01*
X122830830Y-109120045D01*
X122830837Y-109120049D01*
X122965544Y-109170291D01*
X122965551Y-109170293D01*
X123025079Y-109176694D01*
X123025096Y-109176695D01*
X123850000Y-109176695D01*
X124350000Y-109176695D01*
X125174904Y-109176695D01*
X125174920Y-109176694D01*
X125234448Y-109170293D01*
X125234455Y-109170291D01*
X125369162Y-109120049D01*
X125369169Y-109120045D01*
X125484263Y-109033885D01*
X125484266Y-109033882D01*
X125570426Y-108918788D01*
X125570430Y-108918781D01*
X125620672Y-108784074D01*
X125620674Y-108784067D01*
X125627075Y-108724539D01*
X125627076Y-108724522D01*
X125627076Y-108450000D01*
X124350000Y-108450000D01*
X124350000Y-109176695D01*
X123850000Y-109176695D01*
X123850000Y-108450000D01*
X122572924Y-108450000D01*
X122572924Y-108724539D01*
X108724539Y-108724539D01*
X107749986Y-107749986D01*
X119375001Y-107749986D01*
X119385494Y-107852697D01*
X119440641Y-108019119D01*
X119440643Y-108019124D01*
X119532684Y-108168345D01*
X119656654Y-108292315D01*
X119805875Y-108384356D01*
X119805880Y-108384358D01*
X119972302Y-108439505D01*
X119972309Y-108439506D01*
X120075019Y-108449999D01*
X120524999Y-108449999D01*
X121025000Y-108449999D01*
X121474972Y-108449999D01*
X121474986Y-108449998D01*
X121577697Y-108439505D01*
X121744119Y-108384358D01*
X121744124Y-108384356D01*
X121892075Y-108293099D01*
X121892077Y-108293098D01*
X121892078Y-108293098D01*
X121893342Y-108292318D01*
X122017315Y-108168345D01*
X122109356Y-108019124D01*
X122109358Y-108019119D01*
X122164505Y-107852697D01*
X122164506Y-107852690D01*
X122174999Y-107749986D01*
X122175000Y-107749973D01*
X122175000Y-107625000D01*
X121025000Y-107625000D01*
X121025000Y-108449999D01*
X120524999Y-108449999D01*
X120525000Y-108449998D01*
X120525000Y-107625000D01*
X119375001Y-107625000D01*
X119375001Y-107749986D01*
X107749986Y-107749986D01*
X107000013Y-107000013D01*
X119375000Y-107000013D01*
X119375000Y-107125000D01*
X120525000Y-107125000D01*
X121025000Y-107125000D01*
X122174999Y-107125000D01*
X122174999Y-107000028D01*
X122174998Y-107000013D01*
X122164505Y-106897302D01*
X122109358Y-106730880D01*
X122109356Y-106730875D01*
X122017315Y-106581654D01*
X121893345Y-106457684D01*
X121744124Y-106365643D01*
X121744119Y-106365641D01*
X121577697Y-106310494D01*
X121577690Y-106310493D01*
X121474986Y-106300000D01*
X121025000Y-106300000D01*
X121025000Y-107125000D01*
X120525000Y-107125000D01*
X120525000Y-106300000D01*
X120075028Y-106300000D01*
X120075012Y-106300001D01*
X119972302Y-106310494D01*
X119805880Y-106365641D01*
X119805875Y-106365643D01*
X119656654Y-106457684D01*
X119532684Y-106581654D01*
X119440643Y-106730875D01*
X119440641Y-106730880D01*
X119385494Y-106897302D01*
X119385493Y-106897309D01*
X119375000Y-107000013D01*
X107000013Y-107000013D01*
X105000000Y-105000000D01*
X97424000Y-105000000D01*
X97356961Y-104980315D01*
X97311206Y-104927511D01*
X97300000Y-104876000D01*
X97300000Y-102174986D01*
X97842501Y-102174986D01*
X97852994Y-102277697D01*
X97908141Y-102444119D01*
X97908143Y-102444124D01*
X98000184Y-102593345D01*
X98124154Y-102717315D01*
X98273375Y-102809356D01*
X98273380Y-102809358D01*
X98439802Y-102864505D01*
X98439809Y-102864506D01*
X98542519Y-102874999D01*
X98692499Y-102874999D01*
X98692500Y-102874998D01*
X98692500Y-101525000D01*
X99192500Y-101525000D01*
X99192500Y-102874999D01*
X99342472Y-102874999D01*
X99342486Y-102874998D01*
X99445197Y-102864505D01*
X99611619Y-102809358D01*
X99611624Y-102809356D01*
X99760845Y-102717315D01*
X99884817Y-102593343D01*
X99969620Y-102455855D01*
X100021568Y-102409130D01*
X100090530Y-102397907D01*
X100154612Y-102425750D01*
X100193469Y-102483819D01*
X100198517Y-102508347D01*
X100200494Y-102527697D01*
X100255641Y-102694119D01*
X100255643Y-102694124D01*
X100347684Y-102843345D01*
X100471654Y-102967315D01*
X100620875Y-103059356D01*
X100620880Y-103059358D01*
X100787302Y-103114505D01*
X100787309Y-103114506D01*
X100890019Y-103124999D01*
X101339999Y-103124999D01*
X101840000Y-103124999D01*
X102289972Y-103124999D01*
X102289986Y-103124998D01*
X102392697Y-103114505D01*
X102559119Y-103059358D01*
X102559124Y-103059356D01*
X102708345Y-102967315D01*
X102832315Y-102843345D01*
X102924356Y-102694124D01*
X102924358Y-102694119D01*
X102979505Y-102527697D01*
X102979506Y-102527690D01*
X102989999Y-102424986D01*
X102990000Y-102424973D01*
X102990000Y-102300000D01*
X101840000Y-102300000D01*
X101840000Y-103124999D01*
X101339999Y-103124999D01*
X101340000Y-103124998D01*
X101340000Y-101800000D01*
X101840000Y-101800000D01*
X102989999Y-101800000D01*
X102989999Y-101675028D01*
X102989998Y-101675013D01*
X102979505Y-101572302D01*
X102924358Y-101405880D01*
X102924356Y-101405875D01*
X102832315Y-101256654D01*
X102708345Y-101132684D01*
X102559124Y-101040643D01*
X102559119Y-101040641D01*
X102392697Y-100985494D01*
X102392690Y-100985493D01*
X102289986Y-100975000D01*
X101840000Y-100975000D01*
X101840000Y-101800000D01*
X101340000Y-101800000D01*
X101340000Y-100975000D01*
X100890028Y-100975000D01*
X100890012Y-100975001D01*
X100787302Y-100985494D01*
X100620880Y-101040641D01*
X100620875Y-101040643D01*
X100471654Y-101132684D01*
X100347684Y-101256654D01*
X100255643Y-101405875D01*
X100255639Y-101405884D01*
X100236177Y-101464616D01*
X100196404Y-101522060D01*
X100131887Y-101548882D01*
X100063112Y-101536566D01*
X100047051Y-101525000D01*
X99192500Y-101525000D01*
X98692500Y-101525000D01*
X97842501Y-101525000D01*
X97842501Y-102174986D01*
X97300000Y-102174986D01*
X97300000Y-99829500D01*
X97319685Y-99762461D01*
X97372489Y-99716706D01*
X97424000Y-99705500D01*
X97951977Y-99705500D01*
X98019016Y-99725185D01*
X98064771Y-99777989D01*
X98074715Y-99847147D01*
X98045690Y-99910703D01*
X98039658Y-99917181D01*
X98000184Y-99956654D01*
X97908143Y-100105875D01*
X97908141Y-100105880D01*
X97852994Y-100272302D01*
X97852993Y-100272309D01*
X97842500Y-100375013D01*
X97842500Y-101025000D01*
X100042499Y-101025000D01*
X100042499Y-100375028D01*
X100042498Y-100375013D01*
X100032005Y-100272302D01*
X99976858Y-100105880D01*
X99976856Y-100105875D01*
X99884815Y-99956654D01*
X99807783Y-99879622D01*
X99774298Y-99818299D01*
X99779282Y-99748607D01*
X99821154Y-99692674D01*
X99841985Y-99680066D01*
X99850695Y-99675902D01*
X99912435Y-99657449D01*
X99975850Y-99628117D01*
X100046077Y-99582503D01*
X100053367Y-99579019D01*
X100080199Y-99574680D01*
X100106246Y-99566895D01*
X100114185Y-99569184D01*
G37*
%TD.AperFunction*%
%TD*%
%TA.AperFunction,Conductor*%
%TO.N,+6V*%
G36*
X106343039Y-85625185D02*
G01*
X106388794Y-85677989D01*
X106400000Y-85729500D01*
X106400000Y-91648638D01*
X106380315Y-91715677D01*
X106363681Y-91736319D01*
X104036319Y-94063681D01*
X103974996Y-94097166D01*
X103948638Y-94100000D01*
X100766666Y-94100000D01*
X100766665Y-94100001D01*
X100510000Y-94320000D01*
X100510000Y-94797844D01*
X100491539Y-94862940D01*
X100465189Y-94905659D01*
X100465186Y-94905666D01*
X100410001Y-95072203D01*
X100410001Y-95072204D01*
X100410000Y-95072204D01*
X100399500Y-95174983D01*
X100399500Y-95925001D01*
X100399501Y-95925019D01*
X100410000Y-96027796D01*
X100410001Y-96027799D01*
X100426569Y-96077797D01*
X100465186Y-96194334D01*
X100491539Y-96237060D01*
X100510000Y-96302155D01*
X100510000Y-98092269D01*
X100490315Y-98159308D01*
X100473682Y-98179950D01*
X100347287Y-98306345D01*
X100255187Y-98455663D01*
X100255186Y-98455666D01*
X100200001Y-98622203D01*
X100200001Y-98622204D01*
X100200000Y-98622204D01*
X100189500Y-98724983D01*
X100189500Y-98740420D01*
X100169815Y-98807459D01*
X100147155Y-98833739D01*
X99763637Y-99169319D01*
X99700222Y-99198651D01*
X99681982Y-99200000D01*
X93884894Y-99200000D01*
X93817855Y-99180315D01*
X93805511Y-99171259D01*
X93044617Y-98537180D01*
X93005718Y-98479141D01*
X93000000Y-98441921D01*
X93000000Y-97974988D01*
X93262501Y-97974988D01*
X93272994Y-98077699D01*
X93328140Y-98244120D01*
X93328142Y-98244125D01*
X93420183Y-98393346D01*
X93544153Y-98517316D01*
X93693374Y-98609357D01*
X93693379Y-98609359D01*
X93859801Y-98664505D01*
X93962517Y-98674999D01*
X96412499Y-98674999D01*
X96912500Y-98674999D01*
X99362474Y-98674999D01*
X99362488Y-98674998D01*
X99465199Y-98664505D01*
X99631620Y-98609359D01*
X99631625Y-98609357D01*
X99780846Y-98517316D01*
X99904816Y-98393346D01*
X99996857Y-98244125D01*
X99996859Y-98244120D01*
X100052005Y-98077698D01*
X100062499Y-97974988D01*
X100062500Y-97974975D01*
X100062500Y-95225000D01*
X96912500Y-95225000D01*
X96912500Y-98674999D01*
X96412499Y-98674999D01*
X96412500Y-98674998D01*
X96412500Y-95225000D01*
X93262501Y-95225000D01*
X93262501Y-97974988D01*
X93000000Y-97974988D01*
X93000000Y-95400001D01*
X92999999Y-95399999D01*
X92852776Y-95265045D01*
X92852775Y-95265044D01*
X92828987Y-95243238D01*
X92792871Y-95183427D01*
X92789420Y-95164433D01*
X92779999Y-95072203D01*
X92724814Y-94905666D01*
X92632712Y-94756344D01*
X92538695Y-94662327D01*
X92505210Y-94601004D01*
X92510194Y-94531312D01*
X92538695Y-94486964D01*
X92632317Y-94393342D01*
X92724356Y-94244124D01*
X92724358Y-94244119D01*
X92779505Y-94077697D01*
X92779506Y-94077690D01*
X92789999Y-93974986D01*
X92790000Y-93974973D01*
X92790000Y-93825000D01*
X90390001Y-93825000D01*
X90390001Y-93974986D01*
X90400494Y-94077697D01*
X90455641Y-94244119D01*
X90455643Y-94244124D01*
X90547686Y-94393349D01*
X90548746Y-94394689D01*
X90549186Y-94395780D01*
X90551475Y-94399491D01*
X90550840Y-94399882D01*
X90574884Y-94459485D01*
X90561841Y-94528126D01*
X90513759Y-94578820D01*
X90453027Y-94595586D01*
X90152268Y-94599346D01*
X90084988Y-94580501D01*
X90063037Y-94563037D01*
X89436319Y-93936319D01*
X89402834Y-93874996D01*
X89400000Y-93848638D01*
X89400000Y-93175013D01*
X90390000Y-93175013D01*
X90390000Y-93325000D01*
X91340000Y-93325000D01*
X91840000Y-93325000D01*
X92789999Y-93325000D01*
X92789999Y-93175028D01*
X92789998Y-93175013D01*
X92779505Y-93072302D01*
X92724358Y-92905880D01*
X92724356Y-92905875D01*
X92632315Y-92756654D01*
X92508345Y-92632684D01*
X92359124Y-92540643D01*
X92359119Y-92540641D01*
X92192697Y-92485494D01*
X92192690Y-92485493D01*
X92089986Y-92475000D01*
X91840000Y-92475000D01*
X91840000Y-93325000D01*
X91340000Y-93325000D01*
X91340000Y-92475000D01*
X91090029Y-92475000D01*
X91090012Y-92475001D01*
X90987302Y-92485494D01*
X90820880Y-92540641D01*
X90820875Y-92540643D01*
X90671654Y-92632684D01*
X90547684Y-92756654D01*
X90455643Y-92905875D01*
X90455641Y-92905880D01*
X90400494Y-93072302D01*
X90400493Y-93072309D01*
X90390000Y-93175013D01*
X89400000Y-93175013D01*
X89400000Y-91975011D01*
X93262500Y-91975011D01*
X93262500Y-94725000D01*
X96412500Y-94725000D01*
X96912500Y-94725000D01*
X100062499Y-94725000D01*
X100062499Y-92974986D01*
X100400001Y-92974986D01*
X100410494Y-93077697D01*
X100465641Y-93244119D01*
X100465642Y-93244121D01*
X100557684Y-93393345D01*
X100681654Y-93517315D01*
X100830875Y-93609356D01*
X100830880Y-93609358D01*
X100997302Y-93664505D01*
X100997309Y-93664506D01*
X101100019Y-93674999D01*
X101549999Y-93674999D01*
X102050000Y-93674999D01*
X102499972Y-93674999D01*
X102499986Y-93674998D01*
X102602697Y-93664505D01*
X102769119Y-93609358D01*
X102769124Y-93609356D01*
X102918345Y-93517315D01*
X103042315Y-93393345D01*
X103134358Y-93244121D01*
X103134358Y-93244119D01*
X103189505Y-93077697D01*
X103189506Y-93077690D01*
X103199999Y-92974986D01*
X103200000Y-92974973D01*
X103200000Y-92850000D01*
X102050000Y-92850000D01*
X102050000Y-93674999D01*
X101549999Y-93674999D01*
X101550000Y-93674998D01*
X101550000Y-92850000D01*
X100400001Y-92850000D01*
X100400001Y-92974986D01*
X100062499Y-92974986D01*
X100062499Y-92225013D01*
X100400000Y-92225013D01*
X100400000Y-92350000D01*
X101550000Y-92350000D01*
X102050000Y-92350000D01*
X103199999Y-92350000D01*
X103199999Y-92225028D01*
X103199998Y-92225013D01*
X103189505Y-92122302D01*
X103134358Y-91955880D01*
X103134356Y-91955875D01*
X103042315Y-91806654D01*
X102918345Y-91682684D01*
X102769124Y-91590643D01*
X102769119Y-91590641D01*
X102602697Y-91535494D01*
X102602690Y-91535493D01*
X102499986Y-91525000D01*
X102050000Y-91525000D01*
X102050000Y-92350000D01*
X101550000Y-92350000D01*
X101550000Y-91525000D01*
X101100028Y-91525000D01*
X101100012Y-91525001D01*
X100997302Y-91535494D01*
X100830880Y-91590641D01*
X100830875Y-91590643D01*
X100681654Y-91682684D01*
X100557684Y-91806654D01*
X100465643Y-91955875D01*
X100465641Y-91955880D01*
X100410494Y-92122302D01*
X100410493Y-92122309D01*
X100400000Y-92225013D01*
X100062499Y-92225013D01*
X100062499Y-91975026D01*
X100062498Y-91975011D01*
X100052005Y-91872300D01*
X99996859Y-91705879D01*
X99996857Y-91705874D01*
X99904816Y-91556653D01*
X99780846Y-91432683D01*
X99631625Y-91340642D01*
X99631620Y-91340640D01*
X99465198Y-91285494D01*
X99362488Y-91275000D01*
X96912500Y-91275000D01*
X96912500Y-94725000D01*
X96412500Y-94725000D01*
X96412500Y-91275000D01*
X93962526Y-91275000D01*
X93962510Y-91275001D01*
X93859800Y-91285494D01*
X93693379Y-91340640D01*
X93693374Y-91340642D01*
X93544153Y-91432683D01*
X93420183Y-91556653D01*
X93328142Y-91705874D01*
X93328140Y-91705879D01*
X93272994Y-91872301D01*
X93262500Y-91975011D01*
X89400000Y-91975011D01*
X89400000Y-86962155D01*
X94520000Y-86962155D01*
X94520000Y-87750000D01*
X96389175Y-87750000D01*
X96365364Y-87807485D01*
X96340000Y-87934996D01*
X96340000Y-88065004D01*
X96365364Y-88192515D01*
X96389175Y-88250000D01*
X94520000Y-88250000D01*
X94520000Y-89037844D01*
X94526401Y-89097372D01*
X94526403Y-89097379D01*
X94576645Y-89232086D01*
X94576649Y-89232093D01*
X94662809Y-89347187D01*
X94662812Y-89347190D01*
X94777906Y-89433350D01*
X94777913Y-89433354D01*
X94912620Y-89483596D01*
X94912627Y-89483598D01*
X94972155Y-89489999D01*
X94972172Y-89490000D01*
X96750000Y-89490000D01*
X96750000Y-88610824D01*
X96807485Y-88634636D01*
X96934996Y-88660000D01*
X97065004Y-88660000D01*
X97192515Y-88634636D01*
X97250000Y-88610824D01*
X97250000Y-89490000D01*
X99027828Y-89490000D01*
X99027844Y-89489999D01*
X99087372Y-89483598D01*
X99087379Y-89483596D01*
X99222086Y-89433354D01*
X99222093Y-89433350D01*
X99337187Y-89347190D01*
X99337190Y-89347187D01*
X99423350Y-89232093D01*
X99423354Y-89232086D01*
X99473596Y-89097379D01*
X99473598Y-89097372D01*
X99479999Y-89037844D01*
X99480000Y-89037827D01*
X99480000Y-88250000D01*
X97610825Y-88250000D01*
X97634636Y-88192515D01*
X97660000Y-88065004D01*
X97660000Y-87934996D01*
X97634636Y-87807485D01*
X97610825Y-87750000D01*
X99480000Y-87750000D01*
X99480000Y-87123322D01*
X103900001Y-87123322D01*
X103910144Y-87222607D01*
X103963452Y-87383481D01*
X103963457Y-87383492D01*
X104052424Y-87527728D01*
X104052427Y-87527732D01*
X104172267Y-87647572D01*
X104172271Y-87647575D01*
X104316507Y-87736542D01*
X104316518Y-87736547D01*
X104477393Y-87789855D01*
X104576683Y-87799999D01*
X104749999Y-87799999D01*
X105250000Y-87799999D01*
X105423308Y-87799999D01*
X105423322Y-87799998D01*
X105522607Y-87789855D01*
X105683481Y-87736547D01*
X105683492Y-87736542D01*
X105827728Y-87647575D01*
X105827732Y-87647572D01*
X105947572Y-87527732D01*
X105947575Y-87527728D01*
X106036542Y-87383492D01*
X106036547Y-87383481D01*
X106089855Y-87222606D01*
X106099999Y-87123322D01*
X106100000Y-87123309D01*
X106100000Y-87100000D01*
X105250000Y-87100000D01*
X105250000Y-87799999D01*
X104749999Y-87799999D01*
X104750000Y-87799998D01*
X104750000Y-87100000D01*
X103900001Y-87100000D01*
X103900001Y-87123322D01*
X99480000Y-87123322D01*
X99480000Y-86962172D01*
X99479999Y-86962155D01*
X99473598Y-86902627D01*
X99473596Y-86902620D01*
X99423354Y-86767913D01*
X99423352Y-86767910D01*
X99337186Y-86652809D01*
X99235488Y-86576677D01*
X103900000Y-86576677D01*
X103900000Y-86600000D01*
X104750000Y-86600000D01*
X105250000Y-86600000D01*
X106099999Y-86600000D01*
X106099999Y-86576692D01*
X106099998Y-86576677D01*
X106089855Y-86477392D01*
X106036547Y-86316518D01*
X106036542Y-86316507D01*
X105947575Y-86172271D01*
X105947572Y-86172267D01*
X105827732Y-86052427D01*
X105827728Y-86052424D01*
X105683492Y-85963457D01*
X105683481Y-85963452D01*
X105522606Y-85910144D01*
X105423322Y-85900000D01*
X105250000Y-85900000D01*
X105250000Y-86600000D01*
X104750000Y-86600000D01*
X104750000Y-85900000D01*
X104576693Y-85900000D01*
X104576676Y-85900001D01*
X104477392Y-85910144D01*
X104316518Y-85963452D01*
X104316507Y-85963457D01*
X104172271Y-86052424D01*
X104172267Y-86052427D01*
X104052427Y-86172267D01*
X104052424Y-86172271D01*
X103963457Y-86316507D01*
X103963452Y-86316518D01*
X103910144Y-86477393D01*
X103900000Y-86576677D01*
X99235488Y-86576677D01*
X99222093Y-86566649D01*
X99222086Y-86566645D01*
X99087379Y-86516403D01*
X99087372Y-86516401D01*
X99027844Y-86510000D01*
X97250000Y-86510000D01*
X97250000Y-87389175D01*
X97192515Y-87365364D01*
X97065004Y-87340000D01*
X96934996Y-87340000D01*
X96807485Y-87365364D01*
X96750000Y-87389175D01*
X96750000Y-86510000D01*
X94972155Y-86510000D01*
X94912627Y-86516401D01*
X94912620Y-86516403D01*
X94777913Y-86566645D01*
X94777906Y-86566649D01*
X94662812Y-86652809D01*
X94662809Y-86652812D01*
X94576649Y-86767906D01*
X94576645Y-86767913D01*
X94526403Y-86902620D01*
X94526401Y-86902627D01*
X94520000Y-86962155D01*
X89400000Y-86962155D01*
X89400000Y-85729500D01*
X89419685Y-85662461D01*
X89472489Y-85616706D01*
X89524000Y-85605500D01*
X106276000Y-85605500D01*
X106343039Y-85625185D01*
G37*
%TD.AperFunction*%
%TD*%
%TA.AperFunction,Conductor*%
%TO.N,Net-(U3-ADJ)*%
G36*
X92579592Y-98769685D02*
G01*
X92615556Y-98804962D01*
X92624706Y-98818614D01*
X92624709Y-98818618D01*
X92682561Y-98882840D01*
X92721004Y-98925516D01*
X93481898Y-99559595D01*
X93506497Y-99578838D01*
X93518841Y-99587894D01*
X93544558Y-99605567D01*
X93675435Y-99665338D01*
X93742474Y-99685023D01*
X93742478Y-99685024D01*
X93884894Y-99705500D01*
X93884897Y-99705500D01*
X94881728Y-99705500D01*
X94937182Y-99718591D01*
X95431454Y-99965727D01*
X95482613Y-100013314D01*
X95500000Y-100076636D01*
X95500000Y-102376000D01*
X95480315Y-102443039D01*
X95427511Y-102488794D01*
X95376000Y-102500000D01*
X92258070Y-102500000D01*
X92219067Y-102493706D01*
X92192801Y-102485002D01*
X92192798Y-102485001D01*
X92192797Y-102485001D01*
X92192793Y-102485000D01*
X92192790Y-102485000D01*
X92090010Y-102474500D01*
X91089998Y-102474500D01*
X91089980Y-102474501D01*
X90987203Y-102485000D01*
X90966982Y-102491701D01*
X90960932Y-102493706D01*
X90921929Y-102500000D01*
X90624000Y-102500000D01*
X90556961Y-102480315D01*
X90511206Y-102427511D01*
X90500000Y-102376000D01*
X90500000Y-98874000D01*
X90519685Y-98806961D01*
X90572489Y-98761206D01*
X90624000Y-98750000D01*
X92512553Y-98750000D01*
X92579592Y-98769685D01*
G37*
%TD.AperFunction*%
%TD*%
%TA.AperFunction,Conductor*%
%TO.N,Net-(D1-A)*%
G36*
X112343039Y-79669685D02*
G01*
X112388794Y-79722489D01*
X112400000Y-79774000D01*
X112400000Y-83876000D01*
X112380315Y-83943039D01*
X112327511Y-83988794D01*
X112276000Y-84000000D01*
X111000921Y-84000000D01*
X110933882Y-83980315D01*
X110888127Y-83927511D01*
X110878183Y-83858353D01*
X110907208Y-83794797D01*
X110928035Y-83775682D01*
X110938741Y-83767902D01*
X110938742Y-83767902D01*
X111100402Y-83606242D01*
X111234788Y-83421276D01*
X111338582Y-83217570D01*
X111409234Y-83000128D01*
X111423509Y-82910000D01*
X110435748Y-82910000D01*
X110457518Y-82872292D01*
X110495000Y-82732409D01*
X110495000Y-82587591D01*
X110457518Y-82447708D01*
X110435748Y-82410000D01*
X111423509Y-82410000D01*
X111409234Y-82319871D01*
X111338582Y-82102429D01*
X111234788Y-81898723D01*
X111100402Y-81713757D01*
X110938742Y-81552097D01*
X110753776Y-81417711D01*
X110550068Y-81313917D01*
X110332625Y-81243265D01*
X110332626Y-81243265D01*
X110195000Y-81221467D01*
X110195000Y-82169252D01*
X110157292Y-82147482D01*
X110017409Y-82110000D01*
X109872591Y-82110000D01*
X109732708Y-82147482D01*
X109695000Y-82169252D01*
X109695000Y-81221467D01*
X109557374Y-81243265D01*
X109339931Y-81313917D01*
X109136223Y-81417711D01*
X108951257Y-81552097D01*
X108789597Y-81713757D01*
X108655211Y-81898723D01*
X108551417Y-82102429D01*
X108480765Y-82319871D01*
X108466491Y-82410000D01*
X109454252Y-82410000D01*
X109432482Y-82447708D01*
X109395000Y-82587591D01*
X109395000Y-82732409D01*
X109432482Y-82872292D01*
X109454252Y-82910000D01*
X108466491Y-82910000D01*
X108480765Y-83000128D01*
X108551417Y-83217570D01*
X108655211Y-83421276D01*
X108789597Y-83606242D01*
X108951257Y-83767902D01*
X108961965Y-83775682D01*
X109004630Y-83831012D01*
X109010609Y-83900626D01*
X108978003Y-83962420D01*
X108917164Y-83996778D01*
X108889079Y-84000000D01*
X107699999Y-84000000D01*
X106543957Y-85067116D01*
X106481344Y-85098123D01*
X106459850Y-85100000D01*
X89524000Y-85100000D01*
X89456961Y-85080315D01*
X89411206Y-85027511D01*
X89400000Y-84976000D01*
X89400000Y-82750000D01*
X94541023Y-82750000D01*
X96389175Y-82750000D01*
X96365364Y-82807485D01*
X96340000Y-82934996D01*
X96340000Y-83065004D01*
X96365364Y-83192515D01*
X96389175Y-83250000D01*
X94541023Y-83250000D01*
X94556688Y-83348905D01*
X94556688Y-83348906D01*
X94629164Y-83571963D01*
X94735638Y-83780930D01*
X94873494Y-83970672D01*
X95039327Y-84136505D01*
X95229069Y-84274361D01*
X95438034Y-84380835D01*
X95661090Y-84453310D01*
X95892735Y-84490000D01*
X96750000Y-84490000D01*
X96750000Y-83610824D01*
X96807485Y-83634636D01*
X96934996Y-83660000D01*
X97065004Y-83660000D01*
X97192515Y-83634636D01*
X97250000Y-83610824D01*
X97250000Y-84490000D01*
X98107265Y-84490000D01*
X98338909Y-84453310D01*
X98561965Y-84380835D01*
X98770930Y-84274361D01*
X98960672Y-84136505D01*
X99126505Y-83970672D01*
X99233561Y-83823322D01*
X103900001Y-83823322D01*
X103910144Y-83922607D01*
X103963452Y-84083481D01*
X103963457Y-84083492D01*
X104052424Y-84227728D01*
X104052427Y-84227732D01*
X104172267Y-84347572D01*
X104172271Y-84347575D01*
X104316507Y-84436542D01*
X104316518Y-84436547D01*
X104477393Y-84489855D01*
X104576683Y-84499999D01*
X104749999Y-84499999D01*
X105250000Y-84499999D01*
X105423308Y-84499999D01*
X105423322Y-84499998D01*
X105522607Y-84489855D01*
X105683481Y-84436547D01*
X105683492Y-84436542D01*
X105827728Y-84347575D01*
X105827732Y-84347572D01*
X105947572Y-84227732D01*
X105947575Y-84227728D01*
X106036542Y-84083492D01*
X106036547Y-84083481D01*
X106089855Y-83922606D01*
X106099999Y-83823322D01*
X106100000Y-83823309D01*
X106100000Y-83800000D01*
X105250000Y-83800000D01*
X105250000Y-84499999D01*
X104749999Y-84499999D01*
X104750000Y-84499998D01*
X104750000Y-83800000D01*
X103900001Y-83800000D01*
X103900001Y-83823322D01*
X99233561Y-83823322D01*
X99264361Y-83780930D01*
X99309499Y-83692343D01*
X99370835Y-83571963D01*
X99443311Y-83348906D01*
X99443311Y-83348905D01*
X99454752Y-83276677D01*
X103900000Y-83276677D01*
X103900000Y-83300000D01*
X104750000Y-83300000D01*
X105250000Y-83300000D01*
X106099999Y-83300000D01*
X106099999Y-83276692D01*
X106099998Y-83276677D01*
X106089855Y-83177392D01*
X106036547Y-83016518D01*
X106036542Y-83016507D01*
X105947575Y-82872271D01*
X105947572Y-82872267D01*
X105827732Y-82752427D01*
X105827728Y-82752424D01*
X105683492Y-82663457D01*
X105683481Y-82663452D01*
X105522606Y-82610144D01*
X105423322Y-82600000D01*
X105250000Y-82600000D01*
X105250000Y-83300000D01*
X104750000Y-83300000D01*
X104750000Y-82600000D01*
X104576693Y-82600000D01*
X104576676Y-82600001D01*
X104477392Y-82610144D01*
X104316518Y-82663452D01*
X104316507Y-82663457D01*
X104172271Y-82752424D01*
X104172267Y-82752427D01*
X104052427Y-82872267D01*
X104052424Y-82872271D01*
X103963457Y-83016507D01*
X103963452Y-83016518D01*
X103910144Y-83177393D01*
X103900000Y-83276677D01*
X99454752Y-83276677D01*
X99458323Y-83254130D01*
X99458323Y-83254129D01*
X99458977Y-83250000D01*
X97610825Y-83250000D01*
X97634636Y-83192515D01*
X97660000Y-83065004D01*
X97660000Y-82934996D01*
X97634636Y-82807485D01*
X97610825Y-82750000D01*
X99458977Y-82750000D01*
X99443311Y-82651094D01*
X99389468Y-82485381D01*
X99370835Y-82428036D01*
X99264361Y-82219069D01*
X99126505Y-82029327D01*
X98960672Y-81863494D01*
X98770930Y-81725638D01*
X98561965Y-81619164D01*
X98338909Y-81546689D01*
X98107265Y-81510000D01*
X97250000Y-81510000D01*
X97250000Y-82389175D01*
X97192515Y-82365364D01*
X97065004Y-82340000D01*
X96934996Y-82340000D01*
X96807485Y-82365364D01*
X96750000Y-82389175D01*
X96750000Y-81510000D01*
X95892735Y-81510000D01*
X95661090Y-81546689D01*
X95438034Y-81619164D01*
X95229069Y-81725638D01*
X95039327Y-81863494D01*
X94873494Y-82029327D01*
X94735638Y-82219069D01*
X94629164Y-82428036D01*
X94556688Y-82651093D01*
X94556688Y-82651094D01*
X94541023Y-82750000D01*
X89400000Y-82750000D01*
X89400000Y-79774000D01*
X89419685Y-79706961D01*
X89472489Y-79661206D01*
X89524000Y-79650000D01*
X112276000Y-79650000D01*
X112343039Y-79669685D01*
G37*
%TD.AperFunction*%
%TD*%
M02*
