%TF.GenerationSoftware,KiCad,Pcbnew,9.0.1*%
%TF.CreationDate,2025-05-05T17:36:54+02:00*%
%TF.ProjectId,Geocachingbox,47656f63-6163-4686-996e-67626f782e6b,rev?*%
%TF.SameCoordinates,Original*%
%TF.FileFunction,Soldermask,Top*%
%TF.FilePolarity,Negative*%
%FSLAX46Y46*%
G04 Gerber Fmt 4.6, Leading zero omitted, Abs format (unit mm)*
G04 Created by KiCad (PCBNEW 9.0.1) date 2025-05-05 17:36:54*
%MOMM*%
%LPD*%
G01*
G04 APERTURE LIST*
G04 Aperture macros list*
%AMRoundRect*
0 Rectangle with rounded corners*
0 $1 Rounding radius*
0 $2 $3 $4 $5 $6 $7 $8 $9 X,Y pos of 4 corners*
0 Add a 4 corners polygon primitive as box body*
4,1,4,$2,$3,$4,$5,$6,$7,$8,$9,$2,$3,0*
0 Add four circle primitives for the rounded corners*
1,1,$1+$1,$2,$3*
1,1,$1+$1,$4,$5*
1,1,$1+$1,$6,$7*
1,1,$1+$1,$8,$9*
0 Add four rect primitives between the rounded corners*
20,1,$1+$1,$2,$3,$4,$5,0*
20,1,$1+$1,$4,$5,$6,$7,0*
20,1,$1+$1,$6,$7,$8,$9,0*
20,1,$1+$1,$8,$9,$2,$3,0*%
G04 Aperture macros list end*
%ADD10RoundRect,0.225000X-0.375000X0.225000X-0.375000X-0.225000X0.375000X-0.225000X0.375000X0.225000X0*%
%ADD11R,1.700000X1.700000*%
%ADD12C,1.700000*%
%ADD13RoundRect,0.250000X0.650000X-1.500000X0.650000X1.500000X-0.650000X1.500000X-0.650000X-1.500000X0*%
%ADD14RoundRect,0.250000X0.325000X0.650000X-0.325000X0.650000X-0.325000X-0.650000X0.325000X-0.650000X0*%
%ADD15R,1.980000X3.960000*%
%ADD16O,1.980000X3.960000*%
%ADD17R,1.550000X1.300000*%
%ADD18C,3.200000*%
%ADD19R,3.960000X1.980000*%
%ADD20O,3.960000X1.980000*%
%ADD21R,2.000000X1.905000*%
%ADD22O,2.000000X1.905000*%
%ADD23RoundRect,0.250000X-0.450000X0.350000X-0.450000X-0.350000X0.450000X-0.350000X0.450000X0.350000X0*%
%ADD24RoundRect,0.250000X0.450000X-0.350000X0.450000X0.350000X-0.450000X0.350000X-0.450000X-0.350000X0*%
%ADD25RoundRect,0.250000X-0.650000X0.325000X-0.650000X-0.325000X0.650000X-0.325000X0.650000X0.325000X0*%
%ADD26R,2.054151X0.953389*%
%ADD27R,2.054151X3.212132*%
%ADD28RoundRect,0.250000X0.350000X0.450000X-0.350000X0.450000X-0.350000X-0.450000X0.350000X-0.450000X0*%
%ADD29RoundRect,0.250000X0.650000X-0.325000X0.650000X0.325000X-0.650000X0.325000X-0.650000X-0.325000X0*%
%ADD30RoundRect,0.225000X0.375000X-0.225000X0.375000X0.225000X-0.375000X0.225000X-0.375000X-0.225000X0*%
%ADD31RoundRect,0.250000X0.350000X-0.850000X0.350000X0.850000X-0.350000X0.850000X-0.350000X-0.850000X0*%
%ADD32RoundRect,0.249997X2.650003X-2.950003X2.650003X2.950003X-2.650003X2.950003X-2.650003X-2.950003X0*%
G04 APERTURE END LIST*
D10*
%TO.C,D10*%
X203100000Y-99430000D03*
X203100000Y-102730000D03*
%TD*%
D11*
%TO.C,J9*%
X134260000Y-110000000D03*
D12*
X136800000Y-110000000D03*
X139340000Y-110000000D03*
%TD*%
D13*
%TO.C,D11*%
X130400000Y-116300000D03*
X130400000Y-111300000D03*
%TD*%
D14*
%TO.C,C3*%
X128750000Y-100900000D03*
X125800000Y-100900000D03*
%TD*%
D15*
%TO.C,3BAT1*%
X112500000Y-112235000D03*
D16*
X107500000Y-112235000D03*
%TD*%
D11*
%TO.C,J3*%
X169800000Y-113890000D03*
D12*
X169800000Y-116430000D03*
X167260000Y-113890000D03*
X167260000Y-116430000D03*
X164720000Y-113890000D03*
X164720000Y-116430000D03*
X162180000Y-113890000D03*
X162180000Y-116430000D03*
X159640000Y-113890000D03*
X159640000Y-116430000D03*
X157100000Y-113890000D03*
X157100000Y-116430000D03*
%TD*%
D17*
%TO.C,SW3*%
X203020000Y-78430000D03*
X210980000Y-78430000D03*
X203020000Y-82930000D03*
X210980000Y-82930000D03*
%TD*%
%TO.C,SW8*%
X191730000Y-104980000D03*
X199690000Y-104980000D03*
X191730000Y-109480000D03*
X199690000Y-109480000D03*
%TD*%
D11*
%TO.C,J2*%
X147956000Y-68145000D03*
D12*
X147956000Y-70685000D03*
X145416000Y-68145000D03*
X145416000Y-70685000D03*
X142876000Y-68145000D03*
X142876000Y-70685000D03*
X140336000Y-68145000D03*
X140336000Y-70685000D03*
X137796000Y-68145000D03*
X137796000Y-70685000D03*
X135256000Y-68145000D03*
X135256000Y-70685000D03*
X132716000Y-68145000D03*
X132716000Y-70685000D03*
X130176000Y-68145000D03*
X130176000Y-70685000D03*
X127636000Y-68145000D03*
X127636000Y-70685000D03*
X125096000Y-68145000D03*
X125096000Y-70685000D03*
%TD*%
D18*
%TO.C,H2*%
X89568985Y-67129000D03*
%TD*%
D11*
%TO.C,J10*%
X142800000Y-79800000D03*
D12*
X142800000Y-82340000D03*
X142800000Y-84880000D03*
X142800000Y-87420000D03*
%TD*%
D11*
%TO.C,J7*%
X169120000Y-96235000D03*
D12*
X166580000Y-96235000D03*
X164040000Y-96235000D03*
X161500000Y-96235000D03*
X158960000Y-96235000D03*
X156420000Y-96235000D03*
%TD*%
D11*
%TO.C,J5*%
X169160000Y-103095000D03*
D12*
X166620000Y-103095000D03*
X164080000Y-103095000D03*
X161540000Y-103095000D03*
X159000000Y-103095000D03*
X156460000Y-103095000D03*
X153920000Y-103095000D03*
X151380000Y-103095000D03*
%TD*%
D19*
%TO.C,J8*%
X97000000Y-88000000D03*
D20*
X97000000Y-83000000D03*
%TD*%
D10*
%TO.C,D6*%
X203050000Y-86080000D03*
X203050000Y-89380000D03*
%TD*%
%TO.C,D4*%
X191750000Y-86080000D03*
X191750000Y-89380000D03*
%TD*%
D21*
%TO.C,Q1*%
X109945000Y-87740000D03*
D22*
X109945000Y-85200000D03*
X109945000Y-82660000D03*
%TD*%
D10*
%TO.C,D7*%
X180550000Y-99430000D03*
X180550000Y-102730000D03*
%TD*%
D17*
%TO.C,SW6*%
X203010000Y-91630000D03*
X210970000Y-91630000D03*
X203010000Y-96130000D03*
X210970000Y-96130000D03*
%TD*%
%TO.C,SW5*%
X191710000Y-91630000D03*
X199670000Y-91630000D03*
X191710000Y-96130000D03*
X199670000Y-96130000D03*
%TD*%
%TO.C,SW7*%
X180420000Y-104980000D03*
X188380000Y-104980000D03*
X180420000Y-109480000D03*
X188380000Y-109480000D03*
%TD*%
D10*
%TO.C,D8*%
X203100000Y-72830000D03*
X203100000Y-76130000D03*
%TD*%
D23*
%TO.C,R3*%
X91590000Y-101575000D03*
X91590000Y-103575000D03*
%TD*%
D24*
%TO.C,R5*%
X91590000Y-99575000D03*
X91590000Y-97575000D03*
%TD*%
D10*
%TO.C,D9*%
X191800000Y-99430000D03*
X191800000Y-102730000D03*
%TD*%
%TO.C,D5*%
X191800000Y-72830000D03*
X191800000Y-76130000D03*
%TD*%
D11*
%TO.C,J6*%
X169160000Y-80235000D03*
D12*
X166620000Y-80235000D03*
X164080000Y-80235000D03*
X161540000Y-80235000D03*
X159000000Y-80235000D03*
X156460000Y-80235000D03*
X153920000Y-80235000D03*
X151380000Y-80235000D03*
%TD*%
D11*
%TO.C,J13*%
X135000000Y-79800000D03*
D12*
X135000000Y-82340000D03*
X135000000Y-84880000D03*
X135000000Y-87420000D03*
%TD*%
D17*
%TO.C,SW4*%
X180400000Y-91630000D03*
X188360000Y-91630000D03*
X180400000Y-96130000D03*
X188360000Y-96130000D03*
%TD*%
%TO.C,SW9*%
X203030000Y-104980000D03*
X210990000Y-104980000D03*
X203030000Y-109480000D03*
X210990000Y-109480000D03*
%TD*%
D11*
%TO.C,J4*%
X152019000Y-113890000D03*
D12*
X152019000Y-116430000D03*
X149479000Y-113890000D03*
X149479000Y-116430000D03*
X146939000Y-113890000D03*
X146939000Y-116430000D03*
X144399000Y-113890000D03*
X144399000Y-116430000D03*
X141859000Y-113890000D03*
X141859000Y-116430000D03*
X139319000Y-113890000D03*
X139319000Y-116430000D03*
X136779000Y-113890000D03*
X136779000Y-116430000D03*
X134239000Y-113890000D03*
X134239000Y-116430000D03*
%TD*%
D18*
%TO.C,H1*%
X89568000Y-117446000D03*
%TD*%
D11*
%TO.C,J1*%
X169800000Y-68145000D03*
D12*
X169800000Y-70685000D03*
X167260000Y-68145000D03*
X167260000Y-70685000D03*
X164720000Y-68145000D03*
X164720000Y-70685000D03*
X162180000Y-68145000D03*
X162180000Y-70685000D03*
X159640000Y-68145000D03*
X159640000Y-70685000D03*
X157100000Y-68145000D03*
X157100000Y-70685000D03*
X154560000Y-68145000D03*
X154560000Y-70685000D03*
X152020000Y-68145000D03*
X152020000Y-70685000D03*
%TD*%
D17*
%TO.C,SW1*%
X180410000Y-78430000D03*
X188370000Y-78430000D03*
X180410000Y-82930000D03*
X188370000Y-82930000D03*
%TD*%
D25*
%TO.C,C2*%
X101800000Y-92600000D03*
X101800000Y-95550000D03*
%TD*%
D23*
%TO.C,R4*%
X91590000Y-93575000D03*
X91590000Y-95575000D03*
%TD*%
D26*
%TO.C,U5*%
X124100000Y-103600000D03*
X124100000Y-105900000D03*
X124100000Y-108200000D03*
D27*
X130450000Y-105900000D03*
%TD*%
D28*
%TO.C,R2*%
X166250000Y-99735000D03*
X164250000Y-99735000D03*
%TD*%
D11*
%TO.C,J11*%
X169040000Y-84235000D03*
D12*
X166500000Y-84235000D03*
X163960000Y-84235000D03*
X161420000Y-84235000D03*
X158880000Y-84235000D03*
%TD*%
D10*
%TO.C,D2*%
X180500000Y-72830000D03*
X180500000Y-76130000D03*
%TD*%
D29*
%TO.C,C1*%
X120775000Y-107375000D03*
X120775000Y-104425000D03*
%TD*%
D11*
%TO.C,J12*%
X167500000Y-109735000D03*
D12*
X164960000Y-109735000D03*
X162420000Y-109735000D03*
X159880000Y-109735000D03*
X157340000Y-109735000D03*
%TD*%
D18*
%TO.C,H4*%
X186690000Y-67129000D03*
%TD*%
%TO.C,H3*%
X186680000Y-117446000D03*
%TD*%
D30*
%TO.C,D1*%
X105000000Y-86850000D03*
X105000000Y-83550000D03*
%TD*%
D11*
%TO.C,J14*%
X138800000Y-79760000D03*
D12*
X138800000Y-82300000D03*
X138800000Y-84840000D03*
X138800000Y-87380000D03*
X138800000Y-89920000D03*
X138800000Y-92460000D03*
X138800000Y-95000000D03*
%TD*%
D31*
%TO.C,U3*%
X94382500Y-101275000D03*
D32*
X96662500Y-94975000D03*
D31*
X98942500Y-101275000D03*
%TD*%
D17*
%TO.C,SW2*%
X191720000Y-78430000D03*
X199680000Y-78430000D03*
X191720000Y-82930000D03*
X199680000Y-82930000D03*
%TD*%
D28*
%TO.C,R1*%
X114800000Y-85200000D03*
X112800000Y-85200000D03*
%TD*%
D29*
%TO.C,C4*%
X101590000Y-102050000D03*
X101590000Y-99100000D03*
%TD*%
D10*
%TO.C,D3*%
X180450000Y-86080000D03*
X180450000Y-89380000D03*
%TD*%
M02*
