M48
; DRILL file {KiCad 9.0.1} date 2025-05-05T17:36:47+0200
; FORMAT={-:-/ absolute / inch / decimal}
; #@! TF.CreationDate,2025-05-05T17:36:47+02:00
; #@! TF.GenerationSoftware,Kicad,Pcbnew,9.0.1
; #@! TF.FileFunction,Plated,1,2,PTH
FMAT,2
INCH
; #@! TA.AperFunction,Plated,PTH,ViaDrill
T1C0.0118
; #@! TA.AperFunction,Plated,PTH,ComponentDrill
T2C0.0394
; #@! TA.AperFunction,Plated,PTH,ComponentDrill
T3C0.0433
; #@! TA.AperFunction,Plated,PTH,ComponentDrill
T4C0.0520
%
G90
G05
T1
X3.6811Y-4.0787
X3.9996Y-3.8346
X4.8189Y-4.086>
X5.783=Y-3.189
X>.9193Y-2.874
X6.9193Y-2.9724
X7.4157Y-3.8701
X7.4157Y-3.9528
X7.4161Y-3.3512
X7.4161Y-3.4299
X7.8614Y-3.3504
X7.8614Y-3.4323
X7.8622Y-3.8701
X7.8622Y-3.9528
X7.8701Y-2.7913
X7.8701Y-2.8976
T2
X4.925Y-2.6829
X4.925Y-2.7829
X7.025Y-2.6829
X5.025Y-2.7829
X7.125Y-2.6829
X5.125Y-2.7829
X7.225Y-2.6829
X5.225Y-2.7829
X7.285Y-4.4839
X5.285Y-<.5839
X5.2858Y-4.3307
X5.315Y-3.1417
X5.315Y-3.2417
X5.315Y-3.3417
X5.315Y-3.4417
X5.325Y-2.6829
X5.325Y-2.7829
X7.385Y-4.4839
X5.385Y-<.5839
X5.3858Y-4.3307
X5.425Y-2.6829
X5.425Y-2.7829
X7.4646Y-3.1402
X5.4646Y-3.2402
X5.4646Y-3.3402
X5.4646Y-3.4402
X5.4646Y-3.5402
X5.4646Y-3.6402
X5.4646Y-3.7402
X5.485Y-4.4839
X5.485Y-<.5839
X5.4858Y-4.3307
X5.525Y-2.6829
X5.525Y-2.7829
X7.585Y-4.4839
X5.585Y-<.5839
X5.622Y-3.1417
X5.622Y-3.2417
X5.622Y-3.3417
X5.622Y-3.4417
X5.625Y-2.6829
X5.625Y-2.7829
X7.685Y-4.4839
X5.685Y-<.5839
X5.725Y-2.6829
X5.725Y-2.7829
X7.785Y-4.4839
X5.785Y-<.5839
X5.825Y-2.6829
X5.825Y-2.7829
X7.885Y-4.4839
X5.885Y-<.5839
X5.9598Y-3.1589
X5.9598Y-4.0589
X5.985Y-4.4839
X5.985Y-4.5839
X5.985Y-2.6829
X5.985Y-2.7829
X6.0598Y-3.1589
X6.0598Y-4.0589
X6.085Y-2.6829
X6.085Y-2.7829
X6.1583Y-3.7888
X6.1598Y-3.1589
X6.1598Y-4.0589
X6.185Y-2.6829
X6.185Y-2.7829
X6.185Y-4.4839
X6.185Y-4.5839
X6.1945Y-4.3203
X6.2551Y-3.3163
X6.2583Y-3.7888
X6.2598Y-3.1589
X6.2598Y-4.0589
X6.285Y-2.6829
X6.285Y-2.7829
X6.285Y-4.4839
X6.285Y-4.5839
X6.2945Y-4.3203
X6.3551Y-3.3163
X6.3583Y-3.7888
X6.3598Y-3.1589
X6.3598Y-4.0589
X6.385Y-2.6829
X6.385Y-2.7829
X6.385Y-4.4839
X6.385Y-4.5839
X6.3945Y-4.3203
X6.4551Y-3.3163
X6.4583Y-3.7888
X6.4598Y-3.1589
X6.4598Y-4.0589
X6.485Y-2.6829
X6.485Y-2.7829
X6.485Y-4.4839
X6.485Y-4.5839
X6.4945Y-4.3203
X6.5551Y-3.3163
X6.5583Y-3.7888
X6.5598Y-3.1589
X6.5598Y-4.0589
X6.585Y-2.6829
X6.585Y-2.7829
X6.585Y-4.4839
X6.585Y-4.5839
X6.5945Y-4.3203
X6.6551Y-3.3163
X6.6583Y-3.7888
X6.6598Y-3.1589
X6.6598Y-4.0589
X6.685Y-2.6829
X6.685Y-2.7829
X6.685Y-4.4839
X6.685Y-4.5839
T3
X4.3285Y-3.2543
X4.3285Y-3.3543
X4.3285Y-3.4543
T4
X3.8189Y-3.2677
X3.8189Y-3.4646
X4.2323Y-4.4187
X4.4291Y-4.4187
M30
